%TF.GenerationSoftware,KiCad,Pcbnew,7.0.8*%
%TF.CreationDate,2023-11-14T18:00:56-08:00*%
%TF.ProjectId,guitar_pedal_4layer,67756974-6172-45f7-9065-64616c5f346c,rev?*%
%TF.SameCoordinates,Original*%
%TF.FileFunction,Copper,L4,Bot*%
%TF.FilePolarity,Positive*%
%FSLAX46Y46*%
G04 Gerber Fmt 4.6, Leading zero omitted, Abs format (unit mm)*
G04 Created by KiCad (PCBNEW 7.0.8) date 2023-11-14 18:00:56*
%MOMM*%
%LPD*%
G01*
G04 APERTURE LIST*
%TA.AperFunction,ComponentPad*%
%ADD10R,1.905000X2.000000*%
%TD*%
%TA.AperFunction,ComponentPad*%
%ADD11O,1.905000X2.000000*%
%TD*%
%TA.AperFunction,ComponentPad*%
%ADD12R,1.800000X1.800000*%
%TD*%
%TA.AperFunction,ComponentPad*%
%ADD13C,1.800000*%
%TD*%
%TA.AperFunction,ComponentPad*%
%ADD14C,3.000000*%
%TD*%
%TA.AperFunction,ComponentPad*%
%ADD15C,1.500000*%
%TD*%
%TA.AperFunction,ComponentPad*%
%ADD16R,1.700000X1.700000*%
%TD*%
%TA.AperFunction,ComponentPad*%
%ADD17O,1.700000X1.700000*%
%TD*%
%TA.AperFunction,ComponentPad*%
%ADD18R,3.302000X3.302000*%
%TD*%
%TA.AperFunction,ViaPad*%
%ADD19C,1.600000*%
%TD*%
%TA.AperFunction,Conductor*%
%ADD20C,0.250000*%
%TD*%
G04 APERTURE END LIST*
D10*
%TO.P,U2,1,IN*%
%TO.N,Net-(SW1-B)*%
X173990000Y-61285000D03*
D11*
%TO.P,U2,2,GND*%
%TO.N,GND*%
X176530000Y-61285000D03*
%TO.P,U2,3,OUT*%
%TO.N,+5V*%
X179070000Y-61285000D03*
%TD*%
D12*
%TO.P,D2,1,K*%
%TO.N,Net-(D2-K)*%
X152230000Y-101600000D03*
D13*
%TO.P,D2,2,A*%
%TO.N,Net-(D2-A)*%
X152230000Y-99060000D03*
%TD*%
D14*
%TO.P,J2,R*%
%TO.N,GND*%
X172720000Y-144780000D03*
%TO.P,J2,RN*%
%TO.N,unconnected-(J2-PadRN)*%
X172720000Y-128550000D03*
%TO.P,J2,S*%
%TO.N,GND*%
X166370000Y-144780000D03*
%TO.P,J2,SN*%
%TO.N,unconnected-(J2-PadSN)*%
X166370000Y-128550000D03*
%TO.P,J2,T*%
%TO.N,Net-(SW2-C2)*%
X179070000Y-144780000D03*
%TO.P,J2,TN*%
%TO.N,unconnected-(J2-PadTN)*%
X179070000Y-128550000D03*
%TD*%
D15*
%TO.P,Y1,1,1*%
%TO.N,Net-(U1-XTAL2)*%
X135980000Y-78700000D03*
%TO.P,Y1,2,2*%
%TO.N,Net-(U1-XTAL1)*%
X140860000Y-78700000D03*
%TD*%
D16*
%TO.P,RV1,1,1*%
%TO.N,GND*%
X146670000Y-53340000D03*
D17*
%TO.P,RV1,2,2*%
%TO.N,PA1*%
X149210000Y-53340000D03*
%TO.P,RV1,3,3*%
%TO.N,+5V*%
X151750000Y-53340000D03*
%TD*%
D16*
%TO.P,BT1,1,+*%
%TO.N,+9V*%
X163830000Y-53340000D03*
D17*
%TO.P,BT1,2,-*%
%TO.N,GND*%
X161290000Y-53340000D03*
%TD*%
D18*
%TO.P,SW2,1,A1*%
%TO.N,FX In*%
X146930000Y-112225000D03*
%TO.P,SW2,2,B1*%
%TO.N,Net-(D2-K)*%
X152230000Y-112225000D03*
%TO.P,SW2,3,C1*%
%TO.N,FX Out*%
X157530000Y-112225000D03*
%TO.P,SW2,4,A2*%
%TO.N,Net-(SW2-A2)*%
X146930000Y-116925000D03*
%TO.P,SW2,5,B2*%
%TO.N,GND*%
X152230000Y-116925000D03*
%TO.P,SW2,6,C2*%
%TO.N,Net-(SW2-C2)*%
X157530000Y-116925000D03*
%TO.P,SW2,7,A3*%
%TO.N,Net-(SW2-A3)*%
X146930000Y-121625000D03*
%TO.P,SW2,8,B3*%
%TO.N,unconnected-(SW2-B3-Pad8)*%
X152230000Y-121625000D03*
%TO.P,SW2,9,C3*%
%TO.N,Net-(SW2-A3)*%
X157530000Y-121625000D03*
%TD*%
D16*
%TO.P,SW1,1,A*%
%TO.N,+9V*%
X171450000Y-53340000D03*
D17*
%TO.P,SW1,2,B*%
%TO.N,Net-(SW1-B)*%
X173990000Y-53340000D03*
%TD*%
D14*
%TO.P,J1,R*%
%TO.N,GND*%
X131900000Y-128550000D03*
%TO.P,J1,RN*%
%TO.N,unconnected-(J1-PadRN)*%
X131900000Y-144780000D03*
%TO.P,J1,S*%
%TO.N,GND*%
X138250000Y-128550000D03*
%TO.P,J1,SN*%
%TO.N,unconnected-(J1-PadSN)*%
X138250000Y-144780000D03*
%TO.P,J1,T*%
%TO.N,Net-(SW2-A2)*%
X125550000Y-128550000D03*
%TO.P,J1,TN*%
%TO.N,unconnected-(J1-PadTN)*%
X125550000Y-144780000D03*
%TD*%
D19*
%TO.N,GND*%
X154735000Y-128550000D03*
X167435000Y-60960000D03*
X149860000Y-83820000D03*
X138430000Y-66040000D03*
X177595000Y-99060000D03*
X138430000Y-101600000D03*
X127000000Y-73660000D03*
X168910000Y-91440000D03*
%TO.N,+5V*%
X172515000Y-91440000D03*
X139495000Y-86360000D03*
X157275000Y-106680000D03*
X154735000Y-78740000D03*
%TO.N,Net-(J3-SCK)*%
X128270000Y-63500000D03*
X133350000Y-66040000D03*
%TO.N,PA0*%
X140970000Y-101600000D03*
X140970000Y-58420000D03*
%TD*%
D20*
%TO.N,GND*%
X154735000Y-119430000D02*
X152230000Y-116925000D01*
X138250000Y-128550000D02*
X131900000Y-128550000D01*
X154240000Y-128550000D02*
X154735000Y-129045000D01*
X154735000Y-129045000D02*
X154735000Y-133145000D01*
X166370000Y-144780000D02*
X172720000Y-144780000D01*
X154735000Y-129045000D02*
X154735000Y-119430000D01*
X154735000Y-133145000D02*
X166370000Y-144780000D01*
X138250000Y-128550000D02*
X154240000Y-128550000D01*
%TO.N,Net-(J3-SCK)*%
X130810000Y-63500000D02*
X128270000Y-63500000D01*
X133350000Y-66040000D02*
X130810000Y-63500000D01*
%TO.N,PA0*%
X143510000Y-93980000D02*
X140970000Y-96520000D01*
X140970000Y-58420000D02*
X143510000Y-60960000D01*
X140970000Y-96520000D02*
X140970000Y-101600000D01*
X143510000Y-60960000D02*
X143510000Y-93980000D01*
%TD*%
M02*
