%TF.GenerationSoftware,KiCad,Pcbnew,7.0.8*%
%TF.CreationDate,2023-11-14T18:00:56-08:00*%
%TF.ProjectId,guitar_pedal_4layer,67756974-6172-45f7-9065-64616c5f346c,rev?*%
%TF.SameCoordinates,Original*%
%TF.FileFunction,Legend,Top*%
%TF.FilePolarity,Positive*%
%FSLAX46Y46*%
G04 Gerber Fmt 4.6, Leading zero omitted, Abs format (unit mm)*
G04 Created by KiCad (PCBNEW 7.0.8) date 2023-11-14 18:00:56*
%MOMM*%
%LPD*%
G01*
G04 APERTURE LIST*
G04 Aperture macros list*
%AMRoundRect*
0 Rectangle with rounded corners*
0 $1 Rounding radius*
0 $2 $3 $4 $5 $6 $7 $8 $9 X,Y pos of 4 corners*
0 Add a 4 corners polygon primitive as box body*
4,1,4,$2,$3,$4,$5,$6,$7,$8,$9,$2,$3,0*
0 Add four circle primitives for the rounded corners*
1,1,$1+$1,$2,$3*
1,1,$1+$1,$4,$5*
1,1,$1+$1,$6,$7*
1,1,$1+$1,$8,$9*
0 Add four rect primitives between the rounded corners*
20,1,$1+$1,$2,$3,$4,$5,0*
20,1,$1+$1,$4,$5,$6,$7,0*
20,1,$1+$1,$6,$7,$8,$9,0*
20,1,$1+$1,$8,$9,$2,$3,0*%
G04 Aperture macros list end*
%ADD10C,0.100000*%
%ADD11C,0.150000*%
%ADD12C,0.203200*%
%ADD13C,0.120000*%
%ADD14R,3.302000X3.302000*%
%ADD15RoundRect,0.250000X0.312500X0.625000X-0.312500X0.625000X-0.312500X-0.625000X0.312500X-0.625000X0*%
%ADD16RoundRect,0.250000X0.325000X0.650000X-0.325000X0.650000X-0.325000X-0.650000X0.325000X-0.650000X0*%
%ADD17RoundRect,0.250000X-0.325000X-0.650000X0.325000X-0.650000X0.325000X0.650000X-0.325000X0.650000X0*%
%ADD18RoundRect,0.250000X-0.650000X0.325000X-0.650000X-0.325000X0.650000X-0.325000X0.650000X0.325000X0*%
%ADD19RoundRect,0.250000X-0.625000X0.312500X-0.625000X-0.312500X0.625000X-0.312500X0.625000X0.312500X0*%
%ADD20R,1.905000X2.000000*%
%ADD21O,1.905000X2.000000*%
%ADD22R,1.800000X1.800000*%
%ADD23C,1.800000*%
%ADD24C,3.000000*%
%ADD25RoundRect,0.250000X0.650000X-0.325000X0.650000X0.325000X-0.650000X0.325000X-0.650000X-0.325000X0*%
%ADD26RoundRect,0.250000X-0.312500X-0.625000X0.312500X-0.625000X0.312500X0.625000X-0.312500X0.625000X0*%
%ADD27C,1.500000*%
%ADD28RoundRect,0.218750X0.218750X0.256250X-0.218750X0.256250X-0.218750X-0.256250X0.218750X-0.256250X0*%
%ADD29O,1.600000X1.600000*%
%ADD30R,1.600000X1.600000*%
%ADD31RoundRect,0.250000X0.625000X-0.312500X0.625000X0.312500X-0.625000X0.312500X-0.625000X-0.312500X0*%
%ADD32R,1.700000X1.700000*%
%ADD33O,1.700000X1.700000*%
%ADD34C,3.500000*%
%ADD35RoundRect,0.150000X-0.825000X-0.150000X0.825000X-0.150000X0.825000X0.150000X-0.825000X0.150000X0*%
%ADD36R,2.290000X3.000000*%
%ADD37RoundRect,0.150000X0.150000X-0.825000X0.150000X0.825000X-0.150000X0.825000X-0.150000X-0.825000X0*%
%ADD38R,3.000000X2.290000*%
%ADD39R,1.500000X0.550000*%
%ADD40R,0.550000X1.500000*%
G04 APERTURE END LIST*
D10*
X119461918Y-70434422D02*
X119461918Y-70101089D01*
X119985728Y-69958232D02*
X119985728Y-70434422D01*
X119985728Y-70434422D02*
X118985728Y-70434422D01*
X118985728Y-70434422D02*
X118985728Y-69958232D01*
X119890489Y-68958232D02*
X119938109Y-69005851D01*
X119938109Y-69005851D02*
X119985728Y-69148708D01*
X119985728Y-69148708D02*
X119985728Y-69243946D01*
X119985728Y-69243946D02*
X119938109Y-69386803D01*
X119938109Y-69386803D02*
X119842870Y-69482041D01*
X119842870Y-69482041D02*
X119747632Y-69529660D01*
X119747632Y-69529660D02*
X119557156Y-69577279D01*
X119557156Y-69577279D02*
X119414299Y-69577279D01*
X119414299Y-69577279D02*
X119223823Y-69529660D01*
X119223823Y-69529660D02*
X119128585Y-69482041D01*
X119128585Y-69482041D02*
X119033347Y-69386803D01*
X119033347Y-69386803D02*
X118985728Y-69243946D01*
X118985728Y-69243946D02*
X118985728Y-69148708D01*
X118985728Y-69148708D02*
X119033347Y-69005851D01*
X119033347Y-69005851D02*
X119080966Y-68958232D01*
X119461918Y-68529660D02*
X119461918Y-68196327D01*
X119985728Y-68053470D02*
X119985728Y-68529660D01*
X119985728Y-68529660D02*
X118985728Y-68529660D01*
X118985728Y-68529660D02*
X118985728Y-68053470D01*
X119319061Y-66434422D02*
X119985728Y-66434422D01*
X118938109Y-66672517D02*
X119652394Y-66910612D01*
X119652394Y-66910612D02*
X119652394Y-66291565D01*
X119985728Y-65386803D02*
X119985728Y-65958231D01*
X119985728Y-65672517D02*
X118985728Y-65672517D01*
X118985728Y-65672517D02*
X119128585Y-65767755D01*
X119128585Y-65767755D02*
X119223823Y-65862993D01*
X119223823Y-65862993D02*
X119271442Y-65958231D01*
X119985728Y-64434422D02*
X119985728Y-65005850D01*
X119985728Y-64720136D02*
X118985728Y-64720136D01*
X118985728Y-64720136D02*
X119128585Y-64815374D01*
X119128585Y-64815374D02*
X119223823Y-64910612D01*
X119223823Y-64910612D02*
X119271442Y-65005850D01*
X118985728Y-63386802D02*
X118985728Y-62815374D01*
X119985728Y-63101088D02*
X118985728Y-63101088D01*
X119938109Y-62101088D02*
X119985728Y-62196326D01*
X119985728Y-62196326D02*
X119985728Y-62386802D01*
X119985728Y-62386802D02*
X119938109Y-62482040D01*
X119938109Y-62482040D02*
X119842870Y-62529659D01*
X119842870Y-62529659D02*
X119461918Y-62529659D01*
X119461918Y-62529659D02*
X119366680Y-62482040D01*
X119366680Y-62482040D02*
X119319061Y-62386802D01*
X119319061Y-62386802D02*
X119319061Y-62196326D01*
X119319061Y-62196326D02*
X119366680Y-62101088D01*
X119366680Y-62101088D02*
X119461918Y-62053469D01*
X119461918Y-62053469D02*
X119557156Y-62053469D01*
X119557156Y-62053469D02*
X119652394Y-62529659D01*
X119985728Y-61196326D02*
X119461918Y-61196326D01*
X119461918Y-61196326D02*
X119366680Y-61243945D01*
X119366680Y-61243945D02*
X119319061Y-61339183D01*
X119319061Y-61339183D02*
X119319061Y-61529659D01*
X119319061Y-61529659D02*
X119366680Y-61624897D01*
X119938109Y-61196326D02*
X119985728Y-61291564D01*
X119985728Y-61291564D02*
X119985728Y-61529659D01*
X119985728Y-61529659D02*
X119938109Y-61624897D01*
X119938109Y-61624897D02*
X119842870Y-61672516D01*
X119842870Y-61672516D02*
X119747632Y-61672516D01*
X119747632Y-61672516D02*
X119652394Y-61624897D01*
X119652394Y-61624897D02*
X119604775Y-61529659D01*
X119604775Y-61529659D02*
X119604775Y-61291564D01*
X119604775Y-61291564D02*
X119557156Y-61196326D01*
X119985728Y-60720135D02*
X119319061Y-60720135D01*
X119414299Y-60720135D02*
X119366680Y-60672516D01*
X119366680Y-60672516D02*
X119319061Y-60577278D01*
X119319061Y-60577278D02*
X119319061Y-60434421D01*
X119319061Y-60434421D02*
X119366680Y-60339183D01*
X119366680Y-60339183D02*
X119461918Y-60291564D01*
X119461918Y-60291564D02*
X119985728Y-60291564D01*
X119461918Y-60291564D02*
X119366680Y-60243945D01*
X119366680Y-60243945D02*
X119319061Y-60148707D01*
X119319061Y-60148707D02*
X119319061Y-60005850D01*
X119319061Y-60005850D02*
X119366680Y-59910611D01*
X119366680Y-59910611D02*
X119461918Y-59862992D01*
X119461918Y-59862992D02*
X119985728Y-59862992D01*
X119985728Y-58101088D02*
X119985728Y-58672516D01*
X119985728Y-58386802D02*
X118985728Y-58386802D01*
X118985728Y-58386802D02*
X119128585Y-58482040D01*
X119128585Y-58482040D02*
X119223823Y-58577278D01*
X119223823Y-58577278D02*
X119271442Y-58672516D01*
X119080966Y-57720135D02*
X119033347Y-57672516D01*
X119033347Y-57672516D02*
X118985728Y-57577278D01*
X118985728Y-57577278D02*
X118985728Y-57339183D01*
X118985728Y-57339183D02*
X119033347Y-57243945D01*
X119033347Y-57243945D02*
X119080966Y-57196326D01*
X119080966Y-57196326D02*
X119176204Y-57148707D01*
X119176204Y-57148707D02*
X119271442Y-57148707D01*
X119271442Y-57148707D02*
X119414299Y-57196326D01*
X119414299Y-57196326D02*
X119985728Y-57767754D01*
X119985728Y-57767754D02*
X119985728Y-57148707D01*
X120595728Y-70577279D02*
X121595728Y-70243946D01*
X121595728Y-70243946D02*
X120595728Y-69910613D01*
X121548109Y-69196327D02*
X121595728Y-69291565D01*
X121595728Y-69291565D02*
X121595728Y-69482041D01*
X121595728Y-69482041D02*
X121548109Y-69577279D01*
X121548109Y-69577279D02*
X121452870Y-69624898D01*
X121452870Y-69624898D02*
X121071918Y-69624898D01*
X121071918Y-69624898D02*
X120976680Y-69577279D01*
X120976680Y-69577279D02*
X120929061Y-69482041D01*
X120929061Y-69482041D02*
X120929061Y-69291565D01*
X120929061Y-69291565D02*
X120976680Y-69196327D01*
X120976680Y-69196327D02*
X121071918Y-69148708D01*
X121071918Y-69148708D02*
X121167156Y-69148708D01*
X121167156Y-69148708D02*
X121262394Y-69624898D01*
X121595728Y-68720136D02*
X120929061Y-68720136D01*
X121119537Y-68720136D02*
X121024299Y-68672517D01*
X121024299Y-68672517D02*
X120976680Y-68624898D01*
X120976680Y-68624898D02*
X120929061Y-68529660D01*
X120929061Y-68529660D02*
X120929061Y-68434422D01*
X121548109Y-68148707D02*
X121595728Y-68053469D01*
X121595728Y-68053469D02*
X121595728Y-67862993D01*
X121595728Y-67862993D02*
X121548109Y-67767755D01*
X121548109Y-67767755D02*
X121452870Y-67720136D01*
X121452870Y-67720136D02*
X121405251Y-67720136D01*
X121405251Y-67720136D02*
X121310013Y-67767755D01*
X121310013Y-67767755D02*
X121262394Y-67862993D01*
X121262394Y-67862993D02*
X121262394Y-68005850D01*
X121262394Y-68005850D02*
X121214775Y-68101088D01*
X121214775Y-68101088D02*
X121119537Y-68148707D01*
X121119537Y-68148707D02*
X121071918Y-68148707D01*
X121071918Y-68148707D02*
X120976680Y-68101088D01*
X120976680Y-68101088D02*
X120929061Y-68005850D01*
X120929061Y-68005850D02*
X120929061Y-67862993D01*
X120929061Y-67862993D02*
X120976680Y-67767755D01*
X121595728Y-67291564D02*
X120929061Y-67291564D01*
X120595728Y-67291564D02*
X120643347Y-67339183D01*
X120643347Y-67339183D02*
X120690966Y-67291564D01*
X120690966Y-67291564D02*
X120643347Y-67243945D01*
X120643347Y-67243945D02*
X120595728Y-67291564D01*
X120595728Y-67291564D02*
X120690966Y-67291564D01*
X121595728Y-66672517D02*
X121548109Y-66767755D01*
X121548109Y-66767755D02*
X121500489Y-66815374D01*
X121500489Y-66815374D02*
X121405251Y-66862993D01*
X121405251Y-66862993D02*
X121119537Y-66862993D01*
X121119537Y-66862993D02*
X121024299Y-66815374D01*
X121024299Y-66815374D02*
X120976680Y-66767755D01*
X120976680Y-66767755D02*
X120929061Y-66672517D01*
X120929061Y-66672517D02*
X120929061Y-66529660D01*
X120929061Y-66529660D02*
X120976680Y-66434422D01*
X120976680Y-66434422D02*
X121024299Y-66386803D01*
X121024299Y-66386803D02*
X121119537Y-66339184D01*
X121119537Y-66339184D02*
X121405251Y-66339184D01*
X121405251Y-66339184D02*
X121500489Y-66386803D01*
X121500489Y-66386803D02*
X121548109Y-66434422D01*
X121548109Y-66434422D02*
X121595728Y-66529660D01*
X121595728Y-66529660D02*
X121595728Y-66672517D01*
X120929061Y-65910612D02*
X121595728Y-65910612D01*
X121024299Y-65910612D02*
X120976680Y-65862993D01*
X120976680Y-65862993D02*
X120929061Y-65767755D01*
X120929061Y-65767755D02*
X120929061Y-65624898D01*
X120929061Y-65624898D02*
X120976680Y-65529660D01*
X120976680Y-65529660D02*
X121071918Y-65482041D01*
X121071918Y-65482041D02*
X121595728Y-65482041D01*
X121595728Y-63720136D02*
X121595728Y-64291564D01*
X121595728Y-64005850D02*
X120595728Y-64005850D01*
X120595728Y-64005850D02*
X120738585Y-64101088D01*
X120738585Y-64101088D02*
X120833823Y-64196326D01*
X120833823Y-64196326D02*
X120881442Y-64291564D01*
X121500489Y-63291564D02*
X121548109Y-63243945D01*
X121548109Y-63243945D02*
X121595728Y-63291564D01*
X121595728Y-63291564D02*
X121548109Y-63339183D01*
X121548109Y-63339183D02*
X121500489Y-63291564D01*
X121500489Y-63291564D02*
X121595728Y-63291564D01*
X121595728Y-62291565D02*
X121595728Y-62862993D01*
X121595728Y-62577279D02*
X120595728Y-62577279D01*
X120595728Y-62577279D02*
X120738585Y-62672517D01*
X120738585Y-62672517D02*
X120833823Y-62767755D01*
X120833823Y-62767755D02*
X120881442Y-62862993D01*
X120595728Y-61386803D02*
X120595728Y-61862993D01*
X120595728Y-61862993D02*
X121071918Y-61910612D01*
X121071918Y-61910612D02*
X121024299Y-61862993D01*
X121024299Y-61862993D02*
X120976680Y-61767755D01*
X120976680Y-61767755D02*
X120976680Y-61529660D01*
X120976680Y-61529660D02*
X121024299Y-61434422D01*
X121024299Y-61434422D02*
X121071918Y-61386803D01*
X121071918Y-61386803D02*
X121167156Y-61339184D01*
X121167156Y-61339184D02*
X121405251Y-61339184D01*
X121405251Y-61339184D02*
X121500489Y-61386803D01*
X121500489Y-61386803D02*
X121548109Y-61434422D01*
X121548109Y-61434422D02*
X121595728Y-61529660D01*
X121595728Y-61529660D02*
X121595728Y-61767755D01*
X121595728Y-61767755D02*
X121548109Y-61862993D01*
X121548109Y-61862993D02*
X121500489Y-61910612D01*
X123205728Y-69910613D02*
X123205728Y-70482041D01*
X123205728Y-70196327D02*
X122205728Y-70196327D01*
X122205728Y-70196327D02*
X122348585Y-70291565D01*
X122348585Y-70291565D02*
X122443823Y-70386803D01*
X122443823Y-70386803D02*
X122491442Y-70482041D01*
X123205728Y-68958232D02*
X123205728Y-69529660D01*
X123205728Y-69243946D02*
X122205728Y-69243946D01*
X122205728Y-69243946D02*
X122348585Y-69339184D01*
X122348585Y-69339184D02*
X122443823Y-69434422D01*
X122443823Y-69434422D02*
X122491442Y-69529660D01*
X122158109Y-67815375D02*
X123443823Y-68672517D01*
X123205728Y-66958232D02*
X123205728Y-67529660D01*
X123205728Y-67243946D02*
X122205728Y-67243946D01*
X122205728Y-67243946D02*
X122348585Y-67339184D01*
X122348585Y-67339184D02*
X122443823Y-67434422D01*
X122443823Y-67434422D02*
X122491442Y-67529660D01*
X122539061Y-66101089D02*
X123205728Y-66101089D01*
X122158109Y-66339184D02*
X122872394Y-66577279D01*
X122872394Y-66577279D02*
X122872394Y-65958232D01*
X122158109Y-64862994D02*
X123443823Y-65720136D01*
X122300966Y-64577279D02*
X122253347Y-64529660D01*
X122253347Y-64529660D02*
X122205728Y-64434422D01*
X122205728Y-64434422D02*
X122205728Y-64196327D01*
X122205728Y-64196327D02*
X122253347Y-64101089D01*
X122253347Y-64101089D02*
X122300966Y-64053470D01*
X122300966Y-64053470D02*
X122396204Y-64005851D01*
X122396204Y-64005851D02*
X122491442Y-64005851D01*
X122491442Y-64005851D02*
X122634299Y-64053470D01*
X122634299Y-64053470D02*
X123205728Y-64624898D01*
X123205728Y-64624898D02*
X123205728Y-64005851D01*
X122205728Y-63386803D02*
X122205728Y-63291565D01*
X122205728Y-63291565D02*
X122253347Y-63196327D01*
X122253347Y-63196327D02*
X122300966Y-63148708D01*
X122300966Y-63148708D02*
X122396204Y-63101089D01*
X122396204Y-63101089D02*
X122586680Y-63053470D01*
X122586680Y-63053470D02*
X122824775Y-63053470D01*
X122824775Y-63053470D02*
X123015251Y-63101089D01*
X123015251Y-63101089D02*
X123110489Y-63148708D01*
X123110489Y-63148708D02*
X123158109Y-63196327D01*
X123158109Y-63196327D02*
X123205728Y-63291565D01*
X123205728Y-63291565D02*
X123205728Y-63386803D01*
X123205728Y-63386803D02*
X123158109Y-63482041D01*
X123158109Y-63482041D02*
X123110489Y-63529660D01*
X123110489Y-63529660D02*
X123015251Y-63577279D01*
X123015251Y-63577279D02*
X122824775Y-63624898D01*
X122824775Y-63624898D02*
X122586680Y-63624898D01*
X122586680Y-63624898D02*
X122396204Y-63577279D01*
X122396204Y-63577279D02*
X122300966Y-63529660D01*
X122300966Y-63529660D02*
X122253347Y-63482041D01*
X122253347Y-63482041D02*
X122205728Y-63386803D01*
X122300966Y-62672517D02*
X122253347Y-62624898D01*
X122253347Y-62624898D02*
X122205728Y-62529660D01*
X122205728Y-62529660D02*
X122205728Y-62291565D01*
X122205728Y-62291565D02*
X122253347Y-62196327D01*
X122253347Y-62196327D02*
X122300966Y-62148708D01*
X122300966Y-62148708D02*
X122396204Y-62101089D01*
X122396204Y-62101089D02*
X122491442Y-62101089D01*
X122491442Y-62101089D02*
X122634299Y-62148708D01*
X122634299Y-62148708D02*
X123205728Y-62720136D01*
X123205728Y-62720136D02*
X123205728Y-62101089D01*
X122205728Y-61767755D02*
X122205728Y-61148708D01*
X122205728Y-61148708D02*
X122586680Y-61482041D01*
X122586680Y-61482041D02*
X122586680Y-61339184D01*
X122586680Y-61339184D02*
X122634299Y-61243946D01*
X122634299Y-61243946D02*
X122681918Y-61196327D01*
X122681918Y-61196327D02*
X122777156Y-61148708D01*
X122777156Y-61148708D02*
X123015251Y-61148708D01*
X123015251Y-61148708D02*
X123110489Y-61196327D01*
X123110489Y-61196327D02*
X123158109Y-61243946D01*
X123158109Y-61243946D02*
X123205728Y-61339184D01*
X123205728Y-61339184D02*
X123205728Y-61624898D01*
X123205728Y-61624898D02*
X123158109Y-61720136D01*
X123158109Y-61720136D02*
X123110489Y-61767755D01*
D11*
X129332074Y-98833694D02*
X128998741Y-98357503D01*
X128760646Y-98833694D02*
X128760646Y-97833694D01*
X128760646Y-97833694D02*
X129141598Y-97833694D01*
X129141598Y-97833694D02*
X129236836Y-97881313D01*
X129236836Y-97881313D02*
X129284455Y-97928932D01*
X129284455Y-97928932D02*
X129332074Y-98024170D01*
X129332074Y-98024170D02*
X129332074Y-98167027D01*
X129332074Y-98167027D02*
X129284455Y-98262265D01*
X129284455Y-98262265D02*
X129236836Y-98309884D01*
X129236836Y-98309884D02*
X129141598Y-98357503D01*
X129141598Y-98357503D02*
X128760646Y-98357503D01*
X130236836Y-97833694D02*
X129760646Y-97833694D01*
X129760646Y-97833694D02*
X129713027Y-98309884D01*
X129713027Y-98309884D02*
X129760646Y-98262265D01*
X129760646Y-98262265D02*
X129855884Y-98214646D01*
X129855884Y-98214646D02*
X130093979Y-98214646D01*
X130093979Y-98214646D02*
X130189217Y-98262265D01*
X130189217Y-98262265D02*
X130236836Y-98309884D01*
X130236836Y-98309884D02*
X130284455Y-98405122D01*
X130284455Y-98405122D02*
X130284455Y-98643217D01*
X130284455Y-98643217D02*
X130236836Y-98738455D01*
X130236836Y-98738455D02*
X130189217Y-98786075D01*
X130189217Y-98786075D02*
X130093979Y-98833694D01*
X130093979Y-98833694D02*
X129855884Y-98833694D01*
X129855884Y-98833694D02*
X129760646Y-98786075D01*
X129760646Y-98786075D02*
X129713027Y-98738455D01*
X126712227Y-82139840D02*
X126664608Y-82187460D01*
X126664608Y-82187460D02*
X126521751Y-82235079D01*
X126521751Y-82235079D02*
X126426513Y-82235079D01*
X126426513Y-82235079D02*
X126283656Y-82187460D01*
X126283656Y-82187460D02*
X126188418Y-82092221D01*
X126188418Y-82092221D02*
X126140799Y-81996983D01*
X126140799Y-81996983D02*
X126093180Y-81806507D01*
X126093180Y-81806507D02*
X126093180Y-81663650D01*
X126093180Y-81663650D02*
X126140799Y-81473174D01*
X126140799Y-81473174D02*
X126188418Y-81377936D01*
X126188418Y-81377936D02*
X126283656Y-81282698D01*
X126283656Y-81282698D02*
X126426513Y-81235079D01*
X126426513Y-81235079D02*
X126521751Y-81235079D01*
X126521751Y-81235079D02*
X126664608Y-81282698D01*
X126664608Y-81282698D02*
X126712227Y-81330317D01*
X127616989Y-81235079D02*
X127140799Y-81235079D01*
X127140799Y-81235079D02*
X127093180Y-81711269D01*
X127093180Y-81711269D02*
X127140799Y-81663650D01*
X127140799Y-81663650D02*
X127236037Y-81616031D01*
X127236037Y-81616031D02*
X127474132Y-81616031D01*
X127474132Y-81616031D02*
X127569370Y-81663650D01*
X127569370Y-81663650D02*
X127616989Y-81711269D01*
X127616989Y-81711269D02*
X127664608Y-81806507D01*
X127664608Y-81806507D02*
X127664608Y-82044602D01*
X127664608Y-82044602D02*
X127616989Y-82139840D01*
X127616989Y-82139840D02*
X127569370Y-82187460D01*
X127569370Y-82187460D02*
X127474132Y-82235079D01*
X127474132Y-82235079D02*
X127236037Y-82235079D01*
X127236037Y-82235079D02*
X127140799Y-82187460D01*
X127140799Y-82187460D02*
X127093180Y-82139840D01*
X129332074Y-103982300D02*
X129284455Y-104029920D01*
X129284455Y-104029920D02*
X129141598Y-104077539D01*
X129141598Y-104077539D02*
X129046360Y-104077539D01*
X129046360Y-104077539D02*
X128903503Y-104029920D01*
X128903503Y-104029920D02*
X128808265Y-103934681D01*
X128808265Y-103934681D02*
X128760646Y-103839443D01*
X128760646Y-103839443D02*
X128713027Y-103648967D01*
X128713027Y-103648967D02*
X128713027Y-103506110D01*
X128713027Y-103506110D02*
X128760646Y-103315634D01*
X128760646Y-103315634D02*
X128808265Y-103220396D01*
X128808265Y-103220396D02*
X128903503Y-103125158D01*
X128903503Y-103125158D02*
X129046360Y-103077539D01*
X129046360Y-103077539D02*
X129141598Y-103077539D01*
X129141598Y-103077539D02*
X129284455Y-103125158D01*
X129284455Y-103125158D02*
X129332074Y-103172777D01*
X129665408Y-103077539D02*
X130332074Y-103077539D01*
X130332074Y-103077539D02*
X129903503Y-104077539D01*
X176889580Y-67681666D02*
X176937200Y-67729285D01*
X176937200Y-67729285D02*
X176984819Y-67872142D01*
X176984819Y-67872142D02*
X176984819Y-67967380D01*
X176984819Y-67967380D02*
X176937200Y-68110237D01*
X176937200Y-68110237D02*
X176841961Y-68205475D01*
X176841961Y-68205475D02*
X176746723Y-68253094D01*
X176746723Y-68253094D02*
X176556247Y-68300713D01*
X176556247Y-68300713D02*
X176413390Y-68300713D01*
X176413390Y-68300713D02*
X176222914Y-68253094D01*
X176222914Y-68253094D02*
X176127676Y-68205475D01*
X176127676Y-68205475D02*
X176032438Y-68110237D01*
X176032438Y-68110237D02*
X175984819Y-67967380D01*
X175984819Y-67967380D02*
X175984819Y-67872142D01*
X175984819Y-67872142D02*
X176032438Y-67729285D01*
X176032438Y-67729285D02*
X176080057Y-67681666D01*
X175984819Y-67348332D02*
X175984819Y-66729285D01*
X175984819Y-66729285D02*
X176365771Y-67062618D01*
X176365771Y-67062618D02*
X176365771Y-66919761D01*
X176365771Y-66919761D02*
X176413390Y-66824523D01*
X176413390Y-66824523D02*
X176461009Y-66776904D01*
X176461009Y-66776904D02*
X176556247Y-66729285D01*
X176556247Y-66729285D02*
X176794342Y-66729285D01*
X176794342Y-66729285D02*
X176889580Y-66776904D01*
X176889580Y-66776904D02*
X176937200Y-66824523D01*
X176937200Y-66824523D02*
X176984819Y-66919761D01*
X176984819Y-66919761D02*
X176984819Y-67205475D01*
X176984819Y-67205475D02*
X176937200Y-67300713D01*
X176937200Y-67300713D02*
X176889580Y-67348332D01*
X154700508Y-94648879D02*
X154224317Y-94982212D01*
X154700508Y-95220307D02*
X153700508Y-95220307D01*
X153700508Y-95220307D02*
X153700508Y-94839355D01*
X153700508Y-94839355D02*
X153748127Y-94744117D01*
X153748127Y-94744117D02*
X153795746Y-94696498D01*
X153795746Y-94696498D02*
X153890984Y-94648879D01*
X153890984Y-94648879D02*
X154033841Y-94648879D01*
X154033841Y-94648879D02*
X154129079Y-94696498D01*
X154129079Y-94696498D02*
X154176698Y-94744117D01*
X154176698Y-94744117D02*
X154224317Y-94839355D01*
X154224317Y-94839355D02*
X154224317Y-95220307D01*
X154700508Y-93696498D02*
X154700508Y-94267926D01*
X154700508Y-93982212D02*
X153700508Y-93982212D01*
X153700508Y-93982212D02*
X153843365Y-94077450D01*
X153843365Y-94077450D02*
X153938603Y-94172688D01*
X153938603Y-94172688D02*
X153986222Y-94267926D01*
X154700508Y-92744117D02*
X154700508Y-93315545D01*
X154700508Y-93029831D02*
X153700508Y-93029831D01*
X153700508Y-93029831D02*
X153843365Y-93125069D01*
X153843365Y-93125069D02*
X153938603Y-93220307D01*
X153938603Y-93220307D02*
X153986222Y-93315545D01*
X145909419Y-92225632D02*
X145576086Y-91749441D01*
X145337991Y-92225632D02*
X145337991Y-91225632D01*
X145337991Y-91225632D02*
X145718943Y-91225632D01*
X145718943Y-91225632D02*
X145814181Y-91273251D01*
X145814181Y-91273251D02*
X145861800Y-91320870D01*
X145861800Y-91320870D02*
X145909419Y-91416108D01*
X145909419Y-91416108D02*
X145909419Y-91558965D01*
X145909419Y-91558965D02*
X145861800Y-91654203D01*
X145861800Y-91654203D02*
X145814181Y-91701822D01*
X145814181Y-91701822D02*
X145718943Y-91749441D01*
X145718943Y-91749441D02*
X145337991Y-91749441D01*
X146242753Y-91225632D02*
X146861800Y-91225632D01*
X146861800Y-91225632D02*
X146528467Y-91606584D01*
X146528467Y-91606584D02*
X146671324Y-91606584D01*
X146671324Y-91606584D02*
X146766562Y-91654203D01*
X146766562Y-91654203D02*
X146814181Y-91701822D01*
X146814181Y-91701822D02*
X146861800Y-91797060D01*
X146861800Y-91797060D02*
X146861800Y-92035155D01*
X146861800Y-92035155D02*
X146814181Y-92130393D01*
X146814181Y-92130393D02*
X146766562Y-92178013D01*
X146766562Y-92178013D02*
X146671324Y-92225632D01*
X146671324Y-92225632D02*
X146385610Y-92225632D01*
X146385610Y-92225632D02*
X146290372Y-92178013D01*
X146290372Y-92178013D02*
X146242753Y-92130393D01*
X178117240Y-56334109D02*
X178117240Y-57143632D01*
X178117240Y-57143632D02*
X178164859Y-57238870D01*
X178164859Y-57238870D02*
X178212478Y-57286490D01*
X178212478Y-57286490D02*
X178307716Y-57334109D01*
X178307716Y-57334109D02*
X178498192Y-57334109D01*
X178498192Y-57334109D02*
X178593430Y-57286490D01*
X178593430Y-57286490D02*
X178641049Y-57238870D01*
X178641049Y-57238870D02*
X178688668Y-57143632D01*
X178688668Y-57143632D02*
X178688668Y-56334109D01*
X179117240Y-56429347D02*
X179164859Y-56381728D01*
X179164859Y-56381728D02*
X179260097Y-56334109D01*
X179260097Y-56334109D02*
X179498192Y-56334109D01*
X179498192Y-56334109D02*
X179593430Y-56381728D01*
X179593430Y-56381728D02*
X179641049Y-56429347D01*
X179641049Y-56429347D02*
X179688668Y-56524585D01*
X179688668Y-56524585D02*
X179688668Y-56619823D01*
X179688668Y-56619823D02*
X179641049Y-56762680D01*
X179641049Y-56762680D02*
X179069621Y-57334109D01*
X179069621Y-57334109D02*
X179688668Y-57334109D01*
X155951863Y-101069166D02*
X154951863Y-101069166D01*
X154951863Y-101069166D02*
X154951863Y-100831071D01*
X154951863Y-100831071D02*
X154999482Y-100688214D01*
X154999482Y-100688214D02*
X155094720Y-100592976D01*
X155094720Y-100592976D02*
X155189958Y-100545357D01*
X155189958Y-100545357D02*
X155380434Y-100497738D01*
X155380434Y-100497738D02*
X155523291Y-100497738D01*
X155523291Y-100497738D02*
X155713767Y-100545357D01*
X155713767Y-100545357D02*
X155809005Y-100592976D01*
X155809005Y-100592976D02*
X155904244Y-100688214D01*
X155904244Y-100688214D02*
X155951863Y-100831071D01*
X155951863Y-100831071D02*
X155951863Y-101069166D01*
X155047101Y-100116785D02*
X154999482Y-100069166D01*
X154999482Y-100069166D02*
X154951863Y-99973928D01*
X154951863Y-99973928D02*
X154951863Y-99735833D01*
X154951863Y-99735833D02*
X154999482Y-99640595D01*
X154999482Y-99640595D02*
X155047101Y-99592976D01*
X155047101Y-99592976D02*
X155142339Y-99545357D01*
X155142339Y-99545357D02*
X155237577Y-99545357D01*
X155237577Y-99545357D02*
X155380434Y-99592976D01*
X155380434Y-99592976D02*
X155951863Y-100164404D01*
X155951863Y-100164404D02*
X155951863Y-99545357D01*
X161134857Y-79803648D02*
X160801524Y-79327457D01*
X160563429Y-79803648D02*
X160563429Y-78803648D01*
X160563429Y-78803648D02*
X160944381Y-78803648D01*
X160944381Y-78803648D02*
X161039619Y-78851267D01*
X161039619Y-78851267D02*
X161087238Y-78898886D01*
X161087238Y-78898886D02*
X161134857Y-78994124D01*
X161134857Y-78994124D02*
X161134857Y-79136981D01*
X161134857Y-79136981D02*
X161087238Y-79232219D01*
X161087238Y-79232219D02*
X161039619Y-79279838D01*
X161039619Y-79279838D02*
X160944381Y-79327457D01*
X160944381Y-79327457D02*
X160563429Y-79327457D01*
X161706286Y-79232219D02*
X161611048Y-79184600D01*
X161611048Y-79184600D02*
X161563429Y-79136981D01*
X161563429Y-79136981D02*
X161515810Y-79041743D01*
X161515810Y-79041743D02*
X161515810Y-78994124D01*
X161515810Y-78994124D02*
X161563429Y-78898886D01*
X161563429Y-78898886D02*
X161611048Y-78851267D01*
X161611048Y-78851267D02*
X161706286Y-78803648D01*
X161706286Y-78803648D02*
X161896762Y-78803648D01*
X161896762Y-78803648D02*
X161992000Y-78851267D01*
X161992000Y-78851267D02*
X162039619Y-78898886D01*
X162039619Y-78898886D02*
X162087238Y-78994124D01*
X162087238Y-78994124D02*
X162087238Y-79041743D01*
X162087238Y-79041743D02*
X162039619Y-79136981D01*
X162039619Y-79136981D02*
X161992000Y-79184600D01*
X161992000Y-79184600D02*
X161896762Y-79232219D01*
X161896762Y-79232219D02*
X161706286Y-79232219D01*
X161706286Y-79232219D02*
X161611048Y-79279838D01*
X161611048Y-79279838D02*
X161563429Y-79327457D01*
X161563429Y-79327457D02*
X161515810Y-79422695D01*
X161515810Y-79422695D02*
X161515810Y-79613171D01*
X161515810Y-79613171D02*
X161563429Y-79708409D01*
X161563429Y-79708409D02*
X161611048Y-79756029D01*
X161611048Y-79756029D02*
X161706286Y-79803648D01*
X161706286Y-79803648D02*
X161896762Y-79803648D01*
X161896762Y-79803648D02*
X161992000Y-79756029D01*
X161992000Y-79756029D02*
X162039619Y-79708409D01*
X162039619Y-79708409D02*
X162087238Y-79613171D01*
X162087238Y-79613171D02*
X162087238Y-79422695D01*
X162087238Y-79422695D02*
X162039619Y-79327457D01*
X162039619Y-79327457D02*
X161992000Y-79279838D01*
X161992000Y-79279838D02*
X161896762Y-79232219D01*
X172386666Y-147234819D02*
X172386666Y-147949104D01*
X172386666Y-147949104D02*
X172339047Y-148091961D01*
X172339047Y-148091961D02*
X172243809Y-148187200D01*
X172243809Y-148187200D02*
X172100952Y-148234819D01*
X172100952Y-148234819D02*
X172005714Y-148234819D01*
X172815238Y-147330057D02*
X172862857Y-147282438D01*
X172862857Y-147282438D02*
X172958095Y-147234819D01*
X172958095Y-147234819D02*
X173196190Y-147234819D01*
X173196190Y-147234819D02*
X173291428Y-147282438D01*
X173291428Y-147282438D02*
X173339047Y-147330057D01*
X173339047Y-147330057D02*
X173386666Y-147425295D01*
X173386666Y-147425295D02*
X173386666Y-147520533D01*
X173386666Y-147520533D02*
X173339047Y-147663390D01*
X173339047Y-147663390D02*
X172767619Y-148234819D01*
X172767619Y-148234819D02*
X173386666Y-148234819D01*
X161172963Y-98967030D02*
X161125344Y-99014650D01*
X161125344Y-99014650D02*
X160982487Y-99062269D01*
X160982487Y-99062269D02*
X160887249Y-99062269D01*
X160887249Y-99062269D02*
X160744392Y-99014650D01*
X160744392Y-99014650D02*
X160649154Y-98919411D01*
X160649154Y-98919411D02*
X160601535Y-98824173D01*
X160601535Y-98824173D02*
X160553916Y-98633697D01*
X160553916Y-98633697D02*
X160553916Y-98490840D01*
X160553916Y-98490840D02*
X160601535Y-98300364D01*
X160601535Y-98300364D02*
X160649154Y-98205126D01*
X160649154Y-98205126D02*
X160744392Y-98109888D01*
X160744392Y-98109888D02*
X160887249Y-98062269D01*
X160887249Y-98062269D02*
X160982487Y-98062269D01*
X160982487Y-98062269D02*
X161125344Y-98109888D01*
X161125344Y-98109888D02*
X161172963Y-98157507D01*
X162125344Y-99062269D02*
X161553916Y-99062269D01*
X161839630Y-99062269D02*
X161839630Y-98062269D01*
X161839630Y-98062269D02*
X161744392Y-98205126D01*
X161744392Y-98205126D02*
X161649154Y-98300364D01*
X161649154Y-98300364D02*
X161553916Y-98347983D01*
X162744392Y-98062269D02*
X162839630Y-98062269D01*
X162839630Y-98062269D02*
X162934868Y-98109888D01*
X162934868Y-98109888D02*
X162982487Y-98157507D01*
X162982487Y-98157507D02*
X163030106Y-98252745D01*
X163030106Y-98252745D02*
X163077725Y-98443221D01*
X163077725Y-98443221D02*
X163077725Y-98681316D01*
X163077725Y-98681316D02*
X163030106Y-98871792D01*
X163030106Y-98871792D02*
X162982487Y-98967030D01*
X162982487Y-98967030D02*
X162934868Y-99014650D01*
X162934868Y-99014650D02*
X162839630Y-99062269D01*
X162839630Y-99062269D02*
X162744392Y-99062269D01*
X162744392Y-99062269D02*
X162649154Y-99014650D01*
X162649154Y-99014650D02*
X162601535Y-98967030D01*
X162601535Y-98967030D02*
X162553916Y-98871792D01*
X162553916Y-98871792D02*
X162506297Y-98681316D01*
X162506297Y-98681316D02*
X162506297Y-98443221D01*
X162506297Y-98443221D02*
X162553916Y-98252745D01*
X162553916Y-98252745D02*
X162601535Y-98157507D01*
X162601535Y-98157507D02*
X162649154Y-98109888D01*
X162649154Y-98109888D02*
X162744392Y-98062269D01*
X171809580Y-67681666D02*
X171857200Y-67729285D01*
X171857200Y-67729285D02*
X171904819Y-67872142D01*
X171904819Y-67872142D02*
X171904819Y-67967380D01*
X171904819Y-67967380D02*
X171857200Y-68110237D01*
X171857200Y-68110237D02*
X171761961Y-68205475D01*
X171761961Y-68205475D02*
X171666723Y-68253094D01*
X171666723Y-68253094D02*
X171476247Y-68300713D01*
X171476247Y-68300713D02*
X171333390Y-68300713D01*
X171333390Y-68300713D02*
X171142914Y-68253094D01*
X171142914Y-68253094D02*
X171047676Y-68205475D01*
X171047676Y-68205475D02*
X170952438Y-68110237D01*
X170952438Y-68110237D02*
X170904819Y-67967380D01*
X170904819Y-67967380D02*
X170904819Y-67872142D01*
X170904819Y-67872142D02*
X170952438Y-67729285D01*
X170952438Y-67729285D02*
X171000057Y-67681666D01*
X171904819Y-66729285D02*
X171904819Y-67300713D01*
X171904819Y-67014999D02*
X170904819Y-67014999D01*
X170904819Y-67014999D02*
X171047676Y-67110237D01*
X171047676Y-67110237D02*
X171142914Y-67205475D01*
X171142914Y-67205475D02*
X171190533Y-67300713D01*
X141400618Y-50198861D02*
X141352999Y-50246481D01*
X141352999Y-50246481D02*
X141210142Y-50294100D01*
X141210142Y-50294100D02*
X141114904Y-50294100D01*
X141114904Y-50294100D02*
X140972047Y-50246481D01*
X140972047Y-50246481D02*
X140876809Y-50151242D01*
X140876809Y-50151242D02*
X140829190Y-50056004D01*
X140829190Y-50056004D02*
X140781571Y-49865528D01*
X140781571Y-49865528D02*
X140781571Y-49722671D01*
X140781571Y-49722671D02*
X140829190Y-49532195D01*
X140829190Y-49532195D02*
X140876809Y-49436957D01*
X140876809Y-49436957D02*
X140972047Y-49341719D01*
X140972047Y-49341719D02*
X141114904Y-49294100D01*
X141114904Y-49294100D02*
X141210142Y-49294100D01*
X141210142Y-49294100D02*
X141352999Y-49341719D01*
X141352999Y-49341719D02*
X141400618Y-49389338D01*
X142352999Y-50294100D02*
X141781571Y-50294100D01*
X142067285Y-50294100D02*
X142067285Y-49294100D01*
X142067285Y-49294100D02*
X141972047Y-49436957D01*
X141972047Y-49436957D02*
X141876809Y-49532195D01*
X141876809Y-49532195D02*
X141781571Y-49579814D01*
X143210142Y-49294100D02*
X143019666Y-49294100D01*
X143019666Y-49294100D02*
X142924428Y-49341719D01*
X142924428Y-49341719D02*
X142876809Y-49389338D01*
X142876809Y-49389338D02*
X142781571Y-49532195D01*
X142781571Y-49532195D02*
X142733952Y-49722671D01*
X142733952Y-49722671D02*
X142733952Y-50103623D01*
X142733952Y-50103623D02*
X142781571Y-50198861D01*
X142781571Y-50198861D02*
X142829190Y-50246481D01*
X142829190Y-50246481D02*
X142924428Y-50294100D01*
X142924428Y-50294100D02*
X143114904Y-50294100D01*
X143114904Y-50294100D02*
X143210142Y-50246481D01*
X143210142Y-50246481D02*
X143257761Y-50198861D01*
X143257761Y-50198861D02*
X143305380Y-50103623D01*
X143305380Y-50103623D02*
X143305380Y-49865528D01*
X143305380Y-49865528D02*
X143257761Y-49770290D01*
X143257761Y-49770290D02*
X143210142Y-49722671D01*
X143210142Y-49722671D02*
X143114904Y-49675052D01*
X143114904Y-49675052D02*
X142924428Y-49675052D01*
X142924428Y-49675052D02*
X142829190Y-49722671D01*
X142829190Y-49722671D02*
X142781571Y-49770290D01*
X142781571Y-49770290D02*
X142733952Y-49865528D01*
X160880556Y-93998771D02*
X160547223Y-93522580D01*
X160309128Y-93998771D02*
X160309128Y-92998771D01*
X160309128Y-92998771D02*
X160690080Y-92998771D01*
X160690080Y-92998771D02*
X160785318Y-93046390D01*
X160785318Y-93046390D02*
X160832937Y-93094009D01*
X160832937Y-93094009D02*
X160880556Y-93189247D01*
X160880556Y-93189247D02*
X160880556Y-93332104D01*
X160880556Y-93332104D02*
X160832937Y-93427342D01*
X160832937Y-93427342D02*
X160785318Y-93474961D01*
X160785318Y-93474961D02*
X160690080Y-93522580D01*
X160690080Y-93522580D02*
X160309128Y-93522580D01*
X161213890Y-92998771D02*
X161880556Y-92998771D01*
X161880556Y-92998771D02*
X161451985Y-93998771D01*
X145896862Y-102461759D02*
X145563529Y-101985568D01*
X145325434Y-102461759D02*
X145325434Y-101461759D01*
X145325434Y-101461759D02*
X145706386Y-101461759D01*
X145706386Y-101461759D02*
X145801624Y-101509378D01*
X145801624Y-101509378D02*
X145849243Y-101556997D01*
X145849243Y-101556997D02*
X145896862Y-101652235D01*
X145896862Y-101652235D02*
X145896862Y-101795092D01*
X145896862Y-101795092D02*
X145849243Y-101890330D01*
X145849243Y-101890330D02*
X145801624Y-101937949D01*
X145801624Y-101937949D02*
X145706386Y-101985568D01*
X145706386Y-101985568D02*
X145325434Y-101985568D01*
X146277815Y-101556997D02*
X146325434Y-101509378D01*
X146325434Y-101509378D02*
X146420672Y-101461759D01*
X146420672Y-101461759D02*
X146658767Y-101461759D01*
X146658767Y-101461759D02*
X146754005Y-101509378D01*
X146754005Y-101509378D02*
X146801624Y-101556997D01*
X146801624Y-101556997D02*
X146849243Y-101652235D01*
X146849243Y-101652235D02*
X146849243Y-101747473D01*
X146849243Y-101747473D02*
X146801624Y-101890330D01*
X146801624Y-101890330D02*
X146230196Y-102461759D01*
X146230196Y-102461759D02*
X146849243Y-102461759D01*
X135504561Y-74961356D02*
X135504561Y-75437547D01*
X135171228Y-74437547D02*
X135504561Y-74961356D01*
X135504561Y-74961356D02*
X135837894Y-74437547D01*
X136695037Y-75437547D02*
X136123609Y-75437547D01*
X136409323Y-75437547D02*
X136409323Y-74437547D01*
X136409323Y-74437547D02*
X136314085Y-74580404D01*
X136314085Y-74580404D02*
X136218847Y-74675642D01*
X136218847Y-74675642D02*
X136123609Y-74723261D01*
X173291617Y-72475479D02*
X173291617Y-71475479D01*
X173291617Y-71475479D02*
X173529712Y-71475479D01*
X173529712Y-71475479D02*
X173672569Y-71523098D01*
X173672569Y-71523098D02*
X173767807Y-71618336D01*
X173767807Y-71618336D02*
X173815426Y-71713574D01*
X173815426Y-71713574D02*
X173863045Y-71904050D01*
X173863045Y-71904050D02*
X173863045Y-72046907D01*
X173863045Y-72046907D02*
X173815426Y-72237383D01*
X173815426Y-72237383D02*
X173767807Y-72332621D01*
X173767807Y-72332621D02*
X173672569Y-72427860D01*
X173672569Y-72427860D02*
X173529712Y-72475479D01*
X173529712Y-72475479D02*
X173291617Y-72475479D01*
X174815426Y-72475479D02*
X174243998Y-72475479D01*
X174529712Y-72475479D02*
X174529712Y-71475479D01*
X174529712Y-71475479D02*
X174434474Y-71618336D01*
X174434474Y-71618336D02*
X174339236Y-71713574D01*
X174339236Y-71713574D02*
X174243998Y-71761193D01*
X165740331Y-79612302D02*
X165692712Y-79659922D01*
X165692712Y-79659922D02*
X165549855Y-79707541D01*
X165549855Y-79707541D02*
X165454617Y-79707541D01*
X165454617Y-79707541D02*
X165311760Y-79659922D01*
X165311760Y-79659922D02*
X165216522Y-79564683D01*
X165216522Y-79564683D02*
X165168903Y-79469445D01*
X165168903Y-79469445D02*
X165121284Y-79278969D01*
X165121284Y-79278969D02*
X165121284Y-79136112D01*
X165121284Y-79136112D02*
X165168903Y-78945636D01*
X165168903Y-78945636D02*
X165216522Y-78850398D01*
X165216522Y-78850398D02*
X165311760Y-78755160D01*
X165311760Y-78755160D02*
X165454617Y-78707541D01*
X165454617Y-78707541D02*
X165549855Y-78707541D01*
X165549855Y-78707541D02*
X165692712Y-78755160D01*
X165692712Y-78755160D02*
X165740331Y-78802779D01*
X166692712Y-79707541D02*
X166121284Y-79707541D01*
X166406998Y-79707541D02*
X166406998Y-78707541D01*
X166406998Y-78707541D02*
X166311760Y-78850398D01*
X166311760Y-78850398D02*
X166216522Y-78945636D01*
X166216522Y-78945636D02*
X166121284Y-78993255D01*
X167549855Y-79040874D02*
X167549855Y-79707541D01*
X167311760Y-78659922D02*
X167073665Y-79374207D01*
X167073665Y-79374207D02*
X167692712Y-79374207D01*
X132696666Y-55334819D02*
X132696666Y-56049104D01*
X132696666Y-56049104D02*
X132649047Y-56191961D01*
X132649047Y-56191961D02*
X132553809Y-56287200D01*
X132553809Y-56287200D02*
X132410952Y-56334819D01*
X132410952Y-56334819D02*
X132315714Y-56334819D01*
X133077619Y-55334819D02*
X133696666Y-55334819D01*
X133696666Y-55334819D02*
X133363333Y-55715771D01*
X133363333Y-55715771D02*
X133506190Y-55715771D01*
X133506190Y-55715771D02*
X133601428Y-55763390D01*
X133601428Y-55763390D02*
X133649047Y-55811009D01*
X133649047Y-55811009D02*
X133696666Y-55906247D01*
X133696666Y-55906247D02*
X133696666Y-56144342D01*
X133696666Y-56144342D02*
X133649047Y-56239580D01*
X133649047Y-56239580D02*
X133601428Y-56287200D01*
X133601428Y-56287200D02*
X133506190Y-56334819D01*
X133506190Y-56334819D02*
X133220476Y-56334819D01*
X133220476Y-56334819D02*
X133125238Y-56287200D01*
X133125238Y-56287200D02*
X133077619Y-56239580D01*
X129386134Y-109015043D02*
X129052801Y-108538852D01*
X128814706Y-109015043D02*
X128814706Y-108015043D01*
X128814706Y-108015043D02*
X129195658Y-108015043D01*
X129195658Y-108015043D02*
X129290896Y-108062662D01*
X129290896Y-108062662D02*
X129338515Y-108110281D01*
X129338515Y-108110281D02*
X129386134Y-108205519D01*
X129386134Y-108205519D02*
X129386134Y-108348376D01*
X129386134Y-108348376D02*
X129338515Y-108443614D01*
X129338515Y-108443614D02*
X129290896Y-108491233D01*
X129290896Y-108491233D02*
X129195658Y-108538852D01*
X129195658Y-108538852D02*
X128814706Y-108538852D01*
X130243277Y-108348376D02*
X130243277Y-109015043D01*
X130005182Y-107967424D02*
X129767087Y-108681709D01*
X129767087Y-108681709D02*
X130386134Y-108681709D01*
X130919108Y-69238380D02*
X130442917Y-69571713D01*
X130919108Y-69809808D02*
X129919108Y-69809808D01*
X129919108Y-69809808D02*
X129919108Y-69428856D01*
X129919108Y-69428856D02*
X129966727Y-69333618D01*
X129966727Y-69333618D02*
X130014346Y-69285999D01*
X130014346Y-69285999D02*
X130109584Y-69238380D01*
X130109584Y-69238380D02*
X130252441Y-69238380D01*
X130252441Y-69238380D02*
X130347679Y-69285999D01*
X130347679Y-69285999D02*
X130395298Y-69333618D01*
X130395298Y-69333618D02*
X130442917Y-69428856D01*
X130442917Y-69428856D02*
X130442917Y-69809808D01*
X130919108Y-68285999D02*
X130919108Y-68857427D01*
X130919108Y-68571713D02*
X129919108Y-68571713D01*
X129919108Y-68571713D02*
X130061965Y-68666951D01*
X130061965Y-68666951D02*
X130157203Y-68762189D01*
X130157203Y-68762189D02*
X130204822Y-68857427D01*
X130014346Y-67905046D02*
X129966727Y-67857427D01*
X129966727Y-67857427D02*
X129919108Y-67762189D01*
X129919108Y-67762189D02*
X129919108Y-67524094D01*
X129919108Y-67524094D02*
X129966727Y-67428856D01*
X129966727Y-67428856D02*
X130014346Y-67381237D01*
X130014346Y-67381237D02*
X130109584Y-67333618D01*
X130109584Y-67333618D02*
X130204822Y-67333618D01*
X130204822Y-67333618D02*
X130347679Y-67381237D01*
X130347679Y-67381237D02*
X130919108Y-67952665D01*
X130919108Y-67952665D02*
X130919108Y-67333618D01*
X170767276Y-103959775D02*
X170719657Y-104007395D01*
X170719657Y-104007395D02*
X170576800Y-104055014D01*
X170576800Y-104055014D02*
X170481562Y-104055014D01*
X170481562Y-104055014D02*
X170338705Y-104007395D01*
X170338705Y-104007395D02*
X170243467Y-103912156D01*
X170243467Y-103912156D02*
X170195848Y-103816918D01*
X170195848Y-103816918D02*
X170148229Y-103626442D01*
X170148229Y-103626442D02*
X170148229Y-103483585D01*
X170148229Y-103483585D02*
X170195848Y-103293109D01*
X170195848Y-103293109D02*
X170243467Y-103197871D01*
X170243467Y-103197871D02*
X170338705Y-103102633D01*
X170338705Y-103102633D02*
X170481562Y-103055014D01*
X170481562Y-103055014D02*
X170576800Y-103055014D01*
X170576800Y-103055014D02*
X170719657Y-103102633D01*
X170719657Y-103102633D02*
X170767276Y-103150252D01*
X171719657Y-104055014D02*
X171148229Y-104055014D01*
X171433943Y-104055014D02*
X171433943Y-103055014D01*
X171433943Y-103055014D02*
X171338705Y-103197871D01*
X171338705Y-103197871D02*
X171243467Y-103293109D01*
X171243467Y-103293109D02*
X171148229Y-103340728D01*
X172672038Y-104055014D02*
X172100610Y-104055014D01*
X172386324Y-104055014D02*
X172386324Y-103055014D01*
X172386324Y-103055014D02*
X172291086Y-103197871D01*
X172291086Y-103197871D02*
X172195848Y-103293109D01*
X172195848Y-103293109D02*
X172100610Y-103340728D01*
X163992156Y-61596947D02*
X164039776Y-61644566D01*
X164039776Y-61644566D02*
X164087395Y-61787423D01*
X164087395Y-61787423D02*
X164087395Y-61882661D01*
X164087395Y-61882661D02*
X164039776Y-62025518D01*
X164039776Y-62025518D02*
X163944537Y-62120756D01*
X163944537Y-62120756D02*
X163849299Y-62168375D01*
X163849299Y-62168375D02*
X163658823Y-62215994D01*
X163658823Y-62215994D02*
X163515966Y-62215994D01*
X163515966Y-62215994D02*
X163325490Y-62168375D01*
X163325490Y-62168375D02*
X163230252Y-62120756D01*
X163230252Y-62120756D02*
X163135014Y-62025518D01*
X163135014Y-62025518D02*
X163087395Y-61882661D01*
X163087395Y-61882661D02*
X163087395Y-61787423D01*
X163087395Y-61787423D02*
X163135014Y-61644566D01*
X163135014Y-61644566D02*
X163182633Y-61596947D01*
X164087395Y-60644566D02*
X164087395Y-61215994D01*
X164087395Y-60930280D02*
X163087395Y-60930280D01*
X163087395Y-60930280D02*
X163230252Y-61025518D01*
X163230252Y-61025518D02*
X163325490Y-61120756D01*
X163325490Y-61120756D02*
X163373109Y-61215994D01*
X163087395Y-59739804D02*
X163087395Y-60215994D01*
X163087395Y-60215994D02*
X163563585Y-60263613D01*
X163563585Y-60263613D02*
X163515966Y-60215994D01*
X163515966Y-60215994D02*
X163468347Y-60120756D01*
X163468347Y-60120756D02*
X163468347Y-59882661D01*
X163468347Y-59882661D02*
X163515966Y-59787423D01*
X163515966Y-59787423D02*
X163563585Y-59739804D01*
X163563585Y-59739804D02*
X163658823Y-59692185D01*
X163658823Y-59692185D02*
X163896918Y-59692185D01*
X163896918Y-59692185D02*
X163992156Y-59739804D01*
X163992156Y-59739804D02*
X164039776Y-59787423D01*
X164039776Y-59787423D02*
X164087395Y-59882661D01*
X164087395Y-59882661D02*
X164087395Y-60120756D01*
X164087395Y-60120756D02*
X164039776Y-60215994D01*
X164039776Y-60215994D02*
X163992156Y-60263613D01*
X150725048Y-56661532D02*
X150391715Y-56185341D01*
X150153620Y-56661532D02*
X150153620Y-55661532D01*
X150153620Y-55661532D02*
X150534572Y-55661532D01*
X150534572Y-55661532D02*
X150629810Y-55709151D01*
X150629810Y-55709151D02*
X150677429Y-55756770D01*
X150677429Y-55756770D02*
X150725048Y-55852008D01*
X150725048Y-55852008D02*
X150725048Y-55994865D01*
X150725048Y-55994865D02*
X150677429Y-56090103D01*
X150677429Y-56090103D02*
X150629810Y-56137722D01*
X150629810Y-56137722D02*
X150534572Y-56185341D01*
X150534572Y-56185341D02*
X150153620Y-56185341D01*
X151010763Y-55661532D02*
X151344096Y-56661532D01*
X151344096Y-56661532D02*
X151677429Y-55661532D01*
X152534572Y-56661532D02*
X151963144Y-56661532D01*
X152248858Y-56661532D02*
X152248858Y-55661532D01*
X152248858Y-55661532D02*
X152153620Y-55804389D01*
X152153620Y-55804389D02*
X152058382Y-55899627D01*
X152058382Y-55899627D02*
X151963144Y-55947246D01*
X136331271Y-50160602D02*
X136283652Y-50208222D01*
X136283652Y-50208222D02*
X136140795Y-50255841D01*
X136140795Y-50255841D02*
X136045557Y-50255841D01*
X136045557Y-50255841D02*
X135902700Y-50208222D01*
X135902700Y-50208222D02*
X135807462Y-50112983D01*
X135807462Y-50112983D02*
X135759843Y-50017745D01*
X135759843Y-50017745D02*
X135712224Y-49827269D01*
X135712224Y-49827269D02*
X135712224Y-49684412D01*
X135712224Y-49684412D02*
X135759843Y-49493936D01*
X135759843Y-49493936D02*
X135807462Y-49398698D01*
X135807462Y-49398698D02*
X135902700Y-49303460D01*
X135902700Y-49303460D02*
X136045557Y-49255841D01*
X136045557Y-49255841D02*
X136140795Y-49255841D01*
X136140795Y-49255841D02*
X136283652Y-49303460D01*
X136283652Y-49303460D02*
X136331271Y-49351079D01*
X137283652Y-50255841D02*
X136712224Y-50255841D01*
X136997938Y-50255841D02*
X136997938Y-49255841D01*
X136997938Y-49255841D02*
X136902700Y-49398698D01*
X136902700Y-49398698D02*
X136807462Y-49493936D01*
X136807462Y-49493936D02*
X136712224Y-49541555D01*
X137616986Y-49255841D02*
X138283652Y-49255841D01*
X138283652Y-49255841D02*
X137855081Y-50255841D01*
X170809648Y-84794411D02*
X170762029Y-84842031D01*
X170762029Y-84842031D02*
X170619172Y-84889650D01*
X170619172Y-84889650D02*
X170523934Y-84889650D01*
X170523934Y-84889650D02*
X170381077Y-84842031D01*
X170381077Y-84842031D02*
X170285839Y-84746792D01*
X170285839Y-84746792D02*
X170238220Y-84651554D01*
X170238220Y-84651554D02*
X170190601Y-84461078D01*
X170190601Y-84461078D02*
X170190601Y-84318221D01*
X170190601Y-84318221D02*
X170238220Y-84127745D01*
X170238220Y-84127745D02*
X170285839Y-84032507D01*
X170285839Y-84032507D02*
X170381077Y-83937269D01*
X170381077Y-83937269D02*
X170523934Y-83889650D01*
X170523934Y-83889650D02*
X170619172Y-83889650D01*
X170619172Y-83889650D02*
X170762029Y-83937269D01*
X170762029Y-83937269D02*
X170809648Y-83984888D01*
X171762029Y-84889650D02*
X171190601Y-84889650D01*
X171476315Y-84889650D02*
X171476315Y-83889650D01*
X171476315Y-83889650D02*
X171381077Y-84032507D01*
X171381077Y-84032507D02*
X171285839Y-84127745D01*
X171285839Y-84127745D02*
X171190601Y-84175364D01*
X172095363Y-83889650D02*
X172714410Y-83889650D01*
X172714410Y-83889650D02*
X172381077Y-84270602D01*
X172381077Y-84270602D02*
X172523934Y-84270602D01*
X172523934Y-84270602D02*
X172619172Y-84318221D01*
X172619172Y-84318221D02*
X172666791Y-84365840D01*
X172666791Y-84365840D02*
X172714410Y-84461078D01*
X172714410Y-84461078D02*
X172714410Y-84699173D01*
X172714410Y-84699173D02*
X172666791Y-84794411D01*
X172666791Y-84794411D02*
X172619172Y-84842031D01*
X172619172Y-84842031D02*
X172523934Y-84889650D01*
X172523934Y-84889650D02*
X172238220Y-84889650D01*
X172238220Y-84889650D02*
X172142982Y-84842031D01*
X172142982Y-84842031D02*
X172095363Y-84794411D01*
X180350839Y-122626237D02*
X180017506Y-122150046D01*
X179779411Y-122626237D02*
X179779411Y-121626237D01*
X179779411Y-121626237D02*
X180160363Y-121626237D01*
X180160363Y-121626237D02*
X180255601Y-121673856D01*
X180255601Y-121673856D02*
X180303220Y-121721475D01*
X180303220Y-121721475D02*
X180350839Y-121816713D01*
X180350839Y-121816713D02*
X180350839Y-121959570D01*
X180350839Y-121959570D02*
X180303220Y-122054808D01*
X180303220Y-122054808D02*
X180255601Y-122102427D01*
X180255601Y-122102427D02*
X180160363Y-122150046D01*
X180160363Y-122150046D02*
X179779411Y-122150046D01*
X180779411Y-122102427D02*
X181112744Y-122102427D01*
X181255601Y-122626237D02*
X180779411Y-122626237D01*
X180779411Y-122626237D02*
X180779411Y-121626237D01*
X180779411Y-121626237D02*
X181255601Y-121626237D01*
X182017506Y-122102427D02*
X181684173Y-122102427D01*
X181684173Y-122626237D02*
X181684173Y-121626237D01*
X181684173Y-121626237D02*
X182160363Y-121626237D01*
X182684173Y-121626237D02*
X182684173Y-121864332D01*
X182446078Y-121769094D02*
X182684173Y-121864332D01*
X182684173Y-121864332D02*
X182922268Y-121769094D01*
X182541316Y-122054808D02*
X182684173Y-121864332D01*
X182684173Y-121864332D02*
X182827030Y-122054808D01*
X183446078Y-121626237D02*
X183446078Y-121864332D01*
X183207983Y-121769094D02*
X183446078Y-121864332D01*
X183446078Y-121864332D02*
X183684173Y-121769094D01*
X183303221Y-122054808D02*
X183446078Y-121864332D01*
X183446078Y-121864332D02*
X183588935Y-122054808D01*
X135872790Y-90481498D02*
X135872790Y-91291021D01*
X135872790Y-91291021D02*
X135920409Y-91386259D01*
X135920409Y-91386259D02*
X135968028Y-91433879D01*
X135968028Y-91433879D02*
X136063266Y-91481498D01*
X136063266Y-91481498D02*
X136253742Y-91481498D01*
X136253742Y-91481498D02*
X136348980Y-91433879D01*
X136348980Y-91433879D02*
X136396599Y-91386259D01*
X136396599Y-91386259D02*
X136444218Y-91291021D01*
X136444218Y-91291021D02*
X136444218Y-90481498D01*
X136825171Y-90481498D02*
X137444218Y-90481498D01*
X137444218Y-90481498D02*
X137110885Y-90862450D01*
X137110885Y-90862450D02*
X137253742Y-90862450D01*
X137253742Y-90862450D02*
X137348980Y-90910069D01*
X137348980Y-90910069D02*
X137396599Y-90957688D01*
X137396599Y-90957688D02*
X137444218Y-91052926D01*
X137444218Y-91052926D02*
X137444218Y-91291021D01*
X137444218Y-91291021D02*
X137396599Y-91386259D01*
X137396599Y-91386259D02*
X137348980Y-91433879D01*
X137348980Y-91433879D02*
X137253742Y-91481498D01*
X137253742Y-91481498D02*
X136968028Y-91481498D01*
X136968028Y-91481498D02*
X136872790Y-91433879D01*
X136872790Y-91433879D02*
X136825171Y-91386259D01*
X180957784Y-104072422D02*
X180910165Y-104120042D01*
X180910165Y-104120042D02*
X180767308Y-104167661D01*
X180767308Y-104167661D02*
X180672070Y-104167661D01*
X180672070Y-104167661D02*
X180529213Y-104120042D01*
X180529213Y-104120042D02*
X180433975Y-104024803D01*
X180433975Y-104024803D02*
X180386356Y-103929565D01*
X180386356Y-103929565D02*
X180338737Y-103739089D01*
X180338737Y-103739089D02*
X180338737Y-103596232D01*
X180338737Y-103596232D02*
X180386356Y-103405756D01*
X180386356Y-103405756D02*
X180433975Y-103310518D01*
X180433975Y-103310518D02*
X180529213Y-103215280D01*
X180529213Y-103215280D02*
X180672070Y-103167661D01*
X180672070Y-103167661D02*
X180767308Y-103167661D01*
X180767308Y-103167661D02*
X180910165Y-103215280D01*
X180910165Y-103215280D02*
X180957784Y-103262899D01*
X181910165Y-104167661D02*
X181338737Y-104167661D01*
X181624451Y-104167661D02*
X181624451Y-103167661D01*
X181624451Y-103167661D02*
X181529213Y-103310518D01*
X181529213Y-103310518D02*
X181433975Y-103405756D01*
X181433975Y-103405756D02*
X181338737Y-103453375D01*
X182291118Y-103262899D02*
X182338737Y-103215280D01*
X182338737Y-103215280D02*
X182433975Y-103167661D01*
X182433975Y-103167661D02*
X182672070Y-103167661D01*
X182672070Y-103167661D02*
X182767308Y-103215280D01*
X182767308Y-103215280D02*
X182814927Y-103262899D01*
X182814927Y-103262899D02*
X182862546Y-103358137D01*
X182862546Y-103358137D02*
X182862546Y-103453375D01*
X182862546Y-103453375D02*
X182814927Y-103596232D01*
X182814927Y-103596232D02*
X182243499Y-104167661D01*
X182243499Y-104167661D02*
X182862546Y-104167661D01*
X145891139Y-96956254D02*
X145843520Y-97003874D01*
X145843520Y-97003874D02*
X145700663Y-97051493D01*
X145700663Y-97051493D02*
X145605425Y-97051493D01*
X145605425Y-97051493D02*
X145462568Y-97003874D01*
X145462568Y-97003874D02*
X145367330Y-96908635D01*
X145367330Y-96908635D02*
X145319711Y-96813397D01*
X145319711Y-96813397D02*
X145272092Y-96622921D01*
X145272092Y-96622921D02*
X145272092Y-96480064D01*
X145272092Y-96480064D02*
X145319711Y-96289588D01*
X145319711Y-96289588D02*
X145367330Y-96194350D01*
X145367330Y-96194350D02*
X145462568Y-96099112D01*
X145462568Y-96099112D02*
X145605425Y-96051493D01*
X145605425Y-96051493D02*
X145700663Y-96051493D01*
X145700663Y-96051493D02*
X145843520Y-96099112D01*
X145843520Y-96099112D02*
X145891139Y-96146731D01*
X146462568Y-96480064D02*
X146367330Y-96432445D01*
X146367330Y-96432445D02*
X146319711Y-96384826D01*
X146319711Y-96384826D02*
X146272092Y-96289588D01*
X146272092Y-96289588D02*
X146272092Y-96241969D01*
X146272092Y-96241969D02*
X146319711Y-96146731D01*
X146319711Y-96146731D02*
X146367330Y-96099112D01*
X146367330Y-96099112D02*
X146462568Y-96051493D01*
X146462568Y-96051493D02*
X146653044Y-96051493D01*
X146653044Y-96051493D02*
X146748282Y-96099112D01*
X146748282Y-96099112D02*
X146795901Y-96146731D01*
X146795901Y-96146731D02*
X146843520Y-96241969D01*
X146843520Y-96241969D02*
X146843520Y-96289588D01*
X146843520Y-96289588D02*
X146795901Y-96384826D01*
X146795901Y-96384826D02*
X146748282Y-96432445D01*
X146748282Y-96432445D02*
X146653044Y-96480064D01*
X146653044Y-96480064D02*
X146462568Y-96480064D01*
X146462568Y-96480064D02*
X146367330Y-96527683D01*
X146367330Y-96527683D02*
X146319711Y-96575302D01*
X146319711Y-96575302D02*
X146272092Y-96670540D01*
X146272092Y-96670540D02*
X146272092Y-96861016D01*
X146272092Y-96861016D02*
X146319711Y-96956254D01*
X146319711Y-96956254D02*
X146367330Y-97003874D01*
X146367330Y-97003874D02*
X146462568Y-97051493D01*
X146462568Y-97051493D02*
X146653044Y-97051493D01*
X146653044Y-97051493D02*
X146748282Y-97003874D01*
X146748282Y-97003874D02*
X146795901Y-96956254D01*
X146795901Y-96956254D02*
X146843520Y-96861016D01*
X146843520Y-96861016D02*
X146843520Y-96670540D01*
X146843520Y-96670540D02*
X146795901Y-96575302D01*
X146795901Y-96575302D02*
X146748282Y-96527683D01*
X146748282Y-96527683D02*
X146653044Y-96480064D01*
X161158884Y-66926160D02*
X161111265Y-66973780D01*
X161111265Y-66973780D02*
X160968408Y-67021399D01*
X160968408Y-67021399D02*
X160873170Y-67021399D01*
X160873170Y-67021399D02*
X160730313Y-66973780D01*
X160730313Y-66973780D02*
X160635075Y-66878541D01*
X160635075Y-66878541D02*
X160587456Y-66783303D01*
X160587456Y-66783303D02*
X160539837Y-66592827D01*
X160539837Y-66592827D02*
X160539837Y-66449970D01*
X160539837Y-66449970D02*
X160587456Y-66259494D01*
X160587456Y-66259494D02*
X160635075Y-66164256D01*
X160635075Y-66164256D02*
X160730313Y-66069018D01*
X160730313Y-66069018D02*
X160873170Y-66021399D01*
X160873170Y-66021399D02*
X160968408Y-66021399D01*
X160968408Y-66021399D02*
X161111265Y-66069018D01*
X161111265Y-66069018D02*
X161158884Y-66116637D01*
X161539837Y-66116637D02*
X161587456Y-66069018D01*
X161587456Y-66069018D02*
X161682694Y-66021399D01*
X161682694Y-66021399D02*
X161920789Y-66021399D01*
X161920789Y-66021399D02*
X162016027Y-66069018D01*
X162016027Y-66069018D02*
X162063646Y-66116637D01*
X162063646Y-66116637D02*
X162111265Y-66211875D01*
X162111265Y-66211875D02*
X162111265Y-66307113D01*
X162111265Y-66307113D02*
X162063646Y-66449970D01*
X162063646Y-66449970D02*
X161492218Y-67021399D01*
X161492218Y-67021399D02*
X162111265Y-67021399D01*
X175124819Y-92201904D02*
X175934342Y-92201904D01*
X175934342Y-92201904D02*
X176029580Y-92154285D01*
X176029580Y-92154285D02*
X176077200Y-92106666D01*
X176077200Y-92106666D02*
X176124819Y-92011428D01*
X176124819Y-92011428D02*
X176124819Y-91820952D01*
X176124819Y-91820952D02*
X176077200Y-91725714D01*
X176077200Y-91725714D02*
X176029580Y-91678095D01*
X176029580Y-91678095D02*
X175934342Y-91630476D01*
X175934342Y-91630476D02*
X175124819Y-91630476D01*
X175458152Y-90725714D02*
X176124819Y-90725714D01*
X175077200Y-90963809D02*
X175791485Y-91201904D01*
X175791485Y-91201904D02*
X175791485Y-90582857D01*
X160607276Y-103959775D02*
X160559657Y-104007395D01*
X160559657Y-104007395D02*
X160416800Y-104055014D01*
X160416800Y-104055014D02*
X160321562Y-104055014D01*
X160321562Y-104055014D02*
X160178705Y-104007395D01*
X160178705Y-104007395D02*
X160083467Y-103912156D01*
X160083467Y-103912156D02*
X160035848Y-103816918D01*
X160035848Y-103816918D02*
X159988229Y-103626442D01*
X159988229Y-103626442D02*
X159988229Y-103483585D01*
X159988229Y-103483585D02*
X160035848Y-103293109D01*
X160035848Y-103293109D02*
X160083467Y-103197871D01*
X160083467Y-103197871D02*
X160178705Y-103102633D01*
X160178705Y-103102633D02*
X160321562Y-103055014D01*
X160321562Y-103055014D02*
X160416800Y-103055014D01*
X160416800Y-103055014D02*
X160559657Y-103102633D01*
X160559657Y-103102633D02*
X160607276Y-103150252D01*
X160988229Y-103150252D02*
X161035848Y-103102633D01*
X161035848Y-103102633D02*
X161131086Y-103055014D01*
X161131086Y-103055014D02*
X161369181Y-103055014D01*
X161369181Y-103055014D02*
X161464419Y-103102633D01*
X161464419Y-103102633D02*
X161512038Y-103150252D01*
X161512038Y-103150252D02*
X161559657Y-103245490D01*
X161559657Y-103245490D02*
X161559657Y-103340728D01*
X161559657Y-103340728D02*
X161512038Y-103483585D01*
X161512038Y-103483585D02*
X160940610Y-104055014D01*
X160940610Y-104055014D02*
X161559657Y-104055014D01*
X161940610Y-103150252D02*
X161988229Y-103102633D01*
X161988229Y-103102633D02*
X162083467Y-103055014D01*
X162083467Y-103055014D02*
X162321562Y-103055014D01*
X162321562Y-103055014D02*
X162416800Y-103102633D01*
X162416800Y-103102633D02*
X162464419Y-103150252D01*
X162464419Y-103150252D02*
X162512038Y-103245490D01*
X162512038Y-103245490D02*
X162512038Y-103340728D01*
X162512038Y-103340728D02*
X162464419Y-103483585D01*
X162464419Y-103483585D02*
X161892991Y-104055014D01*
X161892991Y-104055014D02*
X162512038Y-104055014D01*
X161873776Y-50505529D02*
X162016633Y-50553148D01*
X162016633Y-50553148D02*
X162064252Y-50600767D01*
X162064252Y-50600767D02*
X162111871Y-50696005D01*
X162111871Y-50696005D02*
X162111871Y-50838862D01*
X162111871Y-50838862D02*
X162064252Y-50934100D01*
X162064252Y-50934100D02*
X162016633Y-50981720D01*
X162016633Y-50981720D02*
X161921395Y-51029339D01*
X161921395Y-51029339D02*
X161540443Y-51029339D01*
X161540443Y-51029339D02*
X161540443Y-50029339D01*
X161540443Y-50029339D02*
X161873776Y-50029339D01*
X161873776Y-50029339D02*
X161969014Y-50076958D01*
X161969014Y-50076958D02*
X162016633Y-50124577D01*
X162016633Y-50124577D02*
X162064252Y-50219815D01*
X162064252Y-50219815D02*
X162064252Y-50315053D01*
X162064252Y-50315053D02*
X162016633Y-50410291D01*
X162016633Y-50410291D02*
X161969014Y-50457910D01*
X161969014Y-50457910D02*
X161873776Y-50505529D01*
X161873776Y-50505529D02*
X161540443Y-50505529D01*
X162397586Y-50029339D02*
X162969014Y-50029339D01*
X162683300Y-51029339D02*
X162683300Y-50029339D01*
X163826157Y-51029339D02*
X163254729Y-51029339D01*
X163540443Y-51029339D02*
X163540443Y-50029339D01*
X163540443Y-50029339D02*
X163445205Y-50172196D01*
X163445205Y-50172196D02*
X163349967Y-50267434D01*
X163349967Y-50267434D02*
X163254729Y-50315053D01*
X145836300Y-87103455D02*
X145788681Y-87151075D01*
X145788681Y-87151075D02*
X145645824Y-87198694D01*
X145645824Y-87198694D02*
X145550586Y-87198694D01*
X145550586Y-87198694D02*
X145407729Y-87151075D01*
X145407729Y-87151075D02*
X145312491Y-87055836D01*
X145312491Y-87055836D02*
X145264872Y-86960598D01*
X145264872Y-86960598D02*
X145217253Y-86770122D01*
X145217253Y-86770122D02*
X145217253Y-86627265D01*
X145217253Y-86627265D02*
X145264872Y-86436789D01*
X145264872Y-86436789D02*
X145312491Y-86341551D01*
X145312491Y-86341551D02*
X145407729Y-86246313D01*
X145407729Y-86246313D02*
X145550586Y-86198694D01*
X145550586Y-86198694D02*
X145645824Y-86198694D01*
X145645824Y-86198694D02*
X145788681Y-86246313D01*
X145788681Y-86246313D02*
X145836300Y-86293932D01*
X146312491Y-87198694D02*
X146502967Y-87198694D01*
X146502967Y-87198694D02*
X146598205Y-87151075D01*
X146598205Y-87151075D02*
X146645824Y-87103455D01*
X146645824Y-87103455D02*
X146741062Y-86960598D01*
X146741062Y-86960598D02*
X146788681Y-86770122D01*
X146788681Y-86770122D02*
X146788681Y-86389170D01*
X146788681Y-86389170D02*
X146741062Y-86293932D01*
X146741062Y-86293932D02*
X146693443Y-86246313D01*
X146693443Y-86246313D02*
X146598205Y-86198694D01*
X146598205Y-86198694D02*
X146407729Y-86198694D01*
X146407729Y-86198694D02*
X146312491Y-86246313D01*
X146312491Y-86246313D02*
X146264872Y-86293932D01*
X146264872Y-86293932D02*
X146217253Y-86389170D01*
X146217253Y-86389170D02*
X146217253Y-86627265D01*
X146217253Y-86627265D02*
X146264872Y-86722503D01*
X146264872Y-86722503D02*
X146312491Y-86770122D01*
X146312491Y-86770122D02*
X146407729Y-86817741D01*
X146407729Y-86817741D02*
X146598205Y-86817741D01*
X146598205Y-86817741D02*
X146693443Y-86770122D01*
X146693443Y-86770122D02*
X146741062Y-86722503D01*
X146741062Y-86722503D02*
X146788681Y-86627265D01*
X129404154Y-93968270D02*
X129070821Y-93492079D01*
X128832726Y-93968270D02*
X128832726Y-92968270D01*
X128832726Y-92968270D02*
X129213678Y-92968270D01*
X129213678Y-92968270D02*
X129308916Y-93015889D01*
X129308916Y-93015889D02*
X129356535Y-93063508D01*
X129356535Y-93063508D02*
X129404154Y-93158746D01*
X129404154Y-93158746D02*
X129404154Y-93301603D01*
X129404154Y-93301603D02*
X129356535Y-93396841D01*
X129356535Y-93396841D02*
X129308916Y-93444460D01*
X129308916Y-93444460D02*
X129213678Y-93492079D01*
X129213678Y-93492079D02*
X128832726Y-93492079D01*
X130261297Y-92968270D02*
X130070821Y-92968270D01*
X130070821Y-92968270D02*
X129975583Y-93015889D01*
X129975583Y-93015889D02*
X129927964Y-93063508D01*
X129927964Y-93063508D02*
X129832726Y-93206365D01*
X129832726Y-93206365D02*
X129785107Y-93396841D01*
X129785107Y-93396841D02*
X129785107Y-93777793D01*
X129785107Y-93777793D02*
X129832726Y-93873031D01*
X129832726Y-93873031D02*
X129880345Y-93920651D01*
X129880345Y-93920651D02*
X129975583Y-93968270D01*
X129975583Y-93968270D02*
X130166059Y-93968270D01*
X130166059Y-93968270D02*
X130261297Y-93920651D01*
X130261297Y-93920651D02*
X130308916Y-93873031D01*
X130308916Y-93873031D02*
X130356535Y-93777793D01*
X130356535Y-93777793D02*
X130356535Y-93539698D01*
X130356535Y-93539698D02*
X130308916Y-93444460D01*
X130308916Y-93444460D02*
X130261297Y-93396841D01*
X130261297Y-93396841D02*
X130166059Y-93349222D01*
X130166059Y-93349222D02*
X129975583Y-93349222D01*
X129975583Y-93349222D02*
X129880345Y-93396841D01*
X129880345Y-93396841D02*
X129832726Y-93444460D01*
X129832726Y-93444460D02*
X129785107Y-93539698D01*
D12*
X149775333Y-126916073D02*
X149920476Y-126964453D01*
X149920476Y-126964453D02*
X150162381Y-126964453D01*
X150162381Y-126964453D02*
X150259143Y-126916073D01*
X150259143Y-126916073D02*
X150307524Y-126867692D01*
X150307524Y-126867692D02*
X150355905Y-126770930D01*
X150355905Y-126770930D02*
X150355905Y-126674168D01*
X150355905Y-126674168D02*
X150307524Y-126577406D01*
X150307524Y-126577406D02*
X150259143Y-126529025D01*
X150259143Y-126529025D02*
X150162381Y-126480644D01*
X150162381Y-126480644D02*
X149968857Y-126432263D01*
X149968857Y-126432263D02*
X149872095Y-126383882D01*
X149872095Y-126383882D02*
X149823714Y-126335501D01*
X149823714Y-126335501D02*
X149775333Y-126238739D01*
X149775333Y-126238739D02*
X149775333Y-126141977D01*
X149775333Y-126141977D02*
X149823714Y-126045215D01*
X149823714Y-126045215D02*
X149872095Y-125996834D01*
X149872095Y-125996834D02*
X149968857Y-125948453D01*
X149968857Y-125948453D02*
X150210762Y-125948453D01*
X150210762Y-125948453D02*
X150355905Y-125996834D01*
X150694571Y-125948453D02*
X150936476Y-126964453D01*
X150936476Y-126964453D02*
X151130000Y-126238739D01*
X151130000Y-126238739D02*
X151323524Y-126964453D01*
X151323524Y-126964453D02*
X151565429Y-125948453D01*
X151904095Y-126045215D02*
X151952476Y-125996834D01*
X151952476Y-125996834D02*
X152049238Y-125948453D01*
X152049238Y-125948453D02*
X152291143Y-125948453D01*
X152291143Y-125948453D02*
X152387905Y-125996834D01*
X152387905Y-125996834D02*
X152436286Y-126045215D01*
X152436286Y-126045215D02*
X152484667Y-126141977D01*
X152484667Y-126141977D02*
X152484667Y-126238739D01*
X152484667Y-126238739D02*
X152436286Y-126383882D01*
X152436286Y-126383882D02*
X151855714Y-126964453D01*
X151855714Y-126964453D02*
X152484667Y-126964453D01*
X155026095Y-107866073D02*
X155171238Y-107914453D01*
X155171238Y-107914453D02*
X155413143Y-107914453D01*
X155413143Y-107914453D02*
X155509905Y-107866073D01*
X155509905Y-107866073D02*
X155558286Y-107817692D01*
X155558286Y-107817692D02*
X155606667Y-107720930D01*
X155606667Y-107720930D02*
X155606667Y-107624168D01*
X155606667Y-107624168D02*
X155558286Y-107527406D01*
X155558286Y-107527406D02*
X155509905Y-107479025D01*
X155509905Y-107479025D02*
X155413143Y-107430644D01*
X155413143Y-107430644D02*
X155219619Y-107382263D01*
X155219619Y-107382263D02*
X155122857Y-107333882D01*
X155122857Y-107333882D02*
X155074476Y-107285501D01*
X155074476Y-107285501D02*
X155026095Y-107188739D01*
X155026095Y-107188739D02*
X155026095Y-107091977D01*
X155026095Y-107091977D02*
X155074476Y-106995215D01*
X155074476Y-106995215D02*
X155122857Y-106946834D01*
X155122857Y-106946834D02*
X155219619Y-106898453D01*
X155219619Y-106898453D02*
X155461524Y-106898453D01*
X155461524Y-106898453D02*
X155606667Y-106946834D01*
X155945333Y-106898453D02*
X156187238Y-107914453D01*
X156187238Y-107914453D02*
X156380762Y-107188739D01*
X156380762Y-107188739D02*
X156574286Y-107914453D01*
X156574286Y-107914453D02*
X156816191Y-106898453D01*
X157203238Y-107914453D02*
X157203238Y-106898453D01*
X157541905Y-106898453D02*
X158122477Y-106898453D01*
X157832191Y-107914453D02*
X157832191Y-106898453D01*
X159041715Y-107817692D02*
X158993334Y-107866073D01*
X158993334Y-107866073D02*
X158848191Y-107914453D01*
X158848191Y-107914453D02*
X158751429Y-107914453D01*
X158751429Y-107914453D02*
X158606286Y-107866073D01*
X158606286Y-107866073D02*
X158509524Y-107769311D01*
X158509524Y-107769311D02*
X158461143Y-107672549D01*
X158461143Y-107672549D02*
X158412762Y-107479025D01*
X158412762Y-107479025D02*
X158412762Y-107333882D01*
X158412762Y-107333882D02*
X158461143Y-107140358D01*
X158461143Y-107140358D02*
X158509524Y-107043596D01*
X158509524Y-107043596D02*
X158606286Y-106946834D01*
X158606286Y-106946834D02*
X158751429Y-106898453D01*
X158751429Y-106898453D02*
X158848191Y-106898453D01*
X158848191Y-106898453D02*
X158993334Y-106946834D01*
X158993334Y-106946834D02*
X159041715Y-106995215D01*
X159477143Y-107914453D02*
X159477143Y-106898453D01*
X159477143Y-107382263D02*
X160057715Y-107382263D01*
X160057715Y-107914453D02*
X160057715Y-106898453D01*
X160299620Y-108011215D02*
X161073715Y-108011215D01*
X161218857Y-106898453D02*
X161847810Y-106898453D01*
X161847810Y-106898453D02*
X161509143Y-107285501D01*
X161509143Y-107285501D02*
X161654286Y-107285501D01*
X161654286Y-107285501D02*
X161751048Y-107333882D01*
X161751048Y-107333882D02*
X161799429Y-107382263D01*
X161799429Y-107382263D02*
X161847810Y-107479025D01*
X161847810Y-107479025D02*
X161847810Y-107720930D01*
X161847810Y-107720930D02*
X161799429Y-107817692D01*
X161799429Y-107817692D02*
X161751048Y-107866073D01*
X161751048Y-107866073D02*
X161654286Y-107914453D01*
X161654286Y-107914453D02*
X161364000Y-107914453D01*
X161364000Y-107914453D02*
X161267238Y-107866073D01*
X161267238Y-107866073D02*
X161218857Y-107817692D01*
X162283238Y-107914453D02*
X162283238Y-106898453D01*
X162283238Y-106898453D02*
X162670286Y-106898453D01*
X162670286Y-106898453D02*
X162767048Y-106946834D01*
X162767048Y-106946834D02*
X162815429Y-106995215D01*
X162815429Y-106995215D02*
X162863810Y-107091977D01*
X162863810Y-107091977D02*
X162863810Y-107237120D01*
X162863810Y-107237120D02*
X162815429Y-107333882D01*
X162815429Y-107333882D02*
X162767048Y-107382263D01*
X162767048Y-107382263D02*
X162670286Y-107430644D01*
X162670286Y-107430644D02*
X162283238Y-107430644D01*
X163299238Y-107914453D02*
X163299238Y-106898453D01*
X163299238Y-106898453D02*
X163541143Y-106898453D01*
X163541143Y-106898453D02*
X163686286Y-106946834D01*
X163686286Y-106946834D02*
X163783048Y-107043596D01*
X163783048Y-107043596D02*
X163831429Y-107140358D01*
X163831429Y-107140358D02*
X163879810Y-107333882D01*
X163879810Y-107333882D02*
X163879810Y-107479025D01*
X163879810Y-107479025D02*
X163831429Y-107672549D01*
X163831429Y-107672549D02*
X163783048Y-107769311D01*
X163783048Y-107769311D02*
X163686286Y-107866073D01*
X163686286Y-107866073D02*
X163541143Y-107914453D01*
X163541143Y-107914453D02*
X163299238Y-107914453D01*
X164170095Y-106898453D02*
X164750667Y-106898453D01*
X164460381Y-107914453D02*
X164460381Y-106898453D01*
D11*
X126833333Y-77018176D02*
X126785714Y-77065796D01*
X126785714Y-77065796D02*
X126642857Y-77113415D01*
X126642857Y-77113415D02*
X126547619Y-77113415D01*
X126547619Y-77113415D02*
X126404762Y-77065796D01*
X126404762Y-77065796D02*
X126309524Y-76970557D01*
X126309524Y-76970557D02*
X126261905Y-76875319D01*
X126261905Y-76875319D02*
X126214286Y-76684843D01*
X126214286Y-76684843D02*
X126214286Y-76541986D01*
X126214286Y-76541986D02*
X126261905Y-76351510D01*
X126261905Y-76351510D02*
X126309524Y-76256272D01*
X126309524Y-76256272D02*
X126404762Y-76161034D01*
X126404762Y-76161034D02*
X126547619Y-76113415D01*
X126547619Y-76113415D02*
X126642857Y-76113415D01*
X126642857Y-76113415D02*
X126785714Y-76161034D01*
X126785714Y-76161034D02*
X126833333Y-76208653D01*
X127690476Y-76113415D02*
X127500000Y-76113415D01*
X127500000Y-76113415D02*
X127404762Y-76161034D01*
X127404762Y-76161034D02*
X127357143Y-76208653D01*
X127357143Y-76208653D02*
X127261905Y-76351510D01*
X127261905Y-76351510D02*
X127214286Y-76541986D01*
X127214286Y-76541986D02*
X127214286Y-76922938D01*
X127214286Y-76922938D02*
X127261905Y-77018176D01*
X127261905Y-77018176D02*
X127309524Y-77065796D01*
X127309524Y-77065796D02*
X127404762Y-77113415D01*
X127404762Y-77113415D02*
X127595238Y-77113415D01*
X127595238Y-77113415D02*
X127690476Y-77065796D01*
X127690476Y-77065796D02*
X127738095Y-77018176D01*
X127738095Y-77018176D02*
X127785714Y-76922938D01*
X127785714Y-76922938D02*
X127785714Y-76684843D01*
X127785714Y-76684843D02*
X127738095Y-76589605D01*
X127738095Y-76589605D02*
X127690476Y-76541986D01*
X127690476Y-76541986D02*
X127595238Y-76494367D01*
X127595238Y-76494367D02*
X127404762Y-76494367D01*
X127404762Y-76494367D02*
X127309524Y-76541986D01*
X127309524Y-76541986D02*
X127261905Y-76589605D01*
X127261905Y-76589605D02*
X127214286Y-76684843D01*
X181530763Y-53772065D02*
X181197430Y-53295874D01*
X180959335Y-53772065D02*
X180959335Y-52772065D01*
X180959335Y-52772065D02*
X181340287Y-52772065D01*
X181340287Y-52772065D02*
X181435525Y-52819684D01*
X181435525Y-52819684D02*
X181483144Y-52867303D01*
X181483144Y-52867303D02*
X181530763Y-52962541D01*
X181530763Y-52962541D02*
X181530763Y-53105398D01*
X181530763Y-53105398D02*
X181483144Y-53200636D01*
X181483144Y-53200636D02*
X181435525Y-53248255D01*
X181435525Y-53248255D02*
X181340287Y-53295874D01*
X181340287Y-53295874D02*
X180959335Y-53295874D01*
X181959335Y-53248255D02*
X182292668Y-53248255D01*
X182435525Y-53772065D02*
X181959335Y-53772065D01*
X181959335Y-53772065D02*
X181959335Y-52772065D01*
X181959335Y-52772065D02*
X182435525Y-52772065D01*
X183197430Y-53248255D02*
X182864097Y-53248255D01*
X182864097Y-53772065D02*
X182864097Y-52772065D01*
X182864097Y-52772065D02*
X183340287Y-52772065D01*
X183864097Y-52772065D02*
X183864097Y-53010160D01*
X183626002Y-52914922D02*
X183864097Y-53010160D01*
X183864097Y-53010160D02*
X184102192Y-52914922D01*
X183721240Y-53200636D02*
X183864097Y-53010160D01*
X183864097Y-53010160D02*
X184006954Y-53200636D01*
X184626002Y-52772065D02*
X184626002Y-53010160D01*
X184387907Y-52914922D02*
X184626002Y-53010160D01*
X184626002Y-53010160D02*
X184864097Y-52914922D01*
X184483145Y-53200636D02*
X184626002Y-53010160D01*
X184626002Y-53010160D02*
X184768859Y-53200636D01*
X120586666Y-53794819D02*
X120253333Y-53318628D01*
X120015238Y-53794819D02*
X120015238Y-52794819D01*
X120015238Y-52794819D02*
X120396190Y-52794819D01*
X120396190Y-52794819D02*
X120491428Y-52842438D01*
X120491428Y-52842438D02*
X120539047Y-52890057D01*
X120539047Y-52890057D02*
X120586666Y-52985295D01*
X120586666Y-52985295D02*
X120586666Y-53128152D01*
X120586666Y-53128152D02*
X120539047Y-53223390D01*
X120539047Y-53223390D02*
X120491428Y-53271009D01*
X120491428Y-53271009D02*
X120396190Y-53318628D01*
X120396190Y-53318628D02*
X120015238Y-53318628D01*
X121015238Y-53271009D02*
X121348571Y-53271009D01*
X121491428Y-53794819D02*
X121015238Y-53794819D01*
X121015238Y-53794819D02*
X121015238Y-52794819D01*
X121015238Y-52794819D02*
X121491428Y-52794819D01*
X122253333Y-53271009D02*
X121920000Y-53271009D01*
X121920000Y-53794819D02*
X121920000Y-52794819D01*
X121920000Y-52794819D02*
X122396190Y-52794819D01*
X122920000Y-52794819D02*
X122920000Y-53032914D01*
X122681905Y-52937676D02*
X122920000Y-53032914D01*
X122920000Y-53032914D02*
X123158095Y-52937676D01*
X122777143Y-53223390D02*
X122920000Y-53032914D01*
X122920000Y-53032914D02*
X123062857Y-53223390D01*
X123681905Y-52794819D02*
X123681905Y-53032914D01*
X123443810Y-52937676D02*
X123681905Y-53032914D01*
X123681905Y-53032914D02*
X123920000Y-52937676D01*
X123539048Y-53223390D02*
X123681905Y-53032914D01*
X123681905Y-53032914D02*
X123824762Y-53223390D01*
X170110926Y-99062269D02*
X169777593Y-98586078D01*
X169539498Y-99062269D02*
X169539498Y-98062269D01*
X169539498Y-98062269D02*
X169920450Y-98062269D01*
X169920450Y-98062269D02*
X170015688Y-98109888D01*
X170015688Y-98109888D02*
X170063307Y-98157507D01*
X170063307Y-98157507D02*
X170110926Y-98252745D01*
X170110926Y-98252745D02*
X170110926Y-98395602D01*
X170110926Y-98395602D02*
X170063307Y-98490840D01*
X170063307Y-98490840D02*
X170015688Y-98538459D01*
X170015688Y-98538459D02*
X169920450Y-98586078D01*
X169920450Y-98586078D02*
X169539498Y-98586078D01*
X171063307Y-99062269D02*
X170491879Y-99062269D01*
X170777593Y-99062269D02*
X170777593Y-98062269D01*
X170777593Y-98062269D02*
X170682355Y-98205126D01*
X170682355Y-98205126D02*
X170587117Y-98300364D01*
X170587117Y-98300364D02*
X170491879Y-98347983D01*
X171682355Y-98062269D02*
X171777593Y-98062269D01*
X171777593Y-98062269D02*
X171872831Y-98109888D01*
X171872831Y-98109888D02*
X171920450Y-98157507D01*
X171920450Y-98157507D02*
X171968069Y-98252745D01*
X171968069Y-98252745D02*
X172015688Y-98443221D01*
X172015688Y-98443221D02*
X172015688Y-98681316D01*
X172015688Y-98681316D02*
X171968069Y-98871792D01*
X171968069Y-98871792D02*
X171920450Y-98967030D01*
X171920450Y-98967030D02*
X171872831Y-99014650D01*
X171872831Y-99014650D02*
X171777593Y-99062269D01*
X171777593Y-99062269D02*
X171682355Y-99062269D01*
X171682355Y-99062269D02*
X171587117Y-99014650D01*
X171587117Y-99014650D02*
X171539498Y-98967030D01*
X171539498Y-98967030D02*
X171491879Y-98871792D01*
X171491879Y-98871792D02*
X171444260Y-98681316D01*
X171444260Y-98681316D02*
X171444260Y-98443221D01*
X171444260Y-98443221D02*
X171491879Y-98252745D01*
X171491879Y-98252745D02*
X171539498Y-98157507D01*
X171539498Y-98157507D02*
X171587117Y-98109888D01*
X171587117Y-98109888D02*
X171682355Y-98062269D01*
X171381367Y-51022265D02*
X171524224Y-51069884D01*
X171524224Y-51069884D02*
X171762319Y-51069884D01*
X171762319Y-51069884D02*
X171857557Y-51022265D01*
X171857557Y-51022265D02*
X171905176Y-50974645D01*
X171905176Y-50974645D02*
X171952795Y-50879407D01*
X171952795Y-50879407D02*
X171952795Y-50784169D01*
X171952795Y-50784169D02*
X171905176Y-50688931D01*
X171905176Y-50688931D02*
X171857557Y-50641312D01*
X171857557Y-50641312D02*
X171762319Y-50593693D01*
X171762319Y-50593693D02*
X171571843Y-50546074D01*
X171571843Y-50546074D02*
X171476605Y-50498455D01*
X171476605Y-50498455D02*
X171428986Y-50450836D01*
X171428986Y-50450836D02*
X171381367Y-50355598D01*
X171381367Y-50355598D02*
X171381367Y-50260360D01*
X171381367Y-50260360D02*
X171428986Y-50165122D01*
X171428986Y-50165122D02*
X171476605Y-50117503D01*
X171476605Y-50117503D02*
X171571843Y-50069884D01*
X171571843Y-50069884D02*
X171809938Y-50069884D01*
X171809938Y-50069884D02*
X171952795Y-50117503D01*
X172286129Y-50069884D02*
X172524224Y-51069884D01*
X172524224Y-51069884D02*
X172714700Y-50355598D01*
X172714700Y-50355598D02*
X172905176Y-51069884D01*
X172905176Y-51069884D02*
X173143272Y-50069884D01*
X174048033Y-51069884D02*
X173476605Y-51069884D01*
X173762319Y-51069884D02*
X173762319Y-50069884D01*
X173762319Y-50069884D02*
X173667081Y-50212741D01*
X173667081Y-50212741D02*
X173571843Y-50307979D01*
X173571843Y-50307979D02*
X173476605Y-50355598D01*
X181969580Y-68157857D02*
X182017200Y-68205476D01*
X182017200Y-68205476D02*
X182064819Y-68348333D01*
X182064819Y-68348333D02*
X182064819Y-68443571D01*
X182064819Y-68443571D02*
X182017200Y-68586428D01*
X182017200Y-68586428D02*
X181921961Y-68681666D01*
X181921961Y-68681666D02*
X181826723Y-68729285D01*
X181826723Y-68729285D02*
X181636247Y-68776904D01*
X181636247Y-68776904D02*
X181493390Y-68776904D01*
X181493390Y-68776904D02*
X181302914Y-68729285D01*
X181302914Y-68729285D02*
X181207676Y-68681666D01*
X181207676Y-68681666D02*
X181112438Y-68586428D01*
X181112438Y-68586428D02*
X181064819Y-68443571D01*
X181064819Y-68443571D02*
X181064819Y-68348333D01*
X181064819Y-68348333D02*
X181112438Y-68205476D01*
X181112438Y-68205476D02*
X181160057Y-68157857D01*
X182064819Y-67205476D02*
X182064819Y-67776904D01*
X182064819Y-67491190D02*
X181064819Y-67491190D01*
X181064819Y-67491190D02*
X181207676Y-67586428D01*
X181207676Y-67586428D02*
X181302914Y-67681666D01*
X181302914Y-67681666D02*
X181350533Y-67776904D01*
X181493390Y-66634047D02*
X181445771Y-66729285D01*
X181445771Y-66729285D02*
X181398152Y-66776904D01*
X181398152Y-66776904D02*
X181302914Y-66824523D01*
X181302914Y-66824523D02*
X181255295Y-66824523D01*
X181255295Y-66824523D02*
X181160057Y-66776904D01*
X181160057Y-66776904D02*
X181112438Y-66729285D01*
X181112438Y-66729285D02*
X181064819Y-66634047D01*
X181064819Y-66634047D02*
X181064819Y-66443571D01*
X181064819Y-66443571D02*
X181112438Y-66348333D01*
X181112438Y-66348333D02*
X181160057Y-66300714D01*
X181160057Y-66300714D02*
X181255295Y-66253095D01*
X181255295Y-66253095D02*
X181302914Y-66253095D01*
X181302914Y-66253095D02*
X181398152Y-66300714D01*
X181398152Y-66300714D02*
X181445771Y-66348333D01*
X181445771Y-66348333D02*
X181493390Y-66443571D01*
X181493390Y-66443571D02*
X181493390Y-66634047D01*
X181493390Y-66634047D02*
X181541009Y-66729285D01*
X181541009Y-66729285D02*
X181588628Y-66776904D01*
X181588628Y-66776904D02*
X181683866Y-66824523D01*
X181683866Y-66824523D02*
X181874342Y-66824523D01*
X181874342Y-66824523D02*
X181969580Y-66776904D01*
X181969580Y-66776904D02*
X182017200Y-66729285D01*
X182017200Y-66729285D02*
X182064819Y-66634047D01*
X182064819Y-66634047D02*
X182064819Y-66443571D01*
X182064819Y-66443571D02*
X182017200Y-66348333D01*
X182017200Y-66348333D02*
X181969580Y-66300714D01*
X181969580Y-66300714D02*
X181874342Y-66253095D01*
X181874342Y-66253095D02*
X181683866Y-66253095D01*
X181683866Y-66253095D02*
X181588628Y-66300714D01*
X181588628Y-66300714D02*
X181541009Y-66348333D01*
X181541009Y-66348333D02*
X181493390Y-66443571D01*
X170834009Y-79612302D02*
X170786390Y-79659922D01*
X170786390Y-79659922D02*
X170643533Y-79707541D01*
X170643533Y-79707541D02*
X170548295Y-79707541D01*
X170548295Y-79707541D02*
X170405438Y-79659922D01*
X170405438Y-79659922D02*
X170310200Y-79564683D01*
X170310200Y-79564683D02*
X170262581Y-79469445D01*
X170262581Y-79469445D02*
X170214962Y-79278969D01*
X170214962Y-79278969D02*
X170214962Y-79136112D01*
X170214962Y-79136112D02*
X170262581Y-78945636D01*
X170262581Y-78945636D02*
X170310200Y-78850398D01*
X170310200Y-78850398D02*
X170405438Y-78755160D01*
X170405438Y-78755160D02*
X170548295Y-78707541D01*
X170548295Y-78707541D02*
X170643533Y-78707541D01*
X170643533Y-78707541D02*
X170786390Y-78755160D01*
X170786390Y-78755160D02*
X170834009Y-78802779D01*
X171214962Y-78802779D02*
X171262581Y-78755160D01*
X171262581Y-78755160D02*
X171357819Y-78707541D01*
X171357819Y-78707541D02*
X171595914Y-78707541D01*
X171595914Y-78707541D02*
X171691152Y-78755160D01*
X171691152Y-78755160D02*
X171738771Y-78802779D01*
X171738771Y-78802779D02*
X171786390Y-78898017D01*
X171786390Y-78898017D02*
X171786390Y-78993255D01*
X171786390Y-78993255D02*
X171738771Y-79136112D01*
X171738771Y-79136112D02*
X171167343Y-79707541D01*
X171167343Y-79707541D02*
X171786390Y-79707541D01*
X172405438Y-78707541D02*
X172500676Y-78707541D01*
X172500676Y-78707541D02*
X172595914Y-78755160D01*
X172595914Y-78755160D02*
X172643533Y-78802779D01*
X172643533Y-78802779D02*
X172691152Y-78898017D01*
X172691152Y-78898017D02*
X172738771Y-79088493D01*
X172738771Y-79088493D02*
X172738771Y-79326588D01*
X172738771Y-79326588D02*
X172691152Y-79517064D01*
X172691152Y-79517064D02*
X172643533Y-79612302D01*
X172643533Y-79612302D02*
X172595914Y-79659922D01*
X172595914Y-79659922D02*
X172500676Y-79707541D01*
X172500676Y-79707541D02*
X172405438Y-79707541D01*
X172405438Y-79707541D02*
X172310200Y-79659922D01*
X172310200Y-79659922D02*
X172262581Y-79612302D01*
X172262581Y-79612302D02*
X172214962Y-79517064D01*
X172214962Y-79517064D02*
X172167343Y-79326588D01*
X172167343Y-79326588D02*
X172167343Y-79088493D01*
X172167343Y-79088493D02*
X172214962Y-78898017D01*
X172214962Y-78898017D02*
X172262581Y-78802779D01*
X172262581Y-78802779D02*
X172310200Y-78755160D01*
X172310200Y-78755160D02*
X172405438Y-78707541D01*
X165687276Y-103959775D02*
X165639657Y-104007395D01*
X165639657Y-104007395D02*
X165496800Y-104055014D01*
X165496800Y-104055014D02*
X165401562Y-104055014D01*
X165401562Y-104055014D02*
X165258705Y-104007395D01*
X165258705Y-104007395D02*
X165163467Y-103912156D01*
X165163467Y-103912156D02*
X165115848Y-103816918D01*
X165115848Y-103816918D02*
X165068229Y-103626442D01*
X165068229Y-103626442D02*
X165068229Y-103483585D01*
X165068229Y-103483585D02*
X165115848Y-103293109D01*
X165115848Y-103293109D02*
X165163467Y-103197871D01*
X165163467Y-103197871D02*
X165258705Y-103102633D01*
X165258705Y-103102633D02*
X165401562Y-103055014D01*
X165401562Y-103055014D02*
X165496800Y-103055014D01*
X165496800Y-103055014D02*
X165639657Y-103102633D01*
X165639657Y-103102633D02*
X165687276Y-103150252D01*
X166639657Y-104055014D02*
X166068229Y-104055014D01*
X166353943Y-104055014D02*
X166353943Y-103055014D01*
X166353943Y-103055014D02*
X166258705Y-103197871D01*
X166258705Y-103197871D02*
X166163467Y-103293109D01*
X166163467Y-103293109D02*
X166068229Y-103340728D01*
X167115848Y-104055014D02*
X167306324Y-104055014D01*
X167306324Y-104055014D02*
X167401562Y-104007395D01*
X167401562Y-104007395D02*
X167449181Y-103959775D01*
X167449181Y-103959775D02*
X167544419Y-103816918D01*
X167544419Y-103816918D02*
X167592038Y-103626442D01*
X167592038Y-103626442D02*
X167592038Y-103245490D01*
X167592038Y-103245490D02*
X167544419Y-103150252D01*
X167544419Y-103150252D02*
X167496800Y-103102633D01*
X167496800Y-103102633D02*
X167401562Y-103055014D01*
X167401562Y-103055014D02*
X167211086Y-103055014D01*
X167211086Y-103055014D02*
X167115848Y-103102633D01*
X167115848Y-103102633D02*
X167068229Y-103150252D01*
X167068229Y-103150252D02*
X167020610Y-103245490D01*
X167020610Y-103245490D02*
X167020610Y-103483585D01*
X167020610Y-103483585D02*
X167068229Y-103578823D01*
X167068229Y-103578823D02*
X167115848Y-103626442D01*
X167115848Y-103626442D02*
X167211086Y-103674061D01*
X167211086Y-103674061D02*
X167401562Y-103674061D01*
X167401562Y-103674061D02*
X167496800Y-103626442D01*
X167496800Y-103626442D02*
X167544419Y-103578823D01*
X167544419Y-103578823D02*
X167592038Y-103483585D01*
X166244277Y-99098309D02*
X165910944Y-98622118D01*
X165672849Y-99098309D02*
X165672849Y-98098309D01*
X165672849Y-98098309D02*
X166053801Y-98098309D01*
X166053801Y-98098309D02*
X166149039Y-98145928D01*
X166149039Y-98145928D02*
X166196658Y-98193547D01*
X166196658Y-98193547D02*
X166244277Y-98288785D01*
X166244277Y-98288785D02*
X166244277Y-98431642D01*
X166244277Y-98431642D02*
X166196658Y-98526880D01*
X166196658Y-98526880D02*
X166149039Y-98574499D01*
X166149039Y-98574499D02*
X166053801Y-98622118D01*
X166053801Y-98622118D02*
X165672849Y-98622118D01*
X166720468Y-99098309D02*
X166910944Y-99098309D01*
X166910944Y-99098309D02*
X167006182Y-99050690D01*
X167006182Y-99050690D02*
X167053801Y-99003070D01*
X167053801Y-99003070D02*
X167149039Y-98860213D01*
X167149039Y-98860213D02*
X167196658Y-98669737D01*
X167196658Y-98669737D02*
X167196658Y-98288785D01*
X167196658Y-98288785D02*
X167149039Y-98193547D01*
X167149039Y-98193547D02*
X167101420Y-98145928D01*
X167101420Y-98145928D02*
X167006182Y-98098309D01*
X167006182Y-98098309D02*
X166815706Y-98098309D01*
X166815706Y-98098309D02*
X166720468Y-98145928D01*
X166720468Y-98145928D02*
X166672849Y-98193547D01*
X166672849Y-98193547D02*
X166625230Y-98288785D01*
X166625230Y-98288785D02*
X166625230Y-98526880D01*
X166625230Y-98526880D02*
X166672849Y-98622118D01*
X166672849Y-98622118D02*
X166720468Y-98669737D01*
X166720468Y-98669737D02*
X166815706Y-98717356D01*
X166815706Y-98717356D02*
X167006182Y-98717356D01*
X167006182Y-98717356D02*
X167101420Y-98669737D01*
X167101420Y-98669737D02*
X167149039Y-98622118D01*
X167149039Y-98622118D02*
X167196658Y-98526880D01*
X131566666Y-125004819D02*
X131566666Y-125719104D01*
X131566666Y-125719104D02*
X131519047Y-125861961D01*
X131519047Y-125861961D02*
X131423809Y-125957200D01*
X131423809Y-125957200D02*
X131280952Y-126004819D01*
X131280952Y-126004819D02*
X131185714Y-126004819D01*
X132566666Y-126004819D02*
X131995238Y-126004819D01*
X132280952Y-126004819D02*
X132280952Y-125004819D01*
X132280952Y-125004819D02*
X132185714Y-125147676D01*
X132185714Y-125147676D02*
X132090476Y-125242914D01*
X132090476Y-125242914D02*
X131995238Y-125290533D01*
X149409666Y-75207906D02*
X149409666Y-76017429D01*
X149409666Y-76017429D02*
X149457285Y-76112667D01*
X149457285Y-76112667D02*
X149504904Y-76160287D01*
X149504904Y-76160287D02*
X149600142Y-76207906D01*
X149600142Y-76207906D02*
X149790618Y-76207906D01*
X149790618Y-76207906D02*
X149885856Y-76160287D01*
X149885856Y-76160287D02*
X149933475Y-76112667D01*
X149933475Y-76112667D02*
X149981094Y-76017429D01*
X149981094Y-76017429D02*
X149981094Y-75207906D01*
X150981094Y-76207906D02*
X150409666Y-76207906D01*
X150695380Y-76207906D02*
X150695380Y-75207906D01*
X150695380Y-75207906D02*
X150600142Y-75350763D01*
X150600142Y-75350763D02*
X150504904Y-75446001D01*
X150504904Y-75446001D02*
X150409666Y-75493620D01*
X168871481Y-72169138D02*
X168538148Y-71692947D01*
X168300053Y-72169138D02*
X168300053Y-71169138D01*
X168300053Y-71169138D02*
X168681005Y-71169138D01*
X168681005Y-71169138D02*
X168776243Y-71216757D01*
X168776243Y-71216757D02*
X168823862Y-71264376D01*
X168823862Y-71264376D02*
X168871481Y-71359614D01*
X168871481Y-71359614D02*
X168871481Y-71502471D01*
X168871481Y-71502471D02*
X168823862Y-71597709D01*
X168823862Y-71597709D02*
X168776243Y-71645328D01*
X168776243Y-71645328D02*
X168681005Y-71692947D01*
X168681005Y-71692947D02*
X168300053Y-71692947D01*
X169823862Y-72169138D02*
X169252434Y-72169138D01*
X169538148Y-72169138D02*
X169538148Y-71169138D01*
X169538148Y-71169138D02*
X169442910Y-71311995D01*
X169442910Y-71311995D02*
X169347672Y-71407233D01*
X169347672Y-71407233D02*
X169252434Y-71454852D01*
X121925212Y-122788417D02*
X121591879Y-122312226D01*
X121353784Y-122788417D02*
X121353784Y-121788417D01*
X121353784Y-121788417D02*
X121734736Y-121788417D01*
X121734736Y-121788417D02*
X121829974Y-121836036D01*
X121829974Y-121836036D02*
X121877593Y-121883655D01*
X121877593Y-121883655D02*
X121925212Y-121978893D01*
X121925212Y-121978893D02*
X121925212Y-122121750D01*
X121925212Y-122121750D02*
X121877593Y-122216988D01*
X121877593Y-122216988D02*
X121829974Y-122264607D01*
X121829974Y-122264607D02*
X121734736Y-122312226D01*
X121734736Y-122312226D02*
X121353784Y-122312226D01*
X122353784Y-122264607D02*
X122687117Y-122264607D01*
X122829974Y-122788417D02*
X122353784Y-122788417D01*
X122353784Y-122788417D02*
X122353784Y-121788417D01*
X122353784Y-121788417D02*
X122829974Y-121788417D01*
X123591879Y-122264607D02*
X123258546Y-122264607D01*
X123258546Y-122788417D02*
X123258546Y-121788417D01*
X123258546Y-121788417D02*
X123734736Y-121788417D01*
X124258546Y-121788417D02*
X124258546Y-122026512D01*
X124020451Y-121931274D02*
X124258546Y-122026512D01*
X124258546Y-122026512D02*
X124496641Y-121931274D01*
X124115689Y-122216988D02*
X124258546Y-122026512D01*
X124258546Y-122026512D02*
X124401403Y-122216988D01*
X125020451Y-121788417D02*
X125020451Y-122026512D01*
X124782356Y-121931274D02*
X125020451Y-122026512D01*
X125020451Y-122026512D02*
X125258546Y-121931274D01*
X124877594Y-122216988D02*
X125020451Y-122026512D01*
X125020451Y-122026512D02*
X125163308Y-122216988D01*
X160349525Y-89063231D02*
X160016192Y-88587040D01*
X159778097Y-89063231D02*
X159778097Y-88063231D01*
X159778097Y-88063231D02*
X160159049Y-88063231D01*
X160159049Y-88063231D02*
X160254287Y-88110850D01*
X160254287Y-88110850D02*
X160301906Y-88158469D01*
X160301906Y-88158469D02*
X160349525Y-88253707D01*
X160349525Y-88253707D02*
X160349525Y-88396564D01*
X160349525Y-88396564D02*
X160301906Y-88491802D01*
X160301906Y-88491802D02*
X160254287Y-88539421D01*
X160254287Y-88539421D02*
X160159049Y-88587040D01*
X160159049Y-88587040D02*
X159778097Y-88587040D01*
X161301906Y-89063231D02*
X160730478Y-89063231D01*
X161016192Y-89063231D02*
X161016192Y-88063231D01*
X161016192Y-88063231D02*
X160920954Y-88206088D01*
X160920954Y-88206088D02*
X160825716Y-88301326D01*
X160825716Y-88301326D02*
X160730478Y-88348945D01*
X161635240Y-88063231D02*
X162254287Y-88063231D01*
X162254287Y-88063231D02*
X161920954Y-88444183D01*
X161920954Y-88444183D02*
X162063811Y-88444183D01*
X162063811Y-88444183D02*
X162159049Y-88491802D01*
X162159049Y-88491802D02*
X162206668Y-88539421D01*
X162206668Y-88539421D02*
X162254287Y-88634659D01*
X162254287Y-88634659D02*
X162254287Y-88872754D01*
X162254287Y-88872754D02*
X162206668Y-88967992D01*
X162206668Y-88967992D02*
X162159049Y-89015612D01*
X162159049Y-89015612D02*
X162063811Y-89063231D01*
X162063811Y-89063231D02*
X161778097Y-89063231D01*
X161778097Y-89063231D02*
X161682859Y-89015612D01*
X161682859Y-89015612D02*
X161635240Y-88967992D01*
X175891647Y-79564248D02*
X175844028Y-79611868D01*
X175844028Y-79611868D02*
X175701171Y-79659487D01*
X175701171Y-79659487D02*
X175605933Y-79659487D01*
X175605933Y-79659487D02*
X175463076Y-79611868D01*
X175463076Y-79611868D02*
X175367838Y-79516629D01*
X175367838Y-79516629D02*
X175320219Y-79421391D01*
X175320219Y-79421391D02*
X175272600Y-79230915D01*
X175272600Y-79230915D02*
X175272600Y-79088058D01*
X175272600Y-79088058D02*
X175320219Y-78897582D01*
X175320219Y-78897582D02*
X175367838Y-78802344D01*
X175367838Y-78802344D02*
X175463076Y-78707106D01*
X175463076Y-78707106D02*
X175605933Y-78659487D01*
X175605933Y-78659487D02*
X175701171Y-78659487D01*
X175701171Y-78659487D02*
X175844028Y-78707106D01*
X175844028Y-78707106D02*
X175891647Y-78754725D01*
X176272600Y-78754725D02*
X176320219Y-78707106D01*
X176320219Y-78707106D02*
X176415457Y-78659487D01*
X176415457Y-78659487D02*
X176653552Y-78659487D01*
X176653552Y-78659487D02*
X176748790Y-78707106D01*
X176748790Y-78707106D02*
X176796409Y-78754725D01*
X176796409Y-78754725D02*
X176844028Y-78849963D01*
X176844028Y-78849963D02*
X176844028Y-78945201D01*
X176844028Y-78945201D02*
X176796409Y-79088058D01*
X176796409Y-79088058D02*
X176224981Y-79659487D01*
X176224981Y-79659487D02*
X176844028Y-79659487D01*
X177796409Y-79659487D02*
X177224981Y-79659487D01*
X177510695Y-79659487D02*
X177510695Y-78659487D01*
X177510695Y-78659487D02*
X177415457Y-78802344D01*
X177415457Y-78802344D02*
X177320219Y-78897582D01*
X177320219Y-78897582D02*
X177224981Y-78945201D01*
X161118193Y-71912961D02*
X161070574Y-71960581D01*
X161070574Y-71960581D02*
X160927717Y-72008200D01*
X160927717Y-72008200D02*
X160832479Y-72008200D01*
X160832479Y-72008200D02*
X160689622Y-71960581D01*
X160689622Y-71960581D02*
X160594384Y-71865342D01*
X160594384Y-71865342D02*
X160546765Y-71770104D01*
X160546765Y-71770104D02*
X160499146Y-71579628D01*
X160499146Y-71579628D02*
X160499146Y-71436771D01*
X160499146Y-71436771D02*
X160546765Y-71246295D01*
X160546765Y-71246295D02*
X160594384Y-71151057D01*
X160594384Y-71151057D02*
X160689622Y-71055819D01*
X160689622Y-71055819D02*
X160832479Y-71008200D01*
X160832479Y-71008200D02*
X160927717Y-71008200D01*
X160927717Y-71008200D02*
X161070574Y-71055819D01*
X161070574Y-71055819D02*
X161118193Y-71103438D01*
X161975336Y-71341533D02*
X161975336Y-72008200D01*
X161737241Y-70960581D02*
X161499146Y-71674866D01*
X161499146Y-71674866D02*
X162118193Y-71674866D01*
X150799822Y-141010880D02*
X150466489Y-140534689D01*
X150228394Y-141010880D02*
X150228394Y-140010880D01*
X150228394Y-140010880D02*
X150609346Y-140010880D01*
X150609346Y-140010880D02*
X150704584Y-140058499D01*
X150704584Y-140058499D02*
X150752203Y-140106118D01*
X150752203Y-140106118D02*
X150799822Y-140201356D01*
X150799822Y-140201356D02*
X150799822Y-140344213D01*
X150799822Y-140344213D02*
X150752203Y-140439451D01*
X150752203Y-140439451D02*
X150704584Y-140487070D01*
X150704584Y-140487070D02*
X150609346Y-140534689D01*
X150609346Y-140534689D02*
X150228394Y-140534689D01*
X151228394Y-140487070D02*
X151561727Y-140487070D01*
X151704584Y-141010880D02*
X151228394Y-141010880D01*
X151228394Y-141010880D02*
X151228394Y-140010880D01*
X151228394Y-140010880D02*
X151704584Y-140010880D01*
X152466489Y-140487070D02*
X152133156Y-140487070D01*
X152133156Y-141010880D02*
X152133156Y-140010880D01*
X152133156Y-140010880D02*
X152609346Y-140010880D01*
X153133156Y-140010880D02*
X153133156Y-140248975D01*
X152895061Y-140153737D02*
X153133156Y-140248975D01*
X153133156Y-140248975D02*
X153371251Y-140153737D01*
X152990299Y-140439451D02*
X153133156Y-140248975D01*
X153133156Y-140248975D02*
X153276013Y-140439451D01*
X153895061Y-140010880D02*
X153895061Y-140248975D01*
X153656966Y-140153737D02*
X153895061Y-140248975D01*
X153895061Y-140248975D02*
X154133156Y-140153737D01*
X153752204Y-140439451D02*
X153895061Y-140248975D01*
X153895061Y-140248975D02*
X154037918Y-140439451D01*
D13*
%TO.C,R5*%
X130279564Y-97315000D02*
X128825436Y-97315000D01*
X130279564Y-95495000D02*
X128825436Y-95495000D01*
%TO.C,C5*%
X127506252Y-84730000D02*
X126083748Y-84730000D01*
X127506252Y-82910000D02*
X126083748Y-82910000D01*
%TO.C,C7*%
X128841248Y-100575000D02*
X130263752Y-100575000D01*
X128841248Y-102395000D02*
X130263752Y-102395000D01*
%TO.C,C3*%
X174900000Y-66803748D02*
X174900000Y-68226252D01*
X173080000Y-66803748D02*
X173080000Y-68226252D01*
%TO.C,R11*%
X153105000Y-93252936D02*
X153105000Y-94707064D01*
X151285000Y-93252936D02*
X151285000Y-94707064D01*
%TO.C,R3*%
X146777064Y-94890000D02*
X145322936Y-94890000D01*
X146777064Y-93070000D02*
X145322936Y-93070000D01*
%TO.C,U2*%
X171410000Y-58015000D02*
X171410000Y-62656000D01*
X171410000Y-58015000D02*
X181650000Y-58015000D01*
X171410000Y-59525000D02*
X181650000Y-59525000D01*
X171410000Y-62656000D02*
X181650000Y-62656000D01*
X174680000Y-58015000D02*
X174680000Y-59525000D01*
X178381000Y-58015000D02*
X178381000Y-59525000D01*
X181650000Y-58015000D02*
X181650000Y-62656000D01*
%TO.C,D2*%
X150994000Y-101890000D02*
X151150000Y-101890000D01*
X153310000Y-101890000D02*
X153466000Y-101890000D01*
X151151392Y-98657666D02*
G75*
G03*
X150994485Y-101889999I1078608J-1672334D01*
G01*
X151150164Y-99288871D02*
G75*
G03*
X151150001Y-101370960I1079836J-1041129D01*
G01*
X153309999Y-101370960D02*
G75*
G03*
X153309836Y-99288871I-1079999J1040960D01*
G01*
X153465515Y-101889999D02*
G75*
G03*
X153308608Y-98657666I-1235515J1559999D01*
G01*
%TO.C,R8*%
X162017064Y-82190000D02*
X160562936Y-82190000D01*
X162017064Y-80370000D02*
X160562936Y-80370000D01*
%TO.C,J2*%
X186020000Y-141135000D02*
X183100000Y-141135000D01*
X186020000Y-132235000D02*
X186020000Y-141135000D01*
X186020000Y-132195000D02*
X183100000Y-132195000D01*
X183100000Y-145885000D02*
X180470000Y-145885000D01*
X183100000Y-141135000D02*
X183100000Y-145885000D01*
X183100000Y-127445000D02*
X183100000Y-132195000D01*
X180470000Y-127445000D02*
X183100000Y-127445000D01*
X177670000Y-145885000D02*
X174070000Y-145885000D01*
X174070000Y-127445000D02*
X177670000Y-127445000D01*
X171370000Y-145885000D02*
X167770000Y-145885000D01*
X167770000Y-127445000D02*
X171370000Y-127445000D01*
X162250000Y-145885000D02*
X164970000Y-145885000D01*
X162250000Y-142485000D02*
X162250000Y-145885000D01*
X162250000Y-142485000D02*
X159250000Y-142485000D01*
X162250000Y-130845000D02*
X159250000Y-130845000D01*
X162250000Y-127445000D02*
X164970000Y-127445000D01*
X162250000Y-127445000D02*
X162250000Y-130845000D01*
X159250000Y-130845000D02*
X159250000Y-142485000D01*
%TO.C,C10*%
X162001252Y-97430000D02*
X160578748Y-97430000D01*
X162001252Y-95610000D02*
X160578748Y-95610000D01*
%TO.C,C1*%
X169820000Y-66803748D02*
X169820000Y-68226252D01*
X168000000Y-66803748D02*
X168000000Y-68226252D01*
%TO.C,C16*%
X141125000Y-54051252D02*
X141125000Y-52628748D01*
X142945000Y-54051252D02*
X142945000Y-52628748D01*
%TO.C,R7*%
X162017064Y-92350000D02*
X160562936Y-92350000D01*
X162017064Y-90530000D02*
X160562936Y-90530000D01*
%TO.C,R2*%
X145322936Y-103115000D02*
X146777064Y-103115000D01*
X145322936Y-104935000D02*
X146777064Y-104935000D01*
%TO.C,Y1*%
X135295000Y-76175000D02*
X141545000Y-76175000D01*
X135295000Y-81225000D02*
X141545000Y-81225000D01*
X135295000Y-76175000D02*
G75*
G03*
X135295000Y-81225000I0J-2525000D01*
G01*
X141545000Y-81225000D02*
G75*
G03*
X141545000Y-76175000I0J2525000D01*
G01*
%TO.C,D1*%
X175475000Y-74395000D02*
X175475000Y-72925000D01*
X175475000Y-72925000D02*
X173190000Y-72925000D01*
X173190000Y-74395000D02*
X175475000Y-74395000D01*
%TO.C,C14*%
X167081252Y-82190000D02*
X165658748Y-82190000D01*
X167081252Y-80370000D02*
X165658748Y-80370000D01*
%TO.C,R4*%
X130279564Y-107475000D02*
X128825436Y-107475000D01*
X130279564Y-105655000D02*
X128825436Y-105655000D01*
%TO.C,R12*%
X127360000Y-69307064D02*
X127360000Y-67852936D01*
X129180000Y-69307064D02*
X129180000Y-67852936D01*
%TO.C,C11*%
X172161252Y-102510000D02*
X170738748Y-102510000D01*
X172161252Y-100690000D02*
X170738748Y-100690000D01*
%TO.C,C15*%
X160380000Y-61671252D02*
X160380000Y-60248748D01*
X162200000Y-61671252D02*
X162200000Y-60248748D01*
%TO.C,RV1*%
X145340000Y-54670000D02*
X145340000Y-53340000D01*
X146670000Y-54670000D02*
X145340000Y-54670000D01*
X147940000Y-54670000D02*
X153080000Y-54670000D01*
X147940000Y-54670000D02*
X147940000Y-52010000D01*
X153080000Y-54670000D02*
X153080000Y-52010000D01*
X147940000Y-52010000D02*
X153080000Y-52010000D01*
%TO.C,C17*%
X137865000Y-52628748D02*
X137865000Y-54051252D01*
X136045000Y-52628748D02*
X136045000Y-54051252D01*
%TO.C,C13*%
X172161252Y-87270000D02*
X170738748Y-87270000D01*
X172161252Y-85450000D02*
X170738748Y-85450000D01*
%TO.C,U3*%
X136602500Y-92055000D02*
X133152500Y-92055000D01*
X136602500Y-92055000D02*
X138552500Y-92055000D01*
X136602500Y-97175000D02*
X134652500Y-97175000D01*
X136602500Y-97175000D02*
X138552500Y-97175000D01*
%TO.C,C12*%
X182321252Y-102510000D02*
X180898748Y-102510000D01*
X182321252Y-100690000D02*
X180898748Y-100690000D01*
%TO.C,C8*%
X146761252Y-99855000D02*
X145338748Y-99855000D01*
X146761252Y-98035000D02*
X145338748Y-98035000D01*
%TO.C,C2*%
X160578748Y-67670000D02*
X162001252Y-67670000D01*
X160578748Y-69490000D02*
X162001252Y-69490000D01*
%TO.C,U4*%
X176510000Y-91440000D02*
X176510000Y-94890000D01*
X176510000Y-91440000D02*
X176510000Y-89490000D01*
X181630000Y-91440000D02*
X181630000Y-93390000D01*
X181630000Y-91440000D02*
X181630000Y-89490000D01*
%TO.C,C22*%
X162001252Y-102510000D02*
X160578748Y-102510000D01*
X162001252Y-100690000D02*
X160578748Y-100690000D01*
%TO.C,BT1*%
X165160000Y-52010000D02*
X165160000Y-53340000D01*
X163830000Y-52010000D02*
X165160000Y-52010000D01*
X162560000Y-52010000D02*
X159960000Y-52010000D01*
X162560000Y-52010000D02*
X162560000Y-54670000D01*
X159960000Y-52010000D02*
X159960000Y-54670000D01*
X162560000Y-54670000D02*
X159960000Y-54670000D01*
%TO.C,C9*%
X145338748Y-87875000D02*
X146761252Y-87875000D01*
X145338748Y-89695000D02*
X146761252Y-89695000D01*
%TO.C,R6*%
X128825436Y-90530000D02*
X130279564Y-90530000D01*
X128825436Y-92350000D02*
X130279564Y-92350000D01*
D11*
%TO.C,SW2*%
X143330000Y-108725000D02*
X161110000Y-108725000D01*
X143330000Y-125235000D02*
X143330000Y-108725000D01*
X161110000Y-108725000D02*
X161110000Y-125235000D01*
X161110000Y-125235000D02*
X143330000Y-125235000D01*
D13*
%TO.C,C6*%
X127506252Y-79610000D02*
X126083748Y-79610000D01*
X127506252Y-77790000D02*
X126083748Y-77790000D01*
%TO.C,R10*%
X172177064Y-97430000D02*
X170722936Y-97430000D01*
X172177064Y-95610000D02*
X170722936Y-95610000D01*
%TO.C,SW1*%
X170120000Y-54670000D02*
X170120000Y-53340000D01*
X171450000Y-54670000D02*
X170120000Y-54670000D01*
X172720000Y-54670000D02*
X175320000Y-54670000D01*
X172720000Y-54670000D02*
X172720000Y-52010000D01*
X175320000Y-54670000D02*
X175320000Y-52010000D01*
X172720000Y-52010000D02*
X175320000Y-52010000D01*
%TO.C,C18*%
X178160000Y-68226252D02*
X178160000Y-66803748D01*
X179980000Y-68226252D02*
X179980000Y-66803748D01*
%TO.C,C20*%
X172161252Y-82190000D02*
X170738748Y-82190000D01*
X172161252Y-80370000D02*
X170738748Y-80370000D01*
%TO.C,C19*%
X167081252Y-102510000D02*
X165658748Y-102510000D01*
X167081252Y-100690000D02*
X165658748Y-100690000D01*
%TO.C,R9*%
X167097064Y-97430000D02*
X165642936Y-97430000D01*
X167097064Y-95610000D02*
X165642936Y-95610000D01*
%TO.C,J1*%
X118600000Y-132195000D02*
X121520000Y-132195000D01*
X118600000Y-141095000D02*
X118600000Y-132195000D01*
X118600000Y-141135000D02*
X121520000Y-141135000D01*
X121520000Y-127445000D02*
X124150000Y-127445000D01*
X121520000Y-132195000D02*
X121520000Y-127445000D01*
X121520000Y-145885000D02*
X121520000Y-141135000D01*
X124150000Y-145885000D02*
X121520000Y-145885000D01*
X126950000Y-127445000D02*
X130550000Y-127445000D01*
X130550000Y-145885000D02*
X126950000Y-145885000D01*
X133250000Y-127445000D02*
X136850000Y-127445000D01*
X136850000Y-145885000D02*
X133250000Y-145885000D01*
X142370000Y-127445000D02*
X139650000Y-127445000D01*
X142370000Y-130845000D02*
X142370000Y-127445000D01*
X142370000Y-130845000D02*
X145370000Y-130845000D01*
X142370000Y-142485000D02*
X145370000Y-142485000D01*
X142370000Y-145885000D02*
X139650000Y-145885000D01*
X142370000Y-145885000D02*
X142370000Y-142485000D01*
X145370000Y-142485000D02*
X145370000Y-130845000D01*
D11*
%TO.C,U1*%
X144035000Y-62745000D02*
X144035000Y-63320000D01*
X144035000Y-62745000D02*
X144710000Y-62745000D01*
X144035000Y-63320000D02*
X142760000Y-63320000D01*
X144035000Y-73095000D02*
X144035000Y-72420000D01*
X144035000Y-73095000D02*
X144710000Y-73095000D01*
X154385000Y-62745000D02*
X153710000Y-62745000D01*
X154385000Y-62745000D02*
X154385000Y-63420000D01*
X154385000Y-73095000D02*
X153710000Y-73095000D01*
X154385000Y-73095000D02*
X154385000Y-72420000D01*
D13*
%TO.C,R1*%
X168182936Y-72750000D02*
X169637064Y-72750000D01*
X168182936Y-74570000D02*
X169637064Y-74570000D01*
%TO.C,R13*%
X162017064Y-87270000D02*
X160562936Y-87270000D01*
X162017064Y-85450000D02*
X160562936Y-85450000D01*
%TO.C,C21*%
X177241252Y-82190000D02*
X175818748Y-82190000D01*
X177241252Y-80370000D02*
X175818748Y-80370000D01*
%TO.C,C4*%
X160578748Y-72750000D02*
X162001252Y-72750000D01*
X160578748Y-74570000D02*
X162001252Y-74570000D01*
%TD*%
D14*
%TO.C,SW2*%
X146930000Y-112225000D03*
X152230000Y-112225000D03*
X157530000Y-112225000D03*
X146930000Y-116925000D03*
X152230000Y-116925000D03*
X157530000Y-116925000D03*
X146930000Y-121625000D03*
X152230000Y-121625000D03*
X157530000Y-121625000D03*
%TD*%
%LPC*%
D15*
%TO.C,R5*%
X131015000Y-96405000D03*
X128090000Y-96405000D03*
%TD*%
D16*
%TO.C,C5*%
X128270000Y-83820000D03*
X125320000Y-83820000D03*
%TD*%
D17*
%TO.C,C7*%
X128077500Y-101485000D03*
X131027500Y-101485000D03*
%TD*%
D18*
%TO.C,C3*%
X173990000Y-66040000D03*
X173990000Y-68990000D03*
%TD*%
D19*
%TO.C,R11*%
X152195000Y-92517500D03*
X152195000Y-95442500D03*
%TD*%
D15*
%TO.C,R3*%
X147512500Y-93980000D03*
X144587500Y-93980000D03*
%TD*%
D20*
%TO.C,U2*%
X173990000Y-61285000D03*
D21*
X176530000Y-61285000D03*
X179070000Y-61285000D03*
%TD*%
D22*
%TO.C,D2*%
X152230000Y-101600000D03*
D23*
X152230000Y-99060000D03*
%TD*%
D15*
%TO.C,R8*%
X162752500Y-81280000D03*
X159827500Y-81280000D03*
%TD*%
D24*
%TO.C,J2*%
X172720000Y-144780000D03*
X172720000Y-128550000D03*
X166370000Y-144780000D03*
X166370000Y-128550000D03*
X179070000Y-144780000D03*
X179070000Y-128550000D03*
%TD*%
D16*
%TO.C,C10*%
X162765000Y-96520000D03*
X159815000Y-96520000D03*
%TD*%
D18*
%TO.C,C1*%
X168910000Y-66040000D03*
X168910000Y-68990000D03*
%TD*%
D25*
%TO.C,C16*%
X142035000Y-54815000D03*
X142035000Y-51865000D03*
%TD*%
D15*
%TO.C,R7*%
X162752500Y-91440000D03*
X159827500Y-91440000D03*
%TD*%
D26*
%TO.C,R2*%
X144587500Y-104025000D03*
X147512500Y-104025000D03*
%TD*%
D27*
%TO.C,Y1*%
X135980000Y-78700000D03*
X140860000Y-78700000D03*
%TD*%
D28*
%TO.C,D1*%
X174777500Y-73660000D03*
X173202500Y-73660000D03*
%TD*%
D16*
%TO.C,C14*%
X167845000Y-81280000D03*
X164895000Y-81280000D03*
%TD*%
D29*
%TO.C,J3*%
X133030000Y-58420000D03*
D30*
X135570000Y-58420000D03*
D29*
X133030000Y-60960000D03*
X135570000Y-60960000D03*
X133030000Y-63500000D03*
X135570000Y-63500000D03*
%TD*%
D15*
%TO.C,R4*%
X131015000Y-106565000D03*
X128090000Y-106565000D03*
%TD*%
D31*
%TO.C,R12*%
X128270000Y-70042500D03*
X128270000Y-67117500D03*
%TD*%
D16*
%TO.C,C11*%
X172925000Y-101600000D03*
X169975000Y-101600000D03*
%TD*%
D25*
%TO.C,C15*%
X161290000Y-62435000D03*
X161290000Y-59485000D03*
%TD*%
D32*
%TO.C,RV1*%
X146670000Y-53340000D03*
D33*
X149210000Y-53340000D03*
X151750000Y-53340000D03*
%TD*%
D18*
%TO.C,C17*%
X136955000Y-51865000D03*
X136955000Y-54815000D03*
%TD*%
D16*
%TO.C,C13*%
X172925000Y-86360000D03*
X169975000Y-86360000D03*
%TD*%
D34*
%TO.C,REF\u002A\u002A*%
X181610000Y-116840000D03*
%TD*%
D35*
%TO.C,U3*%
X134127500Y-92710000D03*
X134127500Y-93980000D03*
X134127500Y-95250000D03*
X134127500Y-96520000D03*
X139077500Y-96520000D03*
X139077500Y-95250000D03*
X139077500Y-93980000D03*
X139077500Y-92710000D03*
D36*
X136602500Y-94615000D03*
%TD*%
D16*
%TO.C,C12*%
X183085000Y-101600000D03*
X180135000Y-101600000D03*
%TD*%
%TO.C,C8*%
X147525000Y-98945000D03*
X144575000Y-98945000D03*
%TD*%
D17*
%TO.C,C2*%
X159815000Y-68580000D03*
X162765000Y-68580000D03*
%TD*%
D37*
%TO.C,U4*%
X177165000Y-93915000D03*
X178435000Y-93915000D03*
X179705000Y-93915000D03*
X180975000Y-93915000D03*
X180975000Y-88965000D03*
X179705000Y-88965000D03*
X178435000Y-88965000D03*
X177165000Y-88965000D03*
D38*
X179070000Y-91440000D03*
%TD*%
D16*
%TO.C,C22*%
X162765000Y-101600000D03*
X159815000Y-101600000D03*
%TD*%
D32*
%TO.C,BT1*%
X163830000Y-53340000D03*
D33*
X161290000Y-53340000D03*
%TD*%
D17*
%TO.C,C9*%
X144575000Y-88785000D03*
X147525000Y-88785000D03*
%TD*%
D26*
%TO.C,R6*%
X128090000Y-91440000D03*
X131015000Y-91440000D03*
%TD*%
D14*
%TO.C,SW2*%
X146930000Y-112225000D03*
X152230000Y-112225000D03*
X157530000Y-112225000D03*
X146930000Y-116925000D03*
X152230000Y-116925000D03*
X157530000Y-116925000D03*
X146930000Y-121625000D03*
X152230000Y-121625000D03*
X157530000Y-121625000D03*
%TD*%
D16*
%TO.C,C6*%
X128270000Y-78700000D03*
X125320000Y-78700000D03*
%TD*%
D34*
%TO.C,REF\u002A\u002A*%
X182880000Y-48260000D03*
%TD*%
%TO.C,REF\u002A\u002A*%
X121920000Y-48260000D03*
%TD*%
D15*
%TO.C,R10*%
X172912500Y-96520000D03*
X169987500Y-96520000D03*
%TD*%
D32*
%TO.C,SW1*%
X171450000Y-53340000D03*
D33*
X173990000Y-53340000D03*
%TD*%
D25*
%TO.C,C18*%
X179070000Y-68990000D03*
X179070000Y-66040000D03*
%TD*%
D16*
%TO.C,C20*%
X172925000Y-81280000D03*
X169975000Y-81280000D03*
%TD*%
%TO.C,C19*%
X167845000Y-101600000D03*
X164895000Y-101600000D03*
%TD*%
D15*
%TO.C,R9*%
X167832500Y-96520000D03*
X164907500Y-96520000D03*
%TD*%
D24*
%TO.C,J1*%
X131900000Y-128550000D03*
X131900000Y-144780000D03*
X138250000Y-128550000D03*
X138250000Y-144780000D03*
X125550000Y-128550000D03*
X125550000Y-144780000D03*
%TD*%
D39*
%TO.C,U1*%
X143510000Y-63920000D03*
X143510000Y-64720000D03*
X143510000Y-65520000D03*
X143510000Y-66320000D03*
X143510000Y-67120000D03*
X143510000Y-67920000D03*
X143510000Y-68720000D03*
X143510000Y-69520000D03*
X143510000Y-70320000D03*
X143510000Y-71120000D03*
X143510000Y-71920000D03*
D40*
X145210000Y-73620000D03*
X146010000Y-73620000D03*
X146810000Y-73620000D03*
X147610000Y-73620000D03*
X148410000Y-73620000D03*
X149210000Y-73620000D03*
X150010000Y-73620000D03*
X150810000Y-73620000D03*
X151610000Y-73620000D03*
X152410000Y-73620000D03*
X153210000Y-73620000D03*
D39*
X154910000Y-71920000D03*
X154910000Y-71120000D03*
X154910000Y-70320000D03*
X154910000Y-69520000D03*
X154910000Y-68720000D03*
X154910000Y-67920000D03*
X154910000Y-67120000D03*
X154910000Y-66320000D03*
X154910000Y-65520000D03*
X154910000Y-64720000D03*
X154910000Y-63920000D03*
D40*
X153210000Y-62220000D03*
X152410000Y-62220000D03*
X151610000Y-62220000D03*
X150810000Y-62220000D03*
X150010000Y-62220000D03*
X149210000Y-62220000D03*
X148410000Y-62220000D03*
X147610000Y-62220000D03*
X146810000Y-62220000D03*
X146010000Y-62220000D03*
X145210000Y-62220000D03*
%TD*%
D26*
%TO.C,R1*%
X167447500Y-73660000D03*
X170372500Y-73660000D03*
%TD*%
D34*
%TO.C,REF\u002A\u002A*%
X123190000Y-116840000D03*
%TD*%
D15*
%TO.C,R13*%
X162752500Y-86360000D03*
X159827500Y-86360000D03*
%TD*%
D16*
%TO.C,C21*%
X178005000Y-81280000D03*
X175055000Y-81280000D03*
%TD*%
D17*
%TO.C,C4*%
X159815000Y-73660000D03*
X162765000Y-73660000D03*
%TD*%
D34*
%TO.C,REF\u002A\u002A*%
X152230000Y-145495087D03*
%TD*%
G36*
X183322816Y-43198333D02*
G01*
X183322860Y-43198337D01*
X183762285Y-43256188D01*
X183762328Y-43256196D01*
X184195039Y-43352125D01*
X184195081Y-43352137D01*
X184617784Y-43485414D01*
X184617825Y-43485429D01*
X185027304Y-43655040D01*
X185027343Y-43655059D01*
X185420481Y-43859714D01*
X185420519Y-43859736D01*
X185794324Y-44097876D01*
X185794359Y-44097901D01*
X186145987Y-44367714D01*
X186146021Y-44367742D01*
X186472794Y-44667175D01*
X186472825Y-44667206D01*
X186772258Y-44993979D01*
X186772286Y-44994013D01*
X187042099Y-45345641D01*
X187042124Y-45345676D01*
X187280264Y-45719481D01*
X187280286Y-45719519D01*
X187484941Y-46112657D01*
X187484960Y-46112696D01*
X187654571Y-46522175D01*
X187654586Y-46522216D01*
X187787863Y-46944919D01*
X187787875Y-46944961D01*
X187883804Y-47377672D01*
X187883812Y-47377715D01*
X187941663Y-47817140D01*
X187941667Y-47817184D01*
X187961000Y-48259978D01*
X187961000Y-147320022D01*
X187941667Y-147762816D01*
X187941663Y-147762860D01*
X187883812Y-148202285D01*
X187883804Y-148202328D01*
X187787875Y-148635039D01*
X187787863Y-148635081D01*
X187654586Y-149057784D01*
X187654571Y-149057825D01*
X187484960Y-149467304D01*
X187484941Y-149467343D01*
X187280286Y-149860481D01*
X187280264Y-149860519D01*
X187042124Y-150234324D01*
X187042099Y-150234359D01*
X186772286Y-150585987D01*
X186772258Y-150586021D01*
X186472825Y-150912794D01*
X186472794Y-150912825D01*
X186146021Y-151212258D01*
X186145987Y-151212286D01*
X185794359Y-151482099D01*
X185794324Y-151482124D01*
X185420519Y-151720264D01*
X185420481Y-151720286D01*
X185027343Y-151924941D01*
X185027304Y-151924960D01*
X184617825Y-152094571D01*
X184617784Y-152094586D01*
X184195081Y-152227863D01*
X184195039Y-152227875D01*
X183762328Y-152323804D01*
X183762285Y-152323812D01*
X183322860Y-152381663D01*
X183322816Y-152381667D01*
X182880022Y-152401000D01*
X121919978Y-152401000D01*
X121477184Y-152381667D01*
X121477140Y-152381663D01*
X121037715Y-152323812D01*
X121037672Y-152323804D01*
X120604961Y-152227875D01*
X120604919Y-152227863D01*
X120182216Y-152094586D01*
X120182175Y-152094571D01*
X119772696Y-151924960D01*
X119772657Y-151924941D01*
X119379519Y-151720286D01*
X119379481Y-151720264D01*
X119005676Y-151482124D01*
X119005641Y-151482099D01*
X118654013Y-151212286D01*
X118653979Y-151212258D01*
X118327206Y-150912825D01*
X118327175Y-150912794D01*
X118027742Y-150586021D01*
X118027714Y-150585987D01*
X117757901Y-150234359D01*
X117757876Y-150234324D01*
X117519736Y-149860519D01*
X117519714Y-149860481D01*
X117315059Y-149467343D01*
X117315040Y-149467304D01*
X117145429Y-149057825D01*
X117145414Y-149057784D01*
X117012137Y-148635081D01*
X117012125Y-148635039D01*
X116916196Y-148202328D01*
X116916188Y-148202285D01*
X116858337Y-147762860D01*
X116858333Y-147762816D01*
X116839000Y-147320022D01*
X116839000Y-48259978D01*
X116858333Y-47817184D01*
X116858337Y-47817140D01*
X116916188Y-47377715D01*
X116916196Y-47377672D01*
X117012125Y-46944961D01*
X117012137Y-46944919D01*
X117145414Y-46522216D01*
X117145429Y-46522175D01*
X117315040Y-46112696D01*
X117315059Y-46112657D01*
X117519714Y-45719519D01*
X117519736Y-45719481D01*
X117757876Y-45345676D01*
X117757901Y-45345641D01*
X118027714Y-44994013D01*
X118027742Y-44993979D01*
X118327175Y-44667206D01*
X118327206Y-44667175D01*
X118653979Y-44367742D01*
X118654013Y-44367714D01*
X119005641Y-44097901D01*
X119005676Y-44097876D01*
X119379481Y-43859736D01*
X119379519Y-43859714D01*
X119772657Y-43655059D01*
X119772696Y-43655040D01*
X120182175Y-43485429D01*
X120182216Y-43485414D01*
X120604919Y-43352137D01*
X120604961Y-43352125D01*
X121037672Y-43256196D01*
X121037715Y-43256188D01*
X121477140Y-43198337D01*
X121477184Y-43198333D01*
X121919978Y-43179000D01*
X182880022Y-43179000D01*
X183322816Y-43198333D01*
G37*
G36*
X183322816Y-43198333D02*
G01*
X183322860Y-43198337D01*
X183762285Y-43256188D01*
X183762328Y-43256196D01*
X184195039Y-43352125D01*
X184195081Y-43352137D01*
X184617784Y-43485414D01*
X184617825Y-43485429D01*
X185027304Y-43655040D01*
X185027343Y-43655059D01*
X185420481Y-43859714D01*
X185420519Y-43859736D01*
X185794324Y-44097876D01*
X185794359Y-44097901D01*
X186145987Y-44367714D01*
X186146021Y-44367742D01*
X186472794Y-44667175D01*
X186472825Y-44667206D01*
X186772258Y-44993979D01*
X186772286Y-44994013D01*
X187042099Y-45345641D01*
X187042124Y-45345676D01*
X187280264Y-45719481D01*
X187280286Y-45719519D01*
X187484941Y-46112657D01*
X187484960Y-46112696D01*
X187654571Y-46522175D01*
X187654586Y-46522216D01*
X187787863Y-46944919D01*
X187787875Y-46944961D01*
X187883804Y-47377672D01*
X187883812Y-47377715D01*
X187941663Y-47817140D01*
X187941667Y-47817184D01*
X187961000Y-48259978D01*
X187961000Y-147320022D01*
X187941667Y-147762816D01*
X187941663Y-147762860D01*
X187883812Y-148202285D01*
X187883804Y-148202328D01*
X187787875Y-148635039D01*
X187787863Y-148635081D01*
X187654586Y-149057784D01*
X187654571Y-149057825D01*
X187484960Y-149467304D01*
X187484941Y-149467343D01*
X187280286Y-149860481D01*
X187280264Y-149860519D01*
X187042124Y-150234324D01*
X187042099Y-150234359D01*
X186772286Y-150585987D01*
X186772258Y-150586021D01*
X186472825Y-150912794D01*
X186472794Y-150912825D01*
X186146021Y-151212258D01*
X186145987Y-151212286D01*
X185794359Y-151482099D01*
X185794324Y-151482124D01*
X185420519Y-151720264D01*
X185420481Y-151720286D01*
X185027343Y-151924941D01*
X185027304Y-151924960D01*
X184617825Y-152094571D01*
X184617784Y-152094586D01*
X184195081Y-152227863D01*
X184195039Y-152227875D01*
X183762328Y-152323804D01*
X183762285Y-152323812D01*
X183322860Y-152381663D01*
X183322816Y-152381667D01*
X182880022Y-152401000D01*
X121919978Y-152401000D01*
X121477184Y-152381667D01*
X121477140Y-152381663D01*
X121037715Y-152323812D01*
X121037672Y-152323804D01*
X120604961Y-152227875D01*
X120604919Y-152227863D01*
X120182216Y-152094586D01*
X120182175Y-152094571D01*
X119772696Y-151924960D01*
X119772657Y-151924941D01*
X119379519Y-151720286D01*
X119379481Y-151720264D01*
X119005676Y-151482124D01*
X119005641Y-151482099D01*
X118654013Y-151212286D01*
X118653979Y-151212258D01*
X118327206Y-150912825D01*
X118327175Y-150912794D01*
X118027742Y-150586021D01*
X118027714Y-150585987D01*
X117757901Y-150234359D01*
X117757876Y-150234324D01*
X117519736Y-149860519D01*
X117519714Y-149860481D01*
X117315059Y-149467343D01*
X117315040Y-149467304D01*
X117145429Y-149057825D01*
X117145414Y-149057784D01*
X117012137Y-148635081D01*
X117012125Y-148635039D01*
X116916196Y-148202328D01*
X116916188Y-148202285D01*
X116858337Y-147762860D01*
X116858333Y-147762816D01*
X116839000Y-147320022D01*
X116839000Y-48259978D01*
X116858333Y-47817184D01*
X116858337Y-47817140D01*
X116916188Y-47377715D01*
X116916196Y-47377672D01*
X117012125Y-46944961D01*
X117012137Y-46944919D01*
X117145414Y-46522216D01*
X117145429Y-46522175D01*
X117315040Y-46112696D01*
X117315059Y-46112657D01*
X117519714Y-45719519D01*
X117519736Y-45719481D01*
X117757876Y-45345676D01*
X117757901Y-45345641D01*
X118027714Y-44994013D01*
X118027742Y-44993979D01*
X118327175Y-44667206D01*
X118327206Y-44667175D01*
X118653979Y-44367742D01*
X118654013Y-44367714D01*
X119005641Y-44097901D01*
X119005676Y-44097876D01*
X119379481Y-43859736D01*
X119379519Y-43859714D01*
X119772657Y-43655059D01*
X119772696Y-43655040D01*
X120182175Y-43485429D01*
X120182216Y-43485414D01*
X120604919Y-43352137D01*
X120604961Y-43352125D01*
X121037672Y-43256196D01*
X121037715Y-43256188D01*
X121477140Y-43198337D01*
X121477184Y-43198333D01*
X121919978Y-43179000D01*
X182880022Y-43179000D01*
X183322816Y-43198333D01*
G37*
%LPD*%
M02*
