M48
; DRILL file {KiCad 7.0.8} date Tue Nov 14 18:00:58 2023
; FORMAT={-:-/ absolute / inch / decimal}
; #@! TF.CreationDate,2023-11-14T18:00:58-08:00
; #@! TF.GenerationSoftware,Kicad,Pcbnew,7.0.8
; #@! TF.FileFunction,Plated,1,4,PTH
FMAT,2
INCH
; #@! TA.AperFunction,Plated,PTH,ViaDrill
T1C0.0315
; #@! TA.AperFunction,Plated,PTH,ComponentDrill
T2C0.0315
; #@! TA.AperFunction,Plated,PTH,ComponentDrill
T3C0.0354
; #@! TA.AperFunction,Plated,PTH,ComponentDrill
T4C0.0394
; #@! TA.AperFunction,Plated,PTH,ComponentDrill
T5C0.0433
; #@! TA.AperFunction,Plated,PTH,ComponentDrill
T6C0.0551
; #@! TA.AperFunction,Plated,PTH,ComponentDrill
T7C0.0906
%
G90
G05
T1
X5.0Y-2.9
X5.05Y-2.5
X5.25Y-2.6
X5.45Y-2.6
X5.45Y-4.0
X5.4919Y-3.4
X5.55Y-2.3
X5.55Y-4.0
X5.9Y-3.3
X6.0919Y-3.1
X6.0919Y-5.061
X6.1919Y-4.2
X6.5919Y-2.4
X6.65Y-3.6
X6.7919Y-3.6
X6.9919Y-3.9
T2
X5.3535Y-3.0984
X5.5457Y-3.0984
T3
X5.9933Y-3.9
X5.9933Y-4.0
T4
X5.7744Y-2.1
X5.8744Y-2.1
X5.9744Y-2.1
X6.35Y-2.1
X6.45Y-2.1
X6.75Y-2.1
X6.85Y-2.1
T5
X6.85Y-2.4128
X6.95Y-2.4128
X7.05Y-2.4128
T6
X4.9429Y-5.061
X4.9429Y-5.7
X5.1929Y-5.061
X5.1929Y-5.7
X5.4429Y-5.061
X5.4429Y-5.7
X6.55Y-5.061
X6.55Y-5.7
X6.8Y-5.061
X6.8Y-5.7
X7.05Y-5.061
X7.05Y-5.7
T7
X5.7846Y-4.4183
X5.7846Y-4.6033
X5.7846Y-4.7884
X5.9933Y-4.4183
X5.9933Y-4.6033
X5.9933Y-4.7884
X6.202Y-4.4183
X6.202Y-4.6033
X6.202Y-4.7884
T0
M30
