%TF.GenerationSoftware,KiCad,Pcbnew,7.0.8*%
%TF.CreationDate,2023-11-14T18:00:56-08:00*%
%TF.ProjectId,guitar_pedal_4layer,67756974-6172-45f7-9065-64616c5f346c,rev?*%
%TF.SameCoordinates,Original*%
%TF.FileFunction,Copper,L3,Inr*%
%TF.FilePolarity,Positive*%
%FSLAX46Y46*%
G04 Gerber Fmt 4.6, Leading zero omitted, Abs format (unit mm)*
G04 Created by KiCad (PCBNEW 7.0.8) date 2023-11-14 18:00:56*
%MOMM*%
%LPD*%
G01*
G04 APERTURE LIST*
%TA.AperFunction,ComponentPad*%
%ADD10R,1.905000X2.000000*%
%TD*%
%TA.AperFunction,ComponentPad*%
%ADD11O,1.905000X2.000000*%
%TD*%
%TA.AperFunction,ComponentPad*%
%ADD12R,1.800000X1.800000*%
%TD*%
%TA.AperFunction,ComponentPad*%
%ADD13C,1.800000*%
%TD*%
%TA.AperFunction,ComponentPad*%
%ADD14C,3.000000*%
%TD*%
%TA.AperFunction,ComponentPad*%
%ADD15C,1.500000*%
%TD*%
%TA.AperFunction,ComponentPad*%
%ADD16R,1.700000X1.700000*%
%TD*%
%TA.AperFunction,ComponentPad*%
%ADD17O,1.700000X1.700000*%
%TD*%
%TA.AperFunction,ComponentPad*%
%ADD18R,3.302000X3.302000*%
%TD*%
%TA.AperFunction,ViaPad*%
%ADD19C,1.600000*%
%TD*%
G04 APERTURE END LIST*
D10*
%TO.N,Net-(SW1-B)*%
%TO.C,U2*%
X173990000Y-61285000D03*
D11*
%TO.N,GND*%
X176530000Y-61285000D03*
%TO.N,+5V*%
X179070000Y-61285000D03*
%TD*%
D12*
%TO.N,Net-(D2-K)*%
%TO.C,D2*%
X152230000Y-101600000D03*
D13*
%TO.N,Net-(D2-A)*%
X152230000Y-99060000D03*
%TD*%
D14*
%TO.N,GND*%
%TO.C,J2*%
X172720000Y-144780000D03*
%TO.N,unconnected-(J2-PadRN)*%
X172720000Y-128550000D03*
%TO.N,GND*%
X166370000Y-144780000D03*
%TO.N,unconnected-(J2-PadSN)*%
X166370000Y-128550000D03*
%TO.N,Net-(SW2-C2)*%
X179070000Y-144780000D03*
%TO.N,unconnected-(J2-PadTN)*%
X179070000Y-128550000D03*
%TD*%
D15*
%TO.N,Net-(U1-XTAL2)*%
%TO.C,Y1*%
X135980000Y-78700000D03*
%TO.N,Net-(U1-XTAL1)*%
X140860000Y-78700000D03*
%TD*%
D16*
%TO.N,GND*%
%TO.C,RV1*%
X146670000Y-53340000D03*
D17*
%TO.N,PA1*%
X149210000Y-53340000D03*
%TO.N,+5V*%
X151750000Y-53340000D03*
%TD*%
D16*
%TO.N,+9V*%
%TO.C,BT1*%
X163830000Y-53340000D03*
D17*
%TO.N,GND*%
X161290000Y-53340000D03*
%TD*%
D18*
%TO.N,FX In*%
%TO.C,SW2*%
X146930000Y-112225000D03*
%TO.N,Net-(D2-K)*%
X152230000Y-112225000D03*
%TO.N,FX Out*%
X157530000Y-112225000D03*
%TO.N,Net-(SW2-A2)*%
X146930000Y-116925000D03*
%TO.N,GND*%
X152230000Y-116925000D03*
%TO.N,Net-(SW2-C2)*%
X157530000Y-116925000D03*
%TO.N,Net-(SW2-A3)*%
X146930000Y-121625000D03*
%TO.N,unconnected-(SW2-B3-Pad8)*%
X152230000Y-121625000D03*
%TO.N,Net-(SW2-A3)*%
X157530000Y-121625000D03*
%TD*%
D16*
%TO.N,+9V*%
%TO.C,SW1*%
X171450000Y-53340000D03*
D17*
%TO.N,Net-(SW1-B)*%
X173990000Y-53340000D03*
%TD*%
D14*
%TO.N,GND*%
%TO.C,J1*%
X131900000Y-128550000D03*
%TO.N,unconnected-(J1-PadRN)*%
X131900000Y-144780000D03*
%TO.N,GND*%
X138250000Y-128550000D03*
%TO.N,unconnected-(J1-PadSN)*%
X138250000Y-144780000D03*
%TO.N,Net-(SW2-A2)*%
X125550000Y-128550000D03*
%TO.N,unconnected-(J1-PadTN)*%
X125550000Y-144780000D03*
%TD*%
D19*
%TO.N,GND*%
X154735000Y-128550000D03*
X167435000Y-60960000D03*
X149860000Y-83820000D03*
X138430000Y-66040000D03*
X177595000Y-99060000D03*
X138430000Y-101600000D03*
X127000000Y-73660000D03*
X168910000Y-91440000D03*
%TO.N,+5V*%
X172515000Y-91440000D03*
X139495000Y-86360000D03*
X157275000Y-106680000D03*
X154735000Y-78740000D03*
%TO.N,Net-(J3-SCK)*%
X128270000Y-63500000D03*
X133350000Y-66040000D03*
%TO.N,PA0*%
X140970000Y-101600000D03*
X140970000Y-58420000D03*
%TD*%
%TA.AperFunction,Conductor*%
%TO.N,+5V*%
G36*
X182897532Y-43681265D02*
G01*
X183276447Y-43697808D01*
X183281799Y-43698277D01*
X183672543Y-43749720D01*
X183677859Y-43750658D01*
X184062619Y-43835957D01*
X184067830Y-43837352D01*
X184443704Y-43955865D01*
X184448761Y-43957705D01*
X184812889Y-44108531D01*
X184817767Y-44110805D01*
X185167350Y-44292787D01*
X185172028Y-44295489D01*
X185504412Y-44507240D01*
X185508845Y-44510344D01*
X185821500Y-44750252D01*
X185825645Y-44753731D01*
X186116199Y-45019974D01*
X186120025Y-45023800D01*
X186386268Y-45314354D01*
X186389747Y-45318499D01*
X186629655Y-45631154D01*
X186632759Y-45635587D01*
X186844510Y-45967971D01*
X186847216Y-45972657D01*
X187004504Y-46274804D01*
X187029185Y-46322214D01*
X187031472Y-46327119D01*
X187182289Y-46691225D01*
X187184135Y-46696299D01*
X187302642Y-47072153D01*
X187304042Y-47077380D01*
X187389341Y-47462140D01*
X187390281Y-47467469D01*
X187441720Y-47858182D01*
X187442192Y-47863573D01*
X187459500Y-48260000D01*
X187459500Y-147320000D01*
X187442192Y-147716426D01*
X187441720Y-147721817D01*
X187390281Y-148112530D01*
X187389341Y-148117859D01*
X187304042Y-148502619D01*
X187302642Y-148507846D01*
X187184135Y-148883700D01*
X187182285Y-148888785D01*
X187031472Y-149252880D01*
X187029185Y-149257785D01*
X186847216Y-149607342D01*
X186844510Y-149612028D01*
X186632759Y-149944412D01*
X186629655Y-149948845D01*
X186389747Y-150261500D01*
X186386268Y-150265645D01*
X186120025Y-150556199D01*
X186116199Y-150560025D01*
X185825645Y-150826268D01*
X185821500Y-150829747D01*
X185508845Y-151069655D01*
X185504412Y-151072759D01*
X185172028Y-151284510D01*
X185167342Y-151287216D01*
X184817785Y-151469185D01*
X184812880Y-151471472D01*
X184448785Y-151622285D01*
X184443700Y-151624135D01*
X184067846Y-151742642D01*
X184062619Y-151744042D01*
X183677859Y-151829341D01*
X183672530Y-151830281D01*
X183281817Y-151881720D01*
X183276426Y-151882192D01*
X182880000Y-151899500D01*
X121920000Y-151899500D01*
X121523573Y-151882192D01*
X121518182Y-151881720D01*
X121127469Y-151830281D01*
X121122140Y-151829341D01*
X120737380Y-151744042D01*
X120732153Y-151742642D01*
X120356299Y-151624135D01*
X120351225Y-151622289D01*
X119987119Y-151471472D01*
X119982222Y-151469189D01*
X119632657Y-151287216D01*
X119627971Y-151284510D01*
X119295587Y-151072759D01*
X119291154Y-151069655D01*
X118978499Y-150829747D01*
X118974354Y-150826268D01*
X118683800Y-150560025D01*
X118679974Y-150556199D01*
X118413731Y-150265645D01*
X118410252Y-150261500D01*
X118170344Y-149948845D01*
X118167240Y-149944412D01*
X117955489Y-149612028D01*
X117952783Y-149607342D01*
X117770805Y-149257767D01*
X117768527Y-149252880D01*
X117617705Y-148888761D01*
X117615864Y-148883700D01*
X117600806Y-148835942D01*
X117497352Y-148507830D01*
X117495957Y-148502619D01*
X117410658Y-148117859D01*
X117409720Y-148112543D01*
X117358277Y-147721799D01*
X117357808Y-147716447D01*
X117340500Y-147320000D01*
X117340500Y-147254108D01*
X117340500Y-144780001D01*
X123544390Y-144780001D01*
X123564804Y-145065433D01*
X123625628Y-145345037D01*
X123725635Y-145613166D01*
X123862770Y-145864309D01*
X123862775Y-145864317D01*
X124034254Y-146093387D01*
X124034270Y-146093405D01*
X124236594Y-146295729D01*
X124236612Y-146295745D01*
X124465682Y-146467224D01*
X124465690Y-146467229D01*
X124716833Y-146604364D01*
X124716832Y-146604364D01*
X124716836Y-146604365D01*
X124716839Y-146604367D01*
X124984954Y-146704369D01*
X124984960Y-146704370D01*
X124984962Y-146704371D01*
X125264566Y-146765195D01*
X125264568Y-146765195D01*
X125264572Y-146765196D01*
X125518220Y-146783337D01*
X125549999Y-146785610D01*
X125550000Y-146785610D01*
X125550001Y-146785610D01*
X125578595Y-146783564D01*
X125835428Y-146765196D01*
X126115046Y-146704369D01*
X126383161Y-146604367D01*
X126634315Y-146467226D01*
X126863395Y-146295739D01*
X127065739Y-146093395D01*
X127237226Y-145864315D01*
X127374367Y-145613161D01*
X127474369Y-145345046D01*
X127535196Y-145065428D01*
X127555610Y-144780001D01*
X129894390Y-144780001D01*
X129914804Y-145065433D01*
X129975628Y-145345037D01*
X130075635Y-145613166D01*
X130212770Y-145864309D01*
X130212775Y-145864317D01*
X130384254Y-146093387D01*
X130384270Y-146093405D01*
X130586594Y-146295729D01*
X130586612Y-146295745D01*
X130815682Y-146467224D01*
X130815690Y-146467229D01*
X131066833Y-146604364D01*
X131066832Y-146604364D01*
X131066836Y-146604365D01*
X131066839Y-146604367D01*
X131334954Y-146704369D01*
X131334960Y-146704370D01*
X131334962Y-146704371D01*
X131614566Y-146765195D01*
X131614568Y-146765195D01*
X131614572Y-146765196D01*
X131868220Y-146783337D01*
X131899999Y-146785610D01*
X131900000Y-146785610D01*
X131900001Y-146785610D01*
X131928595Y-146783564D01*
X132185428Y-146765196D01*
X132465046Y-146704369D01*
X132733161Y-146604367D01*
X132984315Y-146467226D01*
X133213395Y-146295739D01*
X133415739Y-146093395D01*
X133587226Y-145864315D01*
X133724367Y-145613161D01*
X133824369Y-145345046D01*
X133885196Y-145065428D01*
X133905610Y-144780001D01*
X136244390Y-144780001D01*
X136264804Y-145065433D01*
X136325628Y-145345037D01*
X136425635Y-145613166D01*
X136562770Y-145864309D01*
X136562775Y-145864317D01*
X136734254Y-146093387D01*
X136734270Y-146093405D01*
X136936594Y-146295729D01*
X136936612Y-146295745D01*
X137165682Y-146467224D01*
X137165690Y-146467229D01*
X137416833Y-146604364D01*
X137416832Y-146604364D01*
X137416836Y-146604365D01*
X137416839Y-146604367D01*
X137684954Y-146704369D01*
X137684960Y-146704370D01*
X137684962Y-146704371D01*
X137964566Y-146765195D01*
X137964568Y-146765195D01*
X137964572Y-146765196D01*
X138218220Y-146783337D01*
X138249999Y-146785610D01*
X138250000Y-146785610D01*
X138250001Y-146785610D01*
X138278595Y-146783564D01*
X138535428Y-146765196D01*
X138815046Y-146704369D01*
X139083161Y-146604367D01*
X139334315Y-146467226D01*
X139563395Y-146295739D01*
X139765739Y-146093395D01*
X139937226Y-145864315D01*
X140074367Y-145613161D01*
X140118406Y-145495088D01*
X150224390Y-145495088D01*
X150244804Y-145780520D01*
X150305628Y-146060124D01*
X150405635Y-146328253D01*
X150542770Y-146579396D01*
X150542775Y-146579404D01*
X150714254Y-146808474D01*
X150714270Y-146808492D01*
X150916594Y-147010816D01*
X150916612Y-147010832D01*
X151145682Y-147182311D01*
X151145690Y-147182316D01*
X151396833Y-147319451D01*
X151396832Y-147319451D01*
X151396836Y-147319452D01*
X151396839Y-147319454D01*
X151664954Y-147419456D01*
X151664960Y-147419457D01*
X151664962Y-147419458D01*
X151944566Y-147480282D01*
X151944568Y-147480282D01*
X151944572Y-147480283D01*
X152158552Y-147495587D01*
X152301448Y-147495587D01*
X152515428Y-147480283D01*
X152795046Y-147419456D01*
X153063161Y-147319454D01*
X153314315Y-147182313D01*
X153543395Y-147010826D01*
X153745739Y-146808482D01*
X153917226Y-146579402D01*
X154054367Y-146328248D01*
X154154369Y-146060133D01*
X154196966Y-145864317D01*
X154215195Y-145780520D01*
X154215195Y-145780519D01*
X154215196Y-145780515D01*
X154235610Y-145495087D01*
X154215196Y-145209659D01*
X154154369Y-144930041D01*
X154098407Y-144780001D01*
X164364390Y-144780001D01*
X164384804Y-145065433D01*
X164445628Y-145345037D01*
X164545635Y-145613166D01*
X164682770Y-145864309D01*
X164682775Y-145864317D01*
X164854254Y-146093387D01*
X164854270Y-146093405D01*
X165056594Y-146295729D01*
X165056612Y-146295745D01*
X165285682Y-146467224D01*
X165285690Y-146467229D01*
X165536833Y-146604364D01*
X165536832Y-146604364D01*
X165536836Y-146604365D01*
X165536839Y-146604367D01*
X165804954Y-146704369D01*
X165804960Y-146704370D01*
X165804962Y-146704371D01*
X166084566Y-146765195D01*
X166084568Y-146765195D01*
X166084572Y-146765196D01*
X166338220Y-146783337D01*
X166369999Y-146785610D01*
X166370000Y-146785610D01*
X166370001Y-146785610D01*
X166398595Y-146783564D01*
X166655428Y-146765196D01*
X166935046Y-146704369D01*
X167203161Y-146604367D01*
X167454315Y-146467226D01*
X167683395Y-146295739D01*
X167885739Y-146093395D01*
X168057226Y-145864315D01*
X168194367Y-145613161D01*
X168294369Y-145345046D01*
X168355196Y-145065428D01*
X168375610Y-144780001D01*
X170714390Y-144780001D01*
X170734804Y-145065433D01*
X170795628Y-145345037D01*
X170895635Y-145613166D01*
X171032770Y-145864309D01*
X171032775Y-145864317D01*
X171204254Y-146093387D01*
X171204270Y-146093405D01*
X171406594Y-146295729D01*
X171406612Y-146295745D01*
X171635682Y-146467224D01*
X171635690Y-146467229D01*
X171886833Y-146604364D01*
X171886832Y-146604364D01*
X171886836Y-146604365D01*
X171886839Y-146604367D01*
X172154954Y-146704369D01*
X172154960Y-146704370D01*
X172154962Y-146704371D01*
X172434566Y-146765195D01*
X172434568Y-146765195D01*
X172434572Y-146765196D01*
X172688220Y-146783337D01*
X172719999Y-146785610D01*
X172720000Y-146785610D01*
X172720001Y-146785610D01*
X172748595Y-146783564D01*
X173005428Y-146765196D01*
X173285046Y-146704369D01*
X173553161Y-146604367D01*
X173804315Y-146467226D01*
X174033395Y-146295739D01*
X174235739Y-146093395D01*
X174407226Y-145864315D01*
X174544367Y-145613161D01*
X174644369Y-145345046D01*
X174705196Y-145065428D01*
X174725610Y-144780001D01*
X177064390Y-144780001D01*
X177084804Y-145065433D01*
X177145628Y-145345037D01*
X177245635Y-145613166D01*
X177382770Y-145864309D01*
X177382775Y-145864317D01*
X177554254Y-146093387D01*
X177554270Y-146093405D01*
X177756594Y-146295729D01*
X177756612Y-146295745D01*
X177985682Y-146467224D01*
X177985690Y-146467229D01*
X178236833Y-146604364D01*
X178236832Y-146604364D01*
X178236836Y-146604365D01*
X178236839Y-146604367D01*
X178504954Y-146704369D01*
X178504960Y-146704370D01*
X178504962Y-146704371D01*
X178784566Y-146765195D01*
X178784568Y-146765195D01*
X178784572Y-146765196D01*
X179038220Y-146783337D01*
X179069999Y-146785610D01*
X179070000Y-146785610D01*
X179070001Y-146785610D01*
X179098595Y-146783564D01*
X179355428Y-146765196D01*
X179635046Y-146704369D01*
X179903161Y-146604367D01*
X180154315Y-146467226D01*
X180383395Y-146295739D01*
X180585739Y-146093395D01*
X180757226Y-145864315D01*
X180894367Y-145613161D01*
X180994369Y-145345046D01*
X181055196Y-145065428D01*
X181075610Y-144780000D01*
X181055196Y-144494572D01*
X181036966Y-144410772D01*
X180994371Y-144214962D01*
X180994370Y-144214960D01*
X180994369Y-144214954D01*
X180894367Y-143946839D01*
X180757226Y-143695685D01*
X180738539Y-143670722D01*
X180585745Y-143466612D01*
X180585729Y-143466594D01*
X180383405Y-143264270D01*
X180383387Y-143264254D01*
X180154317Y-143092775D01*
X180154309Y-143092770D01*
X179903166Y-142955635D01*
X179903167Y-142955635D01*
X179795915Y-142915632D01*
X179635046Y-142855631D01*
X179635043Y-142855630D01*
X179635037Y-142855628D01*
X179355433Y-142794804D01*
X179070001Y-142774390D01*
X179069999Y-142774390D01*
X178784566Y-142794804D01*
X178504962Y-142855628D01*
X178236833Y-142955635D01*
X177985690Y-143092770D01*
X177985682Y-143092775D01*
X177756612Y-143264254D01*
X177756594Y-143264270D01*
X177554270Y-143466594D01*
X177554254Y-143466612D01*
X177382775Y-143695682D01*
X177382770Y-143695690D01*
X177245635Y-143946833D01*
X177145628Y-144214962D01*
X177084804Y-144494566D01*
X177064390Y-144779998D01*
X177064390Y-144780001D01*
X174725610Y-144780001D01*
X174725610Y-144780000D01*
X174705196Y-144494572D01*
X174686966Y-144410772D01*
X174644371Y-144214962D01*
X174644370Y-144214960D01*
X174644369Y-144214954D01*
X174544367Y-143946839D01*
X174407226Y-143695685D01*
X174388539Y-143670722D01*
X174235745Y-143466612D01*
X174235729Y-143466594D01*
X174033405Y-143264270D01*
X174033387Y-143264254D01*
X173804317Y-143092775D01*
X173804309Y-143092770D01*
X173553166Y-142955635D01*
X173553167Y-142955635D01*
X173445915Y-142915632D01*
X173285046Y-142855631D01*
X173285043Y-142855630D01*
X173285037Y-142855628D01*
X173005433Y-142794804D01*
X172720001Y-142774390D01*
X172719999Y-142774390D01*
X172434566Y-142794804D01*
X172154962Y-142855628D01*
X171886833Y-142955635D01*
X171635690Y-143092770D01*
X171635682Y-143092775D01*
X171406612Y-143264254D01*
X171406594Y-143264270D01*
X171204270Y-143466594D01*
X171204254Y-143466612D01*
X171032775Y-143695682D01*
X171032770Y-143695690D01*
X170895635Y-143946833D01*
X170795628Y-144214962D01*
X170734804Y-144494566D01*
X170714390Y-144779998D01*
X170714390Y-144780001D01*
X168375610Y-144780001D01*
X168375610Y-144780000D01*
X168355196Y-144494572D01*
X168336966Y-144410772D01*
X168294371Y-144214962D01*
X168294370Y-144214960D01*
X168294369Y-144214954D01*
X168194367Y-143946839D01*
X168057226Y-143695685D01*
X168038539Y-143670722D01*
X167885745Y-143466612D01*
X167885729Y-143466594D01*
X167683405Y-143264270D01*
X167683387Y-143264254D01*
X167454317Y-143092775D01*
X167454309Y-143092770D01*
X167203166Y-142955635D01*
X167203167Y-142955635D01*
X167095915Y-142915632D01*
X166935046Y-142855631D01*
X166935043Y-142855630D01*
X166935037Y-142855628D01*
X166655433Y-142794804D01*
X166370001Y-142774390D01*
X166369999Y-142774390D01*
X166084566Y-142794804D01*
X165804962Y-142855628D01*
X165536833Y-142955635D01*
X165285690Y-143092770D01*
X165285682Y-143092775D01*
X165056612Y-143264254D01*
X165056594Y-143264270D01*
X164854270Y-143466594D01*
X164854254Y-143466612D01*
X164682775Y-143695682D01*
X164682770Y-143695690D01*
X164545635Y-143946833D01*
X164445628Y-144214962D01*
X164384804Y-144494566D01*
X164364390Y-144779998D01*
X164364390Y-144780001D01*
X154098407Y-144780001D01*
X154054367Y-144661926D01*
X153962984Y-144494572D01*
X153917229Y-144410777D01*
X153917224Y-144410769D01*
X153745745Y-144181699D01*
X153745729Y-144181681D01*
X153543405Y-143979357D01*
X153543387Y-143979341D01*
X153314317Y-143807862D01*
X153314309Y-143807857D01*
X153063166Y-143670722D01*
X153063167Y-143670722D01*
X152955915Y-143630719D01*
X152795046Y-143570718D01*
X152795043Y-143570717D01*
X152795037Y-143570715D01*
X152515433Y-143509891D01*
X152301448Y-143494587D01*
X152158552Y-143494587D01*
X151944566Y-143509891D01*
X151664962Y-143570715D01*
X151396833Y-143670722D01*
X151145690Y-143807857D01*
X151145682Y-143807862D01*
X150916612Y-143979341D01*
X150916594Y-143979357D01*
X150714270Y-144181681D01*
X150714254Y-144181699D01*
X150542775Y-144410769D01*
X150542770Y-144410777D01*
X150405635Y-144661920D01*
X150305628Y-144930049D01*
X150244804Y-145209653D01*
X150224390Y-145495085D01*
X150224390Y-145495088D01*
X140118406Y-145495088D01*
X140174369Y-145345046D01*
X140235196Y-145065428D01*
X140255610Y-144780000D01*
X140235196Y-144494572D01*
X140216966Y-144410772D01*
X140174371Y-144214962D01*
X140174370Y-144214960D01*
X140174369Y-144214954D01*
X140074367Y-143946839D01*
X139937226Y-143695685D01*
X139918539Y-143670722D01*
X139765745Y-143466612D01*
X139765729Y-143466594D01*
X139563405Y-143264270D01*
X139563387Y-143264254D01*
X139334317Y-143092775D01*
X139334309Y-143092770D01*
X139083166Y-142955635D01*
X139083167Y-142955635D01*
X138975915Y-142915632D01*
X138815046Y-142855631D01*
X138815043Y-142855630D01*
X138815037Y-142855628D01*
X138535433Y-142794804D01*
X138250001Y-142774390D01*
X138249999Y-142774390D01*
X137964566Y-142794804D01*
X137684962Y-142855628D01*
X137416833Y-142955635D01*
X137165690Y-143092770D01*
X137165682Y-143092775D01*
X136936612Y-143264254D01*
X136936594Y-143264270D01*
X136734270Y-143466594D01*
X136734254Y-143466612D01*
X136562775Y-143695682D01*
X136562770Y-143695690D01*
X136425635Y-143946833D01*
X136325628Y-144214962D01*
X136264804Y-144494566D01*
X136244390Y-144779998D01*
X136244390Y-144780001D01*
X133905610Y-144780001D01*
X133905610Y-144780000D01*
X133885196Y-144494572D01*
X133866966Y-144410772D01*
X133824371Y-144214962D01*
X133824370Y-144214960D01*
X133824369Y-144214954D01*
X133724367Y-143946839D01*
X133587226Y-143695685D01*
X133568539Y-143670722D01*
X133415745Y-143466612D01*
X133415729Y-143466594D01*
X133213405Y-143264270D01*
X133213387Y-143264254D01*
X132984317Y-143092775D01*
X132984309Y-143092770D01*
X132733166Y-142955635D01*
X132733167Y-142955635D01*
X132625915Y-142915632D01*
X132465046Y-142855631D01*
X132465043Y-142855630D01*
X132465037Y-142855628D01*
X132185433Y-142794804D01*
X131900001Y-142774390D01*
X131899999Y-142774390D01*
X131614566Y-142794804D01*
X131334962Y-142855628D01*
X131066833Y-142955635D01*
X130815690Y-143092770D01*
X130815682Y-143092775D01*
X130586612Y-143264254D01*
X130586594Y-143264270D01*
X130384270Y-143466594D01*
X130384254Y-143466612D01*
X130212775Y-143695682D01*
X130212770Y-143695690D01*
X130075635Y-143946833D01*
X129975628Y-144214962D01*
X129914804Y-144494566D01*
X129894390Y-144779998D01*
X129894390Y-144780001D01*
X127555610Y-144780001D01*
X127555610Y-144780000D01*
X127535196Y-144494572D01*
X127516966Y-144410772D01*
X127474371Y-144214962D01*
X127474370Y-144214960D01*
X127474369Y-144214954D01*
X127374367Y-143946839D01*
X127237226Y-143695685D01*
X127218539Y-143670722D01*
X127065745Y-143466612D01*
X127065729Y-143466594D01*
X126863405Y-143264270D01*
X126863387Y-143264254D01*
X126634317Y-143092775D01*
X126634309Y-143092770D01*
X126383166Y-142955635D01*
X126383167Y-142955635D01*
X126275915Y-142915632D01*
X126115046Y-142855631D01*
X126115043Y-142855630D01*
X126115037Y-142855628D01*
X125835433Y-142794804D01*
X125550001Y-142774390D01*
X125549999Y-142774390D01*
X125264566Y-142794804D01*
X124984962Y-142855628D01*
X124716833Y-142955635D01*
X124465690Y-143092770D01*
X124465682Y-143092775D01*
X124236612Y-143264254D01*
X124236594Y-143264270D01*
X124034270Y-143466594D01*
X124034254Y-143466612D01*
X123862775Y-143695682D01*
X123862770Y-143695690D01*
X123725635Y-143946833D01*
X123625628Y-144214962D01*
X123564804Y-144494566D01*
X123544390Y-144779998D01*
X123544390Y-144780001D01*
X117340500Y-144780001D01*
X117340500Y-128550001D01*
X123544390Y-128550001D01*
X123564804Y-128835433D01*
X123625628Y-129115037D01*
X123625630Y-129115043D01*
X123625631Y-129115046D01*
X123658337Y-129202734D01*
X123725635Y-129383166D01*
X123862770Y-129634309D01*
X123862775Y-129634317D01*
X124034254Y-129863387D01*
X124034270Y-129863405D01*
X124236594Y-130065729D01*
X124236612Y-130065745D01*
X124465682Y-130237224D01*
X124465690Y-130237229D01*
X124716833Y-130374364D01*
X124716832Y-130374364D01*
X124716836Y-130374365D01*
X124716839Y-130374367D01*
X124984954Y-130474369D01*
X124984960Y-130474370D01*
X124984962Y-130474371D01*
X125264566Y-130535195D01*
X125264568Y-130535195D01*
X125264572Y-130535196D01*
X125518220Y-130553337D01*
X125549999Y-130555610D01*
X125550000Y-130555610D01*
X125550001Y-130555610D01*
X125578595Y-130553564D01*
X125835428Y-130535196D01*
X126115046Y-130474369D01*
X126383161Y-130374367D01*
X126634315Y-130237226D01*
X126863395Y-130065739D01*
X127065739Y-129863395D01*
X127237226Y-129634315D01*
X127374367Y-129383161D01*
X127474369Y-129115046D01*
X127535196Y-128835428D01*
X127555610Y-128550001D01*
X129894390Y-128550001D01*
X129914804Y-128835433D01*
X129975628Y-129115037D01*
X129975630Y-129115043D01*
X129975631Y-129115046D01*
X130008337Y-129202734D01*
X130075635Y-129383166D01*
X130212770Y-129634309D01*
X130212775Y-129634317D01*
X130384254Y-129863387D01*
X130384270Y-129863405D01*
X130586594Y-130065729D01*
X130586612Y-130065745D01*
X130815682Y-130237224D01*
X130815690Y-130237229D01*
X131066833Y-130374364D01*
X131066832Y-130374364D01*
X131066836Y-130374365D01*
X131066839Y-130374367D01*
X131334954Y-130474369D01*
X131334960Y-130474370D01*
X131334962Y-130474371D01*
X131614566Y-130535195D01*
X131614568Y-130535195D01*
X131614572Y-130535196D01*
X131868220Y-130553337D01*
X131899999Y-130555610D01*
X131900000Y-130555610D01*
X131900001Y-130555610D01*
X131928595Y-130553564D01*
X132185428Y-130535196D01*
X132465046Y-130474369D01*
X132733161Y-130374367D01*
X132984315Y-130237226D01*
X133213395Y-130065739D01*
X133415739Y-129863395D01*
X133587226Y-129634315D01*
X133724367Y-129383161D01*
X133824369Y-129115046D01*
X133885196Y-128835428D01*
X133905610Y-128550001D01*
X136244390Y-128550001D01*
X136264804Y-128835433D01*
X136325628Y-129115037D01*
X136325630Y-129115043D01*
X136325631Y-129115046D01*
X136358337Y-129202734D01*
X136425635Y-129383166D01*
X136562770Y-129634309D01*
X136562775Y-129634317D01*
X136734254Y-129863387D01*
X136734270Y-129863405D01*
X136936594Y-130065729D01*
X136936612Y-130065745D01*
X137165682Y-130237224D01*
X137165690Y-130237229D01*
X137416833Y-130374364D01*
X137416832Y-130374364D01*
X137416836Y-130374365D01*
X137416839Y-130374367D01*
X137684954Y-130474369D01*
X137684960Y-130474370D01*
X137684962Y-130474371D01*
X137964566Y-130535195D01*
X137964568Y-130535195D01*
X137964572Y-130535196D01*
X138218220Y-130553337D01*
X138249999Y-130555610D01*
X138250000Y-130555610D01*
X138250001Y-130555610D01*
X138278595Y-130553564D01*
X138535428Y-130535196D01*
X138815046Y-130474369D01*
X139083161Y-130374367D01*
X139334315Y-130237226D01*
X139563395Y-130065739D01*
X139765739Y-129863395D01*
X139937226Y-129634315D01*
X140074367Y-129383161D01*
X140174369Y-129115046D01*
X140235196Y-128835428D01*
X140255610Y-128550001D01*
X153429532Y-128550001D01*
X153449364Y-128776686D01*
X153449366Y-128776697D01*
X153508258Y-128996488D01*
X153508261Y-128996497D01*
X153604431Y-129202732D01*
X153604432Y-129202734D01*
X153734954Y-129389141D01*
X153895858Y-129550045D01*
X153895861Y-129550047D01*
X154082266Y-129680568D01*
X154288504Y-129776739D01*
X154508308Y-129835635D01*
X154670230Y-129849801D01*
X154734998Y-129855468D01*
X154735000Y-129855468D01*
X154735002Y-129855468D01*
X154791673Y-129850509D01*
X154961692Y-129835635D01*
X155181496Y-129776739D01*
X155387734Y-129680568D01*
X155574139Y-129550047D01*
X155735047Y-129389139D01*
X155865568Y-129202734D01*
X155961739Y-128996496D01*
X156020635Y-128776692D01*
X156040468Y-128550001D01*
X164364390Y-128550001D01*
X164384804Y-128835433D01*
X164445628Y-129115037D01*
X164445630Y-129115043D01*
X164445631Y-129115046D01*
X164478337Y-129202734D01*
X164545635Y-129383166D01*
X164682770Y-129634309D01*
X164682775Y-129634317D01*
X164854254Y-129863387D01*
X164854270Y-129863405D01*
X165056594Y-130065729D01*
X165056612Y-130065745D01*
X165285682Y-130237224D01*
X165285690Y-130237229D01*
X165536833Y-130374364D01*
X165536832Y-130374364D01*
X165536836Y-130374365D01*
X165536839Y-130374367D01*
X165804954Y-130474369D01*
X165804960Y-130474370D01*
X165804962Y-130474371D01*
X166084566Y-130535195D01*
X166084568Y-130535195D01*
X166084572Y-130535196D01*
X166338220Y-130553337D01*
X166369999Y-130555610D01*
X166370000Y-130555610D01*
X166370001Y-130555610D01*
X166398595Y-130553564D01*
X166655428Y-130535196D01*
X166935046Y-130474369D01*
X167203161Y-130374367D01*
X167454315Y-130237226D01*
X167683395Y-130065739D01*
X167885739Y-129863395D01*
X168057226Y-129634315D01*
X168194367Y-129383161D01*
X168294369Y-129115046D01*
X168355196Y-128835428D01*
X168375610Y-128550001D01*
X170714390Y-128550001D01*
X170734804Y-128835433D01*
X170795628Y-129115037D01*
X170795630Y-129115043D01*
X170795631Y-129115046D01*
X170828337Y-129202734D01*
X170895635Y-129383166D01*
X171032770Y-129634309D01*
X171032775Y-129634317D01*
X171204254Y-129863387D01*
X171204270Y-129863405D01*
X171406594Y-130065729D01*
X171406612Y-130065745D01*
X171635682Y-130237224D01*
X171635690Y-130237229D01*
X171886833Y-130374364D01*
X171886832Y-130374364D01*
X171886836Y-130374365D01*
X171886839Y-130374367D01*
X172154954Y-130474369D01*
X172154960Y-130474370D01*
X172154962Y-130474371D01*
X172434566Y-130535195D01*
X172434568Y-130535195D01*
X172434572Y-130535196D01*
X172688220Y-130553337D01*
X172719999Y-130555610D01*
X172720000Y-130555610D01*
X172720001Y-130555610D01*
X172748595Y-130553564D01*
X173005428Y-130535196D01*
X173285046Y-130474369D01*
X173553161Y-130374367D01*
X173804315Y-130237226D01*
X174033395Y-130065739D01*
X174235739Y-129863395D01*
X174407226Y-129634315D01*
X174544367Y-129383161D01*
X174644369Y-129115046D01*
X174705196Y-128835428D01*
X174725610Y-128550001D01*
X177064390Y-128550001D01*
X177084804Y-128835433D01*
X177145628Y-129115037D01*
X177145630Y-129115043D01*
X177145631Y-129115046D01*
X177178337Y-129202734D01*
X177245635Y-129383166D01*
X177382770Y-129634309D01*
X177382775Y-129634317D01*
X177554254Y-129863387D01*
X177554270Y-129863405D01*
X177756594Y-130065729D01*
X177756612Y-130065745D01*
X177985682Y-130237224D01*
X177985690Y-130237229D01*
X178236833Y-130374364D01*
X178236832Y-130374364D01*
X178236836Y-130374365D01*
X178236839Y-130374367D01*
X178504954Y-130474369D01*
X178504960Y-130474370D01*
X178504962Y-130474371D01*
X178784566Y-130535195D01*
X178784568Y-130535195D01*
X178784572Y-130535196D01*
X179038220Y-130553337D01*
X179069999Y-130555610D01*
X179070000Y-130555610D01*
X179070001Y-130555610D01*
X179098595Y-130553564D01*
X179355428Y-130535196D01*
X179635046Y-130474369D01*
X179903161Y-130374367D01*
X180154315Y-130237226D01*
X180383395Y-130065739D01*
X180585739Y-129863395D01*
X180757226Y-129634315D01*
X180894367Y-129383161D01*
X180994369Y-129115046D01*
X181055196Y-128835428D01*
X181075610Y-128550000D01*
X181055196Y-128264572D01*
X181020159Y-128103511D01*
X180994371Y-127984962D01*
X180994370Y-127984960D01*
X180994369Y-127984954D01*
X180894367Y-127716839D01*
X180757226Y-127465685D01*
X180757224Y-127465682D01*
X180585745Y-127236612D01*
X180585729Y-127236594D01*
X180383405Y-127034270D01*
X180383387Y-127034254D01*
X180154317Y-126862775D01*
X180154309Y-126862770D01*
X179903166Y-126725635D01*
X179903167Y-126725635D01*
X179795915Y-126685632D01*
X179635046Y-126625631D01*
X179635043Y-126625630D01*
X179635037Y-126625628D01*
X179355433Y-126564804D01*
X179070001Y-126544390D01*
X179069999Y-126544390D01*
X178784566Y-126564804D01*
X178504962Y-126625628D01*
X178236833Y-126725635D01*
X177985690Y-126862770D01*
X177985682Y-126862775D01*
X177756612Y-127034254D01*
X177756594Y-127034270D01*
X177554270Y-127236594D01*
X177554254Y-127236612D01*
X177382775Y-127465682D01*
X177382770Y-127465690D01*
X177245635Y-127716833D01*
X177145628Y-127984962D01*
X177084804Y-128264566D01*
X177064390Y-128549998D01*
X177064390Y-128550001D01*
X174725610Y-128550001D01*
X174725610Y-128550000D01*
X174705196Y-128264572D01*
X174670159Y-128103511D01*
X174644371Y-127984962D01*
X174644370Y-127984960D01*
X174644369Y-127984954D01*
X174544367Y-127716839D01*
X174407226Y-127465685D01*
X174407224Y-127465682D01*
X174235745Y-127236612D01*
X174235729Y-127236594D01*
X174033405Y-127034270D01*
X174033387Y-127034254D01*
X173804317Y-126862775D01*
X173804309Y-126862770D01*
X173553166Y-126725635D01*
X173553167Y-126725635D01*
X173445915Y-126685632D01*
X173285046Y-126625631D01*
X173285043Y-126625630D01*
X173285037Y-126625628D01*
X173005433Y-126564804D01*
X172720001Y-126544390D01*
X172719999Y-126544390D01*
X172434566Y-126564804D01*
X172154962Y-126625628D01*
X171886833Y-126725635D01*
X171635690Y-126862770D01*
X171635682Y-126862775D01*
X171406612Y-127034254D01*
X171406594Y-127034270D01*
X171204270Y-127236594D01*
X171204254Y-127236612D01*
X171032775Y-127465682D01*
X171032770Y-127465690D01*
X170895635Y-127716833D01*
X170795628Y-127984962D01*
X170734804Y-128264566D01*
X170714390Y-128549998D01*
X170714390Y-128550001D01*
X168375610Y-128550001D01*
X168375610Y-128550000D01*
X168355196Y-128264572D01*
X168320159Y-128103511D01*
X168294371Y-127984962D01*
X168294370Y-127984960D01*
X168294369Y-127984954D01*
X168194367Y-127716839D01*
X168057226Y-127465685D01*
X168057224Y-127465682D01*
X167885745Y-127236612D01*
X167885729Y-127236594D01*
X167683405Y-127034270D01*
X167683387Y-127034254D01*
X167454317Y-126862775D01*
X167454309Y-126862770D01*
X167203166Y-126725635D01*
X167203167Y-126725635D01*
X167095915Y-126685632D01*
X166935046Y-126625631D01*
X166935043Y-126625630D01*
X166935037Y-126625628D01*
X166655433Y-126564804D01*
X166370001Y-126544390D01*
X166369999Y-126544390D01*
X166084566Y-126564804D01*
X165804962Y-126625628D01*
X165536833Y-126725635D01*
X165285690Y-126862770D01*
X165285682Y-126862775D01*
X165056612Y-127034254D01*
X165056594Y-127034270D01*
X164854270Y-127236594D01*
X164854254Y-127236612D01*
X164682775Y-127465682D01*
X164682770Y-127465690D01*
X164545635Y-127716833D01*
X164445628Y-127984962D01*
X164384804Y-128264566D01*
X164364390Y-128549998D01*
X164364390Y-128550001D01*
X156040468Y-128550001D01*
X156040468Y-128550000D01*
X156020635Y-128323308D01*
X155961739Y-128103504D01*
X155865568Y-127897266D01*
X155735047Y-127710861D01*
X155735045Y-127710858D01*
X155574141Y-127549954D01*
X155387734Y-127419432D01*
X155387732Y-127419431D01*
X155181497Y-127323261D01*
X155181488Y-127323258D01*
X154961697Y-127264366D01*
X154961693Y-127264365D01*
X154961692Y-127264365D01*
X154961691Y-127264364D01*
X154961686Y-127264364D01*
X154735002Y-127244532D01*
X154734998Y-127244532D01*
X154508313Y-127264364D01*
X154508302Y-127264366D01*
X154288511Y-127323258D01*
X154288502Y-127323261D01*
X154082267Y-127419431D01*
X154082265Y-127419432D01*
X153895858Y-127549954D01*
X153734954Y-127710858D01*
X153604432Y-127897265D01*
X153604431Y-127897267D01*
X153508261Y-128103502D01*
X153508258Y-128103511D01*
X153449366Y-128323302D01*
X153449364Y-128323313D01*
X153429532Y-128549998D01*
X153429532Y-128550001D01*
X140255610Y-128550001D01*
X140255610Y-128550000D01*
X140235196Y-128264572D01*
X140200159Y-128103511D01*
X140174371Y-127984962D01*
X140174370Y-127984960D01*
X140174369Y-127984954D01*
X140074367Y-127716839D01*
X139937226Y-127465685D01*
X139937224Y-127465682D01*
X139765745Y-127236612D01*
X139765729Y-127236594D01*
X139563405Y-127034270D01*
X139563387Y-127034254D01*
X139334317Y-126862775D01*
X139334309Y-126862770D01*
X139083166Y-126725635D01*
X139083167Y-126725635D01*
X138975915Y-126685632D01*
X138815046Y-126625631D01*
X138815043Y-126625630D01*
X138815037Y-126625628D01*
X138535433Y-126564804D01*
X138250001Y-126544390D01*
X138249999Y-126544390D01*
X137964566Y-126564804D01*
X137684962Y-126625628D01*
X137416833Y-126725635D01*
X137165690Y-126862770D01*
X137165682Y-126862775D01*
X136936612Y-127034254D01*
X136936594Y-127034270D01*
X136734270Y-127236594D01*
X136734254Y-127236612D01*
X136562775Y-127465682D01*
X136562770Y-127465690D01*
X136425635Y-127716833D01*
X136325628Y-127984962D01*
X136264804Y-128264566D01*
X136244390Y-128549998D01*
X136244390Y-128550001D01*
X133905610Y-128550001D01*
X133905610Y-128550000D01*
X133885196Y-128264572D01*
X133850159Y-128103511D01*
X133824371Y-127984962D01*
X133824370Y-127984960D01*
X133824369Y-127984954D01*
X133724367Y-127716839D01*
X133587226Y-127465685D01*
X133587224Y-127465682D01*
X133415745Y-127236612D01*
X133415729Y-127236594D01*
X133213405Y-127034270D01*
X133213387Y-127034254D01*
X132984317Y-126862775D01*
X132984309Y-126862770D01*
X132733166Y-126725635D01*
X132733167Y-126725635D01*
X132625915Y-126685632D01*
X132465046Y-126625631D01*
X132465043Y-126625630D01*
X132465037Y-126625628D01*
X132185433Y-126564804D01*
X131900001Y-126544390D01*
X131899999Y-126544390D01*
X131614566Y-126564804D01*
X131334962Y-126625628D01*
X131066833Y-126725635D01*
X130815690Y-126862770D01*
X130815682Y-126862775D01*
X130586612Y-127034254D01*
X130586594Y-127034270D01*
X130384270Y-127236594D01*
X130384254Y-127236612D01*
X130212775Y-127465682D01*
X130212770Y-127465690D01*
X130075635Y-127716833D01*
X129975628Y-127984962D01*
X129914804Y-128264566D01*
X129894390Y-128549998D01*
X129894390Y-128550001D01*
X127555610Y-128550001D01*
X127555610Y-128550000D01*
X127535196Y-128264572D01*
X127500159Y-128103511D01*
X127474371Y-127984962D01*
X127474370Y-127984960D01*
X127474369Y-127984954D01*
X127374367Y-127716839D01*
X127237226Y-127465685D01*
X127237224Y-127465682D01*
X127065745Y-127236612D01*
X127065729Y-127236594D01*
X126863405Y-127034270D01*
X126863387Y-127034254D01*
X126634317Y-126862775D01*
X126634309Y-126862770D01*
X126383166Y-126725635D01*
X126383167Y-126725635D01*
X126275915Y-126685632D01*
X126115046Y-126625631D01*
X126115043Y-126625630D01*
X126115037Y-126625628D01*
X125835433Y-126564804D01*
X125550001Y-126544390D01*
X125549999Y-126544390D01*
X125264566Y-126564804D01*
X124984962Y-126625628D01*
X124716833Y-126725635D01*
X124465690Y-126862770D01*
X124465682Y-126862775D01*
X124236612Y-127034254D01*
X124236594Y-127034270D01*
X124034270Y-127236594D01*
X124034254Y-127236612D01*
X123862775Y-127465682D01*
X123862770Y-127465690D01*
X123725635Y-127716833D01*
X123625628Y-127984962D01*
X123564804Y-128264566D01*
X123544390Y-128549998D01*
X123544390Y-128550001D01*
X117340500Y-128550001D01*
X117340500Y-123323870D01*
X144778500Y-123323870D01*
X144778501Y-123323876D01*
X144784908Y-123383483D01*
X144835202Y-123518328D01*
X144835206Y-123518335D01*
X144921452Y-123633544D01*
X144921455Y-123633547D01*
X145036664Y-123719793D01*
X145036671Y-123719797D01*
X145171517Y-123770091D01*
X145171516Y-123770091D01*
X145178444Y-123770835D01*
X145231127Y-123776500D01*
X148628872Y-123776499D01*
X148688483Y-123770091D01*
X148823331Y-123719796D01*
X148938546Y-123633546D01*
X149024796Y-123518331D01*
X149075091Y-123383483D01*
X149081500Y-123323873D01*
X149081500Y-123323870D01*
X150078500Y-123323870D01*
X150078501Y-123323876D01*
X150084908Y-123383483D01*
X150135202Y-123518328D01*
X150135206Y-123518335D01*
X150221452Y-123633544D01*
X150221455Y-123633547D01*
X150336664Y-123719793D01*
X150336671Y-123719797D01*
X150471517Y-123770091D01*
X150471516Y-123770091D01*
X150478444Y-123770835D01*
X150531127Y-123776500D01*
X153928872Y-123776499D01*
X153988483Y-123770091D01*
X154123331Y-123719796D01*
X154238546Y-123633546D01*
X154324796Y-123518331D01*
X154375091Y-123383483D01*
X154381500Y-123323873D01*
X154381500Y-123323870D01*
X155378500Y-123323870D01*
X155378501Y-123323876D01*
X155384908Y-123383483D01*
X155435202Y-123518328D01*
X155435206Y-123518335D01*
X155521452Y-123633544D01*
X155521455Y-123633547D01*
X155636664Y-123719793D01*
X155636671Y-123719797D01*
X155771517Y-123770091D01*
X155771516Y-123770091D01*
X155778444Y-123770835D01*
X155831127Y-123776500D01*
X159228872Y-123776499D01*
X159288483Y-123770091D01*
X159423331Y-123719796D01*
X159538546Y-123633546D01*
X159624796Y-123518331D01*
X159675091Y-123383483D01*
X159681500Y-123323873D01*
X159681499Y-119926128D01*
X159675091Y-119866517D01*
X159624796Y-119731669D01*
X159624795Y-119731668D01*
X159624793Y-119731664D01*
X159538547Y-119616455D01*
X159538544Y-119616452D01*
X159423335Y-119530206D01*
X159423328Y-119530202D01*
X159288482Y-119479908D01*
X159288483Y-119479908D01*
X159228883Y-119473501D01*
X159228881Y-119473500D01*
X159228873Y-119473500D01*
X159228864Y-119473500D01*
X155831129Y-119473500D01*
X155831123Y-119473501D01*
X155771516Y-119479908D01*
X155636671Y-119530202D01*
X155636664Y-119530206D01*
X155521455Y-119616452D01*
X155521452Y-119616455D01*
X155435206Y-119731664D01*
X155435202Y-119731671D01*
X155384908Y-119866517D01*
X155378501Y-119926116D01*
X155378501Y-119926123D01*
X155378500Y-119926135D01*
X155378500Y-123323870D01*
X154381500Y-123323870D01*
X154381499Y-119926128D01*
X154375091Y-119866517D01*
X154324796Y-119731669D01*
X154324795Y-119731668D01*
X154324793Y-119731664D01*
X154238547Y-119616455D01*
X154238544Y-119616452D01*
X154123335Y-119530206D01*
X154123328Y-119530202D01*
X153988482Y-119479908D01*
X153988483Y-119479908D01*
X153928883Y-119473501D01*
X153928881Y-119473500D01*
X153928873Y-119473500D01*
X153928864Y-119473500D01*
X150531129Y-119473500D01*
X150531123Y-119473501D01*
X150471516Y-119479908D01*
X150336671Y-119530202D01*
X150336664Y-119530206D01*
X150221455Y-119616452D01*
X150221452Y-119616455D01*
X150135206Y-119731664D01*
X150135202Y-119731671D01*
X150084908Y-119866517D01*
X150078501Y-119926116D01*
X150078501Y-119926123D01*
X150078500Y-119926135D01*
X150078500Y-123323870D01*
X149081500Y-123323870D01*
X149081499Y-119926128D01*
X149075091Y-119866517D01*
X149024796Y-119731669D01*
X149024795Y-119731668D01*
X149024793Y-119731664D01*
X148938547Y-119616455D01*
X148938544Y-119616452D01*
X148823335Y-119530206D01*
X148823328Y-119530202D01*
X148688482Y-119479908D01*
X148688483Y-119479908D01*
X148628883Y-119473501D01*
X148628881Y-119473500D01*
X148628873Y-119473500D01*
X148628864Y-119473500D01*
X145231129Y-119473500D01*
X145231123Y-119473501D01*
X145171516Y-119479908D01*
X145036671Y-119530202D01*
X145036664Y-119530206D01*
X144921455Y-119616452D01*
X144921452Y-119616455D01*
X144835206Y-119731664D01*
X144835202Y-119731671D01*
X144784908Y-119866517D01*
X144778501Y-119926116D01*
X144778501Y-119926123D01*
X144778500Y-119926135D01*
X144778500Y-123323870D01*
X117340500Y-123323870D01*
X117340500Y-116840001D01*
X121184390Y-116840001D01*
X121204804Y-117125433D01*
X121265628Y-117405037D01*
X121365635Y-117673166D01*
X121502770Y-117924309D01*
X121502775Y-117924317D01*
X121674254Y-118153387D01*
X121674270Y-118153405D01*
X121876594Y-118355729D01*
X121876612Y-118355745D01*
X122105682Y-118527224D01*
X122105690Y-118527229D01*
X122356833Y-118664364D01*
X122356832Y-118664364D01*
X122356836Y-118664365D01*
X122356839Y-118664367D01*
X122624954Y-118764369D01*
X122624960Y-118764370D01*
X122624962Y-118764371D01*
X122904566Y-118825195D01*
X122904568Y-118825195D01*
X122904572Y-118825196D01*
X123118552Y-118840500D01*
X123261448Y-118840500D01*
X123475428Y-118825196D01*
X123755046Y-118764369D01*
X124023161Y-118664367D01*
X124097325Y-118623870D01*
X144778500Y-118623870D01*
X144778501Y-118623876D01*
X144784908Y-118683483D01*
X144835202Y-118818328D01*
X144835206Y-118818335D01*
X144921452Y-118933544D01*
X144921455Y-118933547D01*
X145036664Y-119019793D01*
X145036671Y-119019797D01*
X145171517Y-119070091D01*
X145171516Y-119070091D01*
X145178444Y-119070835D01*
X145231127Y-119076500D01*
X148628872Y-119076499D01*
X148688483Y-119070091D01*
X148823331Y-119019796D01*
X148938546Y-118933546D01*
X149024796Y-118818331D01*
X149075091Y-118683483D01*
X149081500Y-118623873D01*
X149081500Y-118623870D01*
X150078500Y-118623870D01*
X150078501Y-118623876D01*
X150084908Y-118683483D01*
X150135202Y-118818328D01*
X150135206Y-118818335D01*
X150221452Y-118933544D01*
X150221455Y-118933547D01*
X150336664Y-119019793D01*
X150336671Y-119019797D01*
X150471517Y-119070091D01*
X150471516Y-119070091D01*
X150478444Y-119070835D01*
X150531127Y-119076500D01*
X153928872Y-119076499D01*
X153988483Y-119070091D01*
X154123331Y-119019796D01*
X154238546Y-118933546D01*
X154324796Y-118818331D01*
X154375091Y-118683483D01*
X154381500Y-118623873D01*
X154381500Y-118623870D01*
X155378500Y-118623870D01*
X155378501Y-118623876D01*
X155384908Y-118683483D01*
X155435202Y-118818328D01*
X155435206Y-118818335D01*
X155521452Y-118933544D01*
X155521455Y-118933547D01*
X155636664Y-119019793D01*
X155636671Y-119019797D01*
X155771517Y-119070091D01*
X155771516Y-119070091D01*
X155778444Y-119070835D01*
X155831127Y-119076500D01*
X159228872Y-119076499D01*
X159288483Y-119070091D01*
X159423331Y-119019796D01*
X159538546Y-118933546D01*
X159624796Y-118818331D01*
X159675091Y-118683483D01*
X159681500Y-118623873D01*
X159681499Y-116840001D01*
X179604390Y-116840001D01*
X179624804Y-117125433D01*
X179685628Y-117405037D01*
X179785635Y-117673166D01*
X179922770Y-117924309D01*
X179922775Y-117924317D01*
X180094254Y-118153387D01*
X180094270Y-118153405D01*
X180296594Y-118355729D01*
X180296612Y-118355745D01*
X180525682Y-118527224D01*
X180525690Y-118527229D01*
X180776833Y-118664364D01*
X180776832Y-118664364D01*
X180776836Y-118664365D01*
X180776839Y-118664367D01*
X181044954Y-118764369D01*
X181044960Y-118764370D01*
X181044962Y-118764371D01*
X181324566Y-118825195D01*
X181324568Y-118825195D01*
X181324572Y-118825196D01*
X181538552Y-118840500D01*
X181681448Y-118840500D01*
X181895428Y-118825196D01*
X182175046Y-118764369D01*
X182443161Y-118664367D01*
X182694315Y-118527226D01*
X182923395Y-118355739D01*
X183125739Y-118153395D01*
X183297226Y-117924315D01*
X183434367Y-117673161D01*
X183534369Y-117405046D01*
X183595196Y-117125428D01*
X183615610Y-116840000D01*
X183595196Y-116554572D01*
X183534369Y-116274954D01*
X183434367Y-116006839D01*
X183297226Y-115755685D01*
X183297224Y-115755682D01*
X183125745Y-115526612D01*
X183125729Y-115526594D01*
X182923405Y-115324270D01*
X182923387Y-115324254D01*
X182694317Y-115152775D01*
X182694309Y-115152770D01*
X182443166Y-115015635D01*
X182443167Y-115015635D01*
X182335915Y-114975632D01*
X182175046Y-114915631D01*
X182175043Y-114915630D01*
X182175037Y-114915628D01*
X181895433Y-114854804D01*
X181681448Y-114839500D01*
X181538552Y-114839500D01*
X181324566Y-114854804D01*
X181044962Y-114915628D01*
X180776833Y-115015635D01*
X180525690Y-115152770D01*
X180525682Y-115152775D01*
X180296612Y-115324254D01*
X180296594Y-115324270D01*
X180094270Y-115526594D01*
X180094254Y-115526612D01*
X179922775Y-115755682D01*
X179922770Y-115755690D01*
X179785635Y-116006833D01*
X179685628Y-116274962D01*
X179624804Y-116554566D01*
X179604390Y-116839998D01*
X179604390Y-116840001D01*
X159681499Y-116840001D01*
X159681499Y-115226128D01*
X159675091Y-115166517D01*
X159669965Y-115152774D01*
X159624797Y-115031671D01*
X159624793Y-115031664D01*
X159538547Y-114916455D01*
X159538544Y-114916452D01*
X159423335Y-114830206D01*
X159423328Y-114830202D01*
X159288482Y-114779908D01*
X159288483Y-114779908D01*
X159228883Y-114773501D01*
X159228881Y-114773500D01*
X159228873Y-114773500D01*
X159228864Y-114773500D01*
X155831129Y-114773500D01*
X155831123Y-114773501D01*
X155771516Y-114779908D01*
X155636671Y-114830202D01*
X155636664Y-114830206D01*
X155521455Y-114916452D01*
X155521452Y-114916455D01*
X155435206Y-115031664D01*
X155435202Y-115031671D01*
X155384908Y-115166517D01*
X155378501Y-115226116D01*
X155378501Y-115226123D01*
X155378500Y-115226135D01*
X155378500Y-118623870D01*
X154381500Y-118623870D01*
X154381499Y-115226128D01*
X154375091Y-115166517D01*
X154369965Y-115152774D01*
X154324797Y-115031671D01*
X154324793Y-115031664D01*
X154238547Y-114916455D01*
X154238544Y-114916452D01*
X154123335Y-114830206D01*
X154123328Y-114830202D01*
X153988482Y-114779908D01*
X153988483Y-114779908D01*
X153928883Y-114773501D01*
X153928881Y-114773500D01*
X153928873Y-114773500D01*
X153928864Y-114773500D01*
X150531129Y-114773500D01*
X150531123Y-114773501D01*
X150471516Y-114779908D01*
X150336671Y-114830202D01*
X150336664Y-114830206D01*
X150221455Y-114916452D01*
X150221452Y-114916455D01*
X150135206Y-115031664D01*
X150135202Y-115031671D01*
X150084908Y-115166517D01*
X150078501Y-115226116D01*
X150078501Y-115226123D01*
X150078500Y-115226135D01*
X150078500Y-118623870D01*
X149081500Y-118623870D01*
X149081499Y-115226128D01*
X149075091Y-115166517D01*
X149069965Y-115152774D01*
X149024797Y-115031671D01*
X149024793Y-115031664D01*
X148938547Y-114916455D01*
X148938544Y-114916452D01*
X148823335Y-114830206D01*
X148823328Y-114830202D01*
X148688482Y-114779908D01*
X148688483Y-114779908D01*
X148628883Y-114773501D01*
X148628881Y-114773500D01*
X148628873Y-114773500D01*
X148628864Y-114773500D01*
X145231129Y-114773500D01*
X145231123Y-114773501D01*
X145171516Y-114779908D01*
X145036671Y-114830202D01*
X145036664Y-114830206D01*
X144921455Y-114916452D01*
X144921452Y-114916455D01*
X144835206Y-115031664D01*
X144835202Y-115031671D01*
X144784908Y-115166517D01*
X144778501Y-115226116D01*
X144778501Y-115226123D01*
X144778500Y-115226135D01*
X144778500Y-118623870D01*
X124097325Y-118623870D01*
X124274315Y-118527226D01*
X124503395Y-118355739D01*
X124705739Y-118153395D01*
X124877226Y-117924315D01*
X125014367Y-117673161D01*
X125114369Y-117405046D01*
X125175196Y-117125428D01*
X125195610Y-116840000D01*
X125175196Y-116554572D01*
X125114369Y-116274954D01*
X125014367Y-116006839D01*
X124877226Y-115755685D01*
X124877224Y-115755682D01*
X124705745Y-115526612D01*
X124705729Y-115526594D01*
X124503405Y-115324270D01*
X124503387Y-115324254D01*
X124274317Y-115152775D01*
X124274309Y-115152770D01*
X124023166Y-115015635D01*
X124023167Y-115015635D01*
X123915915Y-114975632D01*
X123755046Y-114915631D01*
X123755043Y-114915630D01*
X123755037Y-114915628D01*
X123475433Y-114854804D01*
X123261448Y-114839500D01*
X123118552Y-114839500D01*
X122904566Y-114854804D01*
X122624962Y-114915628D01*
X122356833Y-115015635D01*
X122105690Y-115152770D01*
X122105682Y-115152775D01*
X121876612Y-115324254D01*
X121876594Y-115324270D01*
X121674270Y-115526594D01*
X121674254Y-115526612D01*
X121502775Y-115755682D01*
X121502770Y-115755690D01*
X121365635Y-116006833D01*
X121265628Y-116274962D01*
X121204804Y-116554566D01*
X121184390Y-116839998D01*
X121184390Y-116840001D01*
X117340500Y-116840001D01*
X117340500Y-113923870D01*
X144778500Y-113923870D01*
X144778501Y-113923876D01*
X144784908Y-113983483D01*
X144835202Y-114118328D01*
X144835206Y-114118335D01*
X144921452Y-114233544D01*
X144921455Y-114233547D01*
X145036664Y-114319793D01*
X145036671Y-114319797D01*
X145171517Y-114370091D01*
X145171516Y-114370091D01*
X145178444Y-114370835D01*
X145231127Y-114376500D01*
X148628872Y-114376499D01*
X148688483Y-114370091D01*
X148823331Y-114319796D01*
X148938546Y-114233546D01*
X149024796Y-114118331D01*
X149075091Y-113983483D01*
X149081500Y-113923873D01*
X149081500Y-113923870D01*
X150078500Y-113923870D01*
X150078501Y-113923876D01*
X150084908Y-113983483D01*
X150135202Y-114118328D01*
X150135206Y-114118335D01*
X150221452Y-114233544D01*
X150221455Y-114233547D01*
X150336664Y-114319793D01*
X150336671Y-114319797D01*
X150471517Y-114370091D01*
X150471516Y-114370091D01*
X150478444Y-114370835D01*
X150531127Y-114376500D01*
X153928872Y-114376499D01*
X153988483Y-114370091D01*
X154123331Y-114319796D01*
X154238546Y-114233546D01*
X154324796Y-114118331D01*
X154375091Y-113983483D01*
X154381500Y-113923873D01*
X154381500Y-113923870D01*
X155378500Y-113923870D01*
X155378501Y-113923876D01*
X155384908Y-113983483D01*
X155435202Y-114118328D01*
X155435206Y-114118335D01*
X155521452Y-114233544D01*
X155521455Y-114233547D01*
X155636664Y-114319793D01*
X155636671Y-114319797D01*
X155771517Y-114370091D01*
X155771516Y-114370091D01*
X155778444Y-114370835D01*
X155831127Y-114376500D01*
X159228872Y-114376499D01*
X159288483Y-114370091D01*
X159423331Y-114319796D01*
X159538546Y-114233546D01*
X159624796Y-114118331D01*
X159675091Y-113983483D01*
X159681500Y-113923873D01*
X159681499Y-110526128D01*
X159675091Y-110466517D01*
X159624796Y-110331669D01*
X159624795Y-110331668D01*
X159624793Y-110331664D01*
X159538547Y-110216455D01*
X159538544Y-110216452D01*
X159423335Y-110130206D01*
X159423328Y-110130202D01*
X159288482Y-110079908D01*
X159288483Y-110079908D01*
X159228883Y-110073501D01*
X159228881Y-110073500D01*
X159228873Y-110073500D01*
X159228864Y-110073500D01*
X155831129Y-110073500D01*
X155831123Y-110073501D01*
X155771516Y-110079908D01*
X155636671Y-110130202D01*
X155636664Y-110130206D01*
X155521455Y-110216452D01*
X155521452Y-110216455D01*
X155435206Y-110331664D01*
X155435202Y-110331671D01*
X155384908Y-110466517D01*
X155378501Y-110526116D01*
X155378501Y-110526123D01*
X155378500Y-110526135D01*
X155378500Y-113923870D01*
X154381500Y-113923870D01*
X154381499Y-110526128D01*
X154375091Y-110466517D01*
X154324796Y-110331669D01*
X154324795Y-110331668D01*
X154324793Y-110331664D01*
X154238547Y-110216455D01*
X154238544Y-110216452D01*
X154123335Y-110130206D01*
X154123328Y-110130202D01*
X153988482Y-110079908D01*
X153988483Y-110079908D01*
X153928883Y-110073501D01*
X153928881Y-110073500D01*
X153928873Y-110073500D01*
X153928864Y-110073500D01*
X150531129Y-110073500D01*
X150531123Y-110073501D01*
X150471516Y-110079908D01*
X150336671Y-110130202D01*
X150336664Y-110130206D01*
X150221455Y-110216452D01*
X150221452Y-110216455D01*
X150135206Y-110331664D01*
X150135202Y-110331671D01*
X150084908Y-110466517D01*
X150078501Y-110526116D01*
X150078501Y-110526123D01*
X150078500Y-110526135D01*
X150078500Y-113923870D01*
X149081500Y-113923870D01*
X149081499Y-110526128D01*
X149075091Y-110466517D01*
X149024796Y-110331669D01*
X149024795Y-110331668D01*
X149024793Y-110331664D01*
X148938547Y-110216455D01*
X148938544Y-110216452D01*
X148823335Y-110130206D01*
X148823328Y-110130202D01*
X148688482Y-110079908D01*
X148688483Y-110079908D01*
X148628883Y-110073501D01*
X148628881Y-110073500D01*
X148628873Y-110073500D01*
X148628864Y-110073500D01*
X145231129Y-110073500D01*
X145231123Y-110073501D01*
X145171516Y-110079908D01*
X145036671Y-110130202D01*
X145036664Y-110130206D01*
X144921455Y-110216452D01*
X144921452Y-110216455D01*
X144835206Y-110331664D01*
X144835202Y-110331671D01*
X144784908Y-110466517D01*
X144778501Y-110526116D01*
X144778501Y-110526123D01*
X144778500Y-110526135D01*
X144778500Y-113923870D01*
X117340500Y-113923870D01*
X117340500Y-101600001D01*
X137124532Y-101600001D01*
X137144364Y-101826686D01*
X137144366Y-101826697D01*
X137203258Y-102046488D01*
X137203261Y-102046497D01*
X137299431Y-102252732D01*
X137299432Y-102252734D01*
X137429954Y-102439141D01*
X137590858Y-102600045D01*
X137590861Y-102600047D01*
X137777266Y-102730568D01*
X137983504Y-102826739D01*
X138203308Y-102885635D01*
X138365230Y-102899801D01*
X138429998Y-102905468D01*
X138430000Y-102905468D01*
X138430002Y-102905468D01*
X138486673Y-102900509D01*
X138656692Y-102885635D01*
X138876496Y-102826739D01*
X139082734Y-102730568D01*
X139269139Y-102600047D01*
X139430047Y-102439139D01*
X139560568Y-102252734D01*
X139587618Y-102194724D01*
X139633790Y-102142285D01*
X139700983Y-102123133D01*
X139767865Y-102143348D01*
X139812382Y-102194725D01*
X139839429Y-102252728D01*
X139839432Y-102252734D01*
X139969954Y-102439141D01*
X140130858Y-102600045D01*
X140130861Y-102600047D01*
X140317266Y-102730568D01*
X140523504Y-102826739D01*
X140743308Y-102885635D01*
X140905230Y-102899801D01*
X140969998Y-102905468D01*
X140970000Y-102905468D01*
X140970002Y-102905468D01*
X141026673Y-102900509D01*
X141196692Y-102885635D01*
X141416496Y-102826739D01*
X141622734Y-102730568D01*
X141809139Y-102600047D01*
X141970047Y-102439139D01*
X142100568Y-102252734D01*
X142196739Y-102046496D01*
X142255635Y-101826692D01*
X142275468Y-101600000D01*
X142255635Y-101373308D01*
X142196739Y-101153504D01*
X142100568Y-100947266D01*
X141970047Y-100760861D01*
X141970045Y-100760858D01*
X141809141Y-100599954D01*
X141622734Y-100469432D01*
X141622732Y-100469431D01*
X141416497Y-100373261D01*
X141416488Y-100373258D01*
X141196697Y-100314366D01*
X141196693Y-100314365D01*
X141196692Y-100314365D01*
X141196691Y-100314364D01*
X141196686Y-100314364D01*
X140970002Y-100294532D01*
X140969998Y-100294532D01*
X140743313Y-100314364D01*
X140743302Y-100314366D01*
X140523511Y-100373258D01*
X140523502Y-100373261D01*
X140317267Y-100469431D01*
X140317265Y-100469432D01*
X140130858Y-100599954D01*
X139969954Y-100760858D01*
X139839432Y-100947265D01*
X139839431Y-100947267D01*
X139812382Y-101005275D01*
X139766209Y-101057714D01*
X139699016Y-101076866D01*
X139632135Y-101056650D01*
X139587618Y-101005275D01*
X139560568Y-100947267D01*
X139560567Y-100947265D01*
X139430045Y-100760858D01*
X139269141Y-100599954D01*
X139082734Y-100469432D01*
X139082732Y-100469431D01*
X138876497Y-100373261D01*
X138876488Y-100373258D01*
X138656697Y-100314366D01*
X138656693Y-100314365D01*
X138656692Y-100314365D01*
X138656691Y-100314364D01*
X138656686Y-100314364D01*
X138430002Y-100294532D01*
X138429998Y-100294532D01*
X138203313Y-100314364D01*
X138203302Y-100314366D01*
X137983511Y-100373258D01*
X137983502Y-100373261D01*
X137777267Y-100469431D01*
X137777265Y-100469432D01*
X137590858Y-100599954D01*
X137429954Y-100760858D01*
X137299432Y-100947265D01*
X137299431Y-100947267D01*
X137203261Y-101153502D01*
X137203258Y-101153511D01*
X137144366Y-101373302D01*
X137144364Y-101373313D01*
X137124532Y-101599998D01*
X137124532Y-101600001D01*
X117340500Y-101600001D01*
X117340500Y-99060006D01*
X150824700Y-99060006D01*
X150843864Y-99291297D01*
X150843866Y-99291308D01*
X150900842Y-99516300D01*
X150994075Y-99728848D01*
X151121016Y-99923147D01*
X151121019Y-99923151D01*
X151121021Y-99923153D01*
X151215803Y-100026114D01*
X151246724Y-100088767D01*
X151238864Y-100158193D01*
X151194716Y-100212348D01*
X151167906Y-100226277D01*
X151087669Y-100256203D01*
X151087664Y-100256206D01*
X150972455Y-100342452D01*
X150972452Y-100342455D01*
X150886206Y-100457664D01*
X150886202Y-100457671D01*
X150835908Y-100592517D01*
X150835109Y-100599954D01*
X150829501Y-100652123D01*
X150829500Y-100652135D01*
X150829500Y-102547870D01*
X150829501Y-102547876D01*
X150835908Y-102607483D01*
X150886202Y-102742328D01*
X150886206Y-102742335D01*
X150972452Y-102857544D01*
X150972455Y-102857547D01*
X151087664Y-102943793D01*
X151087671Y-102943797D01*
X151222517Y-102994091D01*
X151222516Y-102994091D01*
X151229444Y-102994835D01*
X151282127Y-103000500D01*
X153177872Y-103000499D01*
X153237483Y-102994091D01*
X153372331Y-102943796D01*
X153487546Y-102857546D01*
X153573796Y-102742331D01*
X153624091Y-102607483D01*
X153630500Y-102547873D01*
X153630499Y-100652128D01*
X153624091Y-100592517D01*
X153578183Y-100469432D01*
X153573797Y-100457671D01*
X153573793Y-100457664D01*
X153487547Y-100342455D01*
X153487544Y-100342452D01*
X153372335Y-100256206D01*
X153372328Y-100256202D01*
X153292094Y-100226277D01*
X153236160Y-100184406D01*
X153211743Y-100118941D01*
X153226595Y-100050668D01*
X153244190Y-100026121D01*
X153338979Y-99923153D01*
X153465924Y-99728849D01*
X153559157Y-99516300D01*
X153616134Y-99291305D01*
X153616516Y-99286697D01*
X153635300Y-99060006D01*
X153635300Y-99060001D01*
X176289532Y-99060001D01*
X176309364Y-99286686D01*
X176309366Y-99286697D01*
X176368258Y-99506488D01*
X176368261Y-99506497D01*
X176464431Y-99712732D01*
X176464432Y-99712734D01*
X176594954Y-99899141D01*
X176755858Y-100060045D01*
X176755861Y-100060047D01*
X176942266Y-100190568D01*
X177148504Y-100286739D01*
X177368308Y-100345635D01*
X177530230Y-100359801D01*
X177594998Y-100365468D01*
X177595000Y-100365468D01*
X177595002Y-100365468D01*
X177651673Y-100360509D01*
X177821692Y-100345635D01*
X178041496Y-100286739D01*
X178247734Y-100190568D01*
X178434139Y-100060047D01*
X178595047Y-99899139D01*
X178725568Y-99712734D01*
X178821739Y-99506496D01*
X178880635Y-99286692D01*
X178897634Y-99092384D01*
X178900468Y-99060001D01*
X178900468Y-99059998D01*
X178880635Y-98833313D01*
X178880635Y-98833308D01*
X178821739Y-98613504D01*
X178725568Y-98407266D01*
X178595047Y-98220861D01*
X178595045Y-98220858D01*
X178434141Y-98059954D01*
X178247734Y-97929432D01*
X178247732Y-97929431D01*
X178041497Y-97833261D01*
X178041488Y-97833258D01*
X177821697Y-97774366D01*
X177821693Y-97774365D01*
X177821692Y-97774365D01*
X177821691Y-97774364D01*
X177821686Y-97774364D01*
X177595002Y-97754532D01*
X177594998Y-97754532D01*
X177368313Y-97774364D01*
X177368302Y-97774366D01*
X177148511Y-97833258D01*
X177148502Y-97833261D01*
X176942267Y-97929431D01*
X176942265Y-97929432D01*
X176755858Y-98059954D01*
X176594954Y-98220858D01*
X176464432Y-98407265D01*
X176464431Y-98407267D01*
X176368261Y-98613502D01*
X176368258Y-98613511D01*
X176309366Y-98833302D01*
X176309364Y-98833313D01*
X176289532Y-99059998D01*
X176289532Y-99060001D01*
X153635300Y-99060001D01*
X153635300Y-99059993D01*
X153616135Y-98828702D01*
X153616133Y-98828691D01*
X153559157Y-98603699D01*
X153465924Y-98391151D01*
X153338983Y-98196852D01*
X153338980Y-98196849D01*
X153338979Y-98196847D01*
X153181784Y-98026087D01*
X153181779Y-98026083D01*
X153181777Y-98026081D01*
X152998634Y-97883535D01*
X152998628Y-97883531D01*
X152794504Y-97773064D01*
X152794495Y-97773061D01*
X152574984Y-97697702D01*
X152403282Y-97669050D01*
X152346049Y-97659500D01*
X152113951Y-97659500D01*
X152068164Y-97667140D01*
X151885015Y-97697702D01*
X151665504Y-97773061D01*
X151665495Y-97773064D01*
X151461371Y-97883531D01*
X151461365Y-97883535D01*
X151278222Y-98026081D01*
X151278219Y-98026084D01*
X151121016Y-98196852D01*
X150994075Y-98391151D01*
X150900842Y-98603699D01*
X150843866Y-98828691D01*
X150843864Y-98828702D01*
X150824700Y-99059993D01*
X150824700Y-99060006D01*
X117340500Y-99060006D01*
X117340500Y-91440001D01*
X167604532Y-91440001D01*
X167624364Y-91666686D01*
X167624366Y-91666697D01*
X167683258Y-91886488D01*
X167683261Y-91886497D01*
X167779431Y-92092732D01*
X167779432Y-92092734D01*
X167909954Y-92279141D01*
X168070858Y-92440045D01*
X168070861Y-92440047D01*
X168257266Y-92570568D01*
X168463504Y-92666739D01*
X168683308Y-92725635D01*
X168845230Y-92739801D01*
X168909998Y-92745468D01*
X168910000Y-92745468D01*
X168910002Y-92745468D01*
X168966673Y-92740509D01*
X169136692Y-92725635D01*
X169356496Y-92666739D01*
X169562734Y-92570568D01*
X169749139Y-92440047D01*
X169910047Y-92279139D01*
X170040568Y-92092734D01*
X170136739Y-91886496D01*
X170195635Y-91666692D01*
X170215468Y-91440000D01*
X170195635Y-91213308D01*
X170136739Y-90993504D01*
X170040568Y-90787266D01*
X169910047Y-90600861D01*
X169910045Y-90600858D01*
X169749141Y-90439954D01*
X169562734Y-90309432D01*
X169562732Y-90309431D01*
X169356497Y-90213261D01*
X169356488Y-90213258D01*
X169136697Y-90154366D01*
X169136693Y-90154365D01*
X169136692Y-90154365D01*
X169136691Y-90154364D01*
X169136686Y-90154364D01*
X168910002Y-90134532D01*
X168909998Y-90134532D01*
X168683313Y-90154364D01*
X168683302Y-90154366D01*
X168463511Y-90213258D01*
X168463502Y-90213261D01*
X168257267Y-90309431D01*
X168257265Y-90309432D01*
X168070858Y-90439954D01*
X167909954Y-90600858D01*
X167779432Y-90787265D01*
X167779431Y-90787267D01*
X167683261Y-90993502D01*
X167683258Y-90993511D01*
X167624366Y-91213302D01*
X167624364Y-91213313D01*
X167604532Y-91439998D01*
X167604532Y-91440001D01*
X117340500Y-91440001D01*
X117340500Y-83820001D01*
X148554532Y-83820001D01*
X148574364Y-84046686D01*
X148574366Y-84046697D01*
X148633258Y-84266488D01*
X148633261Y-84266497D01*
X148729431Y-84472732D01*
X148729432Y-84472734D01*
X148859954Y-84659141D01*
X149020858Y-84820045D01*
X149020861Y-84820047D01*
X149207266Y-84950568D01*
X149413504Y-85046739D01*
X149633308Y-85105635D01*
X149795230Y-85119801D01*
X149859998Y-85125468D01*
X149860000Y-85125468D01*
X149860002Y-85125468D01*
X149916673Y-85120509D01*
X150086692Y-85105635D01*
X150306496Y-85046739D01*
X150512734Y-84950568D01*
X150699139Y-84820047D01*
X150860047Y-84659139D01*
X150990568Y-84472734D01*
X151086739Y-84266496D01*
X151145635Y-84046692D01*
X151165468Y-83820000D01*
X151145635Y-83593308D01*
X151086739Y-83373504D01*
X150990568Y-83167266D01*
X150860047Y-82980861D01*
X150860045Y-82980858D01*
X150699141Y-82819954D01*
X150512734Y-82689432D01*
X150512732Y-82689431D01*
X150306497Y-82593261D01*
X150306488Y-82593258D01*
X150086697Y-82534366D01*
X150086693Y-82534365D01*
X150086692Y-82534365D01*
X150086691Y-82534364D01*
X150086686Y-82534364D01*
X149860002Y-82514532D01*
X149859998Y-82514532D01*
X149633313Y-82534364D01*
X149633302Y-82534366D01*
X149413511Y-82593258D01*
X149413502Y-82593261D01*
X149207267Y-82689431D01*
X149207265Y-82689432D01*
X149020858Y-82819954D01*
X148859954Y-82980858D01*
X148729432Y-83167265D01*
X148729431Y-83167267D01*
X148633261Y-83373502D01*
X148633258Y-83373511D01*
X148574366Y-83593302D01*
X148574364Y-83593313D01*
X148554532Y-83819998D01*
X148554532Y-83820001D01*
X117340500Y-83820001D01*
X117340500Y-78700002D01*
X134724723Y-78700002D01*
X134743793Y-78917975D01*
X134743793Y-78917979D01*
X134800422Y-79129322D01*
X134800424Y-79129326D01*
X134800425Y-79129330D01*
X134846661Y-79228484D01*
X134892897Y-79327638D01*
X134892898Y-79327639D01*
X135018402Y-79506877D01*
X135173123Y-79661598D01*
X135352361Y-79787102D01*
X135550670Y-79879575D01*
X135762023Y-79936207D01*
X135944926Y-79952208D01*
X135979998Y-79955277D01*
X135980000Y-79955277D01*
X135980002Y-79955277D01*
X136008254Y-79952805D01*
X136197977Y-79936207D01*
X136409330Y-79879575D01*
X136607639Y-79787102D01*
X136786877Y-79661598D01*
X136941598Y-79506877D01*
X137067102Y-79327639D01*
X137159575Y-79129330D01*
X137216207Y-78917977D01*
X137235277Y-78700002D01*
X139604723Y-78700002D01*
X139623793Y-78917975D01*
X139623793Y-78917979D01*
X139680422Y-79129322D01*
X139680424Y-79129326D01*
X139680425Y-79129330D01*
X139726661Y-79228484D01*
X139772897Y-79327638D01*
X139772898Y-79327639D01*
X139898402Y-79506877D01*
X140053123Y-79661598D01*
X140232361Y-79787102D01*
X140430670Y-79879575D01*
X140642023Y-79936207D01*
X140824926Y-79952208D01*
X140859998Y-79955277D01*
X140860000Y-79955277D01*
X140860002Y-79955277D01*
X140888254Y-79952805D01*
X141077977Y-79936207D01*
X141289330Y-79879575D01*
X141487639Y-79787102D01*
X141666877Y-79661598D01*
X141821598Y-79506877D01*
X141947102Y-79327639D01*
X142039575Y-79129330D01*
X142096207Y-78917977D01*
X142115277Y-78700000D01*
X142096207Y-78482023D01*
X142039575Y-78270670D01*
X141947102Y-78072362D01*
X141947100Y-78072359D01*
X141947099Y-78072357D01*
X141821599Y-77893124D01*
X141821596Y-77893121D01*
X141666877Y-77738402D01*
X141487639Y-77612898D01*
X141487640Y-77612898D01*
X141487638Y-77612897D01*
X141388484Y-77566661D01*
X141289330Y-77520425D01*
X141289326Y-77520424D01*
X141289322Y-77520422D01*
X141077977Y-77463793D01*
X140860002Y-77444723D01*
X140859998Y-77444723D01*
X140714682Y-77457436D01*
X140642023Y-77463793D01*
X140642020Y-77463793D01*
X140430677Y-77520422D01*
X140430668Y-77520426D01*
X140232361Y-77612898D01*
X140232357Y-77612900D01*
X140053121Y-77738402D01*
X139898402Y-77893121D01*
X139772900Y-78072357D01*
X139772898Y-78072361D01*
X139680426Y-78270668D01*
X139680422Y-78270677D01*
X139623793Y-78482020D01*
X139623793Y-78482024D01*
X139604723Y-78699997D01*
X139604723Y-78700002D01*
X137235277Y-78700002D01*
X137235277Y-78700000D01*
X137216207Y-78482023D01*
X137159575Y-78270670D01*
X137067102Y-78072362D01*
X137067100Y-78072359D01*
X137067099Y-78072357D01*
X136941599Y-77893124D01*
X136941596Y-77893121D01*
X136786877Y-77738402D01*
X136607639Y-77612898D01*
X136607640Y-77612898D01*
X136607638Y-77612897D01*
X136508484Y-77566661D01*
X136409330Y-77520425D01*
X136409326Y-77520424D01*
X136409322Y-77520422D01*
X136197977Y-77463793D01*
X135980002Y-77444723D01*
X135979998Y-77444723D01*
X135834682Y-77457436D01*
X135762023Y-77463793D01*
X135762020Y-77463793D01*
X135550677Y-77520422D01*
X135550668Y-77520426D01*
X135352361Y-77612898D01*
X135352357Y-77612900D01*
X135173121Y-77738402D01*
X135018402Y-77893121D01*
X134892900Y-78072357D01*
X134892898Y-78072361D01*
X134800426Y-78270668D01*
X134800422Y-78270677D01*
X134743793Y-78482020D01*
X134743793Y-78482024D01*
X134724723Y-78699997D01*
X134724723Y-78700002D01*
X117340500Y-78700002D01*
X117340500Y-73660001D01*
X125694532Y-73660001D01*
X125714364Y-73886686D01*
X125714366Y-73886697D01*
X125773258Y-74106488D01*
X125773261Y-74106497D01*
X125869431Y-74312732D01*
X125869432Y-74312734D01*
X125999954Y-74499141D01*
X126160858Y-74660045D01*
X126160861Y-74660047D01*
X126347266Y-74790568D01*
X126553504Y-74886739D01*
X126773308Y-74945635D01*
X126935230Y-74959801D01*
X126999998Y-74965468D01*
X127000000Y-74965468D01*
X127000002Y-74965468D01*
X127056673Y-74960509D01*
X127226692Y-74945635D01*
X127446496Y-74886739D01*
X127652734Y-74790568D01*
X127839139Y-74660047D01*
X128000047Y-74499139D01*
X128130568Y-74312734D01*
X128226739Y-74106496D01*
X128285635Y-73886692D01*
X128305468Y-73660000D01*
X128285635Y-73433308D01*
X128226739Y-73213504D01*
X128130568Y-73007266D01*
X128000047Y-72820861D01*
X128000045Y-72820858D01*
X127839141Y-72659954D01*
X127652734Y-72529432D01*
X127652732Y-72529431D01*
X127446497Y-72433261D01*
X127446488Y-72433258D01*
X127226697Y-72374366D01*
X127226693Y-72374365D01*
X127226692Y-72374365D01*
X127226691Y-72374364D01*
X127226686Y-72374364D01*
X127000002Y-72354532D01*
X126999998Y-72354532D01*
X126773313Y-72374364D01*
X126773302Y-72374366D01*
X126553511Y-72433258D01*
X126553502Y-72433261D01*
X126347267Y-72529431D01*
X126347265Y-72529432D01*
X126160858Y-72659954D01*
X125999954Y-72820858D01*
X125869432Y-73007265D01*
X125869431Y-73007267D01*
X125773261Y-73213502D01*
X125773258Y-73213511D01*
X125714366Y-73433302D01*
X125714364Y-73433313D01*
X125694532Y-73659998D01*
X125694532Y-73660001D01*
X117340500Y-73660001D01*
X117340500Y-66040001D01*
X132044532Y-66040001D01*
X132064364Y-66266686D01*
X132064366Y-66266697D01*
X132123258Y-66486488D01*
X132123261Y-66486497D01*
X132219431Y-66692732D01*
X132219432Y-66692734D01*
X132349954Y-66879141D01*
X132510858Y-67040045D01*
X132510861Y-67040047D01*
X132697266Y-67170568D01*
X132903504Y-67266739D01*
X133123308Y-67325635D01*
X133285230Y-67339801D01*
X133349998Y-67345468D01*
X133350000Y-67345468D01*
X133350002Y-67345468D01*
X133406673Y-67340509D01*
X133576692Y-67325635D01*
X133796496Y-67266739D01*
X134002734Y-67170568D01*
X134189139Y-67040047D01*
X134350047Y-66879139D01*
X134480568Y-66692734D01*
X134576739Y-66486496D01*
X134635635Y-66266692D01*
X134655468Y-66040001D01*
X137124532Y-66040001D01*
X137144364Y-66266686D01*
X137144366Y-66266697D01*
X137203258Y-66486488D01*
X137203261Y-66486497D01*
X137299431Y-66692732D01*
X137299432Y-66692734D01*
X137429954Y-66879141D01*
X137590858Y-67040045D01*
X137590861Y-67040047D01*
X137777266Y-67170568D01*
X137983504Y-67266739D01*
X138203308Y-67325635D01*
X138365230Y-67339801D01*
X138429998Y-67345468D01*
X138430000Y-67345468D01*
X138430002Y-67345468D01*
X138486673Y-67340509D01*
X138656692Y-67325635D01*
X138876496Y-67266739D01*
X139082734Y-67170568D01*
X139269139Y-67040047D01*
X139430047Y-66879139D01*
X139560568Y-66692734D01*
X139656739Y-66486496D01*
X139715635Y-66266692D01*
X139735468Y-66040000D01*
X139715635Y-65813308D01*
X139656739Y-65593504D01*
X139560568Y-65387266D01*
X139430047Y-65200861D01*
X139430045Y-65200858D01*
X139269141Y-65039954D01*
X139082734Y-64909432D01*
X139082732Y-64909431D01*
X138876497Y-64813261D01*
X138876488Y-64813258D01*
X138656697Y-64754366D01*
X138656693Y-64754365D01*
X138656692Y-64754365D01*
X138656691Y-64754364D01*
X138656686Y-64754364D01*
X138430002Y-64734532D01*
X138429998Y-64734532D01*
X138203313Y-64754364D01*
X138203302Y-64754366D01*
X137983511Y-64813258D01*
X137983502Y-64813261D01*
X137777267Y-64909431D01*
X137777265Y-64909432D01*
X137590858Y-65039954D01*
X137429954Y-65200858D01*
X137299432Y-65387265D01*
X137299431Y-65387267D01*
X137203261Y-65593502D01*
X137203258Y-65593511D01*
X137144366Y-65813302D01*
X137144364Y-65813313D01*
X137124532Y-66039998D01*
X137124532Y-66040001D01*
X134655468Y-66040001D01*
X134655468Y-66040000D01*
X134635635Y-65813308D01*
X134576739Y-65593504D01*
X134480568Y-65387266D01*
X134350047Y-65200861D01*
X134350045Y-65200858D01*
X134189141Y-65039954D01*
X134002734Y-64909432D01*
X134002732Y-64909431D01*
X133796497Y-64813261D01*
X133796488Y-64813258D01*
X133576697Y-64754366D01*
X133576693Y-64754365D01*
X133576692Y-64754365D01*
X133576691Y-64754364D01*
X133576686Y-64754364D01*
X133350002Y-64734532D01*
X133349998Y-64734532D01*
X133123313Y-64754364D01*
X133123302Y-64754366D01*
X132903511Y-64813258D01*
X132903502Y-64813261D01*
X132697267Y-64909431D01*
X132697265Y-64909432D01*
X132510858Y-65039954D01*
X132349954Y-65200858D01*
X132219432Y-65387265D01*
X132219431Y-65387267D01*
X132123261Y-65593502D01*
X132123258Y-65593511D01*
X132064366Y-65813302D01*
X132064364Y-65813313D01*
X132044532Y-66039998D01*
X132044532Y-66040001D01*
X117340500Y-66040001D01*
X117340500Y-63500001D01*
X126964532Y-63500001D01*
X126984364Y-63726686D01*
X126984366Y-63726697D01*
X127043258Y-63946488D01*
X127043261Y-63946497D01*
X127139431Y-64152732D01*
X127139432Y-64152734D01*
X127269954Y-64339141D01*
X127430858Y-64500045D01*
X127430861Y-64500047D01*
X127617266Y-64630568D01*
X127823504Y-64726739D01*
X128043308Y-64785635D01*
X128205230Y-64799801D01*
X128269998Y-64805468D01*
X128270000Y-64805468D01*
X128270002Y-64805468D01*
X128326673Y-64800509D01*
X128496692Y-64785635D01*
X128716496Y-64726739D01*
X128922734Y-64630568D01*
X129109139Y-64500047D01*
X129270047Y-64339139D01*
X129400568Y-64152734D01*
X129496739Y-63946496D01*
X129555635Y-63726692D01*
X129575468Y-63500000D01*
X129555635Y-63273308D01*
X129496739Y-63053504D01*
X129400568Y-62847266D01*
X129270047Y-62660861D01*
X129270045Y-62660858D01*
X129109141Y-62499954D01*
X128922734Y-62369432D01*
X128922732Y-62369431D01*
X128844328Y-62332870D01*
X172537000Y-62332870D01*
X172537001Y-62332876D01*
X172543408Y-62392483D01*
X172593702Y-62527328D01*
X172593706Y-62527335D01*
X172679952Y-62642544D01*
X172679955Y-62642547D01*
X172795164Y-62728793D01*
X172795171Y-62728797D01*
X172930017Y-62779091D01*
X172930016Y-62779091D01*
X172936944Y-62779835D01*
X172989627Y-62785500D01*
X174990372Y-62785499D01*
X175049983Y-62779091D01*
X175184831Y-62728796D01*
X175300046Y-62642546D01*
X175386296Y-62527331D01*
X175397725Y-62496687D01*
X175439594Y-62440755D01*
X175505058Y-62416336D01*
X175573331Y-62431186D01*
X175590069Y-62442167D01*
X175732552Y-62553066D01*
X175732558Y-62553070D01*
X175732561Y-62553072D01*
X175897891Y-62642544D01*
X175943478Y-62667215D01*
X175944336Y-62667679D01*
X176062598Y-62708278D01*
X176172083Y-62745865D01*
X176172085Y-62745865D01*
X176172087Y-62745866D01*
X176409601Y-62785500D01*
X176409602Y-62785500D01*
X176650398Y-62785500D01*
X176650399Y-62785500D01*
X176887913Y-62745866D01*
X177115664Y-62667679D01*
X177327439Y-62553072D01*
X177517463Y-62405171D01*
X177680551Y-62228010D01*
X177696489Y-62203613D01*
X177749631Y-62158258D01*
X177818862Y-62148831D01*
X177882199Y-62178330D01*
X177904106Y-62203611D01*
X177919847Y-62227704D01*
X177919851Y-62227710D01*
X178082873Y-62404797D01*
X178082883Y-62404806D01*
X178272831Y-62552649D01*
X178272840Y-62552655D01*
X178484531Y-62667215D01*
X178484545Y-62667221D01*
X178712207Y-62745379D01*
X178820000Y-62763366D01*
X178820000Y-61776683D01*
X178848819Y-61794209D01*
X178994404Y-61835000D01*
X179107622Y-61835000D01*
X179219783Y-61819584D01*
X179320000Y-61776053D01*
X179320000Y-62763365D01*
X179427792Y-62745379D01*
X179655454Y-62667221D01*
X179655468Y-62667215D01*
X179867159Y-62552655D01*
X179867168Y-62552649D01*
X180057116Y-62404806D01*
X180057126Y-62404797D01*
X180220148Y-62227710D01*
X180220156Y-62227699D01*
X180351813Y-62026184D01*
X180448508Y-61805740D01*
X180507599Y-61572395D01*
X180507599Y-61572394D01*
X180510697Y-61535000D01*
X179564852Y-61535000D01*
X179613559Y-61397953D01*
X179623877Y-61247114D01*
X179593116Y-61099085D01*
X179559910Y-61035000D01*
X180510697Y-61035000D01*
X180507599Y-60997605D01*
X180507599Y-60997604D01*
X180448508Y-60764259D01*
X180351813Y-60543815D01*
X180220156Y-60342300D01*
X180220148Y-60342289D01*
X180057126Y-60165202D01*
X180057116Y-60165193D01*
X179867168Y-60017350D01*
X179867159Y-60017344D01*
X179655468Y-59902784D01*
X179655454Y-59902778D01*
X179427791Y-59824619D01*
X179320000Y-59806633D01*
X179320000Y-60793316D01*
X179291181Y-60775791D01*
X179145596Y-60735000D01*
X179032378Y-60735000D01*
X178920217Y-60750416D01*
X178820000Y-60793946D01*
X178820000Y-59806633D01*
X178819999Y-59806633D01*
X178712208Y-59824619D01*
X178484545Y-59902778D01*
X178484531Y-59902784D01*
X178272840Y-60017344D01*
X178272831Y-60017350D01*
X178082883Y-60165193D01*
X178082873Y-60165202D01*
X177919851Y-60342289D01*
X177919846Y-60342297D01*
X177904104Y-60366390D01*
X177850955Y-60411745D01*
X177781724Y-60421165D01*
X177718389Y-60391660D01*
X177696489Y-60366384D01*
X177680555Y-60341994D01*
X177584018Y-60237127D01*
X177517463Y-60164829D01*
X177383358Y-60060451D01*
X177327441Y-60016929D01*
X177115665Y-59902321D01*
X177115656Y-59902318D01*
X176887916Y-59824134D01*
X176688800Y-59790908D01*
X176650399Y-59784500D01*
X176409601Y-59784500D01*
X176371200Y-59790908D01*
X176172083Y-59824134D01*
X175944343Y-59902318D01*
X175944334Y-59902321D01*
X175732559Y-60016929D01*
X175590069Y-60127833D01*
X175525075Y-60153475D01*
X175456535Y-60139908D01*
X175406210Y-60091440D01*
X175397725Y-60073311D01*
X175386298Y-60042673D01*
X175386293Y-60042664D01*
X175300047Y-59927455D01*
X175300044Y-59927452D01*
X175184835Y-59841206D01*
X175184828Y-59841202D01*
X175049982Y-59790908D01*
X175049983Y-59790908D01*
X174990383Y-59784501D01*
X174990381Y-59784500D01*
X174990373Y-59784500D01*
X174990364Y-59784500D01*
X172989629Y-59784500D01*
X172989623Y-59784501D01*
X172930016Y-59790908D01*
X172795171Y-59841202D01*
X172795164Y-59841206D01*
X172679955Y-59927452D01*
X172679952Y-59927455D01*
X172593706Y-60042664D01*
X172593702Y-60042671D01*
X172543408Y-60177517D01*
X172537001Y-60237116D01*
X172537000Y-60237135D01*
X172537000Y-62332870D01*
X128844328Y-62332870D01*
X128716497Y-62273261D01*
X128716488Y-62273258D01*
X128496697Y-62214366D01*
X128496693Y-62214365D01*
X128496692Y-62214365D01*
X128496691Y-62214364D01*
X128496686Y-62214364D01*
X128270002Y-62194532D01*
X128269998Y-62194532D01*
X128043313Y-62214364D01*
X128043302Y-62214366D01*
X127823511Y-62273258D01*
X127823502Y-62273261D01*
X127617267Y-62369431D01*
X127617265Y-62369432D01*
X127430858Y-62499954D01*
X127269954Y-62660858D01*
X127139432Y-62847265D01*
X127139431Y-62847267D01*
X127043261Y-63053502D01*
X127043258Y-63053511D01*
X126984366Y-63273302D01*
X126984364Y-63273313D01*
X126964532Y-63499998D01*
X126964532Y-63500001D01*
X117340500Y-63500001D01*
X117340500Y-60960001D01*
X166129532Y-60960001D01*
X166149364Y-61186686D01*
X166149366Y-61186697D01*
X166208258Y-61406488D01*
X166208261Y-61406497D01*
X166304431Y-61612732D01*
X166304432Y-61612734D01*
X166434954Y-61799141D01*
X166595858Y-61960045D01*
X166595861Y-61960047D01*
X166782266Y-62090568D01*
X166988504Y-62186739D01*
X167208308Y-62245635D01*
X167370230Y-62259801D01*
X167434998Y-62265468D01*
X167435000Y-62265468D01*
X167435002Y-62265468D01*
X167491673Y-62260509D01*
X167661692Y-62245635D01*
X167881496Y-62186739D01*
X168087734Y-62090568D01*
X168274139Y-61960047D01*
X168435047Y-61799139D01*
X168565568Y-61612734D01*
X168661739Y-61406496D01*
X168720635Y-61186692D01*
X168740468Y-60960000D01*
X168720635Y-60733308D01*
X168661739Y-60513504D01*
X168565568Y-60307266D01*
X168435047Y-60120861D01*
X168435045Y-60120858D01*
X168274141Y-59959954D01*
X168087734Y-59829432D01*
X168087732Y-59829431D01*
X167881497Y-59733261D01*
X167881488Y-59733258D01*
X167661697Y-59674366D01*
X167661693Y-59674365D01*
X167661692Y-59674365D01*
X167661691Y-59674364D01*
X167661686Y-59674364D01*
X167435002Y-59654532D01*
X167434998Y-59654532D01*
X167208313Y-59674364D01*
X167208302Y-59674366D01*
X166988511Y-59733258D01*
X166988502Y-59733261D01*
X166782267Y-59829431D01*
X166782265Y-59829432D01*
X166595858Y-59959954D01*
X166434954Y-60120858D01*
X166304432Y-60307265D01*
X166304431Y-60307267D01*
X166208261Y-60513502D01*
X166208258Y-60513511D01*
X166149366Y-60733302D01*
X166149364Y-60733313D01*
X166129532Y-60959998D01*
X166129532Y-60960001D01*
X117340500Y-60960001D01*
X117340500Y-58420001D01*
X139664532Y-58420001D01*
X139684364Y-58646686D01*
X139684366Y-58646697D01*
X139743258Y-58866488D01*
X139743261Y-58866497D01*
X139839431Y-59072732D01*
X139839432Y-59072734D01*
X139969954Y-59259141D01*
X140130858Y-59420045D01*
X140130861Y-59420047D01*
X140317266Y-59550568D01*
X140523504Y-59646739D01*
X140743308Y-59705635D01*
X140905230Y-59719801D01*
X140969998Y-59725468D01*
X140970000Y-59725468D01*
X140970002Y-59725468D01*
X141026673Y-59720509D01*
X141196692Y-59705635D01*
X141416496Y-59646739D01*
X141622734Y-59550568D01*
X141809139Y-59420047D01*
X141970047Y-59259139D01*
X142100568Y-59072734D01*
X142196739Y-58866496D01*
X142255635Y-58646692D01*
X142275468Y-58420000D01*
X142255635Y-58193308D01*
X142196739Y-57973504D01*
X142100568Y-57767266D01*
X141970047Y-57580861D01*
X141970045Y-57580858D01*
X141809141Y-57419954D01*
X141622734Y-57289432D01*
X141622732Y-57289431D01*
X141416497Y-57193261D01*
X141416488Y-57193258D01*
X141196697Y-57134366D01*
X141196693Y-57134365D01*
X141196692Y-57134365D01*
X141196691Y-57134364D01*
X141196686Y-57134364D01*
X140970002Y-57114532D01*
X140969998Y-57114532D01*
X140743313Y-57134364D01*
X140743302Y-57134366D01*
X140523511Y-57193258D01*
X140523502Y-57193261D01*
X140317267Y-57289431D01*
X140317265Y-57289432D01*
X140130858Y-57419954D01*
X139969954Y-57580858D01*
X139839432Y-57767265D01*
X139839431Y-57767267D01*
X139743261Y-57973502D01*
X139743258Y-57973511D01*
X139684366Y-58193302D01*
X139684364Y-58193313D01*
X139664532Y-58419998D01*
X139664532Y-58420001D01*
X117340500Y-58420001D01*
X117340500Y-54237870D01*
X145319500Y-54237870D01*
X145319501Y-54237876D01*
X145325908Y-54297483D01*
X145376202Y-54432328D01*
X145376206Y-54432335D01*
X145462452Y-54547544D01*
X145462455Y-54547547D01*
X145577664Y-54633793D01*
X145577671Y-54633797D01*
X145712517Y-54684091D01*
X145712516Y-54684091D01*
X145719444Y-54684835D01*
X145772127Y-54690500D01*
X147567872Y-54690499D01*
X147627483Y-54684091D01*
X147762331Y-54633796D01*
X147877546Y-54547546D01*
X147963796Y-54432331D01*
X148012810Y-54300916D01*
X148054681Y-54244984D01*
X148120145Y-54220566D01*
X148188418Y-54235417D01*
X148216673Y-54256569D01*
X148338599Y-54378495D01*
X148435384Y-54446265D01*
X148532165Y-54514032D01*
X148532167Y-54514033D01*
X148532170Y-54514035D01*
X148746337Y-54613903D01*
X148974592Y-54675063D01*
X149151034Y-54690500D01*
X149209999Y-54695659D01*
X149210000Y-54695659D01*
X149210001Y-54695659D01*
X149268966Y-54690500D01*
X149445408Y-54675063D01*
X149673663Y-54613903D01*
X149887830Y-54514035D01*
X150081401Y-54378495D01*
X150248495Y-54211401D01*
X150378730Y-54025405D01*
X150433307Y-53981781D01*
X150502805Y-53974587D01*
X150565160Y-54006110D01*
X150581879Y-54025405D01*
X150711890Y-54211078D01*
X150878917Y-54378105D01*
X151072421Y-54513600D01*
X151286507Y-54613429D01*
X151286516Y-54613433D01*
X151500000Y-54670634D01*
X151500000Y-53775501D01*
X151607685Y-53824680D01*
X151714237Y-53840000D01*
X151785763Y-53840000D01*
X151892315Y-53824680D01*
X152000000Y-53775501D01*
X152000000Y-54670633D01*
X152213483Y-54613433D01*
X152213492Y-54613429D01*
X152427578Y-54513600D01*
X152621082Y-54378105D01*
X152788105Y-54211082D01*
X152923600Y-54017578D01*
X153023429Y-53803492D01*
X153023432Y-53803486D01*
X153080636Y-53590000D01*
X152183686Y-53590000D01*
X152209493Y-53549844D01*
X152250000Y-53411889D01*
X152250000Y-53340000D01*
X159934341Y-53340000D01*
X159954936Y-53575403D01*
X159954938Y-53575413D01*
X160016094Y-53803655D01*
X160016096Y-53803659D01*
X160016097Y-53803663D01*
X160099155Y-53981781D01*
X160115965Y-54017830D01*
X160115967Y-54017834D01*
X160224281Y-54172521D01*
X160251505Y-54211401D01*
X160418599Y-54378495D01*
X160515384Y-54446265D01*
X160612165Y-54514032D01*
X160612167Y-54514033D01*
X160612170Y-54514035D01*
X160826337Y-54613903D01*
X161054592Y-54675063D01*
X161231034Y-54690500D01*
X161289999Y-54695659D01*
X161290000Y-54695659D01*
X161290001Y-54695659D01*
X161348966Y-54690500D01*
X161525408Y-54675063D01*
X161753663Y-54613903D01*
X161967830Y-54514035D01*
X162161401Y-54378495D01*
X162283329Y-54256566D01*
X162344648Y-54223084D01*
X162414340Y-54228068D01*
X162470274Y-54269939D01*
X162487189Y-54300917D01*
X162536202Y-54432328D01*
X162536206Y-54432335D01*
X162622452Y-54547544D01*
X162622455Y-54547547D01*
X162737664Y-54633793D01*
X162737671Y-54633797D01*
X162872517Y-54684091D01*
X162872516Y-54684091D01*
X162879444Y-54684835D01*
X162932127Y-54690500D01*
X164727872Y-54690499D01*
X164787483Y-54684091D01*
X164922331Y-54633796D01*
X165037546Y-54547546D01*
X165123796Y-54432331D01*
X165174091Y-54297483D01*
X165180500Y-54237873D01*
X165180500Y-54237870D01*
X170099500Y-54237870D01*
X170099501Y-54237876D01*
X170105908Y-54297483D01*
X170156202Y-54432328D01*
X170156206Y-54432335D01*
X170242452Y-54547544D01*
X170242455Y-54547547D01*
X170357664Y-54633793D01*
X170357671Y-54633797D01*
X170492517Y-54684091D01*
X170492516Y-54684091D01*
X170499444Y-54684835D01*
X170552127Y-54690500D01*
X172347872Y-54690499D01*
X172407483Y-54684091D01*
X172542331Y-54633796D01*
X172657546Y-54547546D01*
X172743796Y-54432331D01*
X172792810Y-54300916D01*
X172834681Y-54244984D01*
X172900145Y-54220566D01*
X172968418Y-54235417D01*
X172996673Y-54256569D01*
X173118599Y-54378495D01*
X173215384Y-54446265D01*
X173312165Y-54514032D01*
X173312167Y-54514033D01*
X173312170Y-54514035D01*
X173526337Y-54613903D01*
X173754592Y-54675063D01*
X173931034Y-54690500D01*
X173989999Y-54695659D01*
X173990000Y-54695659D01*
X173990001Y-54695659D01*
X174048966Y-54690500D01*
X174225408Y-54675063D01*
X174453663Y-54613903D01*
X174667830Y-54514035D01*
X174861401Y-54378495D01*
X175028495Y-54211401D01*
X175164035Y-54017830D01*
X175263903Y-53803663D01*
X175325063Y-53575408D01*
X175345659Y-53340000D01*
X175325063Y-53104592D01*
X175263903Y-52876337D01*
X175164035Y-52662171D01*
X175158731Y-52654595D01*
X175028494Y-52468597D01*
X174861402Y-52301506D01*
X174861395Y-52301501D01*
X174667834Y-52165967D01*
X174667830Y-52165965D01*
X174667828Y-52165964D01*
X174453663Y-52066097D01*
X174453659Y-52066096D01*
X174453655Y-52066094D01*
X174225413Y-52004938D01*
X174225403Y-52004936D01*
X173990001Y-51984341D01*
X173989999Y-51984341D01*
X173754596Y-52004936D01*
X173754586Y-52004938D01*
X173526344Y-52066094D01*
X173526335Y-52066098D01*
X173312171Y-52165964D01*
X173312169Y-52165965D01*
X173118600Y-52301503D01*
X172996673Y-52423430D01*
X172935350Y-52456914D01*
X172865658Y-52451930D01*
X172809725Y-52410058D01*
X172792810Y-52379081D01*
X172743797Y-52247671D01*
X172743793Y-52247664D01*
X172657547Y-52132455D01*
X172657544Y-52132452D01*
X172542335Y-52046206D01*
X172542328Y-52046202D01*
X172407482Y-51995908D01*
X172407483Y-51995908D01*
X172347883Y-51989501D01*
X172347881Y-51989500D01*
X172347873Y-51989500D01*
X172347864Y-51989500D01*
X170552129Y-51989500D01*
X170552123Y-51989501D01*
X170492516Y-51995908D01*
X170357671Y-52046202D01*
X170357664Y-52046206D01*
X170242455Y-52132452D01*
X170242452Y-52132455D01*
X170156206Y-52247664D01*
X170156202Y-52247671D01*
X170105908Y-52382517D01*
X170099501Y-52442116D01*
X170099501Y-52442123D01*
X170099500Y-52442135D01*
X170099500Y-54237870D01*
X165180500Y-54237870D01*
X165180499Y-52442128D01*
X165174091Y-52382517D01*
X165172810Y-52379083D01*
X165123797Y-52247671D01*
X165123793Y-52247664D01*
X165037547Y-52132455D01*
X165037544Y-52132452D01*
X164922335Y-52046206D01*
X164922328Y-52046202D01*
X164787482Y-51995908D01*
X164787483Y-51995908D01*
X164727883Y-51989501D01*
X164727881Y-51989500D01*
X164727873Y-51989500D01*
X164727864Y-51989500D01*
X162932129Y-51989500D01*
X162932123Y-51989501D01*
X162872516Y-51995908D01*
X162737671Y-52046202D01*
X162737664Y-52046206D01*
X162622455Y-52132452D01*
X162622452Y-52132455D01*
X162536206Y-52247664D01*
X162536203Y-52247669D01*
X162487189Y-52379083D01*
X162445317Y-52435016D01*
X162379853Y-52459433D01*
X162311580Y-52444581D01*
X162283326Y-52423430D01*
X162161402Y-52301506D01*
X162161395Y-52301501D01*
X161967834Y-52165967D01*
X161967830Y-52165965D01*
X161967828Y-52165964D01*
X161753663Y-52066097D01*
X161753659Y-52066096D01*
X161753655Y-52066094D01*
X161525413Y-52004938D01*
X161525403Y-52004936D01*
X161290001Y-51984341D01*
X161289999Y-51984341D01*
X161054596Y-52004936D01*
X161054586Y-52004938D01*
X160826344Y-52066094D01*
X160826335Y-52066098D01*
X160612171Y-52165964D01*
X160612169Y-52165965D01*
X160418597Y-52301505D01*
X160251505Y-52468597D01*
X160115965Y-52662169D01*
X160115964Y-52662171D01*
X160016098Y-52876335D01*
X160016094Y-52876344D01*
X159954938Y-53104586D01*
X159954936Y-53104596D01*
X159934341Y-53339999D01*
X159934341Y-53340000D01*
X152250000Y-53340000D01*
X152250000Y-53268111D01*
X152209493Y-53130156D01*
X152183686Y-53090000D01*
X153080636Y-53090000D01*
X153080635Y-53089999D01*
X153023432Y-52876513D01*
X153023429Y-52876507D01*
X152923600Y-52662422D01*
X152923599Y-52662420D01*
X152788113Y-52468926D01*
X152788108Y-52468920D01*
X152621082Y-52301894D01*
X152427578Y-52166399D01*
X152213492Y-52066570D01*
X152213486Y-52066567D01*
X152000000Y-52009364D01*
X152000000Y-52904498D01*
X151892315Y-52855320D01*
X151785763Y-52840000D01*
X151714237Y-52840000D01*
X151607685Y-52855320D01*
X151500000Y-52904498D01*
X151500000Y-52009364D01*
X151499999Y-52009364D01*
X151286513Y-52066567D01*
X151286507Y-52066570D01*
X151072422Y-52166399D01*
X151072420Y-52166400D01*
X150878926Y-52301886D01*
X150878920Y-52301891D01*
X150711891Y-52468920D01*
X150711890Y-52468922D01*
X150581880Y-52654595D01*
X150527303Y-52698219D01*
X150457804Y-52705412D01*
X150395450Y-52673890D01*
X150378730Y-52654594D01*
X150248494Y-52468597D01*
X150081402Y-52301506D01*
X150081395Y-52301501D01*
X149887834Y-52165967D01*
X149887830Y-52165965D01*
X149887828Y-52165964D01*
X149673663Y-52066097D01*
X149673659Y-52066096D01*
X149673655Y-52066094D01*
X149445413Y-52004938D01*
X149445403Y-52004936D01*
X149210001Y-51984341D01*
X149209999Y-51984341D01*
X148974596Y-52004936D01*
X148974586Y-52004938D01*
X148746344Y-52066094D01*
X148746335Y-52066098D01*
X148532171Y-52165964D01*
X148532169Y-52165965D01*
X148338600Y-52301503D01*
X148216673Y-52423430D01*
X148155350Y-52456914D01*
X148085658Y-52451930D01*
X148029725Y-52410058D01*
X148012810Y-52379081D01*
X147963797Y-52247671D01*
X147963793Y-52247664D01*
X147877547Y-52132455D01*
X147877544Y-52132452D01*
X147762335Y-52046206D01*
X147762328Y-52046202D01*
X147627482Y-51995908D01*
X147627483Y-51995908D01*
X147567883Y-51989501D01*
X147567881Y-51989500D01*
X147567873Y-51989500D01*
X147567864Y-51989500D01*
X145772129Y-51989500D01*
X145772123Y-51989501D01*
X145712516Y-51995908D01*
X145577671Y-52046202D01*
X145577664Y-52046206D01*
X145462455Y-52132452D01*
X145462452Y-52132455D01*
X145376206Y-52247664D01*
X145376202Y-52247671D01*
X145325908Y-52382517D01*
X145319501Y-52442116D01*
X145319501Y-52442123D01*
X145319500Y-52442135D01*
X145319500Y-54237870D01*
X117340500Y-54237870D01*
X117340500Y-48260000D01*
X119914390Y-48260000D01*
X119934804Y-48545433D01*
X119995628Y-48825037D01*
X120095635Y-49093166D01*
X120232770Y-49344309D01*
X120232775Y-49344317D01*
X120404254Y-49573387D01*
X120404270Y-49573405D01*
X120606594Y-49775729D01*
X120606612Y-49775745D01*
X120835682Y-49947224D01*
X120835690Y-49947229D01*
X121086833Y-50084364D01*
X121086832Y-50084364D01*
X121086836Y-50084365D01*
X121086839Y-50084367D01*
X121354954Y-50184369D01*
X121354960Y-50184370D01*
X121354962Y-50184371D01*
X121634566Y-50245195D01*
X121634568Y-50245195D01*
X121634572Y-50245196D01*
X121848552Y-50260500D01*
X121991448Y-50260500D01*
X122205428Y-50245196D01*
X122485046Y-50184369D01*
X122753161Y-50084367D01*
X123004315Y-49947226D01*
X123233395Y-49775739D01*
X123435739Y-49573395D01*
X123607226Y-49344315D01*
X123744367Y-49093161D01*
X123844369Y-48825046D01*
X123905196Y-48545428D01*
X123925610Y-48260000D01*
X180874390Y-48260000D01*
X180894804Y-48545433D01*
X180955628Y-48825037D01*
X181055635Y-49093166D01*
X181192770Y-49344309D01*
X181192775Y-49344317D01*
X181364254Y-49573387D01*
X181364270Y-49573405D01*
X181566594Y-49775729D01*
X181566612Y-49775745D01*
X181795682Y-49947224D01*
X181795690Y-49947229D01*
X182046833Y-50084364D01*
X182046832Y-50084364D01*
X182046836Y-50084365D01*
X182046839Y-50084367D01*
X182314954Y-50184369D01*
X182314960Y-50184370D01*
X182314962Y-50184371D01*
X182594566Y-50245195D01*
X182594568Y-50245195D01*
X182594572Y-50245196D01*
X182808552Y-50260500D01*
X182951448Y-50260500D01*
X183165428Y-50245196D01*
X183445046Y-50184369D01*
X183713161Y-50084367D01*
X183964315Y-49947226D01*
X184193395Y-49775739D01*
X184395739Y-49573395D01*
X184567226Y-49344315D01*
X184704367Y-49093161D01*
X184804369Y-48825046D01*
X184865196Y-48545428D01*
X184885610Y-48260000D01*
X184865196Y-47974572D01*
X184804369Y-47694954D01*
X184704367Y-47426839D01*
X184567226Y-47175685D01*
X184493636Y-47077380D01*
X184395745Y-46946612D01*
X184395729Y-46946594D01*
X184193405Y-46744270D01*
X184193387Y-46744254D01*
X183964317Y-46572775D01*
X183964309Y-46572770D01*
X183713166Y-46435635D01*
X183713167Y-46435635D01*
X183605915Y-46395632D01*
X183445046Y-46335631D01*
X183445043Y-46335630D01*
X183445037Y-46335628D01*
X183165433Y-46274804D01*
X182951448Y-46259500D01*
X182808552Y-46259500D01*
X182594566Y-46274804D01*
X182314962Y-46335628D01*
X182046833Y-46435635D01*
X181795690Y-46572770D01*
X181795682Y-46572775D01*
X181566612Y-46744254D01*
X181566594Y-46744270D01*
X181364270Y-46946594D01*
X181364254Y-46946612D01*
X181192775Y-47175682D01*
X181192770Y-47175690D01*
X181055635Y-47426833D01*
X180955628Y-47694962D01*
X180894804Y-47974566D01*
X180874390Y-48259998D01*
X180874390Y-48260000D01*
X123925610Y-48260000D01*
X123905196Y-47974572D01*
X123844369Y-47694954D01*
X123744367Y-47426839D01*
X123607226Y-47175685D01*
X123533636Y-47077380D01*
X123435745Y-46946612D01*
X123435729Y-46946594D01*
X123233405Y-46744270D01*
X123233387Y-46744254D01*
X123004317Y-46572775D01*
X123004309Y-46572770D01*
X122753166Y-46435635D01*
X122753167Y-46435635D01*
X122645915Y-46395632D01*
X122485046Y-46335631D01*
X122485043Y-46335630D01*
X122485037Y-46335628D01*
X122205433Y-46274804D01*
X121991448Y-46259500D01*
X121848552Y-46259500D01*
X121634566Y-46274804D01*
X121354962Y-46335628D01*
X121086833Y-46435635D01*
X120835690Y-46572770D01*
X120835682Y-46572775D01*
X120606612Y-46744254D01*
X120606594Y-46744270D01*
X120404270Y-46946594D01*
X120404254Y-46946612D01*
X120232775Y-47175682D01*
X120232770Y-47175690D01*
X120095635Y-47426833D01*
X119995628Y-47694962D01*
X119934804Y-47974566D01*
X119914390Y-48259998D01*
X119914390Y-48260000D01*
X117340500Y-48260000D01*
X117357808Y-47863550D01*
X117358277Y-47858202D01*
X117409720Y-47467452D01*
X117410658Y-47462140D01*
X117474162Y-47175690D01*
X117495958Y-47077373D01*
X117497351Y-47072175D01*
X117615867Y-46696288D01*
X117617702Y-46691245D01*
X117768534Y-46327101D01*
X117770801Y-46322241D01*
X117952793Y-45972639D01*
X117955489Y-45967971D01*
X118167240Y-45635587D01*
X118170333Y-45631169D01*
X118410264Y-45318483D01*
X118413723Y-45314362D01*
X118679986Y-45023787D01*
X118683787Y-45019986D01*
X118974362Y-44753723D01*
X118978483Y-44750264D01*
X119291169Y-44510333D01*
X119295579Y-44507245D01*
X119627971Y-44295489D01*
X119632639Y-44292793D01*
X119982241Y-44110801D01*
X119987101Y-44108534D01*
X120351245Y-43957702D01*
X120356288Y-43955867D01*
X120732175Y-43837351D01*
X120737373Y-43835958D01*
X120978239Y-43782559D01*
X121122140Y-43750658D01*
X121127452Y-43749720D01*
X121518202Y-43698277D01*
X121523550Y-43697808D01*
X121903209Y-43681233D01*
X121920001Y-43680500D01*
X121985892Y-43680500D01*
X182814108Y-43680500D01*
X182879999Y-43680500D01*
X182897532Y-43681265D01*
G37*
%TD.AperFunction*%
%TD*%
M02*
