%TF.GenerationSoftware,KiCad,Pcbnew,7.0.8*%
%TF.CreationDate,2023-11-14T18:00:56-08:00*%
%TF.ProjectId,guitar_pedal_4layer,67756974-6172-45f7-9065-64616c5f346c,rev?*%
%TF.SameCoordinates,Original*%
%TF.FileFunction,Soldermask,Top*%
%TF.FilePolarity,Negative*%
%FSLAX46Y46*%
G04 Gerber Fmt 4.6, Leading zero omitted, Abs format (unit mm)*
G04 Created by KiCad (PCBNEW 7.0.8) date 2023-11-14 18:00:56*
%MOMM*%
%LPD*%
G01*
G04 APERTURE LIST*
G04 Aperture macros list*
%AMRoundRect*
0 Rectangle with rounded corners*
0 $1 Rounding radius*
0 $2 $3 $4 $5 $6 $7 $8 $9 X,Y pos of 4 corners*
0 Add a 4 corners polygon primitive as box body*
4,1,4,$2,$3,$4,$5,$6,$7,$8,$9,$2,$3,0*
0 Add four circle primitives for the rounded corners*
1,1,$1+$1,$2,$3*
1,1,$1+$1,$4,$5*
1,1,$1+$1,$6,$7*
1,1,$1+$1,$8,$9*
0 Add four rect primitives between the rounded corners*
20,1,$1+$1,$2,$3,$4,$5,0*
20,1,$1+$1,$4,$5,$6,$7,0*
20,1,$1+$1,$6,$7,$8,$9,0*
20,1,$1+$1,$8,$9,$2,$3,0*%
G04 Aperture macros list end*
%ADD10RoundRect,0.250000X0.312500X0.625000X-0.312500X0.625000X-0.312500X-0.625000X0.312500X-0.625000X0*%
%ADD11RoundRect,0.250000X0.325000X0.650000X-0.325000X0.650000X-0.325000X-0.650000X0.325000X-0.650000X0*%
%ADD12RoundRect,0.250000X-0.325000X-0.650000X0.325000X-0.650000X0.325000X0.650000X-0.325000X0.650000X0*%
%ADD13RoundRect,0.250000X-0.650000X0.325000X-0.650000X-0.325000X0.650000X-0.325000X0.650000X0.325000X0*%
%ADD14RoundRect,0.250000X-0.625000X0.312500X-0.625000X-0.312500X0.625000X-0.312500X0.625000X0.312500X0*%
%ADD15R,1.905000X2.000000*%
%ADD16O,1.905000X2.000000*%
%ADD17R,1.800000X1.800000*%
%ADD18C,1.800000*%
%ADD19C,3.000000*%
%ADD20RoundRect,0.250000X0.650000X-0.325000X0.650000X0.325000X-0.650000X0.325000X-0.650000X-0.325000X0*%
%ADD21RoundRect,0.250000X-0.312500X-0.625000X0.312500X-0.625000X0.312500X0.625000X-0.312500X0.625000X0*%
%ADD22C,1.500000*%
%ADD23RoundRect,0.218750X0.218750X0.256250X-0.218750X0.256250X-0.218750X-0.256250X0.218750X-0.256250X0*%
%ADD24O,1.600000X1.600000*%
%ADD25R,1.600000X1.600000*%
%ADD26RoundRect,0.250000X0.625000X-0.312500X0.625000X0.312500X-0.625000X0.312500X-0.625000X-0.312500X0*%
%ADD27R,1.700000X1.700000*%
%ADD28O,1.700000X1.700000*%
%ADD29C,3.500000*%
%ADD30RoundRect,0.150000X-0.825000X-0.150000X0.825000X-0.150000X0.825000X0.150000X-0.825000X0.150000X0*%
%ADD31R,2.290000X3.000000*%
%ADD32RoundRect,0.150000X0.150000X-0.825000X0.150000X0.825000X-0.150000X0.825000X-0.150000X-0.825000X0*%
%ADD33R,3.000000X2.290000*%
%ADD34R,3.302000X3.302000*%
%ADD35R,1.500000X0.550000*%
%ADD36R,0.550000X1.500000*%
G04 APERTURE END LIST*
D10*
%TO.C,R5*%
X131015000Y-96405000D03*
X128090000Y-96405000D03*
%TD*%
D11*
%TO.C,C5*%
X128270000Y-83820000D03*
X125320000Y-83820000D03*
%TD*%
D12*
%TO.C,C7*%
X128077500Y-101485000D03*
X131027500Y-101485000D03*
%TD*%
D13*
%TO.C,C3*%
X173990000Y-66040000D03*
X173990000Y-68990000D03*
%TD*%
D14*
%TO.C,R11*%
X152195000Y-92517500D03*
X152195000Y-95442500D03*
%TD*%
D10*
%TO.C,R3*%
X147512500Y-93980000D03*
X144587500Y-93980000D03*
%TD*%
D15*
%TO.C,U2*%
X173990000Y-61285000D03*
D16*
X176530000Y-61285000D03*
X179070000Y-61285000D03*
%TD*%
D17*
%TO.C,D2*%
X152230000Y-101600000D03*
D18*
X152230000Y-99060000D03*
%TD*%
D10*
%TO.C,R8*%
X162752500Y-81280000D03*
X159827500Y-81280000D03*
%TD*%
D19*
%TO.C,J2*%
X172720000Y-144780000D03*
X172720000Y-128550000D03*
X166370000Y-144780000D03*
X166370000Y-128550000D03*
X179070000Y-144780000D03*
X179070000Y-128550000D03*
%TD*%
D11*
%TO.C,C10*%
X162765000Y-96520000D03*
X159815000Y-96520000D03*
%TD*%
D13*
%TO.C,C1*%
X168910000Y-66040000D03*
X168910000Y-68990000D03*
%TD*%
D20*
%TO.C,C16*%
X142035000Y-54815000D03*
X142035000Y-51865000D03*
%TD*%
D10*
%TO.C,R7*%
X162752500Y-91440000D03*
X159827500Y-91440000D03*
%TD*%
D21*
%TO.C,R2*%
X144587500Y-104025000D03*
X147512500Y-104025000D03*
%TD*%
D22*
%TO.C,Y1*%
X135980000Y-78700000D03*
X140860000Y-78700000D03*
%TD*%
D23*
%TO.C,D1*%
X174777500Y-73660000D03*
X173202500Y-73660000D03*
%TD*%
D11*
%TO.C,C14*%
X167845000Y-81280000D03*
X164895000Y-81280000D03*
%TD*%
D24*
%TO.C,J3*%
X133030000Y-58420000D03*
D25*
X135570000Y-58420000D03*
D24*
X133030000Y-60960000D03*
X135570000Y-60960000D03*
X133030000Y-63500000D03*
X135570000Y-63500000D03*
%TD*%
D10*
%TO.C,R4*%
X131015000Y-106565000D03*
X128090000Y-106565000D03*
%TD*%
D26*
%TO.C,R12*%
X128270000Y-70042500D03*
X128270000Y-67117500D03*
%TD*%
D11*
%TO.C,C11*%
X172925000Y-101600000D03*
X169975000Y-101600000D03*
%TD*%
D20*
%TO.C,C15*%
X161290000Y-62435000D03*
X161290000Y-59485000D03*
%TD*%
D27*
%TO.C,RV1*%
X146670000Y-53340000D03*
D28*
X149210000Y-53340000D03*
X151750000Y-53340000D03*
%TD*%
D13*
%TO.C,C17*%
X136955000Y-51865000D03*
X136955000Y-54815000D03*
%TD*%
D11*
%TO.C,C13*%
X172925000Y-86360000D03*
X169975000Y-86360000D03*
%TD*%
D29*
%TO.C,REF\u002A\u002A*%
X181610000Y-116840000D03*
%TD*%
D30*
%TO.C,U3*%
X134127500Y-92710000D03*
X134127500Y-93980000D03*
X134127500Y-95250000D03*
X134127500Y-96520000D03*
X139077500Y-96520000D03*
X139077500Y-95250000D03*
X139077500Y-93980000D03*
X139077500Y-92710000D03*
D31*
X136602500Y-94615000D03*
%TD*%
D11*
%TO.C,C12*%
X183085000Y-101600000D03*
X180135000Y-101600000D03*
%TD*%
%TO.C,C8*%
X147525000Y-98945000D03*
X144575000Y-98945000D03*
%TD*%
D12*
%TO.C,C2*%
X159815000Y-68580000D03*
X162765000Y-68580000D03*
%TD*%
D32*
%TO.C,U4*%
X177165000Y-93915000D03*
X178435000Y-93915000D03*
X179705000Y-93915000D03*
X180975000Y-93915000D03*
X180975000Y-88965000D03*
X179705000Y-88965000D03*
X178435000Y-88965000D03*
X177165000Y-88965000D03*
D33*
X179070000Y-91440000D03*
%TD*%
D11*
%TO.C,C22*%
X162765000Y-101600000D03*
X159815000Y-101600000D03*
%TD*%
D27*
%TO.C,BT1*%
X163830000Y-53340000D03*
D28*
X161290000Y-53340000D03*
%TD*%
D12*
%TO.C,C9*%
X144575000Y-88785000D03*
X147525000Y-88785000D03*
%TD*%
D21*
%TO.C,R6*%
X128090000Y-91440000D03*
X131015000Y-91440000D03*
%TD*%
D34*
%TO.C,SW2*%
X146930000Y-112225000D03*
X152230000Y-112225000D03*
X157530000Y-112225000D03*
X146930000Y-116925000D03*
X152230000Y-116925000D03*
X157530000Y-116925000D03*
X146930000Y-121625000D03*
X152230000Y-121625000D03*
X157530000Y-121625000D03*
%TD*%
D11*
%TO.C,C6*%
X128270000Y-78700000D03*
X125320000Y-78700000D03*
%TD*%
D29*
%TO.C,REF\u002A\u002A*%
X182880000Y-48260000D03*
%TD*%
%TO.C,REF\u002A\u002A*%
X121920000Y-48260000D03*
%TD*%
D10*
%TO.C,R10*%
X172912500Y-96520000D03*
X169987500Y-96520000D03*
%TD*%
D27*
%TO.C,SW1*%
X171450000Y-53340000D03*
D28*
X173990000Y-53340000D03*
%TD*%
D20*
%TO.C,C18*%
X179070000Y-68990000D03*
X179070000Y-66040000D03*
%TD*%
D11*
%TO.C,C20*%
X172925000Y-81280000D03*
X169975000Y-81280000D03*
%TD*%
%TO.C,C19*%
X167845000Y-101600000D03*
X164895000Y-101600000D03*
%TD*%
D10*
%TO.C,R9*%
X167832500Y-96520000D03*
X164907500Y-96520000D03*
%TD*%
D19*
%TO.C,J1*%
X131900000Y-128550000D03*
X131900000Y-144780000D03*
X138250000Y-128550000D03*
X138250000Y-144780000D03*
X125550000Y-128550000D03*
X125550000Y-144780000D03*
%TD*%
D35*
%TO.C,U1*%
X143510000Y-63920000D03*
X143510000Y-64720000D03*
X143510000Y-65520000D03*
X143510000Y-66320000D03*
X143510000Y-67120000D03*
X143510000Y-67920000D03*
X143510000Y-68720000D03*
X143510000Y-69520000D03*
X143510000Y-70320000D03*
X143510000Y-71120000D03*
X143510000Y-71920000D03*
D36*
X145210000Y-73620000D03*
X146010000Y-73620000D03*
X146810000Y-73620000D03*
X147610000Y-73620000D03*
X148410000Y-73620000D03*
X149210000Y-73620000D03*
X150010000Y-73620000D03*
X150810000Y-73620000D03*
X151610000Y-73620000D03*
X152410000Y-73620000D03*
X153210000Y-73620000D03*
D35*
X154910000Y-71920000D03*
X154910000Y-71120000D03*
X154910000Y-70320000D03*
X154910000Y-69520000D03*
X154910000Y-68720000D03*
X154910000Y-67920000D03*
X154910000Y-67120000D03*
X154910000Y-66320000D03*
X154910000Y-65520000D03*
X154910000Y-64720000D03*
X154910000Y-63920000D03*
D36*
X153210000Y-62220000D03*
X152410000Y-62220000D03*
X151610000Y-62220000D03*
X150810000Y-62220000D03*
X150010000Y-62220000D03*
X149210000Y-62220000D03*
X148410000Y-62220000D03*
X147610000Y-62220000D03*
X146810000Y-62220000D03*
X146010000Y-62220000D03*
X145210000Y-62220000D03*
%TD*%
D21*
%TO.C,R1*%
X167447500Y-73660000D03*
X170372500Y-73660000D03*
%TD*%
D29*
%TO.C,REF\u002A\u002A*%
X123190000Y-116840000D03*
%TD*%
D10*
%TO.C,R13*%
X162752500Y-86360000D03*
X159827500Y-86360000D03*
%TD*%
D11*
%TO.C,C21*%
X178005000Y-81280000D03*
X175055000Y-81280000D03*
%TD*%
D12*
%TO.C,C4*%
X159815000Y-73660000D03*
X162765000Y-73660000D03*
%TD*%
D29*
%TO.C,REF\u002A\u002A*%
X152230000Y-145495087D03*
%TD*%
G36*
X183322816Y-43198333D02*
G01*
X183322860Y-43198337D01*
X183762285Y-43256188D01*
X183762328Y-43256196D01*
X184195039Y-43352125D01*
X184195081Y-43352137D01*
X184617784Y-43485414D01*
X184617825Y-43485429D01*
X185027304Y-43655040D01*
X185027343Y-43655059D01*
X185420481Y-43859714D01*
X185420519Y-43859736D01*
X185794324Y-44097876D01*
X185794359Y-44097901D01*
X186145987Y-44367714D01*
X186146021Y-44367742D01*
X186472794Y-44667175D01*
X186472825Y-44667206D01*
X186772258Y-44993979D01*
X186772286Y-44994013D01*
X187042099Y-45345641D01*
X187042124Y-45345676D01*
X187280264Y-45719481D01*
X187280286Y-45719519D01*
X187484941Y-46112657D01*
X187484960Y-46112696D01*
X187654571Y-46522175D01*
X187654586Y-46522216D01*
X187787863Y-46944919D01*
X187787875Y-46944961D01*
X187883804Y-47377672D01*
X187883812Y-47377715D01*
X187941663Y-47817140D01*
X187941667Y-47817184D01*
X187961000Y-48259978D01*
X187961000Y-147320022D01*
X187941667Y-147762816D01*
X187941663Y-147762860D01*
X187883812Y-148202285D01*
X187883804Y-148202328D01*
X187787875Y-148635039D01*
X187787863Y-148635081D01*
X187654586Y-149057784D01*
X187654571Y-149057825D01*
X187484960Y-149467304D01*
X187484941Y-149467343D01*
X187280286Y-149860481D01*
X187280264Y-149860519D01*
X187042124Y-150234324D01*
X187042099Y-150234359D01*
X186772286Y-150585987D01*
X186772258Y-150586021D01*
X186472825Y-150912794D01*
X186472794Y-150912825D01*
X186146021Y-151212258D01*
X186145987Y-151212286D01*
X185794359Y-151482099D01*
X185794324Y-151482124D01*
X185420519Y-151720264D01*
X185420481Y-151720286D01*
X185027343Y-151924941D01*
X185027304Y-151924960D01*
X184617825Y-152094571D01*
X184617784Y-152094586D01*
X184195081Y-152227863D01*
X184195039Y-152227875D01*
X183762328Y-152323804D01*
X183762285Y-152323812D01*
X183322860Y-152381663D01*
X183322816Y-152381667D01*
X182880022Y-152401000D01*
X121919978Y-152401000D01*
X121477184Y-152381667D01*
X121477140Y-152381663D01*
X121037715Y-152323812D01*
X121037672Y-152323804D01*
X120604961Y-152227875D01*
X120604919Y-152227863D01*
X120182216Y-152094586D01*
X120182175Y-152094571D01*
X119772696Y-151924960D01*
X119772657Y-151924941D01*
X119379519Y-151720286D01*
X119379481Y-151720264D01*
X119005676Y-151482124D01*
X119005641Y-151482099D01*
X118654013Y-151212286D01*
X118653979Y-151212258D01*
X118327206Y-150912825D01*
X118327175Y-150912794D01*
X118027742Y-150586021D01*
X118027714Y-150585987D01*
X117757901Y-150234359D01*
X117757876Y-150234324D01*
X117519736Y-149860519D01*
X117519714Y-149860481D01*
X117315059Y-149467343D01*
X117315040Y-149467304D01*
X117145429Y-149057825D01*
X117145414Y-149057784D01*
X117012137Y-148635081D01*
X117012125Y-148635039D01*
X116916196Y-148202328D01*
X116916188Y-148202285D01*
X116858337Y-147762860D01*
X116858333Y-147762816D01*
X116839000Y-147320022D01*
X116839000Y-48259978D01*
X116858333Y-47817184D01*
X116858337Y-47817140D01*
X116916188Y-47377715D01*
X116916196Y-47377672D01*
X117012125Y-46944961D01*
X117012137Y-46944919D01*
X117145414Y-46522216D01*
X117145429Y-46522175D01*
X117315040Y-46112696D01*
X117315059Y-46112657D01*
X117519714Y-45719519D01*
X117519736Y-45719481D01*
X117757876Y-45345676D01*
X117757901Y-45345641D01*
X118027714Y-44994013D01*
X118027742Y-44993979D01*
X118327175Y-44667206D01*
X118327206Y-44667175D01*
X118653979Y-44367742D01*
X118654013Y-44367714D01*
X119005641Y-44097901D01*
X119005676Y-44097876D01*
X119379481Y-43859736D01*
X119379519Y-43859714D01*
X119772657Y-43655059D01*
X119772696Y-43655040D01*
X120182175Y-43485429D01*
X120182216Y-43485414D01*
X120604919Y-43352137D01*
X120604961Y-43352125D01*
X121037672Y-43256196D01*
X121037715Y-43256188D01*
X121477140Y-43198337D01*
X121477184Y-43198333D01*
X121919978Y-43179000D01*
X182880022Y-43179000D01*
X183322816Y-43198333D01*
G37*
G36*
X183322816Y-43198333D02*
G01*
X183322860Y-43198337D01*
X183762285Y-43256188D01*
X183762328Y-43256196D01*
X184195039Y-43352125D01*
X184195081Y-43352137D01*
X184617784Y-43485414D01*
X184617825Y-43485429D01*
X185027304Y-43655040D01*
X185027343Y-43655059D01*
X185420481Y-43859714D01*
X185420519Y-43859736D01*
X185794324Y-44097876D01*
X185794359Y-44097901D01*
X186145987Y-44367714D01*
X186146021Y-44367742D01*
X186472794Y-44667175D01*
X186472825Y-44667206D01*
X186772258Y-44993979D01*
X186772286Y-44994013D01*
X187042099Y-45345641D01*
X187042124Y-45345676D01*
X187280264Y-45719481D01*
X187280286Y-45719519D01*
X187484941Y-46112657D01*
X187484960Y-46112696D01*
X187654571Y-46522175D01*
X187654586Y-46522216D01*
X187787863Y-46944919D01*
X187787875Y-46944961D01*
X187883804Y-47377672D01*
X187883812Y-47377715D01*
X187941663Y-47817140D01*
X187941667Y-47817184D01*
X187961000Y-48259978D01*
X187961000Y-147320022D01*
X187941667Y-147762816D01*
X187941663Y-147762860D01*
X187883812Y-148202285D01*
X187883804Y-148202328D01*
X187787875Y-148635039D01*
X187787863Y-148635081D01*
X187654586Y-149057784D01*
X187654571Y-149057825D01*
X187484960Y-149467304D01*
X187484941Y-149467343D01*
X187280286Y-149860481D01*
X187280264Y-149860519D01*
X187042124Y-150234324D01*
X187042099Y-150234359D01*
X186772286Y-150585987D01*
X186772258Y-150586021D01*
X186472825Y-150912794D01*
X186472794Y-150912825D01*
X186146021Y-151212258D01*
X186145987Y-151212286D01*
X185794359Y-151482099D01*
X185794324Y-151482124D01*
X185420519Y-151720264D01*
X185420481Y-151720286D01*
X185027343Y-151924941D01*
X185027304Y-151924960D01*
X184617825Y-152094571D01*
X184617784Y-152094586D01*
X184195081Y-152227863D01*
X184195039Y-152227875D01*
X183762328Y-152323804D01*
X183762285Y-152323812D01*
X183322860Y-152381663D01*
X183322816Y-152381667D01*
X182880022Y-152401000D01*
X121919978Y-152401000D01*
X121477184Y-152381667D01*
X121477140Y-152381663D01*
X121037715Y-152323812D01*
X121037672Y-152323804D01*
X120604961Y-152227875D01*
X120604919Y-152227863D01*
X120182216Y-152094586D01*
X120182175Y-152094571D01*
X119772696Y-151924960D01*
X119772657Y-151924941D01*
X119379519Y-151720286D01*
X119379481Y-151720264D01*
X119005676Y-151482124D01*
X119005641Y-151482099D01*
X118654013Y-151212286D01*
X118653979Y-151212258D01*
X118327206Y-150912825D01*
X118327175Y-150912794D01*
X118027742Y-150586021D01*
X118027714Y-150585987D01*
X117757901Y-150234359D01*
X117757876Y-150234324D01*
X117519736Y-149860519D01*
X117519714Y-149860481D01*
X117315059Y-149467343D01*
X117315040Y-149467304D01*
X117145429Y-149057825D01*
X117145414Y-149057784D01*
X117012137Y-148635081D01*
X117012125Y-148635039D01*
X116916196Y-148202328D01*
X116916188Y-148202285D01*
X116858337Y-147762860D01*
X116858333Y-147762816D01*
X116839000Y-147320022D01*
X116839000Y-48259978D01*
X116858333Y-47817184D01*
X116858337Y-47817140D01*
X116916188Y-47377715D01*
X116916196Y-47377672D01*
X117012125Y-46944961D01*
X117012137Y-46944919D01*
X117145414Y-46522216D01*
X117145429Y-46522175D01*
X117315040Y-46112696D01*
X117315059Y-46112657D01*
X117519714Y-45719519D01*
X117519736Y-45719481D01*
X117757876Y-45345676D01*
X117757901Y-45345641D01*
X118027714Y-44994013D01*
X118027742Y-44993979D01*
X118327175Y-44667206D01*
X118327206Y-44667175D01*
X118653979Y-44367742D01*
X118654013Y-44367714D01*
X119005641Y-44097901D01*
X119005676Y-44097876D01*
X119379481Y-43859736D01*
X119379519Y-43859714D01*
X119772657Y-43655059D01*
X119772696Y-43655040D01*
X120182175Y-43485429D01*
X120182216Y-43485414D01*
X120604919Y-43352137D01*
X120604961Y-43352125D01*
X121037672Y-43256196D01*
X121037715Y-43256188D01*
X121477140Y-43198337D01*
X121477184Y-43198333D01*
X121919978Y-43179000D01*
X182880022Y-43179000D01*
X183322816Y-43198333D01*
G37*
M02*
