%TF.GenerationSoftware,KiCad,Pcbnew,7.0.8*%
%TF.CreationDate,2023-11-14T18:00:56-08:00*%
%TF.ProjectId,guitar_pedal_4layer,67756974-6172-45f7-9065-64616c5f346c,rev?*%
%TF.SameCoordinates,Original*%
%TF.FileFunction,Legend,Bot*%
%TF.FilePolarity,Positive*%
%FSLAX46Y46*%
G04 Gerber Fmt 4.6, Leading zero omitted, Abs format (unit mm)*
G04 Created by KiCad (PCBNEW 7.0.8) date 2023-11-14 18:00:56*
%MOMM*%
%LPD*%
G01*
G04 APERTURE LIST*
%ADD10R,1.905000X2.000000*%
%ADD11O,1.905000X2.000000*%
%ADD12R,1.800000X1.800000*%
%ADD13C,1.800000*%
%ADD14C,3.000000*%
%ADD15C,1.500000*%
%ADD16R,1.700000X1.700000*%
%ADD17O,1.700000X1.700000*%
%ADD18C,3.500000*%
%ADD19R,3.302000X3.302000*%
G04 APERTURE END LIST*
%LPC*%
D10*
%TO.C,U2*%
X173990000Y-61285000D03*
D11*
X176530000Y-61285000D03*
X179070000Y-61285000D03*
%TD*%
D12*
%TO.C,D2*%
X152230000Y-101600000D03*
D13*
X152230000Y-99060000D03*
%TD*%
D14*
%TO.C,J2*%
X172720000Y-144780000D03*
X172720000Y-128550000D03*
X166370000Y-144780000D03*
X166370000Y-128550000D03*
X179070000Y-144780000D03*
X179070000Y-128550000D03*
%TD*%
D15*
%TO.C,Y1*%
X135980000Y-78700000D03*
X140860000Y-78700000D03*
%TD*%
D16*
%TO.C,RV1*%
X146670000Y-53340000D03*
D17*
X149210000Y-53340000D03*
X151750000Y-53340000D03*
%TD*%
D18*
%TO.C,REF\u002A\u002A*%
X181610000Y-116840000D03*
%TD*%
D16*
%TO.C,BT1*%
X163830000Y-53340000D03*
D17*
X161290000Y-53340000D03*
%TD*%
D19*
%TO.C,SW2*%
X146930000Y-112225000D03*
X152230000Y-112225000D03*
X157530000Y-112225000D03*
X146930000Y-116925000D03*
X152230000Y-116925000D03*
X157530000Y-116925000D03*
X146930000Y-121625000D03*
X152230000Y-121625000D03*
X157530000Y-121625000D03*
%TD*%
D18*
%TO.C,REF\u002A\u002A*%
X182880000Y-48260000D03*
%TD*%
%TO.C,REF\u002A\u002A*%
X121920000Y-48260000D03*
%TD*%
D16*
%TO.C,SW1*%
X171450000Y-53340000D03*
D17*
X173990000Y-53340000D03*
%TD*%
D14*
%TO.C,J1*%
X131900000Y-128550000D03*
X131900000Y-144780000D03*
X138250000Y-128550000D03*
X138250000Y-144780000D03*
X125550000Y-128550000D03*
X125550000Y-144780000D03*
%TD*%
D18*
%TO.C,REF\u002A\u002A*%
X123190000Y-116840000D03*
%TD*%
%TO.C,REF\u002A\u002A*%
X152230000Y-145495087D03*
%TD*%
G36*
X183322816Y-43198333D02*
G01*
X183322860Y-43198337D01*
X183762285Y-43256188D01*
X183762328Y-43256196D01*
X184195039Y-43352125D01*
X184195081Y-43352137D01*
X184617784Y-43485414D01*
X184617825Y-43485429D01*
X185027304Y-43655040D01*
X185027343Y-43655059D01*
X185420481Y-43859714D01*
X185420519Y-43859736D01*
X185794324Y-44097876D01*
X185794359Y-44097901D01*
X186145987Y-44367714D01*
X186146021Y-44367742D01*
X186472794Y-44667175D01*
X186472825Y-44667206D01*
X186772258Y-44993979D01*
X186772286Y-44994013D01*
X187042099Y-45345641D01*
X187042124Y-45345676D01*
X187280264Y-45719481D01*
X187280286Y-45719519D01*
X187484941Y-46112657D01*
X187484960Y-46112696D01*
X187654571Y-46522175D01*
X187654586Y-46522216D01*
X187787863Y-46944919D01*
X187787875Y-46944961D01*
X187883804Y-47377672D01*
X187883812Y-47377715D01*
X187941663Y-47817140D01*
X187941667Y-47817184D01*
X187961000Y-48259978D01*
X187961000Y-147320022D01*
X187941667Y-147762816D01*
X187941663Y-147762860D01*
X187883812Y-148202285D01*
X187883804Y-148202328D01*
X187787875Y-148635039D01*
X187787863Y-148635081D01*
X187654586Y-149057784D01*
X187654571Y-149057825D01*
X187484960Y-149467304D01*
X187484941Y-149467343D01*
X187280286Y-149860481D01*
X187280264Y-149860519D01*
X187042124Y-150234324D01*
X187042099Y-150234359D01*
X186772286Y-150585987D01*
X186772258Y-150586021D01*
X186472825Y-150912794D01*
X186472794Y-150912825D01*
X186146021Y-151212258D01*
X186145987Y-151212286D01*
X185794359Y-151482099D01*
X185794324Y-151482124D01*
X185420519Y-151720264D01*
X185420481Y-151720286D01*
X185027343Y-151924941D01*
X185027304Y-151924960D01*
X184617825Y-152094571D01*
X184617784Y-152094586D01*
X184195081Y-152227863D01*
X184195039Y-152227875D01*
X183762328Y-152323804D01*
X183762285Y-152323812D01*
X183322860Y-152381663D01*
X183322816Y-152381667D01*
X182880022Y-152401000D01*
X121919978Y-152401000D01*
X121477184Y-152381667D01*
X121477140Y-152381663D01*
X121037715Y-152323812D01*
X121037672Y-152323804D01*
X120604961Y-152227875D01*
X120604919Y-152227863D01*
X120182216Y-152094586D01*
X120182175Y-152094571D01*
X119772696Y-151924960D01*
X119772657Y-151924941D01*
X119379519Y-151720286D01*
X119379481Y-151720264D01*
X119005676Y-151482124D01*
X119005641Y-151482099D01*
X118654013Y-151212286D01*
X118653979Y-151212258D01*
X118327206Y-150912825D01*
X118327175Y-150912794D01*
X118027742Y-150586021D01*
X118027714Y-150585987D01*
X117757901Y-150234359D01*
X117757876Y-150234324D01*
X117519736Y-149860519D01*
X117519714Y-149860481D01*
X117315059Y-149467343D01*
X117315040Y-149467304D01*
X117145429Y-149057825D01*
X117145414Y-149057784D01*
X117012137Y-148635081D01*
X117012125Y-148635039D01*
X116916196Y-148202328D01*
X116916188Y-148202285D01*
X116858337Y-147762860D01*
X116858333Y-147762816D01*
X116839000Y-147320022D01*
X116839000Y-48259978D01*
X116858333Y-47817184D01*
X116858337Y-47817140D01*
X116916188Y-47377715D01*
X116916196Y-47377672D01*
X117012125Y-46944961D01*
X117012137Y-46944919D01*
X117145414Y-46522216D01*
X117145429Y-46522175D01*
X117315040Y-46112696D01*
X117315059Y-46112657D01*
X117519714Y-45719519D01*
X117519736Y-45719481D01*
X117757876Y-45345676D01*
X117757901Y-45345641D01*
X118027714Y-44994013D01*
X118027742Y-44993979D01*
X118327175Y-44667206D01*
X118327206Y-44667175D01*
X118653979Y-44367742D01*
X118654013Y-44367714D01*
X119005641Y-44097901D01*
X119005676Y-44097876D01*
X119379481Y-43859736D01*
X119379519Y-43859714D01*
X119772657Y-43655059D01*
X119772696Y-43655040D01*
X120182175Y-43485429D01*
X120182216Y-43485414D01*
X120604919Y-43352137D01*
X120604961Y-43352125D01*
X121037672Y-43256196D01*
X121037715Y-43256188D01*
X121477140Y-43198337D01*
X121477184Y-43198333D01*
X121919978Y-43179000D01*
X182880022Y-43179000D01*
X183322816Y-43198333D01*
G37*
G36*
X183322816Y-43198333D02*
G01*
X183322860Y-43198337D01*
X183762285Y-43256188D01*
X183762328Y-43256196D01*
X184195039Y-43352125D01*
X184195081Y-43352137D01*
X184617784Y-43485414D01*
X184617825Y-43485429D01*
X185027304Y-43655040D01*
X185027343Y-43655059D01*
X185420481Y-43859714D01*
X185420519Y-43859736D01*
X185794324Y-44097876D01*
X185794359Y-44097901D01*
X186145987Y-44367714D01*
X186146021Y-44367742D01*
X186472794Y-44667175D01*
X186472825Y-44667206D01*
X186772258Y-44993979D01*
X186772286Y-44994013D01*
X187042099Y-45345641D01*
X187042124Y-45345676D01*
X187280264Y-45719481D01*
X187280286Y-45719519D01*
X187484941Y-46112657D01*
X187484960Y-46112696D01*
X187654571Y-46522175D01*
X187654586Y-46522216D01*
X187787863Y-46944919D01*
X187787875Y-46944961D01*
X187883804Y-47377672D01*
X187883812Y-47377715D01*
X187941663Y-47817140D01*
X187941667Y-47817184D01*
X187961000Y-48259978D01*
X187961000Y-147320022D01*
X187941667Y-147762816D01*
X187941663Y-147762860D01*
X187883812Y-148202285D01*
X187883804Y-148202328D01*
X187787875Y-148635039D01*
X187787863Y-148635081D01*
X187654586Y-149057784D01*
X187654571Y-149057825D01*
X187484960Y-149467304D01*
X187484941Y-149467343D01*
X187280286Y-149860481D01*
X187280264Y-149860519D01*
X187042124Y-150234324D01*
X187042099Y-150234359D01*
X186772286Y-150585987D01*
X186772258Y-150586021D01*
X186472825Y-150912794D01*
X186472794Y-150912825D01*
X186146021Y-151212258D01*
X186145987Y-151212286D01*
X185794359Y-151482099D01*
X185794324Y-151482124D01*
X185420519Y-151720264D01*
X185420481Y-151720286D01*
X185027343Y-151924941D01*
X185027304Y-151924960D01*
X184617825Y-152094571D01*
X184617784Y-152094586D01*
X184195081Y-152227863D01*
X184195039Y-152227875D01*
X183762328Y-152323804D01*
X183762285Y-152323812D01*
X183322860Y-152381663D01*
X183322816Y-152381667D01*
X182880022Y-152401000D01*
X121919978Y-152401000D01*
X121477184Y-152381667D01*
X121477140Y-152381663D01*
X121037715Y-152323812D01*
X121037672Y-152323804D01*
X120604961Y-152227875D01*
X120604919Y-152227863D01*
X120182216Y-152094586D01*
X120182175Y-152094571D01*
X119772696Y-151924960D01*
X119772657Y-151924941D01*
X119379519Y-151720286D01*
X119379481Y-151720264D01*
X119005676Y-151482124D01*
X119005641Y-151482099D01*
X118654013Y-151212286D01*
X118653979Y-151212258D01*
X118327206Y-150912825D01*
X118327175Y-150912794D01*
X118027742Y-150586021D01*
X118027714Y-150585987D01*
X117757901Y-150234359D01*
X117757876Y-150234324D01*
X117519736Y-149860519D01*
X117519714Y-149860481D01*
X117315059Y-149467343D01*
X117315040Y-149467304D01*
X117145429Y-149057825D01*
X117145414Y-149057784D01*
X117012137Y-148635081D01*
X117012125Y-148635039D01*
X116916196Y-148202328D01*
X116916188Y-148202285D01*
X116858337Y-147762860D01*
X116858333Y-147762816D01*
X116839000Y-147320022D01*
X116839000Y-48259978D01*
X116858333Y-47817184D01*
X116858337Y-47817140D01*
X116916188Y-47377715D01*
X116916196Y-47377672D01*
X117012125Y-46944961D01*
X117012137Y-46944919D01*
X117145414Y-46522216D01*
X117145429Y-46522175D01*
X117315040Y-46112696D01*
X117315059Y-46112657D01*
X117519714Y-45719519D01*
X117519736Y-45719481D01*
X117757876Y-45345676D01*
X117757901Y-45345641D01*
X118027714Y-44994013D01*
X118027742Y-44993979D01*
X118327175Y-44667206D01*
X118327206Y-44667175D01*
X118653979Y-44367742D01*
X118654013Y-44367714D01*
X119005641Y-44097901D01*
X119005676Y-44097876D01*
X119379481Y-43859736D01*
X119379519Y-43859714D01*
X119772657Y-43655059D01*
X119772696Y-43655040D01*
X120182175Y-43485429D01*
X120182216Y-43485414D01*
X120604919Y-43352137D01*
X120604961Y-43352125D01*
X121037672Y-43256196D01*
X121037715Y-43256188D01*
X121477140Y-43198337D01*
X121477184Y-43198333D01*
X121919978Y-43179000D01*
X182880022Y-43179000D01*
X183322816Y-43198333D01*
G37*
%LPD*%
M02*
