%TF.GenerationSoftware,KiCad,Pcbnew,7.0.8*%
%TF.CreationDate,2023-11-14T18:13:18-08:00*%
%TF.ProjectId,guitar_pedal,67756974-6172-45f7-9065-64616c2e6b69,rev?*%
%TF.SameCoordinates,Original*%
%TF.FileFunction,Copper,L1,Top*%
%TF.FilePolarity,Positive*%
%FSLAX46Y46*%
G04 Gerber Fmt 4.6, Leading zero omitted, Abs format (unit mm)*
G04 Created by KiCad (PCBNEW 7.0.8) date 2023-11-14 18:13:18*
%MOMM*%
%LPD*%
G01*
G04 APERTURE LIST*
G04 Aperture macros list*
%AMRoundRect*
0 Rectangle with rounded corners*
0 $1 Rounding radius*
0 $2 $3 $4 $5 $6 $7 $8 $9 X,Y pos of 4 corners*
0 Add a 4 corners polygon primitive as box body*
4,1,4,$2,$3,$4,$5,$6,$7,$8,$9,$2,$3,0*
0 Add four circle primitives for the rounded corners*
1,1,$1+$1,$2,$3*
1,1,$1+$1,$4,$5*
1,1,$1+$1,$6,$7*
1,1,$1+$1,$8,$9*
0 Add four rect primitives between the rounded corners*
20,1,$1+$1,$2,$3,$4,$5,0*
20,1,$1+$1,$4,$5,$6,$7,0*
20,1,$1+$1,$6,$7,$8,$9,0*
20,1,$1+$1,$8,$9,$2,$3,0*%
G04 Aperture macros list end*
%TA.AperFunction,SMDPad,CuDef*%
%ADD10RoundRect,0.250000X0.312500X0.625000X-0.312500X0.625000X-0.312500X-0.625000X0.312500X-0.625000X0*%
%TD*%
%TA.AperFunction,SMDPad,CuDef*%
%ADD11RoundRect,0.250000X0.325000X0.650000X-0.325000X0.650000X-0.325000X-0.650000X0.325000X-0.650000X0*%
%TD*%
%TA.AperFunction,SMDPad,CuDef*%
%ADD12RoundRect,0.250000X-0.325000X-0.650000X0.325000X-0.650000X0.325000X0.650000X-0.325000X0.650000X0*%
%TD*%
%TA.AperFunction,SMDPad,CuDef*%
%ADD13RoundRect,0.250000X-0.650000X0.325000X-0.650000X-0.325000X0.650000X-0.325000X0.650000X0.325000X0*%
%TD*%
%TA.AperFunction,SMDPad,CuDef*%
%ADD14RoundRect,0.250000X-0.625000X0.312500X-0.625000X-0.312500X0.625000X-0.312500X0.625000X0.312500X0*%
%TD*%
%TA.AperFunction,ComponentPad*%
%ADD15R,1.905000X2.000000*%
%TD*%
%TA.AperFunction,ComponentPad*%
%ADD16O,1.905000X2.000000*%
%TD*%
%TA.AperFunction,ComponentPad*%
%ADD17R,1.800000X1.800000*%
%TD*%
%TA.AperFunction,ComponentPad*%
%ADD18C,1.800000*%
%TD*%
%TA.AperFunction,ComponentPad*%
%ADD19C,3.000000*%
%TD*%
%TA.AperFunction,SMDPad,CuDef*%
%ADD20RoundRect,0.250000X-0.312500X-0.625000X0.312500X-0.625000X0.312500X0.625000X-0.312500X0.625000X0*%
%TD*%
%TA.AperFunction,ComponentPad*%
%ADD21C,1.500000*%
%TD*%
%TA.AperFunction,SMDPad,CuDef*%
%ADD22RoundRect,0.218750X0.218750X0.256250X-0.218750X0.256250X-0.218750X-0.256250X0.218750X-0.256250X0*%
%TD*%
%TA.AperFunction,SMDPad,CuDef*%
%ADD23O,1.600000X1.600000*%
%TD*%
%TA.AperFunction,SMDPad,CuDef*%
%ADD24R,1.600000X1.600000*%
%TD*%
%TA.AperFunction,SMDPad,CuDef*%
%ADD25RoundRect,0.250000X0.625000X-0.312500X0.625000X0.312500X-0.625000X0.312500X-0.625000X-0.312500X0*%
%TD*%
%TA.AperFunction,SMDPad,CuDef*%
%ADD26RoundRect,0.250000X0.650000X-0.325000X0.650000X0.325000X-0.650000X0.325000X-0.650000X-0.325000X0*%
%TD*%
%TA.AperFunction,ComponentPad*%
%ADD27R,1.700000X1.700000*%
%TD*%
%TA.AperFunction,ComponentPad*%
%ADD28O,1.700000X1.700000*%
%TD*%
%TA.AperFunction,SMDPad,CuDef*%
%ADD29RoundRect,0.150000X-0.825000X-0.150000X0.825000X-0.150000X0.825000X0.150000X-0.825000X0.150000X0*%
%TD*%
%TA.AperFunction,SMDPad,CuDef*%
%ADD30R,2.290000X3.000000*%
%TD*%
%TA.AperFunction,SMDPad,CuDef*%
%ADD31RoundRect,0.150000X0.150000X-0.825000X0.150000X0.825000X-0.150000X0.825000X-0.150000X-0.825000X0*%
%TD*%
%TA.AperFunction,SMDPad,CuDef*%
%ADD32R,3.000000X2.290000*%
%TD*%
%TA.AperFunction,ComponentPad*%
%ADD33R,3.302000X3.302000*%
%TD*%
%TA.AperFunction,SMDPad,CuDef*%
%ADD34R,1.500000X0.550000*%
%TD*%
%TA.AperFunction,SMDPad,CuDef*%
%ADD35R,0.550000X1.500000*%
%TD*%
%TA.AperFunction,ViaPad*%
%ADD36C,1.600000*%
%TD*%
%TA.AperFunction,Conductor*%
%ADD37C,0.250000*%
%TD*%
%TA.AperFunction,Conductor*%
%ADD38C,0.200000*%
%TD*%
%TA.AperFunction,Conductor*%
%ADD39C,0.500000*%
%TD*%
G04 APERTURE END LIST*
D10*
%TO.P,R5,1*%
%TO.N,Net-(U3--)*%
X137365000Y-93865000D03*
%TO.P,R5,2*%
%TO.N,Net-(C7-Pad1)*%
X134440000Y-93865000D03*
%TD*%
D11*
%TO.P,C5,1*%
%TO.N,Net-(U1-XTAL1)*%
X135775000Y-81240000D03*
%TO.P,C5,2*%
%TO.N,GND*%
X132825000Y-81240000D03*
%TD*%
D12*
%TO.P,C7,1*%
%TO.N,Net-(C7-Pad1)*%
X134427500Y-98945000D03*
%TO.P,C7,2*%
%TO.N,FX In*%
X137377500Y-98945000D03*
%TD*%
D13*
%TO.P,C3,1*%
%TO.N,Net-(SW1-B)*%
X180340000Y-63500000D03*
%TO.P,C3,2*%
%TO.N,Net-(C18-Pad1)*%
X180340000Y-66450000D03*
%TD*%
D14*
%TO.P,R11,1*%
%TO.N,+5V*%
X158580000Y-89977500D03*
%TO.P,R11,2*%
%TO.N,Net-(D2-A)*%
X158580000Y-92902500D03*
%TD*%
D10*
%TO.P,R3,1*%
%TO.N,Net-(U3-+)*%
X153862500Y-91440000D03*
%TO.P,R3,2*%
%TO.N,Net-(C9-Pad1)*%
X150937500Y-91440000D03*
%TD*%
D15*
%TO.P,U2,1,IN*%
%TO.N,Net-(SW1-B)*%
X180340000Y-58745000D03*
D16*
%TO.P,U2,2,GND*%
%TO.N,GND*%
X182880000Y-58745000D03*
%TO.P,U2,3,OUT*%
%TO.N,+5V*%
X185420000Y-58745000D03*
%TD*%
D17*
%TO.P,D2,1,K*%
%TO.N,Net-(D2-K)*%
X158580000Y-99060000D03*
D18*
%TO.P,D2,2,A*%
%TO.N,Net-(D2-A)*%
X158580000Y-96520000D03*
%TD*%
D10*
%TO.P,R8,1*%
%TO.N,Net-(R13-Pad2)*%
X169102500Y-78740000D03*
%TO.P,R8,2*%
%TO.N,PD2*%
X166177500Y-78740000D03*
%TD*%
D19*
%TO.P,J2,R*%
%TO.N,GND*%
X179070000Y-145275000D03*
%TO.P,J2,RN*%
%TO.N,unconnected-(J2-PadRN)*%
X179070000Y-129045000D03*
%TO.P,J2,S*%
%TO.N,GND*%
X172720000Y-145275000D03*
%TO.P,J2,SN*%
%TO.N,unconnected-(J2-PadSN)*%
X172720000Y-129045000D03*
%TO.P,J2,T*%
%TO.N,Net-(SW2-C2)*%
X185420000Y-145275000D03*
%TO.P,J2,TN*%
%TO.N,unconnected-(J2-PadTN)*%
X185420000Y-129045000D03*
%TD*%
D11*
%TO.P,C10,1*%
%TO.N,Net-(C10-Pad1)*%
X169115000Y-93980000D03*
%TO.P,C10,2*%
%TO.N,GND*%
X166165000Y-93980000D03*
%TD*%
D13*
%TO.P,C1,1*%
%TO.N,Net-(SW1-B)*%
X175260000Y-63500000D03*
%TO.P,C1,2*%
%TO.N,GND*%
X175260000Y-66450000D03*
%TD*%
D12*
%TO.P,C16,1*%
%TO.N,GND*%
X126590000Y-63500000D03*
%TO.P,C16,2*%
%TO.N,+5V*%
X129540000Y-63500000D03*
%TD*%
D10*
%TO.P,R7,1*%
%TO.N,Net-(C10-Pad1)*%
X169102500Y-88900000D03*
%TO.P,R7,2*%
%TO.N,PD1*%
X166177500Y-88900000D03*
%TD*%
D20*
%TO.P,R2,1*%
%TO.N,PA0*%
X150937500Y-101485000D03*
%TO.P,R2,2*%
%TO.N,Net-(U3-+)*%
X153862500Y-101485000D03*
%TD*%
D21*
%TO.P,Y1,1,1*%
%TO.N,Net-(U1-XTAL2)*%
X142330000Y-76160000D03*
%TO.P,Y1,2,2*%
%TO.N,Net-(U1-XTAL1)*%
X147210000Y-76160000D03*
%TD*%
D22*
%TO.P,D1,1,K*%
%TO.N,GND*%
X181127500Y-71120000D03*
%TO.P,D1,2,A*%
%TO.N,Net-(D1-A)*%
X179552500Y-71120000D03*
%TD*%
D11*
%TO.P,C14,1*%
%TO.N,Net-(C14-Pad1)*%
X174195000Y-78740000D03*
%TO.P,C14,2*%
%TO.N,Net-(C14-Pad2)*%
X171245000Y-78740000D03*
%TD*%
D23*
%TO.P,J3,1,MISO*%
%TO.N,Net-(J3-MISO)*%
X139380000Y-55880000D03*
D24*
%TO.P,J3,2,VCC*%
%TO.N,+5V*%
X141920000Y-55880000D03*
D23*
%TO.P,J3,3,SCK*%
%TO.N,Net-(J3-SCK)*%
X139380000Y-58420000D03*
%TO.P,J3,4,MOSI*%
%TO.N,Net-(J3-MOSI)*%
X141920000Y-58420000D03*
%TO.P,J3,5,~{RST}*%
%TO.N,Net-(J3-~{RST})*%
X139380000Y-60960000D03*
%TO.P,J3,6,GND*%
%TO.N,GND*%
X141920000Y-60960000D03*
%TD*%
D10*
%TO.P,R4,1*%
%TO.N,FX In*%
X137365000Y-104025000D03*
%TO.P,R4,2*%
%TO.N,GND*%
X134440000Y-104025000D03*
%TD*%
D25*
%TO.P,R12,1*%
%TO.N,+5V*%
X134620000Y-67502500D03*
%TO.P,R12,2*%
%TO.N,Net-(J3-~{RST})*%
X134620000Y-64577500D03*
%TD*%
D11*
%TO.P,C11,1*%
%TO.N,Net-(U4-+)*%
X179275000Y-99060000D03*
%TO.P,C11,2*%
%TO.N,Net-(C11-Pad2)*%
X176325000Y-99060000D03*
%TD*%
D26*
%TO.P,C15,1*%
%TO.N,Net-(U1-AREF)*%
X167640000Y-59895000D03*
%TO.P,C15,2*%
%TO.N,GND*%
X167640000Y-56945000D03*
%TD*%
D27*
%TO.P,RV1,1,1*%
%TO.N,GND*%
X153020000Y-50800000D03*
D28*
%TO.P,RV1,2,2*%
%TO.N,PA1*%
X155560000Y-50800000D03*
%TO.P,RV1,3,3*%
%TO.N,+5V*%
X158100000Y-50800000D03*
%TD*%
D11*
%TO.P,C17,1*%
%TO.N,+5V*%
X129540000Y-58420000D03*
%TO.P,C17,2*%
%TO.N,GND*%
X126590000Y-58420000D03*
%TD*%
%TO.P,C13,1*%
%TO.N,+5V*%
X179275000Y-83820000D03*
%TO.P,C13,2*%
%TO.N,GND*%
X176325000Y-83820000D03*
%TD*%
D29*
%TO.P,U3,1,NULL*%
%TO.N,unconnected-(U3-NULL-Pad1)*%
X140477500Y-90170000D03*
%TO.P,U3,2,-*%
%TO.N,Net-(U3--)*%
X140477500Y-91440000D03*
%TO.P,U3,3,+*%
%TO.N,Net-(U3-+)*%
X140477500Y-92710000D03*
%TO.P,U3,4,V-*%
%TO.N,GND*%
X140477500Y-93980000D03*
%TO.P,U3,5,NULL*%
%TO.N,unconnected-(U3-NULL-Pad5)*%
X145427500Y-93980000D03*
%TO.P,U3,6*%
%TO.N,PA0*%
X145427500Y-92710000D03*
%TO.P,U3,7,V+*%
%TO.N,+5V*%
X145427500Y-91440000D03*
%TO.P,U3,8,NC*%
%TO.N,unconnected-(U3-NC-Pad8)*%
X145427500Y-90170000D03*
D30*
%TO.P,U3,9*%
%TO.N,N/C*%
X142952500Y-92075000D03*
%TD*%
D11*
%TO.P,C12,1*%
%TO.N,Net-(U4--)*%
X189435000Y-99060000D03*
%TO.P,C12,2*%
%TO.N,FX Out*%
X186485000Y-99060000D03*
%TD*%
%TO.P,C8,1*%
%TO.N,Net-(U3-+)*%
X153875000Y-96405000D03*
%TO.P,C8,2*%
%TO.N,PA0*%
X150925000Y-96405000D03*
%TD*%
D12*
%TO.P,C2,1*%
%TO.N,+5V*%
X166165000Y-66040000D03*
%TO.P,C2,2*%
%TO.N,GND*%
X169115000Y-66040000D03*
%TD*%
D31*
%TO.P,U4,1,NULL*%
%TO.N,unconnected-(U4-NULL-Pad1)*%
X183515000Y-91375000D03*
%TO.P,U4,2,-*%
%TO.N,Net-(U4--)*%
X184785000Y-91375000D03*
%TO.P,U4,3,+*%
%TO.N,Net-(U4-+)*%
X186055000Y-91375000D03*
%TO.P,U4,4,V-*%
%TO.N,GND*%
X187325000Y-91375000D03*
%TO.P,U4,5,NULL*%
%TO.N,unconnected-(U4-NULL-Pad5)*%
X187325000Y-86425000D03*
%TO.P,U4,6*%
%TO.N,Net-(U4--)*%
X186055000Y-86425000D03*
%TO.P,U4,7,V+*%
%TO.N,+5V*%
X184785000Y-86425000D03*
%TO.P,U4,8,NC*%
%TO.N,unconnected-(U4-NC-Pad8)*%
X183515000Y-86425000D03*
D32*
%TO.P,U4,9*%
%TO.N,N/C*%
X185420000Y-88900000D03*
%TD*%
D11*
%TO.P,C22,1*%
%TO.N,Net-(C19-Pad2)*%
X169115000Y-99060000D03*
%TO.P,C22,2*%
%TO.N,GND*%
X166165000Y-99060000D03*
%TD*%
D27*
%TO.P,BT1,1,+*%
%TO.N,+9V*%
X170180000Y-50800000D03*
D28*
%TO.P,BT1,2,-*%
%TO.N,GND*%
X167640000Y-50800000D03*
%TD*%
D12*
%TO.P,C9,1*%
%TO.N,Net-(C9-Pad1)*%
X150925000Y-86245000D03*
%TO.P,C9,2*%
%TO.N,GND*%
X153875000Y-86245000D03*
%TD*%
D20*
%TO.P,R6,1*%
%TO.N,+5V*%
X134440000Y-88900000D03*
%TO.P,R6,2*%
%TO.N,Net-(U3--)*%
X137365000Y-88900000D03*
%TD*%
D33*
%TO.P,SW2,1,A1*%
%TO.N,FX In*%
X153280000Y-112720000D03*
%TO.P,SW2,2,B1*%
%TO.N,Net-(D2-K)*%
X158580000Y-112720000D03*
%TO.P,SW2,3,C1*%
%TO.N,FX Out*%
X163880000Y-112720000D03*
%TO.P,SW2,4,A2*%
%TO.N,Net-(SW2-A2)*%
X153280000Y-117420000D03*
%TO.P,SW2,5,B2*%
%TO.N,GND*%
X158580000Y-117420000D03*
%TO.P,SW2,6,C2*%
%TO.N,Net-(SW2-C2)*%
X163880000Y-117420000D03*
%TO.P,SW2,7,A3*%
%TO.N,Net-(SW2-A3)*%
X153280000Y-122120000D03*
%TO.P,SW2,8,B3*%
%TO.N,unconnected-(SW2-B3-Pad8)*%
X158580000Y-122120000D03*
%TO.P,SW2,9,C3*%
%TO.N,Net-(SW2-A3)*%
X163880000Y-122120000D03*
%TD*%
D11*
%TO.P,C6,1*%
%TO.N,Net-(U1-XTAL2)*%
X135775000Y-76160000D03*
%TO.P,C6,2*%
%TO.N,GND*%
X132825000Y-76160000D03*
%TD*%
D10*
%TO.P,R10,1*%
%TO.N,Net-(U4-+)*%
X179262500Y-93980000D03*
%TO.P,R10,2*%
%TO.N,Net-(C14-Pad2)*%
X176337500Y-93980000D03*
%TD*%
D27*
%TO.P,SW1,1,A*%
%TO.N,+9V*%
X177800000Y-50800000D03*
D28*
%TO.P,SW1,2,B*%
%TO.N,Net-(SW1-B)*%
X180340000Y-50800000D03*
%TD*%
D26*
%TO.P,C18,1*%
%TO.N,Net-(C18-Pad1)*%
X185420000Y-66450000D03*
%TO.P,C18,2*%
%TO.N,GND*%
X185420000Y-63500000D03*
%TD*%
D11*
%TO.P,C20,1*%
%TO.N,Net-(C20-Pad1)*%
X179275000Y-78740000D03*
%TO.P,C20,2*%
%TO.N,Net-(C14-Pad1)*%
X176325000Y-78740000D03*
%TD*%
%TO.P,C19,1*%
%TO.N,Net-(C11-Pad2)*%
X174195000Y-99060000D03*
%TO.P,C19,2*%
%TO.N,Net-(C19-Pad2)*%
X171245000Y-99060000D03*
%TD*%
D10*
%TO.P,R9,1*%
%TO.N,Net-(C14-Pad2)*%
X174182500Y-93980000D03*
%TO.P,R9,2*%
%TO.N,Net-(C10-Pad1)*%
X171257500Y-93980000D03*
%TD*%
D19*
%TO.P,J1,R*%
%TO.N,GND*%
X138250000Y-129045000D03*
%TO.P,J1,RN*%
%TO.N,unconnected-(J1-PadRN)*%
X138250000Y-145275000D03*
%TO.P,J1,S*%
%TO.N,GND*%
X144600000Y-129045000D03*
%TO.P,J1,SN*%
%TO.N,unconnected-(J1-PadSN)*%
X144600000Y-145275000D03*
%TO.P,J1,T*%
%TO.N,Net-(SW2-A2)*%
X131900000Y-129045000D03*
%TO.P,J1,TN*%
%TO.N,unconnected-(J1-PadTN)*%
X131900000Y-145275000D03*
%TD*%
D34*
%TO.P,U1,1,PB0*%
%TO.N,unconnected-(U1-PB0-Pad1)*%
X149860000Y-61380000D03*
%TO.P,U1,2,PB1*%
%TO.N,unconnected-(U1-PB1-Pad2)*%
X149860000Y-62180000D03*
%TO.P,U1,3,PB2*%
%TO.N,unconnected-(U1-PB2-Pad3)*%
X149860000Y-62980000D03*
%TO.P,U1,4,PB3*%
%TO.N,unconnected-(U1-PB3-Pad4)*%
X149860000Y-63780000D03*
%TO.P,U1,5,PB4*%
%TO.N,unconnected-(U1-PB4-Pad5)*%
X149860000Y-64580000D03*
%TO.P,U1,6,PB5*%
%TO.N,Net-(J3-MOSI)*%
X149860000Y-65380000D03*
%TO.P,U1,7,PB6*%
%TO.N,Net-(J3-MISO)*%
X149860000Y-66180000D03*
%TO.P,U1,8,PB7*%
%TO.N,Net-(J3-SCK)*%
X149860000Y-66980000D03*
%TO.P,U1,9,~{RESET}*%
%TO.N,Net-(J3-~{RST})*%
X149860000Y-67780000D03*
%TO.P,U1,10,VCC*%
%TO.N,+5V*%
X149860000Y-68580000D03*
%TO.P,U1,11,GND*%
%TO.N,GND*%
X149860000Y-69380000D03*
D35*
%TO.P,U1,12,XTAL2*%
%TO.N,Net-(U1-XTAL2)*%
X151560000Y-71080000D03*
%TO.P,U1,13,XTAL1*%
%TO.N,Net-(U1-XTAL1)*%
X152360000Y-71080000D03*
%TO.P,U1,14,PD0*%
%TO.N,unconnected-(U1-PD0-Pad14)*%
X153160000Y-71080000D03*
%TO.P,U1,15,PD1*%
%TO.N,PD1*%
X153960000Y-71080000D03*
%TO.P,U1,16,PD2*%
%TO.N,PD2*%
X154760000Y-71080000D03*
%TO.P,U1,17,PD3*%
%TO.N,unconnected-(U1-PD3-Pad17)*%
X155560000Y-71080000D03*
%TO.P,U1,18,PD4*%
%TO.N,unconnected-(U1-PD4-Pad18)*%
X156360000Y-71080000D03*
%TO.P,U1,19,PD5*%
%TO.N,unconnected-(U1-PD5-Pad19)*%
X157160000Y-71080000D03*
%TO.P,U1,20,PD6*%
%TO.N,unconnected-(U1-PD6-Pad20)*%
X157960000Y-71080000D03*
%TO.P,U1,21,PD7*%
%TO.N,unconnected-(U1-PD7-Pad21)*%
X158760000Y-71080000D03*
%TO.P,U1,22,PC0*%
%TO.N,unconnected-(U1-PC0-Pad22)*%
X159560000Y-71080000D03*
D34*
%TO.P,U1,23,PC1*%
%TO.N,unconnected-(U1-PC1-Pad23)*%
X161260000Y-69380000D03*
%TO.P,U1,24,PC2*%
%TO.N,unconnected-(U1-PC2-Pad24)*%
X161260000Y-68580000D03*
%TO.P,U1,25,PC3*%
%TO.N,unconnected-(U1-PC3-Pad25)*%
X161260000Y-67780000D03*
%TO.P,U1,26,PC4*%
%TO.N,unconnected-(U1-PC4-Pad26)*%
X161260000Y-66980000D03*
%TO.P,U1,27,PC5*%
%TO.N,unconnected-(U1-PC5-Pad27)*%
X161260000Y-66180000D03*
%TO.P,U1,28,PC6*%
%TO.N,unconnected-(U1-PC6-Pad28)*%
X161260000Y-65380000D03*
%TO.P,U1,29,PC7*%
%TO.N,unconnected-(U1-PC7-Pad29)*%
X161260000Y-64580000D03*
%TO.P,U1,30,AVCC*%
%TO.N,+5V*%
X161260000Y-63780000D03*
%TO.P,U1,31,GND*%
%TO.N,GND*%
X161260000Y-62980000D03*
%TO.P,U1,32,AREF*%
%TO.N,Net-(U1-AREF)*%
X161260000Y-62180000D03*
%TO.P,U1,33,PA7*%
%TO.N,unconnected-(U1-PA7-Pad33)*%
X161260000Y-61380000D03*
D35*
%TO.P,U1,34,PA6*%
%TO.N,unconnected-(U1-PA6-Pad34)*%
X159560000Y-59680000D03*
%TO.P,U1,35,PA5*%
%TO.N,unconnected-(U1-PA5-Pad35)*%
X158760000Y-59680000D03*
%TO.P,U1,36,PA4*%
%TO.N,unconnected-(U1-PA4-Pad36)*%
X157960000Y-59680000D03*
%TO.P,U1,37,PA3*%
%TO.N,unconnected-(U1-PA3-Pad37)*%
X157160000Y-59680000D03*
%TO.P,U1,38,PA2*%
%TO.N,unconnected-(U1-PA2-Pad38)*%
X156360000Y-59680000D03*
%TO.P,U1,39,PA1*%
%TO.N,PA1*%
X155560000Y-59680000D03*
%TO.P,U1,40,PA0*%
%TO.N,PA0*%
X154760000Y-59680000D03*
%TO.P,U1,41*%
%TO.N,N/C*%
X153960000Y-59680000D03*
%TO.P,U1,42*%
X153160000Y-59680000D03*
%TO.P,U1,43*%
X152360000Y-59680000D03*
%TO.P,U1,44*%
X151560000Y-59680000D03*
%TD*%
D20*
%TO.P,R1,1*%
%TO.N,+5V*%
X173797500Y-71120000D03*
%TO.P,R1,2*%
%TO.N,Net-(D1-A)*%
X176722500Y-71120000D03*
%TD*%
D10*
%TO.P,R13,1*%
%TO.N,Net-(C10-Pad1)*%
X169102500Y-83820000D03*
%TO.P,R13,2*%
%TO.N,Net-(R13-Pad2)*%
X166177500Y-83820000D03*
%TD*%
D11*
%TO.P,C21,1*%
%TO.N,Net-(U4--)*%
X184355000Y-78740000D03*
%TO.P,C21,2*%
%TO.N,Net-(C20-Pad1)*%
X181405000Y-78740000D03*
%TD*%
D12*
%TO.P,C4,1*%
%TO.N,+5V*%
X166165000Y-71120000D03*
%TO.P,C4,2*%
%TO.N,GND*%
X169115000Y-71120000D03*
%TD*%
D36*
%TO.N,GND*%
X182880000Y-99060000D03*
X172720000Y-62980000D03*
X144780000Y-63500000D03*
X157480000Y-137160000D03*
X144780000Y-99060000D03*
X175260000Y-88900000D03*
%TO.N,+5V*%
X177800000Y-88900000D03*
X185420000Y-71120000D03*
%TO.N,Net-(J3-SCK)*%
X134620000Y-60960000D03*
X139700000Y-63500000D03*
%TO.N,PA0*%
X147320000Y-99060000D03*
X147320000Y-55880000D03*
%TD*%
D37*
%TO.N,GND*%
X187325000Y-94615000D02*
X187325000Y-91375000D01*
X176325000Y-87835000D02*
X176325000Y-83820000D01*
X172720000Y-145275000D02*
X172720000Y-144780000D01*
X172720000Y-62980000D02*
X161260000Y-62980000D01*
X169115000Y-71120000D02*
X169115000Y-66040000D01*
X185420000Y-63500000D02*
X186688894Y-64768894D01*
X186688894Y-64768894D02*
X186688894Y-66969280D01*
X172720000Y-145275000D02*
X165595000Y-145275000D01*
X166165000Y-99060000D02*
X161904000Y-103321000D01*
X132825000Y-71460790D02*
X132825000Y-76160000D01*
X176895443Y-105044557D02*
X161904000Y-105044557D01*
X126590000Y-58420000D02*
X139290000Y-45720000D01*
X161904000Y-105044557D02*
X161904000Y-114096000D01*
X162560000Y-45720000D02*
X167640000Y-50800000D01*
X149860000Y-69380000D02*
X134905790Y-69380000D01*
X155256000Y-114096000D02*
X158580000Y-117420000D01*
X186688894Y-66969280D02*
X182538174Y-71120000D01*
X144460000Y-63500000D02*
X144780000Y-63500000D01*
X161904000Y-103321000D02*
X161904000Y-105044557D01*
X172720000Y-55880000D02*
X172720000Y-62980000D01*
X149365000Y-129045000D02*
X157480000Y-137160000D01*
X158580000Y-117420000D02*
X156604000Y-119396000D01*
X182880000Y-99060000D02*
X176895443Y-105044557D01*
X167640000Y-56945000D02*
X167640000Y-50800000D01*
X153875000Y-86245000D02*
X155256000Y-87626000D01*
X175260000Y-88900000D02*
X176325000Y-87835000D01*
X172720000Y-55880000D02*
X167640000Y-50800000D01*
X144600000Y-129045000D02*
X149365000Y-129045000D01*
X141920000Y-60960000D02*
X144460000Y-63500000D01*
X165595000Y-145275000D02*
X157480000Y-137160000D01*
X156604000Y-119396000D02*
X147233190Y-119396000D01*
X140477500Y-97297500D02*
X142240000Y-99060000D01*
X140477500Y-93980000D02*
X139700000Y-93980000D01*
X172720000Y-66040000D02*
X173130000Y-66450000D01*
X155256000Y-87626000D02*
X155256000Y-114096000D01*
X172720000Y-62980000D02*
X172720000Y-66040000D01*
X169115000Y-66040000D02*
X172720000Y-66040000D01*
X126590000Y-63500000D02*
X126590000Y-58420000D01*
X134905790Y-69380000D02*
X132825000Y-71460790D01*
X176457500Y-66450000D02*
X175260000Y-66450000D01*
X182880000Y-60960000D02*
X185420000Y-63500000D01*
X144600000Y-122029190D02*
X144600000Y-129045000D01*
X182880000Y-99060000D02*
X187325000Y-94615000D01*
X182538174Y-71120000D02*
X181127500Y-71120000D01*
X181127500Y-71120000D02*
X176457500Y-66450000D01*
X172720000Y-145275000D02*
X179070000Y-145275000D01*
X173130000Y-66450000D02*
X175260000Y-66450000D01*
X166165000Y-93980000D02*
X166165000Y-99060000D01*
X147233190Y-119396000D02*
X144600000Y-122029190D01*
X161904000Y-114096000D02*
X158580000Y-117420000D01*
X138250000Y-129045000D02*
X144600000Y-129045000D01*
X142240000Y-99060000D02*
X144780000Y-99060000D01*
X132825000Y-76160000D02*
X132825000Y-81240000D01*
X140477500Y-93980000D02*
X140477500Y-97297500D01*
X182880000Y-58745000D02*
X182880000Y-60960000D01*
X139290000Y-45720000D02*
X162560000Y-45720000D01*
D38*
%TO.N,Net-(D1-A)*%
X176722500Y-71120000D02*
X179552500Y-71120000D01*
D37*
%TO.N,Net-(SW2-A2)*%
X153280000Y-117420000D02*
X143525000Y-117420000D01*
X143525000Y-117420000D02*
X131900000Y-129045000D01*
%TO.N,Net-(SW2-C2)*%
X185240000Y-145095000D02*
X185420000Y-145275000D01*
X185240000Y-138780000D02*
X185240000Y-145095000D01*
X163880000Y-117420000D02*
X185240000Y-138780000D01*
%TO.N,Net-(J3-MISO)*%
X139380000Y-55880000D02*
X140505000Y-57005000D01*
X140505000Y-57005000D02*
X140505000Y-61765000D01*
X144920000Y-66180000D02*
X149860000Y-66180000D01*
X140505000Y-61765000D02*
X144920000Y-66180000D01*
D39*
%TO.N,+5V*%
X166165000Y-68580000D02*
X166165000Y-71120000D01*
X145427500Y-91440000D02*
X146402500Y-91440000D01*
X166165000Y-66040000D02*
X166165000Y-68580000D01*
X152400000Y-68580000D02*
X157200000Y-63780000D01*
X132080000Y-64962500D02*
X134620000Y-67502500D01*
X190500000Y-66040000D02*
X190500000Y-60960000D01*
X133440050Y-83820000D02*
X129540000Y-79919950D01*
X142240000Y-48260000D02*
X136585000Y-53915000D01*
X135697500Y-68580000D02*
X142240000Y-68580000D01*
X129540000Y-58420000D02*
X129540000Y-63500000D01*
X158580000Y-89977500D02*
X158580000Y-84920000D01*
X158100000Y-50800000D02*
X155560000Y-48260000D01*
X188285000Y-58745000D02*
X185420000Y-58745000D01*
X158580000Y-84920000D02*
X154940000Y-81280000D01*
X146402500Y-91440000D02*
X147320000Y-90522500D01*
X155560000Y-48260000D02*
X142240000Y-48260000D01*
X182880000Y-73660000D02*
X185420000Y-71120000D01*
X183155000Y-83820000D02*
X184785000Y-85450000D01*
X141920000Y-55880000D02*
X141920000Y-55080000D01*
X132080000Y-58420000D02*
X132080000Y-64962500D01*
X142240000Y-68580000D02*
X149860000Y-68580000D01*
X168281798Y-73236798D02*
X171680702Y-73236798D01*
X141920000Y-55080000D02*
X140755000Y-53915000D01*
X147320000Y-90522500D02*
X147320000Y-83820000D01*
X154940000Y-81280000D02*
X149860000Y-81280000D01*
X140755000Y-53915000D02*
X136585000Y-53915000D01*
X190500000Y-60960000D02*
X188285000Y-58745000D01*
X157200000Y-63780000D02*
X161260000Y-63780000D01*
X134620000Y-67502500D02*
X135697500Y-68580000D01*
X173797500Y-71120000D02*
X176337500Y-73660000D01*
X149860000Y-81280000D02*
X147320000Y-83820000D01*
X166165000Y-71120000D02*
X168281798Y-73236798D01*
X147320000Y-83820000D02*
X134620000Y-83820000D01*
X129540000Y-79919950D02*
X129540000Y-72582500D01*
X149860000Y-68580000D02*
X152400000Y-68580000D01*
X176337500Y-73660000D02*
X182880000Y-73660000D01*
X134620000Y-83820000D02*
X133440050Y-83820000D01*
X129540000Y-72582500D02*
X134620000Y-67502500D01*
X177800000Y-88900000D02*
X179275000Y-87425000D01*
X136585000Y-53915000D02*
X132080000Y-58420000D01*
X134440000Y-88900000D02*
X134440000Y-84000000D01*
X185420000Y-71120000D02*
X190500000Y-66040000D01*
X179275000Y-87425000D02*
X179275000Y-83820000D01*
X163905000Y-63780000D02*
X166165000Y-66040000D01*
X179275000Y-83820000D02*
X183155000Y-83820000D01*
X171680702Y-73236798D02*
X173797500Y-71120000D01*
X184785000Y-85450000D02*
X184785000Y-86425000D01*
X134440000Y-84000000D02*
X134620000Y-83820000D01*
X161260000Y-63780000D02*
X163905000Y-63780000D01*
X129540000Y-58420000D02*
X132080000Y-58420000D01*
D37*
%TO.N,Net-(J3-SCK)*%
X139380000Y-58420000D02*
X137160000Y-58420000D01*
X149860000Y-66980000D02*
X143180000Y-66980000D01*
X143180000Y-66980000D02*
X139700000Y-63500000D01*
X137160000Y-58420000D02*
X134620000Y-60960000D01*
%TO.N,Net-(J3-MOSI)*%
X148880000Y-65380000D02*
X149860000Y-65380000D01*
X141920000Y-58420000D02*
X148880000Y-65380000D01*
%TO.N,Net-(J3-~{RST})*%
X139380000Y-60960000D02*
X138237500Y-60960000D01*
X136428750Y-62768750D02*
X134620000Y-64577500D01*
X138237500Y-60960000D02*
X136428750Y-62768750D01*
X149860000Y-67780000D02*
X141440000Y-67780000D01*
X141440000Y-67780000D02*
X136428750Y-62768750D01*
%TO.N,Net-(U1-XTAL2)*%
X142330000Y-76160000D02*
X135775000Y-76160000D01*
X142330000Y-76110000D02*
X147360000Y-71080000D01*
X142330000Y-76160000D02*
X142330000Y-76110000D01*
X147360000Y-71080000D02*
X151560000Y-71080000D01*
%TO.N,Net-(U1-XTAL1)*%
X135775000Y-81240000D02*
X136350000Y-81815000D01*
X152360000Y-73700000D02*
X152360000Y-71080000D01*
X147210000Y-76160000D02*
X149900000Y-76160000D01*
X149900000Y-76160000D02*
X152360000Y-73700000D01*
X141555000Y-81815000D02*
X147210000Y-76160000D01*
X136350000Y-81815000D02*
X141555000Y-81815000D01*
%TO.N,Net-(SW1-B)*%
X180340000Y-58745000D02*
X180340000Y-50800000D01*
X175260000Y-63500000D02*
X180340000Y-63500000D01*
X180340000Y-63500000D02*
X180340000Y-58745000D01*
%TO.N,Net-(C7-Pad1)*%
X134440000Y-98932500D02*
X134427500Y-98945000D01*
X134440000Y-93865000D02*
X134440000Y-98932500D01*
%TO.N,Net-(SW2-A3)*%
X153280000Y-122120000D02*
X155620000Y-124460000D01*
X155620000Y-124460000D02*
X161540000Y-124460000D01*
X161540000Y-124460000D02*
X163880000Y-122120000D01*
%TO.N,FX In*%
X153280000Y-112720000D02*
X148280000Y-112720000D01*
X148280000Y-112720000D02*
X139585000Y-104025000D01*
X137377500Y-104012500D02*
X137365000Y-104025000D01*
X137377500Y-98945000D02*
X137377500Y-104012500D01*
X139585000Y-104025000D02*
X137365000Y-104025000D01*
%TO.N,Net-(U3-+)*%
X144780000Y-104140000D02*
X139177500Y-98537500D01*
X153875000Y-96405000D02*
X153875000Y-101472500D01*
X139502500Y-92710000D02*
X140477500Y-92710000D01*
X153862500Y-101485000D02*
X151207500Y-104140000D01*
X153862500Y-91440000D02*
X153862500Y-96392500D01*
X151207500Y-104140000D02*
X144780000Y-104140000D01*
X153875000Y-101472500D02*
X153862500Y-101485000D01*
X139177500Y-98537500D02*
X139177500Y-93035000D01*
X139177500Y-93035000D02*
X139502500Y-92710000D01*
X153862500Y-96392500D02*
X153875000Y-96405000D01*
%TO.N,PA0*%
X147320000Y-99060000D02*
X150937500Y-99060000D01*
X150925000Y-96405000D02*
X147230000Y-92710000D01*
X147320000Y-55880000D02*
X151710000Y-55880000D01*
X150937500Y-99060000D02*
X150937500Y-96417500D01*
X147230000Y-92710000D02*
X145427500Y-92710000D01*
X150937500Y-101485000D02*
X150937500Y-99060000D01*
X154760000Y-58930000D02*
X154760000Y-59680000D01*
X151710000Y-55880000D02*
X154760000Y-58930000D01*
X150937500Y-96417500D02*
X150925000Y-96405000D01*
%TO.N,Net-(C9-Pad1)*%
X150925000Y-86245000D02*
X150925000Y-91427500D01*
X150925000Y-91427500D02*
X150937500Y-91440000D01*
%TO.N,Net-(C10-Pad1)*%
X169115000Y-93980000D02*
X171257500Y-93980000D01*
X169102500Y-93967500D02*
X169115000Y-93980000D01*
X169102500Y-88900000D02*
X169102500Y-93967500D01*
X169102500Y-83820000D02*
X169102500Y-88900000D01*
%TO.N,Net-(U4-+)*%
X179275000Y-93992500D02*
X179262500Y-93980000D01*
X186055000Y-93345000D02*
X185420000Y-93980000D01*
X186055000Y-91375000D02*
X186055000Y-93345000D01*
X179275000Y-99060000D02*
X179275000Y-93992500D01*
X185420000Y-93980000D02*
X179262500Y-93980000D01*
%TO.N,Net-(U4--)*%
X175826819Y-80713181D02*
X186055000Y-80713181D01*
X171695000Y-84845000D02*
X175826819Y-80713181D01*
X189435000Y-99060000D02*
X189435000Y-80010000D01*
X171695000Y-90415000D02*
X171695000Y-84845000D01*
X184785000Y-91375000D02*
X184785000Y-92350000D01*
X188165000Y-78740000D02*
X184355000Y-78740000D01*
X184785000Y-92350000D02*
X184460000Y-92675000D01*
X189435000Y-80010000D02*
X188165000Y-78740000D01*
X186055000Y-86425000D02*
X186055000Y-81280000D01*
X184460000Y-92675000D02*
X173955000Y-92675000D01*
X186055000Y-78740000D02*
X184355000Y-78740000D01*
X186055000Y-80713181D02*
X186055000Y-81280000D01*
X173955000Y-92675000D02*
X171695000Y-90415000D01*
X186055000Y-81280000D02*
X186055000Y-78740000D01*
%TO.N,FX Out*%
X186485000Y-99060000D02*
X172825000Y-112720000D01*
X172825000Y-112720000D02*
X163880000Y-112720000D01*
%TO.N,Net-(C14-Pad2)*%
X171245000Y-91042500D02*
X174182500Y-93980000D01*
X176337500Y-93980000D02*
X174182500Y-93980000D01*
X171245000Y-78740000D02*
X171245000Y-91042500D01*
%TO.N,Net-(U1-AREF)*%
X165355000Y-62180000D02*
X167640000Y-59895000D01*
X161260000Y-62180000D02*
X165355000Y-62180000D01*
%TO.N,Net-(D2-K)*%
X158580000Y-99060000D02*
X158580000Y-112720000D01*
%TO.N,Net-(D2-A)*%
X158580000Y-96520000D02*
X158580000Y-92902500D01*
%TO.N,Net-(U3--)*%
X140477500Y-91440000D02*
X137365000Y-91440000D01*
X137365000Y-91440000D02*
X137365000Y-93865000D01*
X137365000Y-88900000D02*
X137365000Y-91440000D01*
%TO.N,PD1*%
X153960000Y-76682500D02*
X166177500Y-88900000D01*
X153960000Y-71080000D02*
X153960000Y-76682500D01*
D38*
%TO.N,PD2*%
X154760000Y-76200000D02*
X157300000Y-78740000D01*
X157300000Y-78740000D02*
X165997500Y-78740000D01*
X154760000Y-71080000D02*
X154760000Y-76200000D01*
D37*
%TO.N,PA1*%
X155560000Y-59680000D02*
X155560000Y-50800000D01*
%TO.N,Net-(C18-Pad1)*%
X180340000Y-66450000D02*
X185420000Y-66450000D01*
%TO.N,Net-(C11-Pad2)*%
X174195000Y-99060000D02*
X176325000Y-99060000D01*
%TO.N,Net-(C14-Pad1)*%
X174195000Y-78740000D02*
X176325000Y-78740000D01*
%TO.N,Net-(C19-Pad2)*%
X169115000Y-99060000D02*
X171245000Y-99060000D01*
%TO.N,Net-(C20-Pad1)*%
X179275000Y-78740000D02*
X181405000Y-78740000D01*
%TO.N,Net-(R13-Pad2)*%
X169102500Y-80895000D02*
X166177500Y-83820000D01*
X169102500Y-78740000D02*
X169102500Y-80895000D01*
D39*
%TO.N,+9V*%
X170180000Y-50800000D02*
X177800000Y-50800000D01*
%TD*%
M02*
