M48
; DRILL file {KiCad 7.0.8} date Tue Nov 14 18:13:20 2023
; FORMAT={-:-/ absolute / inch / decimal}
; #@! TF.CreationDate,2023-11-14T18:13:20-08:00
; #@! TF.GenerationSoftware,Kicad,Pcbnew,7.0.8
; #@! TF.FileFunction,Plated,1,2,PTH
FMAT,2
INCH
; #@! TA.AperFunction,Plated,PTH,ViaDrill
T1C0.0315
; #@! TA.AperFunction,Plated,PTH,ComponentDrill
T2C0.0315
; #@! TA.AperFunction,Plated,PTH,ComponentDrill
T3C0.0354
; #@! TA.AperFunction,Plated,PTH,ComponentDrill
T4C0.0394
; #@! TA.AperFunction,Plated,PTH,ComponentDrill
T5C0.0433
; #@! TA.AperFunction,Plated,PTH,ComponentDrill
T6C0.0551
; #@! TA.AperFunction,Plated,PTH,ComponentDrill
T7C0.0906
%
G90
G05
T1
X5.3Y-2.4
X5.5Y-2.5
X5.7Y-2.5
X5.7Y-3.9
X5.8Y-2.2
X5.8Y-3.9
X6.2Y-5.4
X6.8Y-2.4795
X6.9Y-3.5
X7.0Y-3.5
X7.2Y-3.9
X7.3Y-2.8
T2
X5.6035Y-2.9984
X5.7957Y-2.9984
T3
X6.2433Y-3.8
X6.2433Y-3.9
T4
X6.0244Y-2.0
X6.1244Y-2.0
X6.2244Y-2.0
X6.6Y-2.0
X6.7Y-2.0
X7.0Y-2.0
X7.1Y-2.0
T5
X7.1Y-2.3128
X7.2Y-2.3128
X7.3Y-2.3128
T6
X5.1929Y-5.0805
X5.1929Y-5.7195
X5.4429Y-5.0805
X5.4429Y-5.7195
X5.6929Y-5.0805
X5.6929Y-5.7195
X6.8Y-5.0805
X6.8Y-5.7195
X7.05Y-5.0805
X7.05Y-5.7195
X7.3Y-5.0805
X7.3Y-5.7195
T7
X6.0346Y-4.4378
X6.0346Y-4.6228
X6.0346Y-4.8079
X6.2433Y-4.4378
X6.2433Y-4.6228
X6.2433Y-4.8079
X6.452Y-4.4378
X6.452Y-4.6228
X6.452Y-4.8079
T0
M30
