%TF.GenerationSoftware,KiCad,Pcbnew,7.0.8*%
%TF.CreationDate,2023-11-14T18:13:18-08:00*%
%TF.ProjectId,guitar_pedal,67756974-6172-45f7-9065-64616c2e6b69,rev?*%
%TF.SameCoordinates,Original*%
%TF.FileFunction,Soldermask,Top*%
%TF.FilePolarity,Negative*%
%FSLAX46Y46*%
G04 Gerber Fmt 4.6, Leading zero omitted, Abs format (unit mm)*
G04 Created by KiCad (PCBNEW 7.0.8) date 2023-11-14 18:13:18*
%MOMM*%
%LPD*%
G01*
G04 APERTURE LIST*
G04 Aperture macros list*
%AMRoundRect*
0 Rectangle with rounded corners*
0 $1 Rounding radius*
0 $2 $3 $4 $5 $6 $7 $8 $9 X,Y pos of 4 corners*
0 Add a 4 corners polygon primitive as box body*
4,1,4,$2,$3,$4,$5,$6,$7,$8,$9,$2,$3,0*
0 Add four circle primitives for the rounded corners*
1,1,$1+$1,$2,$3*
1,1,$1+$1,$4,$5*
1,1,$1+$1,$6,$7*
1,1,$1+$1,$8,$9*
0 Add four rect primitives between the rounded corners*
20,1,$1+$1,$2,$3,$4,$5,0*
20,1,$1+$1,$4,$5,$6,$7,0*
20,1,$1+$1,$6,$7,$8,$9,0*
20,1,$1+$1,$8,$9,$2,$3,0*%
G04 Aperture macros list end*
%ADD10RoundRect,0.250000X0.312500X0.625000X-0.312500X0.625000X-0.312500X-0.625000X0.312500X-0.625000X0*%
%ADD11RoundRect,0.250000X0.325000X0.650000X-0.325000X0.650000X-0.325000X-0.650000X0.325000X-0.650000X0*%
%ADD12RoundRect,0.250000X-0.325000X-0.650000X0.325000X-0.650000X0.325000X0.650000X-0.325000X0.650000X0*%
%ADD13RoundRect,0.250000X-0.650000X0.325000X-0.650000X-0.325000X0.650000X-0.325000X0.650000X0.325000X0*%
%ADD14RoundRect,0.250000X-0.625000X0.312500X-0.625000X-0.312500X0.625000X-0.312500X0.625000X0.312500X0*%
%ADD15R,1.905000X2.000000*%
%ADD16O,1.905000X2.000000*%
%ADD17R,1.800000X1.800000*%
%ADD18C,1.800000*%
%ADD19C,3.000000*%
%ADD20RoundRect,0.250000X-0.312500X-0.625000X0.312500X-0.625000X0.312500X0.625000X-0.312500X0.625000X0*%
%ADD21C,1.500000*%
%ADD22RoundRect,0.218750X0.218750X0.256250X-0.218750X0.256250X-0.218750X-0.256250X0.218750X-0.256250X0*%
%ADD23O,1.600000X1.600000*%
%ADD24R,1.600000X1.600000*%
%ADD25RoundRect,0.250000X0.625000X-0.312500X0.625000X0.312500X-0.625000X0.312500X-0.625000X-0.312500X0*%
%ADD26RoundRect,0.250000X0.650000X-0.325000X0.650000X0.325000X-0.650000X0.325000X-0.650000X-0.325000X0*%
%ADD27R,1.700000X1.700000*%
%ADD28O,1.700000X1.700000*%
%ADD29C,3.500000*%
%ADD30RoundRect,0.150000X-0.825000X-0.150000X0.825000X-0.150000X0.825000X0.150000X-0.825000X0.150000X0*%
%ADD31R,2.290000X3.000000*%
%ADD32RoundRect,0.150000X0.150000X-0.825000X0.150000X0.825000X-0.150000X0.825000X-0.150000X-0.825000X0*%
%ADD33R,3.000000X2.290000*%
%ADD34R,3.302000X3.302000*%
%ADD35R,1.500000X0.550000*%
%ADD36R,0.550000X1.500000*%
G04 APERTURE END LIST*
D10*
%TO.C,R5*%
X137365000Y-93865000D03*
X134440000Y-93865000D03*
%TD*%
D11*
%TO.C,C5*%
X135775000Y-81240000D03*
X132825000Y-81240000D03*
%TD*%
D12*
%TO.C,C7*%
X134427500Y-98945000D03*
X137377500Y-98945000D03*
%TD*%
D13*
%TO.C,C3*%
X180340000Y-63500000D03*
X180340000Y-66450000D03*
%TD*%
D14*
%TO.C,R11*%
X158580000Y-89977500D03*
X158580000Y-92902500D03*
%TD*%
D10*
%TO.C,R3*%
X153862500Y-91440000D03*
X150937500Y-91440000D03*
%TD*%
D15*
%TO.C,U2*%
X180340000Y-58745000D03*
D16*
X182880000Y-58745000D03*
X185420000Y-58745000D03*
%TD*%
D17*
%TO.C,D2*%
X158580000Y-99060000D03*
D18*
X158580000Y-96520000D03*
%TD*%
D10*
%TO.C,R8*%
X169102500Y-78740000D03*
X166177500Y-78740000D03*
%TD*%
D19*
%TO.C,J2*%
X179070000Y-145275000D03*
X179070000Y-129045000D03*
X172720000Y-145275000D03*
X172720000Y-129045000D03*
X185420000Y-145275000D03*
X185420000Y-129045000D03*
%TD*%
D11*
%TO.C,C10*%
X169115000Y-93980000D03*
X166165000Y-93980000D03*
%TD*%
D13*
%TO.C,C1*%
X175260000Y-63500000D03*
X175260000Y-66450000D03*
%TD*%
D12*
%TO.C,C16*%
X126590000Y-63500000D03*
X129540000Y-63500000D03*
%TD*%
D10*
%TO.C,R7*%
X169102500Y-88900000D03*
X166177500Y-88900000D03*
%TD*%
D20*
%TO.C,R2*%
X150937500Y-101485000D03*
X153862500Y-101485000D03*
%TD*%
D21*
%TO.C,Y1*%
X142330000Y-76160000D03*
X147210000Y-76160000D03*
%TD*%
D22*
%TO.C,D1*%
X181127500Y-71120000D03*
X179552500Y-71120000D03*
%TD*%
D11*
%TO.C,C14*%
X174195000Y-78740000D03*
X171245000Y-78740000D03*
%TD*%
D23*
%TO.C,J3*%
X139380000Y-55880000D03*
D24*
X141920000Y-55880000D03*
D23*
X139380000Y-58420000D03*
X141920000Y-58420000D03*
X139380000Y-60960000D03*
X141920000Y-60960000D03*
%TD*%
D10*
%TO.C,R4*%
X137365000Y-104025000D03*
X134440000Y-104025000D03*
%TD*%
D25*
%TO.C,R12*%
X134620000Y-67502500D03*
X134620000Y-64577500D03*
%TD*%
D11*
%TO.C,C11*%
X179275000Y-99060000D03*
X176325000Y-99060000D03*
%TD*%
D26*
%TO.C,C15*%
X167640000Y-59895000D03*
X167640000Y-56945000D03*
%TD*%
D27*
%TO.C,RV1*%
X153020000Y-50800000D03*
D28*
X155560000Y-50800000D03*
X158100000Y-50800000D03*
%TD*%
D11*
%TO.C,C17*%
X129540000Y-58420000D03*
X126590000Y-58420000D03*
%TD*%
%TO.C,C13*%
X179275000Y-83820000D03*
X176325000Y-83820000D03*
%TD*%
D29*
%TO.C,REF\u002A\u002A*%
X187960000Y-114300000D03*
%TD*%
D30*
%TO.C,U3*%
X140477500Y-90170000D03*
X140477500Y-91440000D03*
X140477500Y-92710000D03*
X140477500Y-93980000D03*
X145427500Y-93980000D03*
X145427500Y-92710000D03*
X145427500Y-91440000D03*
X145427500Y-90170000D03*
D31*
X142952500Y-92075000D03*
%TD*%
D11*
%TO.C,C12*%
X189435000Y-99060000D03*
X186485000Y-99060000D03*
%TD*%
%TO.C,C8*%
X153875000Y-96405000D03*
X150925000Y-96405000D03*
%TD*%
D12*
%TO.C,C2*%
X166165000Y-66040000D03*
X169115000Y-66040000D03*
%TD*%
D32*
%TO.C,U4*%
X183515000Y-91375000D03*
X184785000Y-91375000D03*
X186055000Y-91375000D03*
X187325000Y-91375000D03*
X187325000Y-86425000D03*
X186055000Y-86425000D03*
X184785000Y-86425000D03*
X183515000Y-86425000D03*
D33*
X185420000Y-88900000D03*
%TD*%
D11*
%TO.C,C22*%
X169115000Y-99060000D03*
X166165000Y-99060000D03*
%TD*%
D27*
%TO.C,BT1*%
X170180000Y-50800000D03*
D28*
X167640000Y-50800000D03*
%TD*%
D12*
%TO.C,C9*%
X150925000Y-86245000D03*
X153875000Y-86245000D03*
%TD*%
D20*
%TO.C,R6*%
X134440000Y-88900000D03*
X137365000Y-88900000D03*
%TD*%
D34*
%TO.C,SW2*%
X153280000Y-112720000D03*
X158580000Y-112720000D03*
X163880000Y-112720000D03*
X153280000Y-117420000D03*
X158580000Y-117420000D03*
X163880000Y-117420000D03*
X153280000Y-122120000D03*
X158580000Y-122120000D03*
X163880000Y-122120000D03*
%TD*%
D11*
%TO.C,C6*%
X135775000Y-76160000D03*
X132825000Y-76160000D03*
%TD*%
D29*
%TO.C,REF\u002A\u002A*%
X187960000Y-43180000D03*
%TD*%
%TO.C,REF\u002A\u002A*%
X129540000Y-43180000D03*
%TD*%
D10*
%TO.C,R10*%
X179262500Y-93980000D03*
X176337500Y-93980000D03*
%TD*%
D27*
%TO.C,SW1*%
X177800000Y-50800000D03*
D28*
X180340000Y-50800000D03*
%TD*%
D26*
%TO.C,C18*%
X185420000Y-66450000D03*
X185420000Y-63500000D03*
%TD*%
D11*
%TO.C,C20*%
X179275000Y-78740000D03*
X176325000Y-78740000D03*
%TD*%
%TO.C,C19*%
X174195000Y-99060000D03*
X171245000Y-99060000D03*
%TD*%
D10*
%TO.C,R9*%
X174182500Y-93980000D03*
X171257500Y-93980000D03*
%TD*%
D19*
%TO.C,J1*%
X138250000Y-129045000D03*
X138250000Y-145275000D03*
X144600000Y-129045000D03*
X144600000Y-145275000D03*
X131900000Y-129045000D03*
X131900000Y-145275000D03*
%TD*%
D35*
%TO.C,U1*%
X149860000Y-61380000D03*
X149860000Y-62180000D03*
X149860000Y-62980000D03*
X149860000Y-63780000D03*
X149860000Y-64580000D03*
X149860000Y-65380000D03*
X149860000Y-66180000D03*
X149860000Y-66980000D03*
X149860000Y-67780000D03*
X149860000Y-68580000D03*
X149860000Y-69380000D03*
D36*
X151560000Y-71080000D03*
X152360000Y-71080000D03*
X153160000Y-71080000D03*
X153960000Y-71080000D03*
X154760000Y-71080000D03*
X155560000Y-71080000D03*
X156360000Y-71080000D03*
X157160000Y-71080000D03*
X157960000Y-71080000D03*
X158760000Y-71080000D03*
X159560000Y-71080000D03*
D35*
X161260000Y-69380000D03*
X161260000Y-68580000D03*
X161260000Y-67780000D03*
X161260000Y-66980000D03*
X161260000Y-66180000D03*
X161260000Y-65380000D03*
X161260000Y-64580000D03*
X161260000Y-63780000D03*
X161260000Y-62980000D03*
X161260000Y-62180000D03*
X161260000Y-61380000D03*
D36*
X159560000Y-59680000D03*
X158760000Y-59680000D03*
X157960000Y-59680000D03*
X157160000Y-59680000D03*
X156360000Y-59680000D03*
X155560000Y-59680000D03*
X154760000Y-59680000D03*
X153960000Y-59680000D03*
X153160000Y-59680000D03*
X152360000Y-59680000D03*
X151560000Y-59680000D03*
%TD*%
D20*
%TO.C,R1*%
X173797500Y-71120000D03*
X176722500Y-71120000D03*
%TD*%
D29*
%TO.C,REF\u002A\u002A*%
X129540000Y-114300000D03*
%TD*%
D10*
%TO.C,R13*%
X169102500Y-83820000D03*
X166177500Y-83820000D03*
%TD*%
D11*
%TO.C,C21*%
X184355000Y-78740000D03*
X181405000Y-78740000D03*
%TD*%
D12*
%TO.C,C4*%
X166165000Y-71120000D03*
X169115000Y-71120000D03*
%TD*%
M02*
