%TF.GenerationSoftware,KiCad,Pcbnew,7.0.8*%
%TF.CreationDate,2023-11-14T18:13:18-08:00*%
%TF.ProjectId,guitar_pedal,67756974-6172-45f7-9065-64616c2e6b69,rev?*%
%TF.SameCoordinates,Original*%
%TF.FileFunction,Copper,L2,Bot*%
%TF.FilePolarity,Positive*%
%FSLAX46Y46*%
G04 Gerber Fmt 4.6, Leading zero omitted, Abs format (unit mm)*
G04 Created by KiCad (PCBNEW 7.0.8) date 2023-11-14 18:13:18*
%MOMM*%
%LPD*%
G01*
G04 APERTURE LIST*
%TA.AperFunction,ComponentPad*%
%ADD10R,1.905000X2.000000*%
%TD*%
%TA.AperFunction,ComponentPad*%
%ADD11O,1.905000X2.000000*%
%TD*%
%TA.AperFunction,ComponentPad*%
%ADD12R,1.800000X1.800000*%
%TD*%
%TA.AperFunction,ComponentPad*%
%ADD13C,1.800000*%
%TD*%
%TA.AperFunction,ComponentPad*%
%ADD14C,3.000000*%
%TD*%
%TA.AperFunction,ComponentPad*%
%ADD15C,1.500000*%
%TD*%
%TA.AperFunction,ComponentPad*%
%ADD16R,1.700000X1.700000*%
%TD*%
%TA.AperFunction,ComponentPad*%
%ADD17O,1.700000X1.700000*%
%TD*%
%TA.AperFunction,ComponentPad*%
%ADD18R,3.302000X3.302000*%
%TD*%
%TA.AperFunction,ViaPad*%
%ADD19C,1.600000*%
%TD*%
%TA.AperFunction,Conductor*%
%ADD20C,0.250000*%
%TD*%
%TA.AperFunction,Conductor*%
%ADD21C,0.500000*%
%TD*%
G04 APERTURE END LIST*
D10*
%TO.P,U2,1,IN*%
%TO.N,Net-(SW1-B)*%
X180340000Y-58745000D03*
D11*
%TO.P,U2,2,GND*%
%TO.N,GND*%
X182880000Y-58745000D03*
%TO.P,U2,3,OUT*%
%TO.N,+5V*%
X185420000Y-58745000D03*
%TD*%
D12*
%TO.P,D2,1,K*%
%TO.N,Net-(D2-K)*%
X158580000Y-99060000D03*
D13*
%TO.P,D2,2,A*%
%TO.N,Net-(D2-A)*%
X158580000Y-96520000D03*
%TD*%
D14*
%TO.P,J2,R*%
%TO.N,GND*%
X179070000Y-145275000D03*
%TO.P,J2,RN*%
%TO.N,unconnected-(J2-PadRN)*%
X179070000Y-129045000D03*
%TO.P,J2,S*%
%TO.N,GND*%
X172720000Y-145275000D03*
%TO.P,J2,SN*%
%TO.N,unconnected-(J2-PadSN)*%
X172720000Y-129045000D03*
%TO.P,J2,T*%
%TO.N,Net-(SW2-C2)*%
X185420000Y-145275000D03*
%TO.P,J2,TN*%
%TO.N,unconnected-(J2-PadTN)*%
X185420000Y-129045000D03*
%TD*%
D15*
%TO.P,Y1,1,1*%
%TO.N,Net-(U1-XTAL2)*%
X142330000Y-76160000D03*
%TO.P,Y1,2,2*%
%TO.N,Net-(U1-XTAL1)*%
X147210000Y-76160000D03*
%TD*%
D16*
%TO.P,RV1,1,1*%
%TO.N,GND*%
X153020000Y-50800000D03*
D17*
%TO.P,RV1,2,2*%
%TO.N,PA1*%
X155560000Y-50800000D03*
%TO.P,RV1,3,3*%
%TO.N,+5V*%
X158100000Y-50800000D03*
%TD*%
D16*
%TO.P,BT1,1,+*%
%TO.N,+9V*%
X170180000Y-50800000D03*
D17*
%TO.P,BT1,2,-*%
%TO.N,GND*%
X167640000Y-50800000D03*
%TD*%
D18*
%TO.P,SW2,1,A1*%
%TO.N,FX In*%
X153280000Y-112720000D03*
%TO.P,SW2,2,B1*%
%TO.N,Net-(D2-K)*%
X158580000Y-112720000D03*
%TO.P,SW2,3,C1*%
%TO.N,FX Out*%
X163880000Y-112720000D03*
%TO.P,SW2,4,A2*%
%TO.N,Net-(SW2-A2)*%
X153280000Y-117420000D03*
%TO.P,SW2,5,B2*%
%TO.N,GND*%
X158580000Y-117420000D03*
%TO.P,SW2,6,C2*%
%TO.N,Net-(SW2-C2)*%
X163880000Y-117420000D03*
%TO.P,SW2,7,A3*%
%TO.N,Net-(SW2-A3)*%
X153280000Y-122120000D03*
%TO.P,SW2,8,B3*%
%TO.N,unconnected-(SW2-B3-Pad8)*%
X158580000Y-122120000D03*
%TO.P,SW2,9,C3*%
%TO.N,Net-(SW2-A3)*%
X163880000Y-122120000D03*
%TD*%
D16*
%TO.P,SW1,1,A*%
%TO.N,+9V*%
X177800000Y-50800000D03*
D17*
%TO.P,SW1,2,B*%
%TO.N,Net-(SW1-B)*%
X180340000Y-50800000D03*
%TD*%
D14*
%TO.P,J1,R*%
%TO.N,GND*%
X138250000Y-129045000D03*
%TO.P,J1,RN*%
%TO.N,unconnected-(J1-PadRN)*%
X138250000Y-145275000D03*
%TO.P,J1,S*%
%TO.N,GND*%
X144600000Y-129045000D03*
%TO.P,J1,SN*%
%TO.N,unconnected-(J1-PadSN)*%
X144600000Y-145275000D03*
%TO.P,J1,T*%
%TO.N,Net-(SW2-A2)*%
X131900000Y-129045000D03*
%TO.P,J1,TN*%
%TO.N,unconnected-(J1-PadTN)*%
X131900000Y-145275000D03*
%TD*%
D19*
%TO.N,GND*%
X182880000Y-99060000D03*
X172720000Y-62980000D03*
X144780000Y-63500000D03*
X157480000Y-137160000D03*
X144780000Y-99060000D03*
X175260000Y-88900000D03*
%TO.N,+5V*%
X177800000Y-88900000D03*
X185420000Y-71120000D03*
%TO.N,Net-(J3-SCK)*%
X134620000Y-60960000D03*
X139700000Y-63500000D03*
%TO.N,PA0*%
X147320000Y-99060000D03*
X147320000Y-55880000D03*
%TD*%
D20*
%TO.N,GND*%
X172720000Y-62980000D02*
X178255000Y-57445000D01*
X153020000Y-50800000D02*
X154165344Y-49654656D01*
X175260000Y-91440000D02*
X182880000Y-99060000D01*
X172720000Y-86360000D02*
X175260000Y-88900000D01*
X166494656Y-49654656D02*
X167640000Y-50800000D01*
X172720000Y-62980000D02*
X172720000Y-86360000D01*
X181580000Y-57445000D02*
X182880000Y-58745000D01*
X178255000Y-57445000D02*
X181580000Y-57445000D01*
X175260000Y-88900000D02*
X175260000Y-91440000D01*
X154165344Y-49654656D02*
X166494656Y-49654656D01*
D21*
%TO.N,+5V*%
X177800000Y-78740000D02*
X177800000Y-88900000D01*
X185420000Y-71120000D02*
X177800000Y-78740000D01*
D20*
%TO.N,Net-(J3-SCK)*%
X137160000Y-60960000D02*
X134620000Y-60960000D01*
X139700000Y-63500000D02*
X137160000Y-60960000D01*
%TO.N,PA0*%
X149860000Y-91440000D02*
X147320000Y-93980000D01*
X147320000Y-55880000D02*
X149860000Y-58420000D01*
X147320000Y-93980000D02*
X147320000Y-99060000D01*
X149860000Y-58420000D02*
X149860000Y-91440000D01*
%TD*%
%TA.AperFunction,Conductor*%
%TO.N,GND*%
G36*
X187977532Y-38601265D02*
G01*
X188356447Y-38617808D01*
X188361799Y-38618277D01*
X188752543Y-38669720D01*
X188757859Y-38670658D01*
X189142619Y-38755957D01*
X189147830Y-38757352D01*
X189523704Y-38875865D01*
X189528761Y-38877705D01*
X189892889Y-39028531D01*
X189897767Y-39030805D01*
X190247350Y-39212787D01*
X190252028Y-39215489D01*
X190584412Y-39427240D01*
X190588845Y-39430344D01*
X190901500Y-39670252D01*
X190905645Y-39673731D01*
X191196199Y-39939974D01*
X191200025Y-39943800D01*
X191466268Y-40234354D01*
X191469747Y-40238499D01*
X191709655Y-40551154D01*
X191712759Y-40555587D01*
X191924510Y-40887971D01*
X191927216Y-40892657D01*
X192084504Y-41194804D01*
X192109185Y-41242214D01*
X192111472Y-41247119D01*
X192262289Y-41611225D01*
X192264135Y-41616299D01*
X192382642Y-41992153D01*
X192384042Y-41997380D01*
X192469341Y-42382140D01*
X192470281Y-42387469D01*
X192521720Y-42778182D01*
X192522192Y-42783573D01*
X192539500Y-43180000D01*
X192539500Y-147320000D01*
X192522192Y-147716426D01*
X192521720Y-147721817D01*
X192470281Y-148112530D01*
X192469341Y-148117859D01*
X192384042Y-148502619D01*
X192382642Y-148507846D01*
X192264135Y-148883700D01*
X192262285Y-148888785D01*
X192111472Y-149252880D01*
X192109185Y-149257785D01*
X191927216Y-149607342D01*
X191924510Y-149612028D01*
X191712759Y-149944412D01*
X191709655Y-149948845D01*
X191469747Y-150261500D01*
X191466268Y-150265645D01*
X191200025Y-150556199D01*
X191196199Y-150560025D01*
X190905645Y-150826268D01*
X190901500Y-150829747D01*
X190588845Y-151069655D01*
X190584412Y-151072759D01*
X190252028Y-151284510D01*
X190247342Y-151287216D01*
X189897785Y-151469185D01*
X189892880Y-151471472D01*
X189528785Y-151622285D01*
X189523700Y-151624135D01*
X189147846Y-151742642D01*
X189142619Y-151744042D01*
X188757859Y-151829341D01*
X188752530Y-151830281D01*
X188361817Y-151881720D01*
X188356426Y-151882192D01*
X187960000Y-151899500D01*
X129540000Y-151899500D01*
X129143573Y-151882192D01*
X129138182Y-151881720D01*
X128747469Y-151830281D01*
X128742140Y-151829341D01*
X128357380Y-151744042D01*
X128352153Y-151742642D01*
X127976299Y-151624135D01*
X127971225Y-151622289D01*
X127607119Y-151471472D01*
X127602222Y-151469189D01*
X127252657Y-151287216D01*
X127247971Y-151284510D01*
X126915587Y-151072759D01*
X126911154Y-151069655D01*
X126598499Y-150829747D01*
X126594354Y-150826268D01*
X126303800Y-150560025D01*
X126299974Y-150556199D01*
X126033731Y-150265645D01*
X126030252Y-150261500D01*
X125790344Y-149948845D01*
X125787240Y-149944412D01*
X125575489Y-149612028D01*
X125572783Y-149607342D01*
X125390805Y-149257767D01*
X125388527Y-149252880D01*
X125237705Y-148888761D01*
X125235864Y-148883700D01*
X125220806Y-148835942D01*
X125117352Y-148507830D01*
X125115957Y-148502619D01*
X125030658Y-148117859D01*
X125029720Y-148112543D01*
X124978277Y-147721799D01*
X124977808Y-147716447D01*
X124960500Y-147320000D01*
X124960500Y-147254108D01*
X124960500Y-145275001D01*
X129894390Y-145275001D01*
X129914804Y-145560433D01*
X129975628Y-145840037D01*
X129975630Y-145840043D01*
X129975631Y-145840046D01*
X130075557Y-146107958D01*
X130075635Y-146108166D01*
X130212770Y-146359309D01*
X130212775Y-146359317D01*
X130384254Y-146588387D01*
X130384270Y-146588405D01*
X130586594Y-146790729D01*
X130586612Y-146790745D01*
X130815682Y-146962224D01*
X130815690Y-146962229D01*
X131066833Y-147099364D01*
X131066832Y-147099364D01*
X131066836Y-147099365D01*
X131066839Y-147099367D01*
X131334954Y-147199369D01*
X131334960Y-147199370D01*
X131334962Y-147199371D01*
X131614566Y-147260195D01*
X131614568Y-147260195D01*
X131614572Y-147260196D01*
X131868220Y-147278337D01*
X131899999Y-147280610D01*
X131900000Y-147280610D01*
X131900001Y-147280610D01*
X131928595Y-147278564D01*
X132185428Y-147260196D01*
X132213415Y-147254108D01*
X132465037Y-147199371D01*
X132465037Y-147199370D01*
X132465046Y-147199369D01*
X132733161Y-147099367D01*
X132984315Y-146962226D01*
X133213395Y-146790739D01*
X133415739Y-146588395D01*
X133587226Y-146359315D01*
X133724367Y-146108161D01*
X133824369Y-145840046D01*
X133885196Y-145560428D01*
X133905610Y-145275001D01*
X136244390Y-145275001D01*
X136264804Y-145560433D01*
X136325628Y-145840037D01*
X136325630Y-145840043D01*
X136325631Y-145840046D01*
X136425557Y-146107958D01*
X136425635Y-146108166D01*
X136562770Y-146359309D01*
X136562775Y-146359317D01*
X136734254Y-146588387D01*
X136734270Y-146588405D01*
X136936594Y-146790729D01*
X136936612Y-146790745D01*
X137165682Y-146962224D01*
X137165690Y-146962229D01*
X137416833Y-147099364D01*
X137416832Y-147099364D01*
X137416836Y-147099365D01*
X137416839Y-147099367D01*
X137684954Y-147199369D01*
X137684960Y-147199370D01*
X137684962Y-147199371D01*
X137964566Y-147260195D01*
X137964568Y-147260195D01*
X137964572Y-147260196D01*
X138218220Y-147278337D01*
X138249999Y-147280610D01*
X138250000Y-147280610D01*
X138250001Y-147280610D01*
X138278595Y-147278564D01*
X138535428Y-147260196D01*
X138563415Y-147254108D01*
X138815037Y-147199371D01*
X138815037Y-147199370D01*
X138815046Y-147199369D01*
X139083161Y-147099367D01*
X139334315Y-146962226D01*
X139563395Y-146790739D01*
X139765739Y-146588395D01*
X139937226Y-146359315D01*
X140074367Y-146108161D01*
X140174369Y-145840046D01*
X140235196Y-145560428D01*
X140255610Y-145275001D01*
X142594390Y-145275001D01*
X142614804Y-145560433D01*
X142675628Y-145840037D01*
X142675630Y-145840043D01*
X142675631Y-145840046D01*
X142775557Y-146107958D01*
X142775635Y-146108166D01*
X142912770Y-146359309D01*
X142912775Y-146359317D01*
X143084254Y-146588387D01*
X143084270Y-146588405D01*
X143286594Y-146790729D01*
X143286612Y-146790745D01*
X143515682Y-146962224D01*
X143515690Y-146962229D01*
X143766833Y-147099364D01*
X143766832Y-147099364D01*
X143766836Y-147099365D01*
X143766839Y-147099367D01*
X144034954Y-147199369D01*
X144034960Y-147199370D01*
X144034962Y-147199371D01*
X144314566Y-147260195D01*
X144314568Y-147260195D01*
X144314572Y-147260196D01*
X144568220Y-147278337D01*
X144599999Y-147280610D01*
X144600000Y-147280610D01*
X144600001Y-147280610D01*
X144628595Y-147278564D01*
X144885428Y-147260196D01*
X144913415Y-147254108D01*
X145165037Y-147199371D01*
X145165037Y-147199370D01*
X145165046Y-147199369D01*
X145433161Y-147099367D01*
X145684315Y-146962226D01*
X145913395Y-146790739D01*
X146115739Y-146588395D01*
X146287226Y-146359315D01*
X146424367Y-146108161D01*
X146524369Y-145840046D01*
X146585196Y-145560428D01*
X146605610Y-145275001D01*
X170714891Y-145275001D01*
X170735300Y-145560362D01*
X170796109Y-145839895D01*
X170896091Y-146107958D01*
X171033191Y-146359038D01*
X171033196Y-146359046D01*
X171139882Y-146501561D01*
X171139883Y-146501562D01*
X172079859Y-145561586D01*
X172139680Y-145675566D01*
X172252405Y-145802806D01*
X172392305Y-145899371D01*
X172433542Y-145915010D01*
X171493436Y-146855115D01*
X171635960Y-146961807D01*
X171635961Y-146961808D01*
X171887042Y-147098908D01*
X171887041Y-147098908D01*
X172155104Y-147198890D01*
X172434637Y-147259699D01*
X172719999Y-147280109D01*
X172720001Y-147280109D01*
X173005362Y-147259699D01*
X173284895Y-147198890D01*
X173552958Y-147098908D01*
X173804047Y-146961803D01*
X173946561Y-146855116D01*
X173946562Y-146855115D01*
X173006458Y-145915010D01*
X173047695Y-145899371D01*
X173187595Y-145802806D01*
X173300320Y-145675566D01*
X173360140Y-145561587D01*
X174300115Y-146501562D01*
X174300116Y-146501561D01*
X174406803Y-146359047D01*
X174543908Y-146107958D01*
X174643890Y-145839895D01*
X174704699Y-145560362D01*
X174725109Y-145275001D01*
X177064891Y-145275001D01*
X177085300Y-145560362D01*
X177146109Y-145839895D01*
X177246091Y-146107958D01*
X177383191Y-146359038D01*
X177383196Y-146359046D01*
X177489882Y-146501561D01*
X177489883Y-146501562D01*
X178429859Y-145561586D01*
X178489680Y-145675566D01*
X178602405Y-145802806D01*
X178742305Y-145899371D01*
X178783542Y-145915010D01*
X177843436Y-146855115D01*
X177985960Y-146961807D01*
X177985961Y-146961808D01*
X178237042Y-147098908D01*
X178237041Y-147098908D01*
X178505104Y-147198890D01*
X178784637Y-147259699D01*
X179069999Y-147280109D01*
X179070001Y-147280109D01*
X179355362Y-147259699D01*
X179634895Y-147198890D01*
X179902958Y-147098908D01*
X180154047Y-146961803D01*
X180296561Y-146855116D01*
X180296562Y-146855115D01*
X179356458Y-145915010D01*
X179397695Y-145899371D01*
X179537595Y-145802806D01*
X179650320Y-145675566D01*
X179710140Y-145561587D01*
X180650115Y-146501562D01*
X180650116Y-146501561D01*
X180756803Y-146359047D01*
X180893908Y-146107958D01*
X180993890Y-145839895D01*
X181054699Y-145560362D01*
X181075109Y-145275001D01*
X183414390Y-145275001D01*
X183434804Y-145560433D01*
X183495628Y-145840037D01*
X183495630Y-145840043D01*
X183495631Y-145840046D01*
X183595557Y-146107958D01*
X183595635Y-146108166D01*
X183732770Y-146359309D01*
X183732775Y-146359317D01*
X183904254Y-146588387D01*
X183904270Y-146588405D01*
X184106594Y-146790729D01*
X184106612Y-146790745D01*
X184335682Y-146962224D01*
X184335690Y-146962229D01*
X184586833Y-147099364D01*
X184586832Y-147099364D01*
X184586836Y-147099365D01*
X184586839Y-147099367D01*
X184854954Y-147199369D01*
X184854960Y-147199370D01*
X184854962Y-147199371D01*
X185134566Y-147260195D01*
X185134568Y-147260195D01*
X185134572Y-147260196D01*
X185388220Y-147278337D01*
X185419999Y-147280610D01*
X185420000Y-147280610D01*
X185420001Y-147280610D01*
X185448595Y-147278564D01*
X185705428Y-147260196D01*
X185733415Y-147254108D01*
X185985037Y-147199371D01*
X185985037Y-147199370D01*
X185985046Y-147199369D01*
X186253161Y-147099367D01*
X186504315Y-146962226D01*
X186733395Y-146790739D01*
X186935739Y-146588395D01*
X187107226Y-146359315D01*
X187244367Y-146108161D01*
X187344369Y-145840046D01*
X187405196Y-145560428D01*
X187425610Y-145275000D01*
X187405196Y-144989572D01*
X187380149Y-144874434D01*
X187344371Y-144709962D01*
X187344370Y-144709960D01*
X187344369Y-144709954D01*
X187244367Y-144441839D01*
X187107372Y-144190953D01*
X187107229Y-144190690D01*
X187107224Y-144190682D01*
X186935745Y-143961612D01*
X186935729Y-143961594D01*
X186733405Y-143759270D01*
X186733387Y-143759254D01*
X186504317Y-143587775D01*
X186504309Y-143587770D01*
X186253166Y-143450635D01*
X186253167Y-143450635D01*
X186145915Y-143410632D01*
X185985046Y-143350631D01*
X185985043Y-143350630D01*
X185985037Y-143350628D01*
X185705433Y-143289804D01*
X185420001Y-143269390D01*
X185419999Y-143269390D01*
X185134566Y-143289804D01*
X184854962Y-143350628D01*
X184586833Y-143450635D01*
X184335690Y-143587770D01*
X184335682Y-143587775D01*
X184106612Y-143759254D01*
X184106594Y-143759270D01*
X183904270Y-143961594D01*
X183904254Y-143961612D01*
X183732775Y-144190682D01*
X183732770Y-144190690D01*
X183595635Y-144441833D01*
X183495628Y-144709962D01*
X183434804Y-144989566D01*
X183414390Y-145274998D01*
X183414390Y-145275001D01*
X181075109Y-145275001D01*
X181075109Y-145274998D01*
X181054699Y-144989637D01*
X180993890Y-144710104D01*
X180893908Y-144442041D01*
X180756808Y-144190961D01*
X180756807Y-144190960D01*
X180650115Y-144048436D01*
X179710139Y-144988412D01*
X179650320Y-144874434D01*
X179537595Y-144747194D01*
X179397695Y-144650629D01*
X179356457Y-144634989D01*
X180296562Y-143694883D01*
X180296561Y-143694882D01*
X180154046Y-143588196D01*
X180154038Y-143588191D01*
X179902957Y-143451091D01*
X179902958Y-143451091D01*
X179634895Y-143351109D01*
X179355362Y-143290300D01*
X179070001Y-143269891D01*
X179069999Y-143269891D01*
X178784637Y-143290300D01*
X178505104Y-143351109D01*
X178237041Y-143451091D01*
X177985961Y-143588191D01*
X177985953Y-143588196D01*
X177843437Y-143694882D01*
X177843436Y-143694883D01*
X178783543Y-144634989D01*
X178742305Y-144650629D01*
X178602405Y-144747194D01*
X178489680Y-144874434D01*
X178429859Y-144988412D01*
X177489883Y-144048436D01*
X177489882Y-144048437D01*
X177383196Y-144190953D01*
X177383191Y-144190961D01*
X177246091Y-144442041D01*
X177146109Y-144710104D01*
X177085300Y-144989637D01*
X177064891Y-145274998D01*
X177064891Y-145275001D01*
X174725109Y-145275001D01*
X174725109Y-145274998D01*
X174704699Y-144989637D01*
X174643890Y-144710104D01*
X174543908Y-144442041D01*
X174406808Y-144190961D01*
X174406807Y-144190960D01*
X174300115Y-144048436D01*
X173360139Y-144988412D01*
X173300320Y-144874434D01*
X173187595Y-144747194D01*
X173047695Y-144650629D01*
X173006457Y-144634989D01*
X173946562Y-143694883D01*
X173946561Y-143694882D01*
X173804046Y-143588196D01*
X173804038Y-143588191D01*
X173552957Y-143451091D01*
X173552958Y-143451091D01*
X173284895Y-143351109D01*
X173005362Y-143290300D01*
X172720001Y-143269891D01*
X172719999Y-143269891D01*
X172434637Y-143290300D01*
X172155104Y-143351109D01*
X171887041Y-143451091D01*
X171635961Y-143588191D01*
X171635953Y-143588196D01*
X171493437Y-143694882D01*
X171493436Y-143694883D01*
X172433543Y-144634989D01*
X172392305Y-144650629D01*
X172252405Y-144747194D01*
X172139680Y-144874434D01*
X172079859Y-144988412D01*
X171139883Y-144048436D01*
X171139882Y-144048437D01*
X171033196Y-144190953D01*
X171033191Y-144190961D01*
X170896091Y-144442041D01*
X170796109Y-144710104D01*
X170735300Y-144989637D01*
X170714891Y-145274998D01*
X170714891Y-145275001D01*
X146605610Y-145275001D01*
X146605610Y-145275000D01*
X146585196Y-144989572D01*
X146560149Y-144874434D01*
X146524371Y-144709962D01*
X146524370Y-144709960D01*
X146524369Y-144709954D01*
X146424367Y-144441839D01*
X146287372Y-144190953D01*
X146287229Y-144190690D01*
X146287224Y-144190682D01*
X146115745Y-143961612D01*
X146115729Y-143961594D01*
X145913405Y-143759270D01*
X145913387Y-143759254D01*
X145684317Y-143587775D01*
X145684309Y-143587770D01*
X145433166Y-143450635D01*
X145433167Y-143450635D01*
X145325915Y-143410632D01*
X145165046Y-143350631D01*
X145165043Y-143350630D01*
X145165037Y-143350628D01*
X144885433Y-143289804D01*
X144600001Y-143269390D01*
X144599999Y-143269390D01*
X144314566Y-143289804D01*
X144034962Y-143350628D01*
X143766833Y-143450635D01*
X143515690Y-143587770D01*
X143515682Y-143587775D01*
X143286612Y-143759254D01*
X143286594Y-143759270D01*
X143084270Y-143961594D01*
X143084254Y-143961612D01*
X142912775Y-144190682D01*
X142912770Y-144190690D01*
X142775635Y-144441833D01*
X142675628Y-144709962D01*
X142614804Y-144989566D01*
X142594390Y-145274998D01*
X142594390Y-145275001D01*
X140255610Y-145275001D01*
X140255610Y-145275000D01*
X140235196Y-144989572D01*
X140210149Y-144874434D01*
X140174371Y-144709962D01*
X140174370Y-144709960D01*
X140174369Y-144709954D01*
X140074367Y-144441839D01*
X139937372Y-144190953D01*
X139937229Y-144190690D01*
X139937224Y-144190682D01*
X139765745Y-143961612D01*
X139765729Y-143961594D01*
X139563405Y-143759270D01*
X139563387Y-143759254D01*
X139334317Y-143587775D01*
X139334309Y-143587770D01*
X139083166Y-143450635D01*
X139083167Y-143450635D01*
X138975915Y-143410632D01*
X138815046Y-143350631D01*
X138815043Y-143350630D01*
X138815037Y-143350628D01*
X138535433Y-143289804D01*
X138250001Y-143269390D01*
X138249999Y-143269390D01*
X137964566Y-143289804D01*
X137684962Y-143350628D01*
X137416833Y-143450635D01*
X137165690Y-143587770D01*
X137165682Y-143587775D01*
X136936612Y-143759254D01*
X136936594Y-143759270D01*
X136734270Y-143961594D01*
X136734254Y-143961612D01*
X136562775Y-144190682D01*
X136562770Y-144190690D01*
X136425635Y-144441833D01*
X136325628Y-144709962D01*
X136264804Y-144989566D01*
X136244390Y-145274998D01*
X136244390Y-145275001D01*
X133905610Y-145275001D01*
X133905610Y-145275000D01*
X133885196Y-144989572D01*
X133860149Y-144874434D01*
X133824371Y-144709962D01*
X133824370Y-144709960D01*
X133824369Y-144709954D01*
X133724367Y-144441839D01*
X133587372Y-144190953D01*
X133587229Y-144190690D01*
X133587224Y-144190682D01*
X133415745Y-143961612D01*
X133415729Y-143961594D01*
X133213405Y-143759270D01*
X133213387Y-143759254D01*
X132984317Y-143587775D01*
X132984309Y-143587770D01*
X132733166Y-143450635D01*
X132733167Y-143450635D01*
X132625915Y-143410632D01*
X132465046Y-143350631D01*
X132465043Y-143350630D01*
X132465037Y-143350628D01*
X132185433Y-143289804D01*
X131900001Y-143269390D01*
X131899999Y-143269390D01*
X131614566Y-143289804D01*
X131334962Y-143350628D01*
X131066833Y-143450635D01*
X130815690Y-143587770D01*
X130815682Y-143587775D01*
X130586612Y-143759254D01*
X130586594Y-143759270D01*
X130384270Y-143961594D01*
X130384254Y-143961612D01*
X130212775Y-144190682D01*
X130212770Y-144190690D01*
X130075635Y-144441833D01*
X129975628Y-144709962D01*
X129914804Y-144989566D01*
X129894390Y-145274998D01*
X129894390Y-145275001D01*
X124960500Y-145275001D01*
X124960500Y-129045001D01*
X129894390Y-129045001D01*
X129914804Y-129330433D01*
X129975628Y-129610037D01*
X129975630Y-129610043D01*
X129975631Y-129610046D01*
X130075557Y-129877958D01*
X130075635Y-129878166D01*
X130212770Y-130129309D01*
X130212775Y-130129317D01*
X130384254Y-130358387D01*
X130384270Y-130358405D01*
X130586594Y-130560729D01*
X130586612Y-130560745D01*
X130815682Y-130732224D01*
X130815690Y-130732229D01*
X131066833Y-130869364D01*
X131066832Y-130869364D01*
X131066836Y-130869365D01*
X131066839Y-130869367D01*
X131334954Y-130969369D01*
X131334960Y-130969370D01*
X131334962Y-130969371D01*
X131614566Y-131030195D01*
X131614568Y-131030195D01*
X131614572Y-131030196D01*
X131868220Y-131048337D01*
X131899999Y-131050610D01*
X131900000Y-131050610D01*
X131900001Y-131050610D01*
X131928595Y-131048564D01*
X132185428Y-131030196D01*
X132465046Y-130969369D01*
X132733161Y-130869367D01*
X132984315Y-130732226D01*
X133213395Y-130560739D01*
X133415739Y-130358395D01*
X133587226Y-130129315D01*
X133724367Y-129878161D01*
X133824369Y-129610046D01*
X133885196Y-129330428D01*
X133905610Y-129045001D01*
X136244891Y-129045001D01*
X136265300Y-129330362D01*
X136326109Y-129609895D01*
X136426091Y-129877958D01*
X136563191Y-130129038D01*
X136563196Y-130129046D01*
X136669882Y-130271561D01*
X136669883Y-130271562D01*
X137609859Y-129331586D01*
X137669680Y-129445566D01*
X137782405Y-129572806D01*
X137922305Y-129669371D01*
X137963542Y-129685010D01*
X137023436Y-130625115D01*
X137165960Y-130731807D01*
X137165961Y-130731808D01*
X137417042Y-130868908D01*
X137417041Y-130868908D01*
X137685104Y-130968890D01*
X137964637Y-131029699D01*
X138249999Y-131050109D01*
X138250001Y-131050109D01*
X138535362Y-131029699D01*
X138814895Y-130968890D01*
X139082958Y-130868908D01*
X139334047Y-130731803D01*
X139476561Y-130625116D01*
X139476562Y-130625115D01*
X138536458Y-129685010D01*
X138577695Y-129669371D01*
X138717595Y-129572806D01*
X138830320Y-129445566D01*
X138890140Y-129331587D01*
X139830115Y-130271562D01*
X139830116Y-130271561D01*
X139936803Y-130129047D01*
X140073908Y-129877958D01*
X140173890Y-129609895D01*
X140234699Y-129330362D01*
X140255109Y-129045001D01*
X142594891Y-129045001D01*
X142615300Y-129330362D01*
X142676109Y-129609895D01*
X142776091Y-129877958D01*
X142913191Y-130129038D01*
X142913196Y-130129046D01*
X143019882Y-130271561D01*
X143019883Y-130271562D01*
X143959859Y-129331586D01*
X144019680Y-129445566D01*
X144132405Y-129572806D01*
X144272305Y-129669371D01*
X144313542Y-129685010D01*
X143373436Y-130625115D01*
X143515960Y-130731807D01*
X143515961Y-130731808D01*
X143767042Y-130868908D01*
X143767041Y-130868908D01*
X144035104Y-130968890D01*
X144314637Y-131029699D01*
X144599999Y-131050109D01*
X144600001Y-131050109D01*
X144885362Y-131029699D01*
X145164895Y-130968890D01*
X145432958Y-130868908D01*
X145684047Y-130731803D01*
X145826561Y-130625116D01*
X145826562Y-130625115D01*
X144886458Y-129685010D01*
X144927695Y-129669371D01*
X145067595Y-129572806D01*
X145180320Y-129445566D01*
X145240140Y-129331587D01*
X146180115Y-130271562D01*
X146180116Y-130271561D01*
X146286803Y-130129047D01*
X146423908Y-129877958D01*
X146523890Y-129609895D01*
X146584699Y-129330362D01*
X146605109Y-129045001D01*
X170714390Y-129045001D01*
X170734804Y-129330433D01*
X170795628Y-129610037D01*
X170795630Y-129610043D01*
X170795631Y-129610046D01*
X170895557Y-129877958D01*
X170895635Y-129878166D01*
X171032770Y-130129309D01*
X171032775Y-130129317D01*
X171204254Y-130358387D01*
X171204270Y-130358405D01*
X171406594Y-130560729D01*
X171406612Y-130560745D01*
X171635682Y-130732224D01*
X171635690Y-130732229D01*
X171886833Y-130869364D01*
X171886832Y-130869364D01*
X171886836Y-130869365D01*
X171886839Y-130869367D01*
X172154954Y-130969369D01*
X172154960Y-130969370D01*
X172154962Y-130969371D01*
X172434566Y-131030195D01*
X172434568Y-131030195D01*
X172434572Y-131030196D01*
X172688220Y-131048337D01*
X172719999Y-131050610D01*
X172720000Y-131050610D01*
X172720001Y-131050610D01*
X172748595Y-131048564D01*
X173005428Y-131030196D01*
X173285046Y-130969369D01*
X173553161Y-130869367D01*
X173804315Y-130732226D01*
X174033395Y-130560739D01*
X174235739Y-130358395D01*
X174407226Y-130129315D01*
X174544367Y-129878161D01*
X174644369Y-129610046D01*
X174705196Y-129330428D01*
X174725610Y-129045001D01*
X177064390Y-129045001D01*
X177084804Y-129330433D01*
X177145628Y-129610037D01*
X177145630Y-129610043D01*
X177145631Y-129610046D01*
X177245557Y-129877958D01*
X177245635Y-129878166D01*
X177382770Y-130129309D01*
X177382775Y-130129317D01*
X177554254Y-130358387D01*
X177554270Y-130358405D01*
X177756594Y-130560729D01*
X177756612Y-130560745D01*
X177985682Y-130732224D01*
X177985690Y-130732229D01*
X178236833Y-130869364D01*
X178236832Y-130869364D01*
X178236836Y-130869365D01*
X178236839Y-130869367D01*
X178504954Y-130969369D01*
X178504960Y-130969370D01*
X178504962Y-130969371D01*
X178784566Y-131030195D01*
X178784568Y-131030195D01*
X178784572Y-131030196D01*
X179038220Y-131048337D01*
X179069999Y-131050610D01*
X179070000Y-131050610D01*
X179070001Y-131050610D01*
X179098595Y-131048564D01*
X179355428Y-131030196D01*
X179635046Y-130969369D01*
X179903161Y-130869367D01*
X180154315Y-130732226D01*
X180383395Y-130560739D01*
X180585739Y-130358395D01*
X180757226Y-130129315D01*
X180894367Y-129878161D01*
X180994369Y-129610046D01*
X181055196Y-129330428D01*
X181075610Y-129045001D01*
X183414390Y-129045001D01*
X183434804Y-129330433D01*
X183495628Y-129610037D01*
X183495630Y-129610043D01*
X183495631Y-129610046D01*
X183595557Y-129877958D01*
X183595635Y-129878166D01*
X183732770Y-130129309D01*
X183732775Y-130129317D01*
X183904254Y-130358387D01*
X183904270Y-130358405D01*
X184106594Y-130560729D01*
X184106612Y-130560745D01*
X184335682Y-130732224D01*
X184335690Y-130732229D01*
X184586833Y-130869364D01*
X184586832Y-130869364D01*
X184586836Y-130869365D01*
X184586839Y-130869367D01*
X184854954Y-130969369D01*
X184854960Y-130969370D01*
X184854962Y-130969371D01*
X185134566Y-131030195D01*
X185134568Y-131030195D01*
X185134572Y-131030196D01*
X185388220Y-131048337D01*
X185419999Y-131050610D01*
X185420000Y-131050610D01*
X185420001Y-131050610D01*
X185448595Y-131048564D01*
X185705428Y-131030196D01*
X185985046Y-130969369D01*
X186253161Y-130869367D01*
X186504315Y-130732226D01*
X186733395Y-130560739D01*
X186935739Y-130358395D01*
X187107226Y-130129315D01*
X187244367Y-129878161D01*
X187344369Y-129610046D01*
X187405196Y-129330428D01*
X187425610Y-129045000D01*
X187405196Y-128759572D01*
X187380149Y-128644434D01*
X187344371Y-128479962D01*
X187344370Y-128479960D01*
X187344369Y-128479954D01*
X187244367Y-128211839D01*
X187107372Y-127960953D01*
X187107229Y-127960690D01*
X187107224Y-127960682D01*
X186935745Y-127731612D01*
X186935729Y-127731594D01*
X186733405Y-127529270D01*
X186733387Y-127529254D01*
X186504317Y-127357775D01*
X186504309Y-127357770D01*
X186253166Y-127220635D01*
X186253167Y-127220635D01*
X186145915Y-127180632D01*
X185985046Y-127120631D01*
X185985043Y-127120630D01*
X185985037Y-127120628D01*
X185705433Y-127059804D01*
X185420001Y-127039390D01*
X185419999Y-127039390D01*
X185134566Y-127059804D01*
X184854962Y-127120628D01*
X184586833Y-127220635D01*
X184335690Y-127357770D01*
X184335682Y-127357775D01*
X184106612Y-127529254D01*
X184106594Y-127529270D01*
X183904270Y-127731594D01*
X183904254Y-127731612D01*
X183732775Y-127960682D01*
X183732770Y-127960690D01*
X183595635Y-128211833D01*
X183495628Y-128479962D01*
X183434804Y-128759566D01*
X183414390Y-129044998D01*
X183414390Y-129045001D01*
X181075610Y-129045001D01*
X181075610Y-129045000D01*
X181055196Y-128759572D01*
X181030149Y-128644434D01*
X180994371Y-128479962D01*
X180994370Y-128479960D01*
X180994369Y-128479954D01*
X180894367Y-128211839D01*
X180757372Y-127960953D01*
X180757229Y-127960690D01*
X180757224Y-127960682D01*
X180585745Y-127731612D01*
X180585729Y-127731594D01*
X180383405Y-127529270D01*
X180383387Y-127529254D01*
X180154317Y-127357775D01*
X180154309Y-127357770D01*
X179903166Y-127220635D01*
X179903167Y-127220635D01*
X179795915Y-127180632D01*
X179635046Y-127120631D01*
X179635043Y-127120630D01*
X179635037Y-127120628D01*
X179355433Y-127059804D01*
X179070001Y-127039390D01*
X179069999Y-127039390D01*
X178784566Y-127059804D01*
X178504962Y-127120628D01*
X178236833Y-127220635D01*
X177985690Y-127357770D01*
X177985682Y-127357775D01*
X177756612Y-127529254D01*
X177756594Y-127529270D01*
X177554270Y-127731594D01*
X177554254Y-127731612D01*
X177382775Y-127960682D01*
X177382770Y-127960690D01*
X177245635Y-128211833D01*
X177145628Y-128479962D01*
X177084804Y-128759566D01*
X177064390Y-129044998D01*
X177064390Y-129045001D01*
X174725610Y-129045001D01*
X174725610Y-129045000D01*
X174705196Y-128759572D01*
X174680149Y-128644434D01*
X174644371Y-128479962D01*
X174644370Y-128479960D01*
X174644369Y-128479954D01*
X174544367Y-128211839D01*
X174407372Y-127960953D01*
X174407229Y-127960690D01*
X174407224Y-127960682D01*
X174235745Y-127731612D01*
X174235729Y-127731594D01*
X174033405Y-127529270D01*
X174033387Y-127529254D01*
X173804317Y-127357775D01*
X173804309Y-127357770D01*
X173553166Y-127220635D01*
X173553167Y-127220635D01*
X173445915Y-127180632D01*
X173285046Y-127120631D01*
X173285043Y-127120630D01*
X173285037Y-127120628D01*
X173005433Y-127059804D01*
X172720001Y-127039390D01*
X172719999Y-127039390D01*
X172434566Y-127059804D01*
X172154962Y-127120628D01*
X171886833Y-127220635D01*
X171635690Y-127357770D01*
X171635682Y-127357775D01*
X171406612Y-127529254D01*
X171406594Y-127529270D01*
X171204270Y-127731594D01*
X171204254Y-127731612D01*
X171032775Y-127960682D01*
X171032770Y-127960690D01*
X170895635Y-128211833D01*
X170795628Y-128479962D01*
X170734804Y-128759566D01*
X170714390Y-129044998D01*
X170714390Y-129045001D01*
X146605109Y-129045001D01*
X146605109Y-129044998D01*
X146584699Y-128759637D01*
X146523890Y-128480104D01*
X146423908Y-128212041D01*
X146286808Y-127960961D01*
X146286807Y-127960960D01*
X146180115Y-127818436D01*
X145240139Y-128758412D01*
X145180320Y-128644434D01*
X145067595Y-128517194D01*
X144927695Y-128420629D01*
X144886457Y-128404989D01*
X145826562Y-127464883D01*
X145826561Y-127464882D01*
X145684046Y-127358196D01*
X145684038Y-127358191D01*
X145432957Y-127221091D01*
X145432958Y-127221091D01*
X145164895Y-127121109D01*
X144885362Y-127060300D01*
X144600001Y-127039891D01*
X144599999Y-127039891D01*
X144314637Y-127060300D01*
X144035104Y-127121109D01*
X143767041Y-127221091D01*
X143515961Y-127358191D01*
X143515953Y-127358196D01*
X143373437Y-127464882D01*
X143373436Y-127464883D01*
X144313543Y-128404989D01*
X144272305Y-128420629D01*
X144132405Y-128517194D01*
X144019680Y-128644434D01*
X143959859Y-128758412D01*
X143019883Y-127818436D01*
X143019882Y-127818437D01*
X142913196Y-127960953D01*
X142913191Y-127960961D01*
X142776091Y-128212041D01*
X142676109Y-128480104D01*
X142615300Y-128759637D01*
X142594891Y-129044998D01*
X142594891Y-129045001D01*
X140255109Y-129045001D01*
X140255109Y-129044998D01*
X140234699Y-128759637D01*
X140173890Y-128480104D01*
X140073908Y-128212041D01*
X139936808Y-127960961D01*
X139936807Y-127960960D01*
X139830115Y-127818436D01*
X138890139Y-128758412D01*
X138830320Y-128644434D01*
X138717595Y-128517194D01*
X138577695Y-128420629D01*
X138536457Y-128404989D01*
X139476562Y-127464883D01*
X139476561Y-127464882D01*
X139334046Y-127358196D01*
X139334038Y-127358191D01*
X139082957Y-127221091D01*
X139082958Y-127221091D01*
X138814895Y-127121109D01*
X138535362Y-127060300D01*
X138250001Y-127039891D01*
X138249999Y-127039891D01*
X137964637Y-127060300D01*
X137685104Y-127121109D01*
X137417041Y-127221091D01*
X137165961Y-127358191D01*
X137165953Y-127358196D01*
X137023437Y-127464882D01*
X137023436Y-127464883D01*
X137963543Y-128404989D01*
X137922305Y-128420629D01*
X137782405Y-128517194D01*
X137669680Y-128644434D01*
X137609859Y-128758412D01*
X136669883Y-127818436D01*
X136669882Y-127818437D01*
X136563196Y-127960953D01*
X136563191Y-127960961D01*
X136426091Y-128212041D01*
X136326109Y-128480104D01*
X136265300Y-128759637D01*
X136244891Y-129044998D01*
X136244891Y-129045001D01*
X133905610Y-129045001D01*
X133905610Y-129045000D01*
X133885196Y-128759572D01*
X133860149Y-128644434D01*
X133824371Y-128479962D01*
X133824370Y-128479960D01*
X133824369Y-128479954D01*
X133724367Y-128211839D01*
X133587372Y-127960953D01*
X133587229Y-127960690D01*
X133587224Y-127960682D01*
X133415745Y-127731612D01*
X133415729Y-127731594D01*
X133213405Y-127529270D01*
X133213387Y-127529254D01*
X132984317Y-127357775D01*
X132984309Y-127357770D01*
X132733166Y-127220635D01*
X132733167Y-127220635D01*
X132625915Y-127180632D01*
X132465046Y-127120631D01*
X132465043Y-127120630D01*
X132465037Y-127120628D01*
X132185433Y-127059804D01*
X131900001Y-127039390D01*
X131899999Y-127039390D01*
X131614566Y-127059804D01*
X131334962Y-127120628D01*
X131066833Y-127220635D01*
X130815690Y-127357770D01*
X130815682Y-127357775D01*
X130586612Y-127529254D01*
X130586594Y-127529270D01*
X130384270Y-127731594D01*
X130384254Y-127731612D01*
X130212775Y-127960682D01*
X130212770Y-127960690D01*
X130075635Y-128211833D01*
X129975628Y-128479962D01*
X129914804Y-128759566D01*
X129894390Y-129044998D01*
X129894390Y-129045001D01*
X124960500Y-129045001D01*
X124960500Y-123818870D01*
X151128500Y-123818870D01*
X151128501Y-123818876D01*
X151134908Y-123878483D01*
X151185202Y-124013328D01*
X151185206Y-124013335D01*
X151271452Y-124128544D01*
X151271455Y-124128547D01*
X151386664Y-124214793D01*
X151386671Y-124214797D01*
X151521517Y-124265091D01*
X151521516Y-124265091D01*
X151528444Y-124265835D01*
X151581127Y-124271500D01*
X154978872Y-124271499D01*
X155038483Y-124265091D01*
X155173331Y-124214796D01*
X155288546Y-124128546D01*
X155374796Y-124013331D01*
X155425091Y-123878483D01*
X155431500Y-123818873D01*
X155431500Y-123818870D01*
X156428500Y-123818870D01*
X156428501Y-123818876D01*
X156434908Y-123878483D01*
X156485202Y-124013328D01*
X156485206Y-124013335D01*
X156571452Y-124128544D01*
X156571455Y-124128547D01*
X156686664Y-124214793D01*
X156686671Y-124214797D01*
X156821517Y-124265091D01*
X156821516Y-124265091D01*
X156828444Y-124265835D01*
X156881127Y-124271500D01*
X160278872Y-124271499D01*
X160338483Y-124265091D01*
X160473331Y-124214796D01*
X160588546Y-124128546D01*
X160674796Y-124013331D01*
X160725091Y-123878483D01*
X160731500Y-123818873D01*
X160731500Y-123818870D01*
X161728500Y-123818870D01*
X161728501Y-123818876D01*
X161734908Y-123878483D01*
X161785202Y-124013328D01*
X161785206Y-124013335D01*
X161871452Y-124128544D01*
X161871455Y-124128547D01*
X161986664Y-124214793D01*
X161986671Y-124214797D01*
X162121517Y-124265091D01*
X162121516Y-124265091D01*
X162128444Y-124265835D01*
X162181127Y-124271500D01*
X165578872Y-124271499D01*
X165638483Y-124265091D01*
X165773331Y-124214796D01*
X165888546Y-124128546D01*
X165974796Y-124013331D01*
X166025091Y-123878483D01*
X166031500Y-123818873D01*
X166031499Y-120421128D01*
X166025091Y-120361517D01*
X165974796Y-120226669D01*
X165974795Y-120226668D01*
X165974793Y-120226664D01*
X165888547Y-120111455D01*
X165888544Y-120111452D01*
X165773335Y-120025206D01*
X165773328Y-120025202D01*
X165638482Y-119974908D01*
X165638483Y-119974908D01*
X165578883Y-119968501D01*
X165578881Y-119968500D01*
X165578873Y-119968500D01*
X165578864Y-119968500D01*
X162181129Y-119968500D01*
X162181123Y-119968501D01*
X162121516Y-119974908D01*
X161986671Y-120025202D01*
X161986664Y-120025206D01*
X161871455Y-120111452D01*
X161871452Y-120111455D01*
X161785206Y-120226664D01*
X161785202Y-120226671D01*
X161734908Y-120361517D01*
X161728501Y-120421116D01*
X161728501Y-120421123D01*
X161728500Y-120421135D01*
X161728500Y-123818870D01*
X160731500Y-123818870D01*
X160731499Y-120421128D01*
X160725091Y-120361517D01*
X160674796Y-120226669D01*
X160674795Y-120226668D01*
X160674793Y-120226664D01*
X160588547Y-120111455D01*
X160588544Y-120111452D01*
X160473335Y-120025206D01*
X160473328Y-120025202D01*
X160338482Y-119974908D01*
X160338483Y-119974908D01*
X160278883Y-119968501D01*
X160278881Y-119968500D01*
X160278873Y-119968500D01*
X160278864Y-119968500D01*
X156881129Y-119968500D01*
X156881123Y-119968501D01*
X156821516Y-119974908D01*
X156686671Y-120025202D01*
X156686664Y-120025206D01*
X156571455Y-120111452D01*
X156571452Y-120111455D01*
X156485206Y-120226664D01*
X156485202Y-120226671D01*
X156434908Y-120361517D01*
X156428501Y-120421116D01*
X156428501Y-120421123D01*
X156428500Y-120421135D01*
X156428500Y-123818870D01*
X155431500Y-123818870D01*
X155431499Y-120421128D01*
X155425091Y-120361517D01*
X155374796Y-120226669D01*
X155374795Y-120226668D01*
X155374793Y-120226664D01*
X155288547Y-120111455D01*
X155288544Y-120111452D01*
X155173335Y-120025206D01*
X155173328Y-120025202D01*
X155038482Y-119974908D01*
X155038483Y-119974908D01*
X154978883Y-119968501D01*
X154978881Y-119968500D01*
X154978873Y-119968500D01*
X154978864Y-119968500D01*
X151581129Y-119968500D01*
X151581123Y-119968501D01*
X151521516Y-119974908D01*
X151386671Y-120025202D01*
X151386664Y-120025206D01*
X151271455Y-120111452D01*
X151271452Y-120111455D01*
X151185206Y-120226664D01*
X151185202Y-120226671D01*
X151134908Y-120361517D01*
X151128501Y-120421116D01*
X151128501Y-120421123D01*
X151128500Y-120421135D01*
X151128500Y-123818870D01*
X124960500Y-123818870D01*
X124960500Y-119118870D01*
X151128500Y-119118870D01*
X151128501Y-119118876D01*
X151134908Y-119178483D01*
X151185202Y-119313328D01*
X151185206Y-119313335D01*
X151271452Y-119428544D01*
X151271455Y-119428547D01*
X151386664Y-119514793D01*
X151386671Y-119514797D01*
X151521517Y-119565091D01*
X151521516Y-119565091D01*
X151528444Y-119565835D01*
X151581127Y-119571500D01*
X154978872Y-119571499D01*
X155038483Y-119565091D01*
X155173331Y-119514796D01*
X155288546Y-119428546D01*
X155374796Y-119313331D01*
X155425091Y-119178483D01*
X155431500Y-119118873D01*
X155431500Y-119118844D01*
X156429000Y-119118844D01*
X156435401Y-119178372D01*
X156435403Y-119178379D01*
X156485645Y-119313086D01*
X156485649Y-119313093D01*
X156571809Y-119428187D01*
X156571812Y-119428190D01*
X156686906Y-119514350D01*
X156686913Y-119514354D01*
X156821620Y-119564596D01*
X156821627Y-119564598D01*
X156881155Y-119570999D01*
X156881172Y-119571000D01*
X158330000Y-119571000D01*
X158330000Y-118544511D01*
X158367783Y-118555262D01*
X158526830Y-118570000D01*
X158633170Y-118570000D01*
X158792217Y-118555262D01*
X158830000Y-118544511D01*
X158830000Y-119571000D01*
X160278828Y-119571000D01*
X160278844Y-119570999D01*
X160338372Y-119564598D01*
X160338379Y-119564596D01*
X160473086Y-119514354D01*
X160473093Y-119514350D01*
X160588187Y-119428190D01*
X160588190Y-119428187D01*
X160674350Y-119313093D01*
X160674354Y-119313086D01*
X160724596Y-119178379D01*
X160724598Y-119178372D01*
X160730996Y-119118870D01*
X161728500Y-119118870D01*
X161728501Y-119118876D01*
X161734908Y-119178483D01*
X161785202Y-119313328D01*
X161785206Y-119313335D01*
X161871452Y-119428544D01*
X161871455Y-119428547D01*
X161986664Y-119514793D01*
X161986671Y-119514797D01*
X162121517Y-119565091D01*
X162121516Y-119565091D01*
X162128444Y-119565835D01*
X162181127Y-119571500D01*
X165578872Y-119571499D01*
X165638483Y-119565091D01*
X165773331Y-119514796D01*
X165888546Y-119428546D01*
X165974796Y-119313331D01*
X166025091Y-119178483D01*
X166031500Y-119118873D01*
X166031499Y-115721128D01*
X166025091Y-115661517D01*
X166007146Y-115613405D01*
X165974797Y-115526671D01*
X165974793Y-115526664D01*
X165888547Y-115411455D01*
X165888544Y-115411452D01*
X165773335Y-115325206D01*
X165773328Y-115325202D01*
X165638482Y-115274908D01*
X165638483Y-115274908D01*
X165578883Y-115268501D01*
X165578881Y-115268500D01*
X165578873Y-115268500D01*
X165578864Y-115268500D01*
X162181129Y-115268500D01*
X162181123Y-115268501D01*
X162121516Y-115274908D01*
X161986671Y-115325202D01*
X161986664Y-115325206D01*
X161871455Y-115411452D01*
X161871452Y-115411455D01*
X161785206Y-115526664D01*
X161785202Y-115526671D01*
X161734908Y-115661517D01*
X161728501Y-115721116D01*
X161728501Y-115721123D01*
X161728500Y-115721135D01*
X161728500Y-119118870D01*
X160730996Y-119118870D01*
X160730999Y-119118844D01*
X160731000Y-119118827D01*
X160731000Y-117670000D01*
X159703187Y-117670000D01*
X159730000Y-117526563D01*
X159730000Y-117313437D01*
X159703187Y-117170000D01*
X160731000Y-117170000D01*
X160731000Y-115721172D01*
X160730999Y-115721155D01*
X160724598Y-115661627D01*
X160724596Y-115661620D01*
X160674354Y-115526913D01*
X160674350Y-115526906D01*
X160588190Y-115411812D01*
X160588187Y-115411809D01*
X160473093Y-115325649D01*
X160473086Y-115325645D01*
X160338379Y-115275403D01*
X160338372Y-115275401D01*
X160278844Y-115269000D01*
X158830000Y-115269000D01*
X158830000Y-116295488D01*
X158792217Y-116284738D01*
X158633170Y-116270000D01*
X158526830Y-116270000D01*
X158367783Y-116284738D01*
X158330000Y-116295488D01*
X158330000Y-115269000D01*
X156881155Y-115269000D01*
X156821627Y-115275401D01*
X156821620Y-115275403D01*
X156686913Y-115325645D01*
X156686906Y-115325649D01*
X156571812Y-115411809D01*
X156571809Y-115411812D01*
X156485649Y-115526906D01*
X156485645Y-115526913D01*
X156435403Y-115661620D01*
X156435401Y-115661627D01*
X156429000Y-115721155D01*
X156429000Y-117170000D01*
X157456813Y-117170000D01*
X157430000Y-117313437D01*
X157430000Y-117526563D01*
X157456813Y-117670000D01*
X156429000Y-117670000D01*
X156429000Y-119118844D01*
X155431500Y-119118844D01*
X155431499Y-115721128D01*
X155425091Y-115661517D01*
X155407146Y-115613405D01*
X155374797Y-115526671D01*
X155374793Y-115526664D01*
X155288547Y-115411455D01*
X155288544Y-115411452D01*
X155173335Y-115325206D01*
X155173328Y-115325202D01*
X155038482Y-115274908D01*
X155038483Y-115274908D01*
X154978883Y-115268501D01*
X154978881Y-115268500D01*
X154978873Y-115268500D01*
X154978864Y-115268500D01*
X151581129Y-115268500D01*
X151581123Y-115268501D01*
X151521516Y-115274908D01*
X151386671Y-115325202D01*
X151386664Y-115325206D01*
X151271455Y-115411452D01*
X151271452Y-115411455D01*
X151185206Y-115526664D01*
X151185202Y-115526671D01*
X151134908Y-115661517D01*
X151128501Y-115721116D01*
X151128501Y-115721123D01*
X151128500Y-115721135D01*
X151128500Y-119118870D01*
X124960500Y-119118870D01*
X124960500Y-114300001D01*
X127534390Y-114300001D01*
X127554804Y-114585433D01*
X127615628Y-114865037D01*
X127615630Y-114865043D01*
X127615631Y-114865046D01*
X127715633Y-115133161D01*
X127715635Y-115133166D01*
X127852770Y-115384309D01*
X127852775Y-115384317D01*
X128024254Y-115613387D01*
X128024270Y-115613405D01*
X128226594Y-115815729D01*
X128226612Y-115815745D01*
X128455682Y-115987224D01*
X128455690Y-115987229D01*
X128706833Y-116124364D01*
X128706832Y-116124364D01*
X128706836Y-116124365D01*
X128706839Y-116124367D01*
X128974954Y-116224369D01*
X128974960Y-116224370D01*
X128974962Y-116224371D01*
X129254566Y-116285195D01*
X129254568Y-116285195D01*
X129254572Y-116285196D01*
X129468552Y-116300500D01*
X129611448Y-116300500D01*
X129825428Y-116285196D01*
X129827534Y-116284738D01*
X130105037Y-116224371D01*
X130105037Y-116224370D01*
X130105046Y-116224369D01*
X130373161Y-116124367D01*
X130624315Y-115987226D01*
X130853395Y-115815739D01*
X131055739Y-115613395D01*
X131227226Y-115384315D01*
X131364367Y-115133161D01*
X131464369Y-114865046D01*
X131475301Y-114814793D01*
X131525195Y-114585433D01*
X131525195Y-114585432D01*
X131525196Y-114585428D01*
X131537108Y-114418870D01*
X151128500Y-114418870D01*
X151128501Y-114418876D01*
X151134908Y-114478483D01*
X151185202Y-114613328D01*
X151185206Y-114613335D01*
X151271452Y-114728544D01*
X151271455Y-114728547D01*
X151386664Y-114814793D01*
X151386671Y-114814797D01*
X151521517Y-114865091D01*
X151521516Y-114865091D01*
X151528444Y-114865835D01*
X151581127Y-114871500D01*
X154978872Y-114871499D01*
X155038483Y-114865091D01*
X155173331Y-114814796D01*
X155288546Y-114728546D01*
X155374796Y-114613331D01*
X155425091Y-114478483D01*
X155431500Y-114418873D01*
X155431500Y-114418870D01*
X156428500Y-114418870D01*
X156428501Y-114418876D01*
X156434908Y-114478483D01*
X156485202Y-114613328D01*
X156485206Y-114613335D01*
X156571452Y-114728544D01*
X156571455Y-114728547D01*
X156686664Y-114814793D01*
X156686671Y-114814797D01*
X156821517Y-114865091D01*
X156821516Y-114865091D01*
X156828444Y-114865835D01*
X156881127Y-114871500D01*
X160278872Y-114871499D01*
X160338483Y-114865091D01*
X160473331Y-114814796D01*
X160588546Y-114728546D01*
X160674796Y-114613331D01*
X160725091Y-114478483D01*
X160731500Y-114418873D01*
X160731500Y-114418870D01*
X161728500Y-114418870D01*
X161728501Y-114418876D01*
X161734908Y-114478483D01*
X161785202Y-114613328D01*
X161785206Y-114613335D01*
X161871452Y-114728544D01*
X161871455Y-114728547D01*
X161986664Y-114814793D01*
X161986671Y-114814797D01*
X162121517Y-114865091D01*
X162121516Y-114865091D01*
X162128444Y-114865835D01*
X162181127Y-114871500D01*
X165578872Y-114871499D01*
X165638483Y-114865091D01*
X165773331Y-114814796D01*
X165888546Y-114728546D01*
X165974796Y-114613331D01*
X166025091Y-114478483D01*
X166031500Y-114418873D01*
X166031500Y-114300001D01*
X185954390Y-114300001D01*
X185974804Y-114585433D01*
X186035628Y-114865037D01*
X186035630Y-114865043D01*
X186035631Y-114865046D01*
X186135633Y-115133161D01*
X186135635Y-115133166D01*
X186272770Y-115384309D01*
X186272775Y-115384317D01*
X186444254Y-115613387D01*
X186444270Y-115613405D01*
X186646594Y-115815729D01*
X186646612Y-115815745D01*
X186875682Y-115987224D01*
X186875690Y-115987229D01*
X187126833Y-116124364D01*
X187126832Y-116124364D01*
X187126836Y-116124365D01*
X187126839Y-116124367D01*
X187394954Y-116224369D01*
X187394960Y-116224370D01*
X187394962Y-116224371D01*
X187674566Y-116285195D01*
X187674568Y-116285195D01*
X187674572Y-116285196D01*
X187888552Y-116300500D01*
X188031448Y-116300500D01*
X188245428Y-116285196D01*
X188247534Y-116284738D01*
X188525037Y-116224371D01*
X188525037Y-116224370D01*
X188525046Y-116224369D01*
X188793161Y-116124367D01*
X189044315Y-115987226D01*
X189273395Y-115815739D01*
X189475739Y-115613395D01*
X189647226Y-115384315D01*
X189784367Y-115133161D01*
X189884369Y-114865046D01*
X189895301Y-114814793D01*
X189945195Y-114585433D01*
X189945195Y-114585432D01*
X189945196Y-114585428D01*
X189965610Y-114300000D01*
X189945196Y-114014572D01*
X189884369Y-113734954D01*
X189784367Y-113466839D01*
X189647226Y-113215685D01*
X189647224Y-113215682D01*
X189475745Y-112986612D01*
X189475729Y-112986594D01*
X189273405Y-112784270D01*
X189273387Y-112784254D01*
X189044317Y-112612775D01*
X189044309Y-112612770D01*
X188793166Y-112475635D01*
X188793167Y-112475635D01*
X188685915Y-112435632D01*
X188525046Y-112375631D01*
X188525043Y-112375630D01*
X188525037Y-112375628D01*
X188245433Y-112314804D01*
X188031448Y-112299500D01*
X187888552Y-112299500D01*
X187674566Y-112314804D01*
X187394962Y-112375628D01*
X187126833Y-112475635D01*
X186875690Y-112612770D01*
X186875682Y-112612775D01*
X186646612Y-112784254D01*
X186646594Y-112784270D01*
X186444270Y-112986594D01*
X186444254Y-112986612D01*
X186272775Y-113215682D01*
X186272770Y-113215690D01*
X186135635Y-113466833D01*
X186035628Y-113734962D01*
X185974804Y-114014566D01*
X185954390Y-114299998D01*
X185954390Y-114300001D01*
X166031500Y-114300001D01*
X166031499Y-111021128D01*
X166025091Y-110961517D01*
X165974796Y-110826669D01*
X165974795Y-110826668D01*
X165974793Y-110826664D01*
X165888547Y-110711455D01*
X165888544Y-110711452D01*
X165773335Y-110625206D01*
X165773328Y-110625202D01*
X165638482Y-110574908D01*
X165638483Y-110574908D01*
X165578883Y-110568501D01*
X165578881Y-110568500D01*
X165578873Y-110568500D01*
X165578864Y-110568500D01*
X162181129Y-110568500D01*
X162181123Y-110568501D01*
X162121516Y-110574908D01*
X161986671Y-110625202D01*
X161986664Y-110625206D01*
X161871455Y-110711452D01*
X161871452Y-110711455D01*
X161785206Y-110826664D01*
X161785202Y-110826671D01*
X161734908Y-110961517D01*
X161728501Y-111021116D01*
X161728501Y-111021123D01*
X161728500Y-111021135D01*
X161728500Y-114418870D01*
X160731500Y-114418870D01*
X160731499Y-111021128D01*
X160725091Y-110961517D01*
X160674796Y-110826669D01*
X160674795Y-110826668D01*
X160674793Y-110826664D01*
X160588547Y-110711455D01*
X160588544Y-110711452D01*
X160473335Y-110625206D01*
X160473328Y-110625202D01*
X160338482Y-110574908D01*
X160338483Y-110574908D01*
X160278883Y-110568501D01*
X160278881Y-110568500D01*
X160278873Y-110568500D01*
X160278864Y-110568500D01*
X156881129Y-110568500D01*
X156881123Y-110568501D01*
X156821516Y-110574908D01*
X156686671Y-110625202D01*
X156686664Y-110625206D01*
X156571455Y-110711452D01*
X156571452Y-110711455D01*
X156485206Y-110826664D01*
X156485202Y-110826671D01*
X156434908Y-110961517D01*
X156428501Y-111021116D01*
X156428501Y-111021123D01*
X156428500Y-111021135D01*
X156428500Y-114418870D01*
X155431500Y-114418870D01*
X155431499Y-111021128D01*
X155425091Y-110961517D01*
X155374796Y-110826669D01*
X155374795Y-110826668D01*
X155374793Y-110826664D01*
X155288547Y-110711455D01*
X155288544Y-110711452D01*
X155173335Y-110625206D01*
X155173328Y-110625202D01*
X155038482Y-110574908D01*
X155038483Y-110574908D01*
X154978883Y-110568501D01*
X154978881Y-110568500D01*
X154978873Y-110568500D01*
X154978864Y-110568500D01*
X151581129Y-110568500D01*
X151581123Y-110568501D01*
X151521516Y-110574908D01*
X151386671Y-110625202D01*
X151386664Y-110625206D01*
X151271455Y-110711452D01*
X151271452Y-110711455D01*
X151185206Y-110826664D01*
X151185202Y-110826671D01*
X151134908Y-110961517D01*
X151128501Y-111021116D01*
X151128501Y-111021123D01*
X151128500Y-111021135D01*
X151128500Y-114418870D01*
X131537108Y-114418870D01*
X131545610Y-114300000D01*
X131525196Y-114014572D01*
X131464369Y-113734954D01*
X131364367Y-113466839D01*
X131227226Y-113215685D01*
X131227224Y-113215682D01*
X131055745Y-112986612D01*
X131055729Y-112986594D01*
X130853405Y-112784270D01*
X130853387Y-112784254D01*
X130624317Y-112612775D01*
X130624309Y-112612770D01*
X130373166Y-112475635D01*
X130373167Y-112475635D01*
X130265915Y-112435632D01*
X130105046Y-112375631D01*
X130105043Y-112375630D01*
X130105037Y-112375628D01*
X129825433Y-112314804D01*
X129611448Y-112299500D01*
X129468552Y-112299500D01*
X129254566Y-112314804D01*
X128974962Y-112375628D01*
X128706833Y-112475635D01*
X128455690Y-112612770D01*
X128455682Y-112612775D01*
X128226612Y-112784254D01*
X128226594Y-112784270D01*
X128024270Y-112986594D01*
X128024254Y-112986612D01*
X127852775Y-113215682D01*
X127852770Y-113215690D01*
X127715635Y-113466833D01*
X127615628Y-113734962D01*
X127554804Y-114014566D01*
X127534390Y-114299998D01*
X127534390Y-114300001D01*
X124960500Y-114300001D01*
X124960500Y-99060001D01*
X146014532Y-99060001D01*
X146034364Y-99286686D01*
X146034366Y-99286697D01*
X146093258Y-99506488D01*
X146093261Y-99506497D01*
X146189431Y-99712732D01*
X146189432Y-99712734D01*
X146319954Y-99899141D01*
X146480858Y-100060045D01*
X146480861Y-100060047D01*
X146667266Y-100190568D01*
X146873504Y-100286739D01*
X147093308Y-100345635D01*
X147255230Y-100359801D01*
X147319998Y-100365468D01*
X147320000Y-100365468D01*
X147320002Y-100365468D01*
X147376673Y-100360509D01*
X147546692Y-100345635D01*
X147766496Y-100286739D01*
X147972734Y-100190568D01*
X148159139Y-100060047D01*
X148320047Y-99899139D01*
X148450568Y-99712734D01*
X148546739Y-99506496D01*
X148605635Y-99286692D01*
X148625468Y-99060000D01*
X148605635Y-98833308D01*
X148546739Y-98613504D01*
X148450568Y-98407266D01*
X148320047Y-98220861D01*
X148320045Y-98220858D01*
X148159140Y-98059953D01*
X147998377Y-97947386D01*
X147954752Y-97892809D01*
X147945500Y-97845811D01*
X147945500Y-96520006D01*
X157174700Y-96520006D01*
X157193864Y-96751297D01*
X157193866Y-96751308D01*
X157250842Y-96976300D01*
X157344075Y-97188848D01*
X157471016Y-97383147D01*
X157471019Y-97383151D01*
X157471021Y-97383153D01*
X157565803Y-97486114D01*
X157596724Y-97548767D01*
X157588864Y-97618193D01*
X157544716Y-97672348D01*
X157517906Y-97686277D01*
X157437669Y-97716203D01*
X157437664Y-97716206D01*
X157322455Y-97802452D01*
X157322452Y-97802455D01*
X157236206Y-97917664D01*
X157236202Y-97917671D01*
X157185908Y-98052517D01*
X157179501Y-98112116D01*
X157179501Y-98112123D01*
X157179500Y-98112135D01*
X157179500Y-100007870D01*
X157179501Y-100007876D01*
X157185908Y-100067483D01*
X157236202Y-100202328D01*
X157236206Y-100202335D01*
X157322452Y-100317544D01*
X157322455Y-100317547D01*
X157437664Y-100403793D01*
X157437671Y-100403797D01*
X157572517Y-100454091D01*
X157572516Y-100454091D01*
X157579444Y-100454835D01*
X157632127Y-100460500D01*
X159527872Y-100460499D01*
X159587483Y-100454091D01*
X159722331Y-100403796D01*
X159837546Y-100317546D01*
X159923796Y-100202331D01*
X159974091Y-100067483D01*
X159980500Y-100007873D01*
X159980499Y-98112128D01*
X159974091Y-98052517D01*
X159928183Y-97929432D01*
X159923797Y-97917671D01*
X159923793Y-97917664D01*
X159837547Y-97802455D01*
X159837544Y-97802452D01*
X159722335Y-97716206D01*
X159722328Y-97716202D01*
X159642094Y-97686277D01*
X159586160Y-97644406D01*
X159561743Y-97578941D01*
X159576595Y-97510668D01*
X159594190Y-97486121D01*
X159688979Y-97383153D01*
X159815924Y-97188849D01*
X159909157Y-96976300D01*
X159966134Y-96751305D01*
X159985300Y-96520000D01*
X159985300Y-96519993D01*
X159966135Y-96288702D01*
X159966133Y-96288691D01*
X159909157Y-96063699D01*
X159815924Y-95851151D01*
X159688983Y-95656852D01*
X159688980Y-95656849D01*
X159688979Y-95656847D01*
X159531784Y-95486087D01*
X159531779Y-95486083D01*
X159531777Y-95486081D01*
X159348634Y-95343535D01*
X159348628Y-95343531D01*
X159144504Y-95233064D01*
X159144495Y-95233061D01*
X158924984Y-95157702D01*
X158753282Y-95129050D01*
X158696049Y-95119500D01*
X158463951Y-95119500D01*
X158418164Y-95127140D01*
X158235015Y-95157702D01*
X158015504Y-95233061D01*
X158015495Y-95233064D01*
X157811371Y-95343531D01*
X157811365Y-95343535D01*
X157628222Y-95486081D01*
X157628219Y-95486084D01*
X157471016Y-95656852D01*
X157344075Y-95851151D01*
X157250842Y-96063699D01*
X157193866Y-96288691D01*
X157193864Y-96288702D01*
X157174700Y-96519993D01*
X157174700Y-96520006D01*
X147945500Y-96520006D01*
X147945500Y-94290452D01*
X147965185Y-94223413D01*
X147981819Y-94202771D01*
X148705391Y-93479199D01*
X150243788Y-91940801D01*
X150256042Y-91930986D01*
X150255859Y-91930764D01*
X150261866Y-91925792D01*
X150261877Y-91925786D01*
X150292775Y-91892882D01*
X150309227Y-91875364D01*
X150319671Y-91864918D01*
X150330120Y-91854471D01*
X150334379Y-91848978D01*
X150338152Y-91844561D01*
X150370062Y-91810582D01*
X150379713Y-91793024D01*
X150390396Y-91776761D01*
X150402673Y-91760936D01*
X150421185Y-91718153D01*
X150423738Y-91712941D01*
X150446197Y-91672092D01*
X150451180Y-91652680D01*
X150457481Y-91634280D01*
X150465437Y-91615896D01*
X150472729Y-91569852D01*
X150473906Y-91564171D01*
X150485500Y-91519019D01*
X150485500Y-91498983D01*
X150487027Y-91479582D01*
X150490160Y-91459804D01*
X150485775Y-91413415D01*
X150485500Y-91407577D01*
X150485500Y-88900001D01*
X176494532Y-88900001D01*
X176514364Y-89126686D01*
X176514366Y-89126697D01*
X176573258Y-89346488D01*
X176573261Y-89346497D01*
X176669431Y-89552732D01*
X176669432Y-89552734D01*
X176799954Y-89739141D01*
X176960858Y-89900045D01*
X176960861Y-89900047D01*
X177147266Y-90030568D01*
X177353504Y-90126739D01*
X177573308Y-90185635D01*
X177735230Y-90199801D01*
X177799998Y-90205468D01*
X177800000Y-90205468D01*
X177800002Y-90205468D01*
X177856673Y-90200509D01*
X178026692Y-90185635D01*
X178246496Y-90126739D01*
X178452734Y-90030568D01*
X178639139Y-89900047D01*
X178800047Y-89739139D01*
X178930568Y-89552734D01*
X179026739Y-89346496D01*
X179085635Y-89126692D01*
X179105468Y-88900000D01*
X179085635Y-88673308D01*
X179026739Y-88453504D01*
X178930568Y-88247266D01*
X178800047Y-88060861D01*
X178639139Y-87899953D01*
X178634373Y-87896615D01*
X178603375Y-87874910D01*
X178559751Y-87820332D01*
X178550500Y-87773336D01*
X178550500Y-79102229D01*
X178570185Y-79035190D01*
X178586819Y-79014548D01*
X181870699Y-75730668D01*
X185154652Y-72446714D01*
X185215973Y-72413231D01*
X185253135Y-72410869D01*
X185396366Y-72423400D01*
X185419999Y-72425468D01*
X185420000Y-72425468D01*
X185420002Y-72425468D01*
X185476673Y-72420509D01*
X185646692Y-72405635D01*
X185866496Y-72346739D01*
X186072734Y-72250568D01*
X186259139Y-72120047D01*
X186420047Y-71959139D01*
X186550568Y-71772734D01*
X186646739Y-71566496D01*
X186705635Y-71346692D01*
X186725468Y-71120000D01*
X186705635Y-70893308D01*
X186646739Y-70673504D01*
X186550568Y-70467266D01*
X186420047Y-70280861D01*
X186420045Y-70280858D01*
X186259141Y-70119954D01*
X186072734Y-69989432D01*
X186072732Y-69989431D01*
X185866497Y-69893261D01*
X185866488Y-69893258D01*
X185646697Y-69834366D01*
X185646693Y-69834365D01*
X185646692Y-69834365D01*
X185646691Y-69834364D01*
X185646686Y-69834364D01*
X185420002Y-69814532D01*
X185419998Y-69814532D01*
X185193313Y-69834364D01*
X185193302Y-69834366D01*
X184973511Y-69893258D01*
X184973502Y-69893261D01*
X184767267Y-69989431D01*
X184767265Y-69989432D01*
X184580858Y-70119954D01*
X184419954Y-70280858D01*
X184289432Y-70467265D01*
X184289431Y-70467267D01*
X184193261Y-70673502D01*
X184193258Y-70673511D01*
X184134366Y-70893302D01*
X184134364Y-70893313D01*
X184114532Y-71119998D01*
X184114532Y-71120003D01*
X184129129Y-71286861D01*
X184115362Y-71355360D01*
X184093282Y-71385348D01*
X177314358Y-78164272D01*
X177300729Y-78176051D01*
X177281468Y-78190390D01*
X177247898Y-78230397D01*
X177244253Y-78234376D01*
X177238409Y-78240222D01*
X177218059Y-78265959D01*
X177168695Y-78324789D01*
X177164729Y-78330819D01*
X177164682Y-78330788D01*
X177160630Y-78337147D01*
X177160679Y-78337177D01*
X177156889Y-78343321D01*
X177124424Y-78412941D01*
X177089960Y-78481566D01*
X177087488Y-78488357D01*
X177087432Y-78488336D01*
X177084960Y-78495450D01*
X177085015Y-78495469D01*
X177082742Y-78502327D01*
X177074975Y-78539946D01*
X177067207Y-78577565D01*
X177054001Y-78633284D01*
X177049498Y-78652286D01*
X177048661Y-78659454D01*
X177048601Y-78659447D01*
X177047835Y-78666945D01*
X177047895Y-78666951D01*
X177047265Y-78674140D01*
X177049500Y-78750916D01*
X177049500Y-87773336D01*
X177029815Y-87840375D01*
X176996625Y-87874910D01*
X176960863Y-87899951D01*
X176799951Y-88060862D01*
X176669432Y-88247265D01*
X176669431Y-88247267D01*
X176573261Y-88453502D01*
X176573258Y-88453511D01*
X176514366Y-88673302D01*
X176514364Y-88673313D01*
X176494532Y-88899998D01*
X176494532Y-88900001D01*
X150485500Y-88900001D01*
X150485500Y-59792870D01*
X178887000Y-59792870D01*
X178887001Y-59792876D01*
X178893408Y-59852483D01*
X178943702Y-59987328D01*
X178943706Y-59987335D01*
X179029952Y-60102544D01*
X179029955Y-60102547D01*
X179145164Y-60188793D01*
X179145171Y-60188797D01*
X179280017Y-60239091D01*
X179280016Y-60239091D01*
X179286944Y-60239835D01*
X179339627Y-60245500D01*
X181340372Y-60245499D01*
X181399983Y-60239091D01*
X181534831Y-60188796D01*
X181650046Y-60102546D01*
X181736296Y-59987331D01*
X181736297Y-59987328D01*
X181736298Y-59987327D01*
X181747907Y-59956199D01*
X181789776Y-59900264D01*
X181855240Y-59875844D01*
X181923513Y-59890694D01*
X181940252Y-59901675D01*
X182082831Y-60012649D01*
X182082840Y-60012655D01*
X182294531Y-60127215D01*
X182294545Y-60127221D01*
X182522207Y-60205379D01*
X182630000Y-60223366D01*
X182630000Y-59236683D01*
X182658819Y-59254209D01*
X182804404Y-59295000D01*
X182917622Y-59295000D01*
X183029783Y-59279584D01*
X183130000Y-59236053D01*
X183130000Y-60223365D01*
X183237792Y-60205379D01*
X183465454Y-60127221D01*
X183465468Y-60127215D01*
X183677159Y-60012655D01*
X183677168Y-60012649D01*
X183867116Y-59864806D01*
X183867126Y-59864797D01*
X184030154Y-59687702D01*
X184030155Y-59687701D01*
X184045891Y-59663616D01*
X184099036Y-59618258D01*
X184168267Y-59608833D01*
X184231604Y-59638333D01*
X184253510Y-59663614D01*
X184269446Y-59688007D01*
X184269448Y-59688009D01*
X184269449Y-59688010D01*
X184432537Y-59865171D01*
X184554315Y-59959954D01*
X184622017Y-60012649D01*
X184622561Y-60013072D01*
X184787891Y-60102544D01*
X184833478Y-60127215D01*
X184834336Y-60127679D01*
X184952598Y-60168278D01*
X185062083Y-60205865D01*
X185062085Y-60205865D01*
X185062087Y-60205866D01*
X185299601Y-60245500D01*
X185299602Y-60245500D01*
X185540398Y-60245500D01*
X185540399Y-60245500D01*
X185777913Y-60205866D01*
X186005664Y-60127679D01*
X186217439Y-60013072D01*
X186407463Y-59865171D01*
X186570551Y-59688010D01*
X186702255Y-59486422D01*
X186798983Y-59265905D01*
X186858095Y-59032476D01*
X186873000Y-58852600D01*
X186873000Y-58637400D01*
X186858095Y-58457524D01*
X186798983Y-58224095D01*
X186702255Y-58003578D01*
X186570551Y-57801990D01*
X186407463Y-57624829D01*
X186250505Y-57502664D01*
X186217441Y-57476929D01*
X186005665Y-57362321D01*
X186005656Y-57362318D01*
X185777916Y-57284134D01*
X185578800Y-57250908D01*
X185540399Y-57244500D01*
X185299601Y-57244500D01*
X185261200Y-57250908D01*
X185062083Y-57284134D01*
X184834343Y-57362318D01*
X184834334Y-57362321D01*
X184622558Y-57476929D01*
X184526195Y-57551932D01*
X184432537Y-57624829D01*
X184432534Y-57624831D01*
X184432534Y-57624832D01*
X184269450Y-57801988D01*
X184269446Y-57801994D01*
X184253507Y-57826389D01*
X184200359Y-57871744D01*
X184131127Y-57881165D01*
X184067793Y-57851661D01*
X184045892Y-57826385D01*
X184030154Y-57802296D01*
X183867126Y-57625202D01*
X183867116Y-57625193D01*
X183677168Y-57477350D01*
X183677159Y-57477344D01*
X183465468Y-57362784D01*
X183465454Y-57362778D01*
X183237791Y-57284619D01*
X183130000Y-57266633D01*
X183130000Y-58253316D01*
X183101181Y-58235791D01*
X182955596Y-58195000D01*
X182842378Y-58195000D01*
X182730217Y-58210416D01*
X182630000Y-58253946D01*
X182630000Y-57266633D01*
X182629999Y-57266633D01*
X182522208Y-57284619D01*
X182294545Y-57362778D01*
X182294531Y-57362784D01*
X182082840Y-57477344D01*
X182082838Y-57477345D01*
X181940252Y-57588325D01*
X181875258Y-57613967D01*
X181806718Y-57600400D01*
X181756393Y-57551932D01*
X181747907Y-57533801D01*
X181736297Y-57502671D01*
X181736293Y-57502664D01*
X181650047Y-57387455D01*
X181650044Y-57387452D01*
X181534835Y-57301206D01*
X181534828Y-57301202D01*
X181399982Y-57250908D01*
X181399983Y-57250908D01*
X181340383Y-57244501D01*
X181340381Y-57244500D01*
X181340373Y-57244500D01*
X181340364Y-57244500D01*
X179339629Y-57244500D01*
X179339623Y-57244501D01*
X179280016Y-57250908D01*
X179145171Y-57301202D01*
X179145164Y-57301206D01*
X179029955Y-57387452D01*
X179029952Y-57387455D01*
X178943706Y-57502664D01*
X178943702Y-57502671D01*
X178893408Y-57637517D01*
X178887001Y-57697116D01*
X178887000Y-57697135D01*
X178887000Y-59792870D01*
X150485500Y-59792870D01*
X150485500Y-58502737D01*
X150487224Y-58487123D01*
X150486938Y-58487096D01*
X150487672Y-58479333D01*
X150485500Y-58410202D01*
X150485500Y-58380651D01*
X150485500Y-58380650D01*
X150484629Y-58373759D01*
X150484172Y-58367945D01*
X150482709Y-58321374D01*
X150482709Y-58321372D01*
X150477120Y-58302137D01*
X150473174Y-58283084D01*
X150470664Y-58263208D01*
X150453501Y-58219859D01*
X150451614Y-58214346D01*
X150450472Y-58210416D01*
X150438617Y-58169610D01*
X150428421Y-58152369D01*
X150419860Y-58134893D01*
X150412486Y-58116269D01*
X150412486Y-58116267D01*
X150402474Y-58102488D01*
X150385083Y-58078550D01*
X150381900Y-58073705D01*
X150358170Y-58033579D01*
X150358165Y-58033573D01*
X150344005Y-58019413D01*
X150331370Y-58004620D01*
X150319593Y-57988412D01*
X150283693Y-57958713D01*
X150279381Y-57954790D01*
X148619413Y-56294822D01*
X148585928Y-56233499D01*
X148587319Y-56175048D01*
X148605635Y-56106692D01*
X148625468Y-55880000D01*
X148605635Y-55653308D01*
X148546739Y-55433504D01*
X148450568Y-55227266D01*
X148320047Y-55040861D01*
X148320045Y-55040858D01*
X148159141Y-54879954D01*
X147972734Y-54749432D01*
X147972732Y-54749431D01*
X147766497Y-54653261D01*
X147766488Y-54653258D01*
X147546697Y-54594366D01*
X147546693Y-54594365D01*
X147546692Y-54594365D01*
X147546691Y-54594364D01*
X147546686Y-54594364D01*
X147320002Y-54574532D01*
X147319998Y-54574532D01*
X147093313Y-54594364D01*
X147093302Y-54594366D01*
X146873511Y-54653258D01*
X146873502Y-54653261D01*
X146667267Y-54749431D01*
X146667265Y-54749432D01*
X146480858Y-54879954D01*
X146319954Y-55040858D01*
X146189432Y-55227265D01*
X146189431Y-55227267D01*
X146093261Y-55433502D01*
X146093258Y-55433511D01*
X146034366Y-55653302D01*
X146034364Y-55653313D01*
X146014532Y-55879998D01*
X146014532Y-55880001D01*
X146034364Y-56106686D01*
X146034366Y-56106697D01*
X146093258Y-56326488D01*
X146093261Y-56326497D01*
X146189431Y-56532732D01*
X146189432Y-56532734D01*
X146319954Y-56719141D01*
X146480858Y-56880045D01*
X146480861Y-56880047D01*
X146667266Y-57010568D01*
X146873504Y-57106739D01*
X147093308Y-57165635D01*
X147250791Y-57179413D01*
X147319998Y-57185468D01*
X147320000Y-57185468D01*
X147320002Y-57185468D01*
X147376673Y-57180509D01*
X147546692Y-57165635D01*
X147615048Y-57147319D01*
X147684897Y-57148982D01*
X147734822Y-57179413D01*
X149198181Y-58642771D01*
X149231666Y-58704094D01*
X149234500Y-58730452D01*
X149234500Y-91129546D01*
X149214815Y-91196585D01*
X149198181Y-91217227D01*
X146936208Y-93479199D01*
X146923951Y-93489020D01*
X146924134Y-93489241D01*
X146918123Y-93494213D01*
X146870772Y-93544636D01*
X146849889Y-93565519D01*
X146849877Y-93565532D01*
X146845621Y-93571017D01*
X146841837Y-93575447D01*
X146809937Y-93609418D01*
X146809936Y-93609420D01*
X146800284Y-93626976D01*
X146789610Y-93643226D01*
X146777329Y-93659061D01*
X146777324Y-93659068D01*
X146758815Y-93701838D01*
X146756245Y-93707084D01*
X146733803Y-93747906D01*
X146728822Y-93767307D01*
X146722521Y-93785710D01*
X146714562Y-93804102D01*
X146714561Y-93804105D01*
X146707271Y-93850127D01*
X146706087Y-93855846D01*
X146694501Y-93900972D01*
X146694500Y-93900982D01*
X146694500Y-93921016D01*
X146692973Y-93940415D01*
X146689840Y-93960194D01*
X146689840Y-93960195D01*
X146694225Y-94006583D01*
X146694500Y-94012421D01*
X146694500Y-97845811D01*
X146674815Y-97912850D01*
X146641623Y-97947386D01*
X146480859Y-98059953D01*
X146319954Y-98220858D01*
X146189432Y-98407265D01*
X146189431Y-98407267D01*
X146093261Y-98613502D01*
X146093258Y-98613511D01*
X146034366Y-98833302D01*
X146034364Y-98833313D01*
X146014532Y-99059998D01*
X146014532Y-99060001D01*
X124960500Y-99060001D01*
X124960500Y-76160002D01*
X141074723Y-76160002D01*
X141093793Y-76377975D01*
X141093793Y-76377979D01*
X141150422Y-76589322D01*
X141150424Y-76589326D01*
X141150425Y-76589330D01*
X141196661Y-76688484D01*
X141242897Y-76787638D01*
X141242898Y-76787639D01*
X141368402Y-76966877D01*
X141523123Y-77121598D01*
X141702361Y-77247102D01*
X141900670Y-77339575D01*
X142112023Y-77396207D01*
X142294926Y-77412208D01*
X142329998Y-77415277D01*
X142330000Y-77415277D01*
X142330002Y-77415277D01*
X142358254Y-77412805D01*
X142547977Y-77396207D01*
X142759330Y-77339575D01*
X142957639Y-77247102D01*
X143136877Y-77121598D01*
X143291598Y-76966877D01*
X143417102Y-76787639D01*
X143509575Y-76589330D01*
X143566207Y-76377977D01*
X143585277Y-76160002D01*
X145954723Y-76160002D01*
X145973793Y-76377975D01*
X145973793Y-76377979D01*
X146030422Y-76589322D01*
X146030424Y-76589326D01*
X146030425Y-76589330D01*
X146076661Y-76688484D01*
X146122897Y-76787638D01*
X146122898Y-76787639D01*
X146248402Y-76966877D01*
X146403123Y-77121598D01*
X146582361Y-77247102D01*
X146780670Y-77339575D01*
X146992023Y-77396207D01*
X147174926Y-77412208D01*
X147209998Y-77415277D01*
X147210000Y-77415277D01*
X147210002Y-77415277D01*
X147238254Y-77412805D01*
X147427977Y-77396207D01*
X147639330Y-77339575D01*
X147837639Y-77247102D01*
X148016877Y-77121598D01*
X148171598Y-76966877D01*
X148297102Y-76787639D01*
X148389575Y-76589330D01*
X148446207Y-76377977D01*
X148465277Y-76160000D01*
X148446207Y-75942023D01*
X148389575Y-75730670D01*
X148297102Y-75532362D01*
X148297100Y-75532359D01*
X148297099Y-75532357D01*
X148171599Y-75353124D01*
X148171596Y-75353121D01*
X148016877Y-75198402D01*
X147837639Y-75072898D01*
X147837640Y-75072898D01*
X147837638Y-75072897D01*
X147738484Y-75026661D01*
X147639330Y-74980425D01*
X147639326Y-74980424D01*
X147639322Y-74980422D01*
X147427977Y-74923793D01*
X147210002Y-74904723D01*
X147209998Y-74904723D01*
X147064682Y-74917436D01*
X146992023Y-74923793D01*
X146992020Y-74923793D01*
X146780677Y-74980422D01*
X146780668Y-74980426D01*
X146582361Y-75072898D01*
X146582357Y-75072900D01*
X146403121Y-75198402D01*
X146248402Y-75353121D01*
X146122900Y-75532357D01*
X146122898Y-75532361D01*
X146030426Y-75730668D01*
X146030422Y-75730677D01*
X145973793Y-75942020D01*
X145973793Y-75942024D01*
X145954723Y-76159997D01*
X145954723Y-76160002D01*
X143585277Y-76160002D01*
X143585277Y-76160000D01*
X143566207Y-75942023D01*
X143509575Y-75730670D01*
X143417102Y-75532362D01*
X143417100Y-75532359D01*
X143417099Y-75532357D01*
X143291599Y-75353124D01*
X143291596Y-75353121D01*
X143136877Y-75198402D01*
X142957639Y-75072898D01*
X142957640Y-75072898D01*
X142957638Y-75072897D01*
X142858484Y-75026661D01*
X142759330Y-74980425D01*
X142759326Y-74980424D01*
X142759322Y-74980422D01*
X142547977Y-74923793D01*
X142330002Y-74904723D01*
X142329998Y-74904723D01*
X142184682Y-74917436D01*
X142112023Y-74923793D01*
X142112020Y-74923793D01*
X141900677Y-74980422D01*
X141900668Y-74980426D01*
X141702361Y-75072898D01*
X141702357Y-75072900D01*
X141523121Y-75198402D01*
X141368402Y-75353121D01*
X141242900Y-75532357D01*
X141242898Y-75532361D01*
X141150426Y-75730668D01*
X141150422Y-75730677D01*
X141093793Y-75942020D01*
X141093793Y-75942024D01*
X141074723Y-76159997D01*
X141074723Y-76160002D01*
X124960500Y-76160002D01*
X124960500Y-60960001D01*
X133314532Y-60960001D01*
X133334364Y-61186686D01*
X133334366Y-61186697D01*
X133393258Y-61406488D01*
X133393261Y-61406497D01*
X133489431Y-61612732D01*
X133489432Y-61612734D01*
X133619954Y-61799141D01*
X133780858Y-61960045D01*
X133780861Y-61960047D01*
X133967266Y-62090568D01*
X134173504Y-62186739D01*
X134393308Y-62245635D01*
X134555230Y-62259801D01*
X134619998Y-62265468D01*
X134620000Y-62265468D01*
X134620002Y-62265468D01*
X134676673Y-62260509D01*
X134846692Y-62245635D01*
X135066496Y-62186739D01*
X135272734Y-62090568D01*
X135459139Y-61960047D01*
X135620047Y-61799139D01*
X135732613Y-61638377D01*
X135787189Y-61594752D01*
X135834188Y-61585500D01*
X136849548Y-61585500D01*
X136916587Y-61605185D01*
X136937229Y-61621819D01*
X138400586Y-63085177D01*
X138434071Y-63146500D01*
X138432680Y-63204949D01*
X138414367Y-63273296D01*
X138414364Y-63273313D01*
X138394532Y-63499999D01*
X138394532Y-63500001D01*
X138414364Y-63726686D01*
X138414366Y-63726697D01*
X138473258Y-63946488D01*
X138473261Y-63946497D01*
X138569431Y-64152732D01*
X138569432Y-64152734D01*
X138699954Y-64339141D01*
X138860858Y-64500045D01*
X138860861Y-64500047D01*
X139047266Y-64630568D01*
X139253504Y-64726739D01*
X139473308Y-64785635D01*
X139635230Y-64799801D01*
X139699998Y-64805468D01*
X139700000Y-64805468D01*
X139700002Y-64805468D01*
X139756673Y-64800509D01*
X139926692Y-64785635D01*
X140146496Y-64726739D01*
X140352734Y-64630568D01*
X140539139Y-64500047D01*
X140700047Y-64339139D01*
X140830568Y-64152734D01*
X140926739Y-63946496D01*
X140985635Y-63726692D01*
X141005468Y-63500000D01*
X140985635Y-63273308D01*
X140926739Y-63053504D01*
X140830568Y-62847266D01*
X140700047Y-62660861D01*
X140700045Y-62660858D01*
X140539141Y-62499954D01*
X140352734Y-62369432D01*
X140352732Y-62369431D01*
X140146497Y-62273261D01*
X140146488Y-62273258D01*
X139926697Y-62214366D01*
X139926693Y-62214365D01*
X139926692Y-62214365D01*
X139926691Y-62214364D01*
X139926686Y-62214364D01*
X139700002Y-62194532D01*
X139699999Y-62194532D01*
X139473313Y-62214364D01*
X139473296Y-62214367D01*
X139404949Y-62232680D01*
X139335099Y-62231016D01*
X139285177Y-62200586D01*
X137660803Y-60576212D01*
X137650980Y-60563950D01*
X137650759Y-60564134D01*
X137645786Y-60558123D01*
X137595364Y-60510773D01*
X137584919Y-60500328D01*
X137574475Y-60489883D01*
X137568986Y-60485625D01*
X137564561Y-60481847D01*
X137530582Y-60449938D01*
X137530580Y-60449936D01*
X137530577Y-60449935D01*
X137513029Y-60440288D01*
X137496763Y-60429604D01*
X137480933Y-60417325D01*
X137438168Y-60398818D01*
X137432922Y-60396248D01*
X137392093Y-60373803D01*
X137392092Y-60373802D01*
X137372693Y-60368822D01*
X137354281Y-60362518D01*
X137335898Y-60354562D01*
X137335892Y-60354560D01*
X137289874Y-60347272D01*
X137284152Y-60346087D01*
X137239021Y-60334500D01*
X137239019Y-60334500D01*
X137218984Y-60334500D01*
X137199586Y-60332973D01*
X137192162Y-60331797D01*
X137179805Y-60329840D01*
X137179804Y-60329840D01*
X137133416Y-60334225D01*
X137127578Y-60334500D01*
X135834188Y-60334500D01*
X135767149Y-60314815D01*
X135732613Y-60281623D01*
X135620045Y-60120858D01*
X135459141Y-59959954D01*
X135272734Y-59829432D01*
X135272732Y-59829431D01*
X135066497Y-59733261D01*
X135066488Y-59733258D01*
X134846697Y-59674366D01*
X134846693Y-59674365D01*
X134846692Y-59674365D01*
X134846691Y-59674364D01*
X134846686Y-59674364D01*
X134620002Y-59654532D01*
X134619998Y-59654532D01*
X134393313Y-59674364D01*
X134393302Y-59674366D01*
X134173511Y-59733258D01*
X134173502Y-59733261D01*
X133967267Y-59829431D01*
X133967265Y-59829432D01*
X133780858Y-59959954D01*
X133619954Y-60120858D01*
X133489432Y-60307265D01*
X133489431Y-60307267D01*
X133393261Y-60513502D01*
X133393258Y-60513511D01*
X133334366Y-60733302D01*
X133334364Y-60733313D01*
X133314532Y-60959998D01*
X133314532Y-60960001D01*
X124960500Y-60960001D01*
X124960500Y-51697844D01*
X151670000Y-51697844D01*
X151676401Y-51757372D01*
X151676403Y-51757379D01*
X151726645Y-51892086D01*
X151726649Y-51892093D01*
X151812809Y-52007187D01*
X151812812Y-52007190D01*
X151927906Y-52093350D01*
X151927913Y-52093354D01*
X152062620Y-52143596D01*
X152062627Y-52143598D01*
X152122155Y-52149999D01*
X152122172Y-52150000D01*
X152770000Y-52150000D01*
X152770000Y-51235501D01*
X152877685Y-51284680D01*
X152984237Y-51300000D01*
X153055763Y-51300000D01*
X153162315Y-51284680D01*
X153270000Y-51235501D01*
X153270000Y-52150000D01*
X153917828Y-52150000D01*
X153917844Y-52149999D01*
X153977372Y-52143598D01*
X153977379Y-52143596D01*
X154112086Y-52093354D01*
X154112093Y-52093350D01*
X154227187Y-52007190D01*
X154227190Y-52007187D01*
X154313350Y-51892093D01*
X154313354Y-51892086D01*
X154362422Y-51760529D01*
X154404293Y-51704595D01*
X154469757Y-51680178D01*
X154538030Y-51695030D01*
X154566285Y-51716181D01*
X154688599Y-51838495D01*
X154785384Y-51906265D01*
X154882165Y-51974032D01*
X154882167Y-51974033D01*
X154882170Y-51974035D01*
X155096337Y-52073903D01*
X155324592Y-52135063D01*
X155501034Y-52150500D01*
X155559999Y-52155659D01*
X155560000Y-52155659D01*
X155560001Y-52155659D01*
X155618966Y-52150500D01*
X155795408Y-52135063D01*
X156023663Y-52073903D01*
X156237830Y-51974035D01*
X156431401Y-51838495D01*
X156598495Y-51671401D01*
X156728425Y-51485842D01*
X156783002Y-51442217D01*
X156852500Y-51435023D01*
X156914855Y-51466546D01*
X156931575Y-51485842D01*
X157061500Y-51671395D01*
X157061505Y-51671401D01*
X157228599Y-51838495D01*
X157325384Y-51906265D01*
X157422165Y-51974032D01*
X157422167Y-51974033D01*
X157422170Y-51974035D01*
X157636337Y-52073903D01*
X157864592Y-52135063D01*
X158041034Y-52150500D01*
X158099999Y-52155659D01*
X158100000Y-52155659D01*
X158100001Y-52155659D01*
X158158966Y-52150500D01*
X158335408Y-52135063D01*
X158563663Y-52073903D01*
X158777830Y-51974035D01*
X158971401Y-51838495D01*
X159138495Y-51671401D01*
X159274035Y-51477830D01*
X159373903Y-51263663D01*
X159431153Y-51050000D01*
X166309364Y-51050000D01*
X166366567Y-51263486D01*
X166366570Y-51263492D01*
X166466399Y-51477578D01*
X166601894Y-51671082D01*
X166768917Y-51838105D01*
X166962421Y-51973600D01*
X167176507Y-52073429D01*
X167176516Y-52073433D01*
X167390000Y-52130634D01*
X167390000Y-51235501D01*
X167497685Y-51284680D01*
X167604237Y-51300000D01*
X167675763Y-51300000D01*
X167782315Y-51284680D01*
X167890000Y-51235501D01*
X167890000Y-52130633D01*
X168103483Y-52073433D01*
X168103492Y-52073429D01*
X168317578Y-51973600D01*
X168511078Y-51838108D01*
X168633133Y-51716053D01*
X168694456Y-51682568D01*
X168764148Y-51687552D01*
X168820082Y-51729423D01*
X168836997Y-51760401D01*
X168886202Y-51892328D01*
X168886206Y-51892335D01*
X168972452Y-52007544D01*
X168972455Y-52007547D01*
X169087664Y-52093793D01*
X169087671Y-52093797D01*
X169222517Y-52144091D01*
X169222516Y-52144091D01*
X169229444Y-52144835D01*
X169282127Y-52150500D01*
X171077872Y-52150499D01*
X171137483Y-52144091D01*
X171272331Y-52093796D01*
X171387546Y-52007546D01*
X171473796Y-51892331D01*
X171524091Y-51757483D01*
X171530500Y-51697873D01*
X171530500Y-51697870D01*
X176449500Y-51697870D01*
X176449501Y-51697876D01*
X176455908Y-51757483D01*
X176506202Y-51892328D01*
X176506206Y-51892335D01*
X176592452Y-52007544D01*
X176592455Y-52007547D01*
X176707664Y-52093793D01*
X176707671Y-52093797D01*
X176842517Y-52144091D01*
X176842516Y-52144091D01*
X176849444Y-52144835D01*
X176902127Y-52150500D01*
X178697872Y-52150499D01*
X178757483Y-52144091D01*
X178892331Y-52093796D01*
X179007546Y-52007546D01*
X179093796Y-51892331D01*
X179142810Y-51760916D01*
X179184681Y-51704984D01*
X179250145Y-51680566D01*
X179318418Y-51695417D01*
X179346673Y-51716569D01*
X179468599Y-51838495D01*
X179565384Y-51906265D01*
X179662165Y-51974032D01*
X179662167Y-51974033D01*
X179662170Y-51974035D01*
X179876337Y-52073903D01*
X180104592Y-52135063D01*
X180281034Y-52150500D01*
X180339999Y-52155659D01*
X180340000Y-52155659D01*
X180340001Y-52155659D01*
X180398966Y-52150500D01*
X180575408Y-52135063D01*
X180803663Y-52073903D01*
X181017830Y-51974035D01*
X181211401Y-51838495D01*
X181378495Y-51671401D01*
X181514035Y-51477830D01*
X181613903Y-51263663D01*
X181675063Y-51035408D01*
X181695659Y-50800000D01*
X181675063Y-50564592D01*
X181613903Y-50336337D01*
X181514035Y-50122171D01*
X181508425Y-50114158D01*
X181378494Y-49928597D01*
X181211402Y-49761506D01*
X181211395Y-49761501D01*
X181017834Y-49625967D01*
X181017830Y-49625965D01*
X180946727Y-49592809D01*
X180803663Y-49526097D01*
X180803659Y-49526096D01*
X180803655Y-49526094D01*
X180575413Y-49464938D01*
X180575403Y-49464936D01*
X180340001Y-49444341D01*
X180339999Y-49444341D01*
X180104596Y-49464936D01*
X180104586Y-49464938D01*
X179876344Y-49526094D01*
X179876335Y-49526098D01*
X179662171Y-49625964D01*
X179662169Y-49625965D01*
X179468600Y-49761503D01*
X179346673Y-49883430D01*
X179285350Y-49916914D01*
X179215658Y-49911930D01*
X179159725Y-49870058D01*
X179142810Y-49839081D01*
X179093797Y-49707671D01*
X179093793Y-49707664D01*
X179007547Y-49592455D01*
X179007544Y-49592452D01*
X178892335Y-49506206D01*
X178892328Y-49506202D01*
X178757482Y-49455908D01*
X178757483Y-49455908D01*
X178697883Y-49449501D01*
X178697881Y-49449500D01*
X178697873Y-49449500D01*
X178697864Y-49449500D01*
X176902129Y-49449500D01*
X176902123Y-49449501D01*
X176842516Y-49455908D01*
X176707671Y-49506202D01*
X176707664Y-49506206D01*
X176592455Y-49592452D01*
X176592452Y-49592455D01*
X176506206Y-49707664D01*
X176506202Y-49707671D01*
X176455908Y-49842517D01*
X176450209Y-49895532D01*
X176449501Y-49902123D01*
X176449500Y-49902135D01*
X176449500Y-51697870D01*
X171530500Y-51697870D01*
X171530499Y-49902128D01*
X171524091Y-49842517D01*
X171523002Y-49839598D01*
X171473797Y-49707671D01*
X171473793Y-49707664D01*
X171387547Y-49592455D01*
X171387544Y-49592452D01*
X171272335Y-49506206D01*
X171272328Y-49506202D01*
X171137482Y-49455908D01*
X171137483Y-49455908D01*
X171077883Y-49449501D01*
X171077881Y-49449500D01*
X171077873Y-49449500D01*
X171077864Y-49449500D01*
X169282129Y-49449500D01*
X169282123Y-49449501D01*
X169222516Y-49455908D01*
X169087671Y-49506202D01*
X169087664Y-49506206D01*
X168972455Y-49592452D01*
X168972452Y-49592455D01*
X168886206Y-49707664D01*
X168886202Y-49707671D01*
X168836997Y-49839598D01*
X168795126Y-49895532D01*
X168729661Y-49919949D01*
X168661388Y-49905097D01*
X168633134Y-49883946D01*
X168511082Y-49761894D01*
X168317578Y-49626399D01*
X168103492Y-49526570D01*
X168103486Y-49526567D01*
X167890000Y-49469364D01*
X167890000Y-50364498D01*
X167782315Y-50315320D01*
X167675763Y-50300000D01*
X167604237Y-50300000D01*
X167497685Y-50315320D01*
X167390000Y-50364498D01*
X167390000Y-49469364D01*
X167389999Y-49469364D01*
X167176513Y-49526567D01*
X167176507Y-49526570D01*
X166962422Y-49626399D01*
X166962420Y-49626400D01*
X166768926Y-49761886D01*
X166768920Y-49761891D01*
X166601891Y-49928920D01*
X166601886Y-49928926D01*
X166466400Y-50122420D01*
X166466399Y-50122422D01*
X166366570Y-50336507D01*
X166366567Y-50336513D01*
X166309364Y-50549999D01*
X166309364Y-50550000D01*
X167206314Y-50550000D01*
X167180507Y-50590156D01*
X167140000Y-50728111D01*
X167140000Y-50871889D01*
X167180507Y-51009844D01*
X167206314Y-51050000D01*
X166309364Y-51050000D01*
X159431153Y-51050000D01*
X159435063Y-51035408D01*
X159455659Y-50800000D01*
X159435063Y-50564592D01*
X159373903Y-50336337D01*
X159274035Y-50122171D01*
X159268425Y-50114158D01*
X159138494Y-49928597D01*
X158971402Y-49761506D01*
X158971395Y-49761501D01*
X158777834Y-49625967D01*
X158777830Y-49625965D01*
X158706727Y-49592809D01*
X158563663Y-49526097D01*
X158563659Y-49526096D01*
X158563655Y-49526094D01*
X158335413Y-49464938D01*
X158335403Y-49464936D01*
X158100001Y-49444341D01*
X158099999Y-49444341D01*
X157864596Y-49464936D01*
X157864586Y-49464938D01*
X157636344Y-49526094D01*
X157636335Y-49526098D01*
X157422171Y-49625964D01*
X157422169Y-49625965D01*
X157228597Y-49761505D01*
X157061505Y-49928597D01*
X156931575Y-50114158D01*
X156876998Y-50157783D01*
X156807500Y-50164977D01*
X156745145Y-50133454D01*
X156728425Y-50114158D01*
X156598494Y-49928597D01*
X156431402Y-49761506D01*
X156431395Y-49761501D01*
X156237834Y-49625967D01*
X156237830Y-49625965D01*
X156166727Y-49592809D01*
X156023663Y-49526097D01*
X156023659Y-49526096D01*
X156023655Y-49526094D01*
X155795413Y-49464938D01*
X155795403Y-49464936D01*
X155560001Y-49444341D01*
X155559999Y-49444341D01*
X155324596Y-49464936D01*
X155324586Y-49464938D01*
X155096344Y-49526094D01*
X155096335Y-49526098D01*
X154882171Y-49625964D01*
X154882169Y-49625965D01*
X154688600Y-49761503D01*
X154566284Y-49883819D01*
X154504961Y-49917303D01*
X154435269Y-49912319D01*
X154379336Y-49870447D01*
X154362421Y-49839470D01*
X154313354Y-49707913D01*
X154313350Y-49707906D01*
X154227190Y-49592812D01*
X154227187Y-49592809D01*
X154112093Y-49506649D01*
X154112086Y-49506645D01*
X153977379Y-49456403D01*
X153977372Y-49456401D01*
X153917844Y-49450000D01*
X153270000Y-49450000D01*
X153270000Y-50364498D01*
X153162315Y-50315320D01*
X153055763Y-50300000D01*
X152984237Y-50300000D01*
X152877685Y-50315320D01*
X152770000Y-50364498D01*
X152770000Y-49450000D01*
X152122155Y-49450000D01*
X152062627Y-49456401D01*
X152062620Y-49456403D01*
X151927913Y-49506645D01*
X151927906Y-49506649D01*
X151812812Y-49592809D01*
X151812809Y-49592812D01*
X151726649Y-49707906D01*
X151726645Y-49707913D01*
X151676403Y-49842620D01*
X151676401Y-49842627D01*
X151670000Y-49902155D01*
X151670000Y-50550000D01*
X152586314Y-50550000D01*
X152560507Y-50590156D01*
X152520000Y-50728111D01*
X152520000Y-50871889D01*
X152560507Y-51009844D01*
X152586314Y-51050000D01*
X151670000Y-51050000D01*
X151670000Y-51697844D01*
X124960500Y-51697844D01*
X124960500Y-43180000D01*
X127534390Y-43180000D01*
X127554804Y-43465433D01*
X127615628Y-43745037D01*
X127715635Y-44013166D01*
X127852770Y-44264309D01*
X127852775Y-44264317D01*
X128024254Y-44493387D01*
X128024270Y-44493405D01*
X128226594Y-44695729D01*
X128226612Y-44695745D01*
X128455682Y-44867224D01*
X128455690Y-44867229D01*
X128706833Y-45004364D01*
X128706832Y-45004364D01*
X128706836Y-45004365D01*
X128706839Y-45004367D01*
X128974954Y-45104369D01*
X128974960Y-45104370D01*
X128974962Y-45104371D01*
X129254566Y-45165195D01*
X129254568Y-45165195D01*
X129254572Y-45165196D01*
X129468552Y-45180500D01*
X129611448Y-45180500D01*
X129825428Y-45165196D01*
X130105046Y-45104369D01*
X130373161Y-45004367D01*
X130624315Y-44867226D01*
X130853395Y-44695739D01*
X131055739Y-44493395D01*
X131227226Y-44264315D01*
X131364367Y-44013161D01*
X131464369Y-43745046D01*
X131525196Y-43465428D01*
X131545610Y-43180000D01*
X185954390Y-43180000D01*
X185974804Y-43465433D01*
X186035628Y-43745037D01*
X186135635Y-44013166D01*
X186272770Y-44264309D01*
X186272775Y-44264317D01*
X186444254Y-44493387D01*
X186444270Y-44493405D01*
X186646594Y-44695729D01*
X186646612Y-44695745D01*
X186875682Y-44867224D01*
X186875690Y-44867229D01*
X187126833Y-45004364D01*
X187126832Y-45004364D01*
X187126836Y-45004365D01*
X187126839Y-45004367D01*
X187394954Y-45104369D01*
X187394960Y-45104370D01*
X187394962Y-45104371D01*
X187674566Y-45165195D01*
X187674568Y-45165195D01*
X187674572Y-45165196D01*
X187888552Y-45180500D01*
X188031448Y-45180500D01*
X188245428Y-45165196D01*
X188525046Y-45104369D01*
X188793161Y-45004367D01*
X189044315Y-44867226D01*
X189273395Y-44695739D01*
X189475739Y-44493395D01*
X189647226Y-44264315D01*
X189784367Y-44013161D01*
X189884369Y-43745046D01*
X189945196Y-43465428D01*
X189965610Y-43180000D01*
X189945196Y-42894572D01*
X189884369Y-42614954D01*
X189784367Y-42346839D01*
X189647226Y-42095685D01*
X189573636Y-41997380D01*
X189475745Y-41866612D01*
X189475729Y-41866594D01*
X189273405Y-41664270D01*
X189273387Y-41664254D01*
X189044317Y-41492775D01*
X189044309Y-41492770D01*
X188793166Y-41355635D01*
X188793167Y-41355635D01*
X188685915Y-41315632D01*
X188525046Y-41255631D01*
X188525043Y-41255630D01*
X188525037Y-41255628D01*
X188245433Y-41194804D01*
X188031448Y-41179500D01*
X187888552Y-41179500D01*
X187674566Y-41194804D01*
X187394962Y-41255628D01*
X187126833Y-41355635D01*
X186875690Y-41492770D01*
X186875682Y-41492775D01*
X186646612Y-41664254D01*
X186646594Y-41664270D01*
X186444270Y-41866594D01*
X186444254Y-41866612D01*
X186272775Y-42095682D01*
X186272770Y-42095690D01*
X186135635Y-42346833D01*
X186035628Y-42614962D01*
X185974804Y-42894566D01*
X185954390Y-43179998D01*
X185954390Y-43180000D01*
X131545610Y-43180000D01*
X131525196Y-42894572D01*
X131464369Y-42614954D01*
X131364367Y-42346839D01*
X131227226Y-42095685D01*
X131153636Y-41997380D01*
X131055745Y-41866612D01*
X131055729Y-41866594D01*
X130853405Y-41664270D01*
X130853387Y-41664254D01*
X130624317Y-41492775D01*
X130624309Y-41492770D01*
X130373166Y-41355635D01*
X130373167Y-41355635D01*
X130265915Y-41315632D01*
X130105046Y-41255631D01*
X130105043Y-41255630D01*
X130105037Y-41255628D01*
X129825433Y-41194804D01*
X129611448Y-41179500D01*
X129468552Y-41179500D01*
X129254566Y-41194804D01*
X128974962Y-41255628D01*
X128706833Y-41355635D01*
X128455690Y-41492770D01*
X128455682Y-41492775D01*
X128226612Y-41664254D01*
X128226594Y-41664270D01*
X128024270Y-41866594D01*
X128024254Y-41866612D01*
X127852775Y-42095682D01*
X127852770Y-42095690D01*
X127715635Y-42346833D01*
X127615628Y-42614962D01*
X127554804Y-42894566D01*
X127534390Y-43179998D01*
X127534390Y-43180000D01*
X124960500Y-43180000D01*
X124977808Y-42783550D01*
X124978277Y-42778202D01*
X125029720Y-42387452D01*
X125030658Y-42382140D01*
X125094162Y-42095690D01*
X125115958Y-41997373D01*
X125117351Y-41992175D01*
X125235867Y-41616288D01*
X125237702Y-41611245D01*
X125388534Y-41247101D01*
X125390801Y-41242241D01*
X125572793Y-40892639D01*
X125575489Y-40887971D01*
X125787240Y-40555587D01*
X125790333Y-40551169D01*
X126030264Y-40238483D01*
X126033723Y-40234362D01*
X126299986Y-39943787D01*
X126303787Y-39939986D01*
X126594362Y-39673723D01*
X126598483Y-39670264D01*
X126911169Y-39430333D01*
X126915579Y-39427245D01*
X127247971Y-39215489D01*
X127252639Y-39212793D01*
X127602241Y-39030801D01*
X127607101Y-39028534D01*
X127971245Y-38877702D01*
X127976288Y-38875867D01*
X128352175Y-38757351D01*
X128357373Y-38755958D01*
X128598239Y-38702559D01*
X128742140Y-38670658D01*
X128747452Y-38669720D01*
X129138202Y-38618277D01*
X129143550Y-38617808D01*
X129523209Y-38601233D01*
X129540001Y-38600500D01*
X129605892Y-38600500D01*
X187894108Y-38600500D01*
X187959999Y-38600500D01*
X187977532Y-38601265D01*
G37*
%TD.AperFunction*%
%TD*%
M02*
