M48
; DRILL file {KiCad 7.0.8} date Wed Nov 15 23:49:18 2023
; FORMAT={-:-/ absolute / inch / decimal}
; #@! TF.CreationDate,2023-11-15T23:49:18-08:00
; #@! TF.GenerationSoftware,Kicad,Pcbnew,7.0.8
; #@! TF.FileFunction,Plated,1,2,PTH
FMAT,2
INCH
; #@! TA.AperFunction,Plated,PTH,ViaDrill
T1C0.0315
; #@! TA.AperFunction,Plated,PTH,ComponentDrill
T2C0.0315
; #@! TA.AperFunction,Plated,PTH,ComponentDrill
T3C0.0354
; #@! TA.AperFunction,Plated,PTH,ComponentDrill
T4C0.0394
; #@! TA.AperFunction,Plated,PTH,ComponentDrill
T5C0.0433
; #@! TA.AperFunction,Plated,PTH,ComponentDrill
T6C0.0551
; #@! TA.AperFunction,Plated,PTH,ComponentDrill
T7C0.0906
%
G90
G05
T1
X4.9Y-2.8
X4.9Y-3.4
X4.9Y-3.9
X5.1Y-5.5
X5.1581Y-2.5
X5.2Y-2.1
X5.3Y-1.8
X5.3Y-4.4
X5.3Y-4.7
X5.3581Y-2.6
X5.4Y-5.0
X5.5Y-5.5
X5.5581Y-2.6
X5.5581Y-4.0
X5.6Y-2.2
X5.6Y-3.3
X5.7Y-2.3
X5.7Y-4.0
X5.8Y-4.3
X6.1Y-5.3
X6.1Y-5.5
X6.2Y-3.1
X6.2Y-3.3
X6.2Y-4.1
X6.2927Y-5.1804
X6.3Y-2.3
X6.5Y-4.2
X6.6581Y-2.5795
X6.7Y-2.0
X6.7Y-4.7
X6.7Y-5.5
X6.7581Y-3.6
X6.9Y-1.8
X6.9Y-3.0
X6.9Y-3.6
X6.9Y-4.2
X6.9Y-4.9
X7.1581Y-2.1
T2
X5.4Y-3.0984
X5.5921Y-3.0984
T3
X6.1014Y-3.9
X6.1014Y-4.0
X7.257Y-2.8978
X7.357Y-2.8978
T4
X5.9Y-2.2
X6.0Y-2.2
X6.1Y-2.2
X6.4581Y-2.1
X6.5581Y-2.1
X6.8581Y-2.1
X6.9581Y-2.1
T5
X6.9581Y-2.4128
X7.0581Y-2.4128
X7.1581Y-2.4128
T6
X5.051Y-5.1805
X5.051Y-5.8195
X5.301Y-5.1805
X5.301Y-5.8195
X5.551Y-5.1805
X5.551Y-5.8195
X6.6581Y-5.1805
X6.6581Y-5.8195
X6.9081Y-5.1805
X6.9081Y-5.8195
X7.1581Y-5.1805
X7.1581Y-5.8195
T7
X5.8927Y-4.5378
X5.8927Y-4.7228
X5.8927Y-4.9079
X6.1014Y-4.5378
X6.1014Y-4.7228
X6.1014Y-4.9079
X6.31Y-4.5378
X6.31Y-4.7228
X6.31Y-4.9079
T0
M30
