%TF.GenerationSoftware,KiCad,Pcbnew,7.0.8*%
%TF.CreationDate,2023-11-14T15:55:11-08:00*%
%TF.ProjectId,guitar_pedal,67756974-6172-45f7-9065-64616c2e6b69,rev?*%
%TF.SameCoordinates,Original*%
%TF.FileFunction,Legend,Bot*%
%TF.FilePolarity,Positive*%
%FSLAX46Y46*%
G04 Gerber Fmt 4.6, Leading zero omitted, Abs format (unit mm)*
G04 Created by KiCad (PCBNEW 7.0.8) date 2023-11-14 15:55:11*
%MOMM*%
%LPD*%
G01*
G04 APERTURE LIST*
%ADD10C,3.500000*%
%ADD11R,1.905000X2.000000*%
%ADD12O,1.905000X2.000000*%
%ADD13R,1.800000X1.800000*%
%ADD14C,1.800000*%
%ADD15C,3.000000*%
%ADD16C,1.500000*%
%ADD17R,1.700000X1.700000*%
%ADD18O,1.700000X1.700000*%
%ADD19R,3.302000X3.302000*%
G04 APERTURE END LIST*
%LPC*%
D10*
%TO.C,REF\u002A\u002A*%
X154991595Y-148530087D03*
%TD*%
D11*
%TO.C,U2*%
X176735000Y-61285000D03*
D12*
X179275000Y-61285000D03*
X181815000Y-61285000D03*
%TD*%
D13*
%TO.C,D2*%
X154975000Y-101600000D03*
D14*
X154975000Y-99060000D03*
%TD*%
D15*
%TO.C,J2*%
X175465000Y-147815000D03*
X175465000Y-131585000D03*
X169115000Y-147815000D03*
X169115000Y-131585000D03*
X181815000Y-147815000D03*
X181815000Y-131585000D03*
%TD*%
D16*
%TO.C,Y1*%
X138725000Y-78700000D03*
X143605000Y-78700000D03*
%TD*%
D17*
%TO.C,RV1*%
X149415000Y-53340000D03*
D18*
X151955000Y-53340000D03*
X154495000Y-53340000D03*
%TD*%
D10*
%TO.C,REF\u002A\u002A*%
X184355000Y-116840000D03*
%TD*%
D17*
%TO.C,BT1*%
X166575000Y-53340000D03*
D18*
X164035000Y-53340000D03*
%TD*%
D19*
%TO.C,SW2*%
X149675000Y-115260000D03*
X154975000Y-115260000D03*
X160275000Y-115260000D03*
X149675000Y-119960000D03*
X154975000Y-119960000D03*
X160275000Y-119960000D03*
X149675000Y-124660000D03*
X154975000Y-124660000D03*
X160275000Y-124660000D03*
%TD*%
D10*
%TO.C,REF\u002A\u002A*%
X184355000Y-45720000D03*
%TD*%
%TO.C,REF\u002A\u002A*%
X125935000Y-45720000D03*
%TD*%
D17*
%TO.C,SW1*%
X174195000Y-53340000D03*
D18*
X176735000Y-53340000D03*
%TD*%
D15*
%TO.C,J1*%
X134645000Y-131585000D03*
X134645000Y-147815000D03*
X140995000Y-131585000D03*
X140995000Y-147815000D03*
X128295000Y-131585000D03*
X128295000Y-147815000D03*
%TD*%
D10*
%TO.C,REF\u002A\u002A*%
X125935000Y-116840000D03*
%TD*%
G36*
X184797816Y-40658333D02*
G01*
X184797860Y-40658337D01*
X185237285Y-40716188D01*
X185237328Y-40716196D01*
X185670039Y-40812125D01*
X185670081Y-40812137D01*
X186092784Y-40945414D01*
X186092825Y-40945429D01*
X186502304Y-41115040D01*
X186502343Y-41115059D01*
X186895481Y-41319714D01*
X186895519Y-41319736D01*
X187269324Y-41557876D01*
X187269359Y-41557901D01*
X187620987Y-41827714D01*
X187621021Y-41827742D01*
X187947794Y-42127175D01*
X187947825Y-42127206D01*
X188247258Y-42453979D01*
X188247286Y-42454013D01*
X188517099Y-42805641D01*
X188517124Y-42805676D01*
X188755264Y-43179481D01*
X188755286Y-43179519D01*
X188959941Y-43572657D01*
X188959960Y-43572696D01*
X189129571Y-43982175D01*
X189129586Y-43982216D01*
X189262863Y-44404919D01*
X189262875Y-44404961D01*
X189358804Y-44837672D01*
X189358812Y-44837715D01*
X189416663Y-45277140D01*
X189416667Y-45277184D01*
X189436000Y-45719978D01*
X189436000Y-149860022D01*
X189416667Y-150302816D01*
X189416663Y-150302860D01*
X189358812Y-150742285D01*
X189358804Y-150742328D01*
X189262875Y-151175039D01*
X189262863Y-151175081D01*
X189129586Y-151597784D01*
X189129571Y-151597825D01*
X188959960Y-152007304D01*
X188959941Y-152007343D01*
X188755286Y-152400481D01*
X188755264Y-152400519D01*
X188517124Y-152774324D01*
X188517099Y-152774359D01*
X188247286Y-153125987D01*
X188247258Y-153126021D01*
X187947825Y-153452794D01*
X187947794Y-153452825D01*
X187621021Y-153752258D01*
X187620987Y-153752286D01*
X187269359Y-154022099D01*
X187269324Y-154022124D01*
X186895519Y-154260264D01*
X186895481Y-154260286D01*
X186502343Y-154464941D01*
X186502304Y-154464960D01*
X186092825Y-154634571D01*
X186092784Y-154634586D01*
X185670081Y-154767863D01*
X185670039Y-154767875D01*
X185237328Y-154863804D01*
X185237285Y-154863812D01*
X184797860Y-154921663D01*
X184797816Y-154921667D01*
X184355022Y-154941000D01*
X125934978Y-154941000D01*
X125492184Y-154921667D01*
X125492140Y-154921663D01*
X125052715Y-154863812D01*
X125052672Y-154863804D01*
X124619961Y-154767875D01*
X124619919Y-154767863D01*
X124197216Y-154634586D01*
X124197175Y-154634571D01*
X123787696Y-154464960D01*
X123787657Y-154464941D01*
X123394519Y-154260286D01*
X123394481Y-154260264D01*
X123020676Y-154022124D01*
X123020641Y-154022099D01*
X122669013Y-153752286D01*
X122668979Y-153752258D01*
X122342206Y-153452825D01*
X122342175Y-153452794D01*
X122042742Y-153126021D01*
X122042714Y-153125987D01*
X121772901Y-152774359D01*
X121772876Y-152774324D01*
X121534736Y-152400519D01*
X121534714Y-152400481D01*
X121330059Y-152007343D01*
X121330040Y-152007304D01*
X121160429Y-151597825D01*
X121160414Y-151597784D01*
X121027137Y-151175081D01*
X121027125Y-151175039D01*
X120931196Y-150742328D01*
X120931188Y-150742285D01*
X120873337Y-150302860D01*
X120873333Y-150302816D01*
X120854000Y-149860022D01*
X120854000Y-45719978D01*
X120873333Y-45277184D01*
X120873337Y-45277140D01*
X120931188Y-44837715D01*
X120931196Y-44837672D01*
X121027125Y-44404961D01*
X121027137Y-44404919D01*
X121160414Y-43982216D01*
X121160429Y-43982175D01*
X121330040Y-43572696D01*
X121330059Y-43572657D01*
X121534714Y-43179519D01*
X121534736Y-43179481D01*
X121772876Y-42805676D01*
X121772901Y-42805641D01*
X122042714Y-42454013D01*
X122042742Y-42453979D01*
X122342175Y-42127206D01*
X122342206Y-42127175D01*
X122668979Y-41827742D01*
X122669013Y-41827714D01*
X123020641Y-41557901D01*
X123020676Y-41557876D01*
X123394481Y-41319736D01*
X123394519Y-41319714D01*
X123787657Y-41115059D01*
X123787696Y-41115040D01*
X124197175Y-40945429D01*
X124197216Y-40945414D01*
X124619919Y-40812137D01*
X124619961Y-40812125D01*
X125052672Y-40716196D01*
X125052715Y-40716188D01*
X125492140Y-40658337D01*
X125492184Y-40658333D01*
X125934978Y-40639000D01*
X184355022Y-40639000D01*
X184797816Y-40658333D01*
G37*
%LPD*%
M02*
