%TF.GenerationSoftware,KiCad,Pcbnew,7.0.8*%
%TF.CreationDate,2023-11-14T15:55:11-08:00*%
%TF.ProjectId,guitar_pedal,67756974-6172-45f7-9065-64616c2e6b69,rev?*%
%TF.SameCoordinates,Original*%
%TF.FileFunction,Copper,L2,Bot*%
%TF.FilePolarity,Positive*%
%FSLAX46Y46*%
G04 Gerber Fmt 4.6, Leading zero omitted, Abs format (unit mm)*
G04 Created by KiCad (PCBNEW 7.0.8) date 2023-11-14 15:55:11*
%MOMM*%
%LPD*%
G01*
G04 APERTURE LIST*
%TA.AperFunction,ComponentPad*%
%ADD10R,1.905000X2.000000*%
%TD*%
%TA.AperFunction,ComponentPad*%
%ADD11O,1.905000X2.000000*%
%TD*%
%TA.AperFunction,ComponentPad*%
%ADD12R,1.800000X1.800000*%
%TD*%
%TA.AperFunction,ComponentPad*%
%ADD13C,1.800000*%
%TD*%
%TA.AperFunction,ComponentPad*%
%ADD14C,3.000000*%
%TD*%
%TA.AperFunction,ComponentPad*%
%ADD15C,1.500000*%
%TD*%
%TA.AperFunction,ComponentPad*%
%ADD16R,1.700000X1.700000*%
%TD*%
%TA.AperFunction,ComponentPad*%
%ADD17O,1.700000X1.700000*%
%TD*%
%TA.AperFunction,ComponentPad*%
%ADD18R,3.302000X3.302000*%
%TD*%
%TA.AperFunction,ViaPad*%
%ADD19C,1.600000*%
%TD*%
%TA.AperFunction,Conductor*%
%ADD20C,0.500000*%
%TD*%
%TA.AperFunction,Conductor*%
%ADD21C,0.250000*%
%TD*%
G04 APERTURE END LIST*
D10*
%TO.P,U2,1,IN*%
%TO.N,Net-(SW1-B)*%
X176735000Y-61285000D03*
D11*
%TO.P,U2,2,GND*%
%TO.N,GND*%
X179275000Y-61285000D03*
%TO.P,U2,3,OUT*%
%TO.N,+5V*%
X181815000Y-61285000D03*
%TD*%
D12*
%TO.P,D2,1,K*%
%TO.N,Net-(D2-K)*%
X154975000Y-101600000D03*
D13*
%TO.P,D2,2,A*%
%TO.N,Net-(D2-A)*%
X154975000Y-99060000D03*
%TD*%
D14*
%TO.P,J2,R*%
%TO.N,GND*%
X175465000Y-147815000D03*
%TO.P,J2,RN*%
%TO.N,unconnected-(J2-PadRN)*%
X175465000Y-131585000D03*
%TO.P,J2,S*%
%TO.N,GND*%
X169115000Y-147815000D03*
%TO.P,J2,SN*%
%TO.N,unconnected-(J2-PadSN)*%
X169115000Y-131585000D03*
%TO.P,J2,T*%
%TO.N,Net-(SW2-C2)*%
X181815000Y-147815000D03*
%TO.P,J2,TN*%
%TO.N,unconnected-(J2-PadTN)*%
X181815000Y-131585000D03*
%TD*%
D15*
%TO.P,Y1,1,1*%
%TO.N,Net-(U1-XTAL2)*%
X138725000Y-78700000D03*
%TO.P,Y1,2,2*%
%TO.N,Net-(U1-XTAL1)*%
X143605000Y-78700000D03*
%TD*%
D16*
%TO.P,RV1,1,1*%
%TO.N,GND*%
X149415000Y-53340000D03*
D17*
%TO.P,RV1,2,2*%
%TO.N,PA1*%
X151955000Y-53340000D03*
%TO.P,RV1,3,3*%
%TO.N,+5V*%
X154495000Y-53340000D03*
%TD*%
D16*
%TO.P,BT1,1,+*%
%TO.N,+9V*%
X166575000Y-53340000D03*
D17*
%TO.P,BT1,2,-*%
%TO.N,GND*%
X164035000Y-53340000D03*
%TD*%
D18*
%TO.P,SW2,1,A1*%
%TO.N,FX In*%
X149675000Y-115260000D03*
%TO.P,SW2,2,B1*%
%TO.N,Net-(D2-K)*%
X154975000Y-115260000D03*
%TO.P,SW2,3,C1*%
%TO.N,FX Out*%
X160275000Y-115260000D03*
%TO.P,SW2,4,A2*%
%TO.N,Net-(SW2-A2)*%
X149675000Y-119960000D03*
%TO.P,SW2,5,B2*%
%TO.N,GND*%
X154975000Y-119960000D03*
%TO.P,SW2,6,C2*%
%TO.N,Net-(SW2-C2)*%
X160275000Y-119960000D03*
%TO.P,SW2,7,A3*%
%TO.N,Net-(SW2-A3)*%
X149675000Y-124660000D03*
%TO.P,SW2,8,B3*%
%TO.N,unconnected-(SW2-B3-Pad8)*%
X154975000Y-124660000D03*
%TO.P,SW2,9,C3*%
%TO.N,Net-(SW2-A3)*%
X160275000Y-124660000D03*
%TD*%
D16*
%TO.P,SW1,1,A*%
%TO.N,+9V*%
X174195000Y-53340000D03*
D17*
%TO.P,SW1,2,B*%
%TO.N,Net-(SW1-B)*%
X176735000Y-53340000D03*
%TD*%
D14*
%TO.P,J1,R*%
%TO.N,GND*%
X134645000Y-131585000D03*
%TO.P,J1,RN*%
%TO.N,unconnected-(J1-PadRN)*%
X134645000Y-147815000D03*
%TO.P,J1,S*%
%TO.N,GND*%
X140995000Y-131585000D03*
%TO.P,J1,SN*%
%TO.N,unconnected-(J1-PadSN)*%
X140995000Y-147815000D03*
%TO.P,J1,T*%
%TO.N,Net-(SW2-A2)*%
X128295000Y-131585000D03*
%TO.P,J1,TN*%
%TO.N,unconnected-(J1-PadTN)*%
X128295000Y-147815000D03*
%TD*%
D19*
%TO.N,GND*%
X179275000Y-101600000D03*
X181815000Y-53340000D03*
X169115000Y-65520000D03*
X141175000Y-66040000D03*
X159833778Y-131582449D03*
X141175000Y-101600000D03*
X143715000Y-53340000D03*
X171655000Y-91440000D03*
%TO.N,+5V*%
X174195000Y-91440000D03*
X181815000Y-73660000D03*
%TO.N,Net-(J3-SCK)*%
X131015000Y-63500000D03*
X136095000Y-66040000D03*
%TO.N,PA0*%
X143715000Y-101600000D03*
X143715000Y-58420000D03*
%TD*%
D20*
%TO.N,+5V*%
X174195000Y-81280000D02*
X174195000Y-91440000D01*
X181815000Y-73660000D02*
X174195000Y-81280000D01*
D21*
%TO.N,Net-(J3-SCK)*%
X133555000Y-63500000D02*
X131015000Y-63500000D01*
X136095000Y-66040000D02*
X133555000Y-63500000D01*
%TO.N,PA0*%
X146255000Y-93980000D02*
X143715000Y-96520000D01*
X143715000Y-58420000D02*
X146255000Y-60960000D01*
X143715000Y-96520000D02*
X143715000Y-101600000D01*
X146255000Y-60960000D02*
X146255000Y-93980000D01*
%TD*%
%TA.AperFunction,Conductor*%
%TO.N,GND*%
G36*
X184372532Y-41141265D02*
G01*
X184751447Y-41157808D01*
X184756799Y-41158277D01*
X185147543Y-41209720D01*
X185152859Y-41210658D01*
X185537619Y-41295957D01*
X185542830Y-41297352D01*
X185918704Y-41415865D01*
X185923761Y-41417705D01*
X186287889Y-41568531D01*
X186292767Y-41570805D01*
X186642350Y-41752787D01*
X186647028Y-41755489D01*
X186979412Y-41967240D01*
X186983845Y-41970344D01*
X187296500Y-42210252D01*
X187300645Y-42213731D01*
X187591199Y-42479974D01*
X187595025Y-42483800D01*
X187861268Y-42774354D01*
X187864747Y-42778499D01*
X188104655Y-43091154D01*
X188107759Y-43095587D01*
X188319510Y-43427971D01*
X188322216Y-43432657D01*
X188479504Y-43734804D01*
X188504185Y-43782214D01*
X188506472Y-43787119D01*
X188657289Y-44151225D01*
X188659135Y-44156299D01*
X188777642Y-44532153D01*
X188779042Y-44537380D01*
X188864341Y-44922140D01*
X188865281Y-44927469D01*
X188916720Y-45318182D01*
X188917192Y-45323573D01*
X188934500Y-45720000D01*
X188934500Y-149860000D01*
X188917192Y-150256426D01*
X188916720Y-150261817D01*
X188865281Y-150652530D01*
X188864341Y-150657859D01*
X188779042Y-151042619D01*
X188777642Y-151047846D01*
X188659135Y-151423700D01*
X188657285Y-151428785D01*
X188506472Y-151792880D01*
X188504185Y-151797785D01*
X188322216Y-152147342D01*
X188319510Y-152152028D01*
X188107759Y-152484412D01*
X188104655Y-152488845D01*
X187864747Y-152801500D01*
X187861268Y-152805645D01*
X187595025Y-153096199D01*
X187591199Y-153100025D01*
X187300645Y-153366268D01*
X187296500Y-153369747D01*
X186983845Y-153609655D01*
X186979412Y-153612759D01*
X186647028Y-153824510D01*
X186642342Y-153827216D01*
X186292785Y-154009185D01*
X186287880Y-154011472D01*
X185923785Y-154162285D01*
X185918700Y-154164135D01*
X185542846Y-154282642D01*
X185537619Y-154284042D01*
X185152859Y-154369341D01*
X185147530Y-154370281D01*
X184756817Y-154421720D01*
X184751426Y-154422192D01*
X184355000Y-154439500D01*
X125935000Y-154439500D01*
X125538573Y-154422192D01*
X125533182Y-154421720D01*
X125142469Y-154370281D01*
X125137140Y-154369341D01*
X124752380Y-154284042D01*
X124747153Y-154282642D01*
X124371299Y-154164135D01*
X124366225Y-154162289D01*
X124002119Y-154011472D01*
X123997222Y-154009189D01*
X123647657Y-153827216D01*
X123642971Y-153824510D01*
X123310587Y-153612759D01*
X123306154Y-153609655D01*
X122993499Y-153369747D01*
X122989354Y-153366268D01*
X122698800Y-153100025D01*
X122694974Y-153096199D01*
X122428731Y-152805645D01*
X122425252Y-152801500D01*
X122185344Y-152488845D01*
X122182240Y-152484412D01*
X121970489Y-152152028D01*
X121967783Y-152147342D01*
X121785805Y-151797767D01*
X121783527Y-151792880D01*
X121632705Y-151428761D01*
X121630864Y-151423700D01*
X121615806Y-151375942D01*
X121512352Y-151047830D01*
X121510957Y-151042619D01*
X121425658Y-150657859D01*
X121424720Y-150652543D01*
X121373277Y-150261799D01*
X121372808Y-150256447D01*
X121355500Y-149860000D01*
X121355500Y-149794108D01*
X121355500Y-147815001D01*
X126289390Y-147815001D01*
X126309804Y-148100433D01*
X126370628Y-148380037D01*
X126370630Y-148380043D01*
X126370631Y-148380046D01*
X126426593Y-148530085D01*
X126470635Y-148648166D01*
X126607770Y-148899309D01*
X126607775Y-148899317D01*
X126779254Y-149128387D01*
X126779270Y-149128405D01*
X126981594Y-149330729D01*
X126981612Y-149330745D01*
X127210682Y-149502224D01*
X127210690Y-149502229D01*
X127461833Y-149639364D01*
X127461832Y-149639364D01*
X127461836Y-149639365D01*
X127461839Y-149639367D01*
X127729954Y-149739369D01*
X127729960Y-149739370D01*
X127729962Y-149739371D01*
X128009566Y-149800195D01*
X128009568Y-149800195D01*
X128009572Y-149800196D01*
X128263220Y-149818337D01*
X128294999Y-149820610D01*
X128295000Y-149820610D01*
X128295001Y-149820610D01*
X128323595Y-149818564D01*
X128580428Y-149800196D01*
X128608415Y-149794108D01*
X128860037Y-149739371D01*
X128860037Y-149739370D01*
X128860046Y-149739369D01*
X129128161Y-149639367D01*
X129379315Y-149502226D01*
X129608395Y-149330739D01*
X129810739Y-149128395D01*
X129982226Y-148899315D01*
X130119367Y-148648161D01*
X130219369Y-148380046D01*
X130280196Y-148100428D01*
X130300610Y-147815001D01*
X132639390Y-147815001D01*
X132659804Y-148100433D01*
X132720628Y-148380037D01*
X132720630Y-148380043D01*
X132720631Y-148380046D01*
X132776593Y-148530085D01*
X132820635Y-148648166D01*
X132957770Y-148899309D01*
X132957775Y-148899317D01*
X133129254Y-149128387D01*
X133129270Y-149128405D01*
X133331594Y-149330729D01*
X133331612Y-149330745D01*
X133560682Y-149502224D01*
X133560690Y-149502229D01*
X133811833Y-149639364D01*
X133811832Y-149639364D01*
X133811836Y-149639365D01*
X133811839Y-149639367D01*
X134079954Y-149739369D01*
X134079960Y-149739370D01*
X134079962Y-149739371D01*
X134359566Y-149800195D01*
X134359568Y-149800195D01*
X134359572Y-149800196D01*
X134613220Y-149818337D01*
X134644999Y-149820610D01*
X134645000Y-149820610D01*
X134645001Y-149820610D01*
X134673595Y-149818564D01*
X134930428Y-149800196D01*
X134958415Y-149794108D01*
X135210037Y-149739371D01*
X135210037Y-149739370D01*
X135210046Y-149739369D01*
X135478161Y-149639367D01*
X135729315Y-149502226D01*
X135958395Y-149330739D01*
X136160739Y-149128395D01*
X136332226Y-148899315D01*
X136469367Y-148648161D01*
X136569369Y-148380046D01*
X136630196Y-148100428D01*
X136650610Y-147815001D01*
X138989390Y-147815001D01*
X139009804Y-148100433D01*
X139070628Y-148380037D01*
X139070630Y-148380043D01*
X139070631Y-148380046D01*
X139126593Y-148530085D01*
X139170635Y-148648166D01*
X139307770Y-148899309D01*
X139307775Y-148899317D01*
X139479254Y-149128387D01*
X139479270Y-149128405D01*
X139681594Y-149330729D01*
X139681612Y-149330745D01*
X139910682Y-149502224D01*
X139910690Y-149502229D01*
X140161833Y-149639364D01*
X140161832Y-149639364D01*
X140161836Y-149639365D01*
X140161839Y-149639367D01*
X140429954Y-149739369D01*
X140429960Y-149739370D01*
X140429962Y-149739371D01*
X140709566Y-149800195D01*
X140709568Y-149800195D01*
X140709572Y-149800196D01*
X140963220Y-149818337D01*
X140994999Y-149820610D01*
X140995000Y-149820610D01*
X140995001Y-149820610D01*
X141023595Y-149818564D01*
X141280428Y-149800196D01*
X141308415Y-149794108D01*
X141560037Y-149739371D01*
X141560037Y-149739370D01*
X141560046Y-149739369D01*
X141828161Y-149639367D01*
X142079315Y-149502226D01*
X142308395Y-149330739D01*
X142510739Y-149128395D01*
X142682226Y-148899315D01*
X142819367Y-148648161D01*
X142863406Y-148530088D01*
X152985985Y-148530088D01*
X153006399Y-148815520D01*
X153067223Y-149095124D01*
X153167230Y-149363253D01*
X153304365Y-149614396D01*
X153304370Y-149614404D01*
X153475849Y-149843474D01*
X153475865Y-149843492D01*
X153678189Y-150045816D01*
X153678207Y-150045832D01*
X153907277Y-150217311D01*
X153907285Y-150217316D01*
X154158428Y-150354451D01*
X154158427Y-150354451D01*
X154158431Y-150354452D01*
X154158434Y-150354454D01*
X154426549Y-150454456D01*
X154426555Y-150454457D01*
X154426557Y-150454458D01*
X154706161Y-150515282D01*
X154706163Y-150515282D01*
X154706167Y-150515283D01*
X154920147Y-150530587D01*
X155063043Y-150530587D01*
X155277023Y-150515283D01*
X155556641Y-150454456D01*
X155824756Y-150354454D01*
X156075910Y-150217313D01*
X156304990Y-150045826D01*
X156507334Y-149843482D01*
X156678821Y-149614402D01*
X156815962Y-149363248D01*
X156915964Y-149095133D01*
X156958561Y-148899317D01*
X156976790Y-148815520D01*
X156976790Y-148815519D01*
X156976791Y-148815515D01*
X156997205Y-148530087D01*
X156976791Y-148244659D01*
X156970462Y-148215566D01*
X156915966Y-147965049D01*
X156915965Y-147965047D01*
X156915964Y-147965041D01*
X156860002Y-147815001D01*
X167109891Y-147815001D01*
X167130300Y-148100362D01*
X167191109Y-148379895D01*
X167291091Y-148647958D01*
X167428191Y-148899038D01*
X167428196Y-148899046D01*
X167534882Y-149041561D01*
X167534883Y-149041562D01*
X168474859Y-148101586D01*
X168534680Y-148215566D01*
X168647405Y-148342806D01*
X168787305Y-148439371D01*
X168828542Y-148455010D01*
X167888436Y-149395115D01*
X168030960Y-149501807D01*
X168030961Y-149501808D01*
X168282042Y-149638908D01*
X168282041Y-149638908D01*
X168550104Y-149738890D01*
X168829637Y-149799699D01*
X169114999Y-149820109D01*
X169115001Y-149820109D01*
X169400362Y-149799699D01*
X169679895Y-149738890D01*
X169947958Y-149638908D01*
X170199047Y-149501803D01*
X170341561Y-149395116D01*
X170341562Y-149395115D01*
X169401458Y-148455010D01*
X169442695Y-148439371D01*
X169582595Y-148342806D01*
X169695320Y-148215566D01*
X169755140Y-148101587D01*
X170695115Y-149041562D01*
X170695116Y-149041561D01*
X170801803Y-148899047D01*
X170938908Y-148647958D01*
X171038890Y-148379895D01*
X171099699Y-148100362D01*
X171120109Y-147815001D01*
X173459891Y-147815001D01*
X173480300Y-148100362D01*
X173541109Y-148379895D01*
X173641091Y-148647958D01*
X173778191Y-148899038D01*
X173778196Y-148899046D01*
X173884882Y-149041561D01*
X173884883Y-149041562D01*
X174824859Y-148101586D01*
X174884680Y-148215566D01*
X174997405Y-148342806D01*
X175137305Y-148439371D01*
X175178542Y-148455010D01*
X174238436Y-149395115D01*
X174380960Y-149501807D01*
X174380961Y-149501808D01*
X174632042Y-149638908D01*
X174632041Y-149638908D01*
X174900104Y-149738890D01*
X175179637Y-149799699D01*
X175464999Y-149820109D01*
X175465001Y-149820109D01*
X175750362Y-149799699D01*
X176029895Y-149738890D01*
X176297958Y-149638908D01*
X176549047Y-149501803D01*
X176691561Y-149395116D01*
X176691562Y-149395115D01*
X175751458Y-148455010D01*
X175792695Y-148439371D01*
X175932595Y-148342806D01*
X176045320Y-148215566D01*
X176105140Y-148101587D01*
X177045115Y-149041562D01*
X177045116Y-149041561D01*
X177151803Y-148899047D01*
X177288908Y-148647958D01*
X177388890Y-148379895D01*
X177449699Y-148100362D01*
X177470109Y-147815001D01*
X179809390Y-147815001D01*
X179829804Y-148100433D01*
X179890628Y-148380037D01*
X179890630Y-148380043D01*
X179890631Y-148380046D01*
X179946593Y-148530085D01*
X179990635Y-148648166D01*
X180127770Y-148899309D01*
X180127775Y-148899317D01*
X180299254Y-149128387D01*
X180299270Y-149128405D01*
X180501594Y-149330729D01*
X180501612Y-149330745D01*
X180730682Y-149502224D01*
X180730690Y-149502229D01*
X180981833Y-149639364D01*
X180981832Y-149639364D01*
X180981836Y-149639365D01*
X180981839Y-149639367D01*
X181249954Y-149739369D01*
X181249960Y-149739370D01*
X181249962Y-149739371D01*
X181529566Y-149800195D01*
X181529568Y-149800195D01*
X181529572Y-149800196D01*
X181783220Y-149818337D01*
X181814999Y-149820610D01*
X181815000Y-149820610D01*
X181815001Y-149820610D01*
X181843595Y-149818564D01*
X182100428Y-149800196D01*
X182128415Y-149794108D01*
X182380037Y-149739371D01*
X182380037Y-149739370D01*
X182380046Y-149739369D01*
X182648161Y-149639367D01*
X182899315Y-149502226D01*
X183128395Y-149330739D01*
X183330739Y-149128395D01*
X183502226Y-148899315D01*
X183639367Y-148648161D01*
X183739369Y-148380046D01*
X183800196Y-148100428D01*
X183820610Y-147815000D01*
X183800196Y-147529572D01*
X183781966Y-147445772D01*
X183739371Y-147249962D01*
X183739370Y-147249960D01*
X183739369Y-147249954D01*
X183639367Y-146981839D01*
X183502372Y-146730953D01*
X183502229Y-146730690D01*
X183502224Y-146730682D01*
X183330745Y-146501612D01*
X183330729Y-146501594D01*
X183128405Y-146299270D01*
X183128387Y-146299254D01*
X182899317Y-146127775D01*
X182899309Y-146127770D01*
X182648166Y-145990635D01*
X182648167Y-145990635D01*
X182540915Y-145950632D01*
X182380046Y-145890631D01*
X182380043Y-145890630D01*
X182380037Y-145890628D01*
X182100433Y-145829804D01*
X181815001Y-145809390D01*
X181814999Y-145809390D01*
X181529566Y-145829804D01*
X181249962Y-145890628D01*
X180981833Y-145990635D01*
X180730690Y-146127770D01*
X180730682Y-146127775D01*
X180501612Y-146299254D01*
X180501594Y-146299270D01*
X180299270Y-146501594D01*
X180299254Y-146501612D01*
X180127775Y-146730682D01*
X180127770Y-146730690D01*
X179990635Y-146981833D01*
X179890628Y-147249962D01*
X179829804Y-147529566D01*
X179809390Y-147814998D01*
X179809390Y-147815001D01*
X177470109Y-147815001D01*
X177470109Y-147814998D01*
X177449699Y-147529637D01*
X177388890Y-147250104D01*
X177288908Y-146982041D01*
X177151808Y-146730961D01*
X177151807Y-146730960D01*
X177045115Y-146588436D01*
X176105139Y-147528412D01*
X176045320Y-147414434D01*
X175932595Y-147287194D01*
X175792695Y-147190629D01*
X175751457Y-147174989D01*
X176691562Y-146234883D01*
X176691561Y-146234882D01*
X176549046Y-146128196D01*
X176549038Y-146128191D01*
X176297957Y-145991091D01*
X176297958Y-145991091D01*
X176029895Y-145891109D01*
X175750362Y-145830300D01*
X175465001Y-145809891D01*
X175464999Y-145809891D01*
X175179637Y-145830300D01*
X174900104Y-145891109D01*
X174632041Y-145991091D01*
X174380961Y-146128191D01*
X174380953Y-146128196D01*
X174238437Y-146234882D01*
X174238436Y-146234883D01*
X175178543Y-147174989D01*
X175137305Y-147190629D01*
X174997405Y-147287194D01*
X174884680Y-147414434D01*
X174824859Y-147528412D01*
X173884883Y-146588436D01*
X173884882Y-146588437D01*
X173778196Y-146730953D01*
X173778191Y-146730961D01*
X173641091Y-146982041D01*
X173541109Y-147250104D01*
X173480300Y-147529637D01*
X173459891Y-147814998D01*
X173459891Y-147815001D01*
X171120109Y-147815001D01*
X171120109Y-147814998D01*
X171099699Y-147529637D01*
X171038890Y-147250104D01*
X170938908Y-146982041D01*
X170801808Y-146730961D01*
X170801807Y-146730960D01*
X170695115Y-146588436D01*
X169755139Y-147528412D01*
X169695320Y-147414434D01*
X169582595Y-147287194D01*
X169442695Y-147190629D01*
X169401457Y-147174989D01*
X170341562Y-146234883D01*
X170341561Y-146234882D01*
X170199046Y-146128196D01*
X170199038Y-146128191D01*
X169947957Y-145991091D01*
X169947958Y-145991091D01*
X169679895Y-145891109D01*
X169400362Y-145830300D01*
X169115001Y-145809891D01*
X169114999Y-145809891D01*
X168829637Y-145830300D01*
X168550104Y-145891109D01*
X168282041Y-145991091D01*
X168030961Y-146128191D01*
X168030953Y-146128196D01*
X167888437Y-146234882D01*
X167888436Y-146234883D01*
X168828543Y-147174989D01*
X168787305Y-147190629D01*
X168647405Y-147287194D01*
X168534680Y-147414434D01*
X168474859Y-147528412D01*
X167534883Y-146588436D01*
X167534882Y-146588437D01*
X167428196Y-146730953D01*
X167428191Y-146730961D01*
X167291091Y-146982041D01*
X167191109Y-147250104D01*
X167130300Y-147529637D01*
X167109891Y-147814998D01*
X167109891Y-147815001D01*
X156860002Y-147815001D01*
X156815962Y-147696926D01*
X156724579Y-147529572D01*
X156678824Y-147445777D01*
X156678819Y-147445769D01*
X156507340Y-147216699D01*
X156507324Y-147216681D01*
X156305000Y-147014357D01*
X156304982Y-147014341D01*
X156075912Y-146842862D01*
X156075904Y-146842857D01*
X155824761Y-146705722D01*
X155824762Y-146705722D01*
X155717510Y-146665719D01*
X155556641Y-146605718D01*
X155556638Y-146605717D01*
X155556632Y-146605715D01*
X155277028Y-146544891D01*
X155063043Y-146529587D01*
X154920147Y-146529587D01*
X154706161Y-146544891D01*
X154426557Y-146605715D01*
X154158428Y-146705722D01*
X153907285Y-146842857D01*
X153907277Y-146842862D01*
X153678207Y-147014341D01*
X153678189Y-147014357D01*
X153475865Y-147216681D01*
X153475849Y-147216699D01*
X153304370Y-147445769D01*
X153304365Y-147445777D01*
X153167230Y-147696920D01*
X153067223Y-147965049D01*
X153006399Y-148244653D01*
X152985985Y-148530085D01*
X152985985Y-148530088D01*
X142863406Y-148530088D01*
X142919369Y-148380046D01*
X142980196Y-148100428D01*
X143000610Y-147815000D01*
X142980196Y-147529572D01*
X142961966Y-147445772D01*
X142919371Y-147249962D01*
X142919370Y-147249960D01*
X142919369Y-147249954D01*
X142819367Y-146981839D01*
X142682372Y-146730953D01*
X142682229Y-146730690D01*
X142682224Y-146730682D01*
X142510745Y-146501612D01*
X142510729Y-146501594D01*
X142308405Y-146299270D01*
X142308387Y-146299254D01*
X142079317Y-146127775D01*
X142079309Y-146127770D01*
X141828166Y-145990635D01*
X141828167Y-145990635D01*
X141720915Y-145950632D01*
X141560046Y-145890631D01*
X141560043Y-145890630D01*
X141560037Y-145890628D01*
X141280433Y-145829804D01*
X140995001Y-145809390D01*
X140994999Y-145809390D01*
X140709566Y-145829804D01*
X140429962Y-145890628D01*
X140161833Y-145990635D01*
X139910690Y-146127770D01*
X139910682Y-146127775D01*
X139681612Y-146299254D01*
X139681594Y-146299270D01*
X139479270Y-146501594D01*
X139479254Y-146501612D01*
X139307775Y-146730682D01*
X139307770Y-146730690D01*
X139170635Y-146981833D01*
X139070628Y-147249962D01*
X139009804Y-147529566D01*
X138989390Y-147814998D01*
X138989390Y-147815001D01*
X136650610Y-147815001D01*
X136650610Y-147815000D01*
X136630196Y-147529572D01*
X136611966Y-147445772D01*
X136569371Y-147249962D01*
X136569370Y-147249960D01*
X136569369Y-147249954D01*
X136469367Y-146981839D01*
X136332372Y-146730953D01*
X136332229Y-146730690D01*
X136332224Y-146730682D01*
X136160745Y-146501612D01*
X136160729Y-146501594D01*
X135958405Y-146299270D01*
X135958387Y-146299254D01*
X135729317Y-146127775D01*
X135729309Y-146127770D01*
X135478166Y-145990635D01*
X135478167Y-145990635D01*
X135370915Y-145950632D01*
X135210046Y-145890631D01*
X135210043Y-145890630D01*
X135210037Y-145890628D01*
X134930433Y-145829804D01*
X134645001Y-145809390D01*
X134644999Y-145809390D01*
X134359566Y-145829804D01*
X134079962Y-145890628D01*
X133811833Y-145990635D01*
X133560690Y-146127770D01*
X133560682Y-146127775D01*
X133331612Y-146299254D01*
X133331594Y-146299270D01*
X133129270Y-146501594D01*
X133129254Y-146501612D01*
X132957775Y-146730682D01*
X132957770Y-146730690D01*
X132820635Y-146981833D01*
X132720628Y-147249962D01*
X132659804Y-147529566D01*
X132639390Y-147814998D01*
X132639390Y-147815001D01*
X130300610Y-147815001D01*
X130300610Y-147815000D01*
X130280196Y-147529572D01*
X130261966Y-147445772D01*
X130219371Y-147249962D01*
X130219370Y-147249960D01*
X130219369Y-147249954D01*
X130119367Y-146981839D01*
X129982372Y-146730953D01*
X129982229Y-146730690D01*
X129982224Y-146730682D01*
X129810745Y-146501612D01*
X129810729Y-146501594D01*
X129608405Y-146299270D01*
X129608387Y-146299254D01*
X129379317Y-146127775D01*
X129379309Y-146127770D01*
X129128166Y-145990635D01*
X129128167Y-145990635D01*
X129020915Y-145950632D01*
X128860046Y-145890631D01*
X128860043Y-145890630D01*
X128860037Y-145890628D01*
X128580433Y-145829804D01*
X128295001Y-145809390D01*
X128294999Y-145809390D01*
X128009566Y-145829804D01*
X127729962Y-145890628D01*
X127461833Y-145990635D01*
X127210690Y-146127770D01*
X127210682Y-146127775D01*
X126981612Y-146299254D01*
X126981594Y-146299270D01*
X126779270Y-146501594D01*
X126779254Y-146501612D01*
X126607775Y-146730682D01*
X126607770Y-146730690D01*
X126470635Y-146981833D01*
X126370628Y-147249962D01*
X126309804Y-147529566D01*
X126289390Y-147814998D01*
X126289390Y-147815001D01*
X121355500Y-147815001D01*
X121355500Y-131585001D01*
X126289390Y-131585001D01*
X126309804Y-131870433D01*
X126370628Y-132150037D01*
X126370630Y-132150043D01*
X126370631Y-132150046D01*
X126470557Y-132417958D01*
X126470635Y-132418166D01*
X126607770Y-132669309D01*
X126607775Y-132669317D01*
X126779254Y-132898387D01*
X126779270Y-132898405D01*
X126981594Y-133100729D01*
X126981612Y-133100745D01*
X127210682Y-133272224D01*
X127210690Y-133272229D01*
X127461833Y-133409364D01*
X127461832Y-133409364D01*
X127461836Y-133409365D01*
X127461839Y-133409367D01*
X127729954Y-133509369D01*
X127729960Y-133509370D01*
X127729962Y-133509371D01*
X128009566Y-133570195D01*
X128009568Y-133570195D01*
X128009572Y-133570196D01*
X128263220Y-133588337D01*
X128294999Y-133590610D01*
X128295000Y-133590610D01*
X128295001Y-133590610D01*
X128323595Y-133588564D01*
X128580428Y-133570196D01*
X128860046Y-133509369D01*
X129128161Y-133409367D01*
X129379315Y-133272226D01*
X129608395Y-133100739D01*
X129810739Y-132898395D01*
X129982226Y-132669315D01*
X130119367Y-132418161D01*
X130219369Y-132150046D01*
X130280196Y-131870428D01*
X130300610Y-131585001D01*
X132639891Y-131585001D01*
X132660300Y-131870362D01*
X132721109Y-132149895D01*
X132821091Y-132417958D01*
X132958191Y-132669038D01*
X132958196Y-132669046D01*
X133064882Y-132811561D01*
X133064883Y-132811562D01*
X134004859Y-131871586D01*
X134064680Y-131985566D01*
X134177405Y-132112806D01*
X134317305Y-132209371D01*
X134358542Y-132225010D01*
X133418436Y-133165115D01*
X133560960Y-133271807D01*
X133560961Y-133271808D01*
X133812042Y-133408908D01*
X133812041Y-133408908D01*
X134080104Y-133508890D01*
X134359637Y-133569699D01*
X134644999Y-133590109D01*
X134645001Y-133590109D01*
X134930362Y-133569699D01*
X135209895Y-133508890D01*
X135477958Y-133408908D01*
X135729047Y-133271803D01*
X135871561Y-133165116D01*
X135871562Y-133165115D01*
X134931458Y-132225010D01*
X134972695Y-132209371D01*
X135112595Y-132112806D01*
X135225320Y-131985566D01*
X135285140Y-131871587D01*
X136225115Y-132811562D01*
X136225116Y-132811561D01*
X136331803Y-132669047D01*
X136468908Y-132417958D01*
X136568890Y-132149895D01*
X136629699Y-131870362D01*
X136650109Y-131585001D01*
X138989891Y-131585001D01*
X139010300Y-131870362D01*
X139071109Y-132149895D01*
X139171091Y-132417958D01*
X139308191Y-132669038D01*
X139308196Y-132669046D01*
X139414882Y-132811561D01*
X139414883Y-132811562D01*
X140354859Y-131871586D01*
X140414680Y-131985566D01*
X140527405Y-132112806D01*
X140667305Y-132209371D01*
X140708542Y-132225010D01*
X139768436Y-133165115D01*
X139910960Y-133271807D01*
X139910961Y-133271808D01*
X140162042Y-133408908D01*
X140162041Y-133408908D01*
X140430104Y-133508890D01*
X140709637Y-133569699D01*
X140994999Y-133590109D01*
X140995001Y-133590109D01*
X141280362Y-133569699D01*
X141559895Y-133508890D01*
X141827958Y-133408908D01*
X142079047Y-133271803D01*
X142221561Y-133165116D01*
X142221562Y-133165115D01*
X141281458Y-132225010D01*
X141322695Y-132209371D01*
X141462595Y-132112806D01*
X141575320Y-131985566D01*
X141635140Y-131871587D01*
X142575115Y-132811562D01*
X142575116Y-132811561D01*
X142681803Y-132669047D01*
X142818908Y-132417958D01*
X142918890Y-132149895D01*
X142979699Y-131870362D01*
X143000109Y-131585001D01*
X167109390Y-131585001D01*
X167129804Y-131870433D01*
X167190628Y-132150037D01*
X167190630Y-132150043D01*
X167190631Y-132150046D01*
X167290557Y-132417958D01*
X167290635Y-132418166D01*
X167427770Y-132669309D01*
X167427775Y-132669317D01*
X167599254Y-132898387D01*
X167599270Y-132898405D01*
X167801594Y-133100729D01*
X167801612Y-133100745D01*
X168030682Y-133272224D01*
X168030690Y-133272229D01*
X168281833Y-133409364D01*
X168281832Y-133409364D01*
X168281836Y-133409365D01*
X168281839Y-133409367D01*
X168549954Y-133509369D01*
X168549960Y-133509370D01*
X168549962Y-133509371D01*
X168829566Y-133570195D01*
X168829568Y-133570195D01*
X168829572Y-133570196D01*
X169083220Y-133588337D01*
X169114999Y-133590610D01*
X169115000Y-133590610D01*
X169115001Y-133590610D01*
X169143595Y-133588564D01*
X169400428Y-133570196D01*
X169680046Y-133509369D01*
X169948161Y-133409367D01*
X170199315Y-133272226D01*
X170428395Y-133100739D01*
X170630739Y-132898395D01*
X170802226Y-132669315D01*
X170939367Y-132418161D01*
X171039369Y-132150046D01*
X171100196Y-131870428D01*
X171120610Y-131585001D01*
X173459390Y-131585001D01*
X173479804Y-131870433D01*
X173540628Y-132150037D01*
X173540630Y-132150043D01*
X173540631Y-132150046D01*
X173640557Y-132417958D01*
X173640635Y-132418166D01*
X173777770Y-132669309D01*
X173777775Y-132669317D01*
X173949254Y-132898387D01*
X173949270Y-132898405D01*
X174151594Y-133100729D01*
X174151612Y-133100745D01*
X174380682Y-133272224D01*
X174380690Y-133272229D01*
X174631833Y-133409364D01*
X174631832Y-133409364D01*
X174631836Y-133409365D01*
X174631839Y-133409367D01*
X174899954Y-133509369D01*
X174899960Y-133509370D01*
X174899962Y-133509371D01*
X175179566Y-133570195D01*
X175179568Y-133570195D01*
X175179572Y-133570196D01*
X175433220Y-133588337D01*
X175464999Y-133590610D01*
X175465000Y-133590610D01*
X175465001Y-133590610D01*
X175493595Y-133588564D01*
X175750428Y-133570196D01*
X176030046Y-133509369D01*
X176298161Y-133409367D01*
X176549315Y-133272226D01*
X176778395Y-133100739D01*
X176980739Y-132898395D01*
X177152226Y-132669315D01*
X177289367Y-132418161D01*
X177389369Y-132150046D01*
X177450196Y-131870428D01*
X177470610Y-131585001D01*
X179809390Y-131585001D01*
X179829804Y-131870433D01*
X179890628Y-132150037D01*
X179890630Y-132150043D01*
X179890631Y-132150046D01*
X179990557Y-132417958D01*
X179990635Y-132418166D01*
X180127770Y-132669309D01*
X180127775Y-132669317D01*
X180299254Y-132898387D01*
X180299270Y-132898405D01*
X180501594Y-133100729D01*
X180501612Y-133100745D01*
X180730682Y-133272224D01*
X180730690Y-133272229D01*
X180981833Y-133409364D01*
X180981832Y-133409364D01*
X180981836Y-133409365D01*
X180981839Y-133409367D01*
X181249954Y-133509369D01*
X181249960Y-133509370D01*
X181249962Y-133509371D01*
X181529566Y-133570195D01*
X181529568Y-133570195D01*
X181529572Y-133570196D01*
X181783220Y-133588337D01*
X181814999Y-133590610D01*
X181815000Y-133590610D01*
X181815001Y-133590610D01*
X181843595Y-133588564D01*
X182100428Y-133570196D01*
X182380046Y-133509369D01*
X182648161Y-133409367D01*
X182899315Y-133272226D01*
X183128395Y-133100739D01*
X183330739Y-132898395D01*
X183502226Y-132669315D01*
X183639367Y-132418161D01*
X183739369Y-132150046D01*
X183800196Y-131870428D01*
X183820610Y-131585000D01*
X183800196Y-131299572D01*
X183775149Y-131184434D01*
X183739371Y-131019962D01*
X183739370Y-131019960D01*
X183739369Y-131019954D01*
X183639367Y-130751839D01*
X183502372Y-130500953D01*
X183502229Y-130500690D01*
X183502224Y-130500682D01*
X183330745Y-130271612D01*
X183330729Y-130271594D01*
X183128405Y-130069270D01*
X183128387Y-130069254D01*
X182899317Y-129897775D01*
X182899309Y-129897770D01*
X182648166Y-129760635D01*
X182648167Y-129760635D01*
X182540915Y-129720632D01*
X182380046Y-129660631D01*
X182380043Y-129660630D01*
X182380037Y-129660628D01*
X182100433Y-129599804D01*
X181815001Y-129579390D01*
X181814999Y-129579390D01*
X181529566Y-129599804D01*
X181249962Y-129660628D01*
X180981833Y-129760635D01*
X180730690Y-129897770D01*
X180730682Y-129897775D01*
X180501612Y-130069254D01*
X180501594Y-130069270D01*
X180299270Y-130271594D01*
X180299254Y-130271612D01*
X180127775Y-130500682D01*
X180127770Y-130500690D01*
X179990635Y-130751833D01*
X179890628Y-131019962D01*
X179829804Y-131299566D01*
X179809390Y-131584998D01*
X179809390Y-131585001D01*
X177470610Y-131585001D01*
X177470610Y-131585000D01*
X177450196Y-131299572D01*
X177425149Y-131184434D01*
X177389371Y-131019962D01*
X177389370Y-131019960D01*
X177389369Y-131019954D01*
X177289367Y-130751839D01*
X177152372Y-130500953D01*
X177152229Y-130500690D01*
X177152224Y-130500682D01*
X176980745Y-130271612D01*
X176980729Y-130271594D01*
X176778405Y-130069270D01*
X176778387Y-130069254D01*
X176549317Y-129897775D01*
X176549309Y-129897770D01*
X176298166Y-129760635D01*
X176298167Y-129760635D01*
X176190915Y-129720632D01*
X176030046Y-129660631D01*
X176030043Y-129660630D01*
X176030037Y-129660628D01*
X175750433Y-129599804D01*
X175465001Y-129579390D01*
X175464999Y-129579390D01*
X175179566Y-129599804D01*
X174899962Y-129660628D01*
X174631833Y-129760635D01*
X174380690Y-129897770D01*
X174380682Y-129897775D01*
X174151612Y-130069254D01*
X174151594Y-130069270D01*
X173949270Y-130271594D01*
X173949254Y-130271612D01*
X173777775Y-130500682D01*
X173777770Y-130500690D01*
X173640635Y-130751833D01*
X173540628Y-131019962D01*
X173479804Y-131299566D01*
X173459390Y-131584998D01*
X173459390Y-131585001D01*
X171120610Y-131585001D01*
X171120610Y-131585000D01*
X171100196Y-131299572D01*
X171075149Y-131184434D01*
X171039371Y-131019962D01*
X171039370Y-131019960D01*
X171039369Y-131019954D01*
X170939367Y-130751839D01*
X170802372Y-130500953D01*
X170802229Y-130500690D01*
X170802224Y-130500682D01*
X170630745Y-130271612D01*
X170630729Y-130271594D01*
X170428405Y-130069270D01*
X170428387Y-130069254D01*
X170199317Y-129897775D01*
X170199309Y-129897770D01*
X169948166Y-129760635D01*
X169948167Y-129760635D01*
X169840915Y-129720632D01*
X169680046Y-129660631D01*
X169680043Y-129660630D01*
X169680037Y-129660628D01*
X169400433Y-129599804D01*
X169115001Y-129579390D01*
X169114999Y-129579390D01*
X168829566Y-129599804D01*
X168549962Y-129660628D01*
X168281833Y-129760635D01*
X168030690Y-129897770D01*
X168030682Y-129897775D01*
X167801612Y-130069254D01*
X167801594Y-130069270D01*
X167599270Y-130271594D01*
X167599254Y-130271612D01*
X167427775Y-130500682D01*
X167427770Y-130500690D01*
X167290635Y-130751833D01*
X167190628Y-131019962D01*
X167129804Y-131299566D01*
X167109390Y-131584998D01*
X167109390Y-131585001D01*
X143000109Y-131585001D01*
X143000109Y-131584998D01*
X142979699Y-131299637D01*
X142918890Y-131020104D01*
X142818908Y-130752041D01*
X142681808Y-130500961D01*
X142681807Y-130500960D01*
X142575115Y-130358436D01*
X141635139Y-131298412D01*
X141575320Y-131184434D01*
X141462595Y-131057194D01*
X141322695Y-130960629D01*
X141281457Y-130944989D01*
X142221562Y-130004883D01*
X142221561Y-130004882D01*
X142079046Y-129898196D01*
X142079038Y-129898191D01*
X141827957Y-129761091D01*
X141827958Y-129761091D01*
X141559895Y-129661109D01*
X141280362Y-129600300D01*
X140995001Y-129579891D01*
X140994999Y-129579891D01*
X140709637Y-129600300D01*
X140430104Y-129661109D01*
X140162041Y-129761091D01*
X139910961Y-129898191D01*
X139910953Y-129898196D01*
X139768437Y-130004882D01*
X139768436Y-130004883D01*
X140708543Y-130944989D01*
X140667305Y-130960629D01*
X140527405Y-131057194D01*
X140414680Y-131184434D01*
X140354859Y-131298412D01*
X139414883Y-130358436D01*
X139414882Y-130358437D01*
X139308196Y-130500953D01*
X139308191Y-130500961D01*
X139171091Y-130752041D01*
X139071109Y-131020104D01*
X139010300Y-131299637D01*
X138989891Y-131584998D01*
X138989891Y-131585001D01*
X136650109Y-131585001D01*
X136650109Y-131584998D01*
X136629699Y-131299637D01*
X136568890Y-131020104D01*
X136468908Y-130752041D01*
X136331808Y-130500961D01*
X136331807Y-130500960D01*
X136225115Y-130358436D01*
X135285139Y-131298412D01*
X135225320Y-131184434D01*
X135112595Y-131057194D01*
X134972695Y-130960629D01*
X134931457Y-130944989D01*
X135871562Y-130004883D01*
X135871561Y-130004882D01*
X135729046Y-129898196D01*
X135729038Y-129898191D01*
X135477957Y-129761091D01*
X135477958Y-129761091D01*
X135209895Y-129661109D01*
X134930362Y-129600300D01*
X134645001Y-129579891D01*
X134644999Y-129579891D01*
X134359637Y-129600300D01*
X134080104Y-129661109D01*
X133812041Y-129761091D01*
X133560961Y-129898191D01*
X133560953Y-129898196D01*
X133418437Y-130004882D01*
X133418436Y-130004883D01*
X134358543Y-130944989D01*
X134317305Y-130960629D01*
X134177405Y-131057194D01*
X134064680Y-131184434D01*
X134004859Y-131298412D01*
X133064883Y-130358436D01*
X133064882Y-130358437D01*
X132958196Y-130500953D01*
X132958191Y-130500961D01*
X132821091Y-130752041D01*
X132721109Y-131020104D01*
X132660300Y-131299637D01*
X132639891Y-131584998D01*
X132639891Y-131585001D01*
X130300610Y-131585001D01*
X130300610Y-131585000D01*
X130280196Y-131299572D01*
X130255149Y-131184434D01*
X130219371Y-131019962D01*
X130219370Y-131019960D01*
X130219369Y-131019954D01*
X130119367Y-130751839D01*
X129982372Y-130500953D01*
X129982229Y-130500690D01*
X129982224Y-130500682D01*
X129810745Y-130271612D01*
X129810729Y-130271594D01*
X129608405Y-130069270D01*
X129608387Y-130069254D01*
X129379317Y-129897775D01*
X129379309Y-129897770D01*
X129128166Y-129760635D01*
X129128167Y-129760635D01*
X129020915Y-129720632D01*
X128860046Y-129660631D01*
X128860043Y-129660630D01*
X128860037Y-129660628D01*
X128580433Y-129599804D01*
X128295001Y-129579390D01*
X128294999Y-129579390D01*
X128009566Y-129599804D01*
X127729962Y-129660628D01*
X127461833Y-129760635D01*
X127210690Y-129897770D01*
X127210682Y-129897775D01*
X126981612Y-130069254D01*
X126981594Y-130069270D01*
X126779270Y-130271594D01*
X126779254Y-130271612D01*
X126607775Y-130500682D01*
X126607770Y-130500690D01*
X126470635Y-130751833D01*
X126370628Y-131019962D01*
X126309804Y-131299566D01*
X126289390Y-131584998D01*
X126289390Y-131585001D01*
X121355500Y-131585001D01*
X121355500Y-126358870D01*
X147523500Y-126358870D01*
X147523501Y-126358876D01*
X147529908Y-126418483D01*
X147580202Y-126553328D01*
X147580206Y-126553335D01*
X147666452Y-126668544D01*
X147666455Y-126668547D01*
X147781664Y-126754793D01*
X147781671Y-126754797D01*
X147916517Y-126805091D01*
X147916516Y-126805091D01*
X147923444Y-126805835D01*
X147976127Y-126811500D01*
X151373872Y-126811499D01*
X151433483Y-126805091D01*
X151568331Y-126754796D01*
X151683546Y-126668546D01*
X151769796Y-126553331D01*
X151820091Y-126418483D01*
X151826500Y-126358873D01*
X151826500Y-126358870D01*
X152823500Y-126358870D01*
X152823501Y-126358876D01*
X152829908Y-126418483D01*
X152880202Y-126553328D01*
X152880206Y-126553335D01*
X152966452Y-126668544D01*
X152966455Y-126668547D01*
X153081664Y-126754793D01*
X153081671Y-126754797D01*
X153216517Y-126805091D01*
X153216516Y-126805091D01*
X153223444Y-126805835D01*
X153276127Y-126811500D01*
X156673872Y-126811499D01*
X156733483Y-126805091D01*
X156868331Y-126754796D01*
X156983546Y-126668546D01*
X157069796Y-126553331D01*
X157120091Y-126418483D01*
X157126500Y-126358873D01*
X157126500Y-126358870D01*
X158123500Y-126358870D01*
X158123501Y-126358876D01*
X158129908Y-126418483D01*
X158180202Y-126553328D01*
X158180206Y-126553335D01*
X158266452Y-126668544D01*
X158266455Y-126668547D01*
X158381664Y-126754793D01*
X158381671Y-126754797D01*
X158516517Y-126805091D01*
X158516516Y-126805091D01*
X158523444Y-126805835D01*
X158576127Y-126811500D01*
X161973872Y-126811499D01*
X162033483Y-126805091D01*
X162168331Y-126754796D01*
X162283546Y-126668546D01*
X162369796Y-126553331D01*
X162420091Y-126418483D01*
X162426500Y-126358873D01*
X162426499Y-122961128D01*
X162420091Y-122901517D01*
X162369796Y-122766669D01*
X162369795Y-122766668D01*
X162369793Y-122766664D01*
X162283547Y-122651455D01*
X162283544Y-122651452D01*
X162168335Y-122565206D01*
X162168328Y-122565202D01*
X162033482Y-122514908D01*
X162033483Y-122514908D01*
X161973883Y-122508501D01*
X161973881Y-122508500D01*
X161973873Y-122508500D01*
X161973864Y-122508500D01*
X158576129Y-122508500D01*
X158576123Y-122508501D01*
X158516516Y-122514908D01*
X158381671Y-122565202D01*
X158381664Y-122565206D01*
X158266455Y-122651452D01*
X158266452Y-122651455D01*
X158180206Y-122766664D01*
X158180202Y-122766671D01*
X158129908Y-122901517D01*
X158123501Y-122961116D01*
X158123501Y-122961123D01*
X158123500Y-122961135D01*
X158123500Y-126358870D01*
X157126500Y-126358870D01*
X157126499Y-122961128D01*
X157120091Y-122901517D01*
X157069796Y-122766669D01*
X157069795Y-122766668D01*
X157069793Y-122766664D01*
X156983547Y-122651455D01*
X156983544Y-122651452D01*
X156868335Y-122565206D01*
X156868328Y-122565202D01*
X156733482Y-122514908D01*
X156733483Y-122514908D01*
X156673883Y-122508501D01*
X156673881Y-122508500D01*
X156673873Y-122508500D01*
X156673864Y-122508500D01*
X153276129Y-122508500D01*
X153276123Y-122508501D01*
X153216516Y-122514908D01*
X153081671Y-122565202D01*
X153081664Y-122565206D01*
X152966455Y-122651452D01*
X152966452Y-122651455D01*
X152880206Y-122766664D01*
X152880202Y-122766671D01*
X152829908Y-122901517D01*
X152823501Y-122961116D01*
X152823501Y-122961123D01*
X152823500Y-122961135D01*
X152823500Y-126358870D01*
X151826500Y-126358870D01*
X151826499Y-122961128D01*
X151820091Y-122901517D01*
X151769796Y-122766669D01*
X151769795Y-122766668D01*
X151769793Y-122766664D01*
X151683547Y-122651455D01*
X151683544Y-122651452D01*
X151568335Y-122565206D01*
X151568328Y-122565202D01*
X151433482Y-122514908D01*
X151433483Y-122514908D01*
X151373883Y-122508501D01*
X151373881Y-122508500D01*
X151373873Y-122508500D01*
X151373864Y-122508500D01*
X147976129Y-122508500D01*
X147976123Y-122508501D01*
X147916516Y-122514908D01*
X147781671Y-122565202D01*
X147781664Y-122565206D01*
X147666455Y-122651452D01*
X147666452Y-122651455D01*
X147580206Y-122766664D01*
X147580202Y-122766671D01*
X147529908Y-122901517D01*
X147523501Y-122961116D01*
X147523501Y-122961123D01*
X147523500Y-122961135D01*
X147523500Y-126358870D01*
X121355500Y-126358870D01*
X121355500Y-121658870D01*
X147523500Y-121658870D01*
X147523501Y-121658876D01*
X147529908Y-121718483D01*
X147580202Y-121853328D01*
X147580206Y-121853335D01*
X147666452Y-121968544D01*
X147666455Y-121968547D01*
X147781664Y-122054793D01*
X147781671Y-122054797D01*
X147916517Y-122105091D01*
X147916516Y-122105091D01*
X147923444Y-122105835D01*
X147976127Y-122111500D01*
X151373872Y-122111499D01*
X151433483Y-122105091D01*
X151568331Y-122054796D01*
X151683546Y-121968546D01*
X151769796Y-121853331D01*
X151820091Y-121718483D01*
X151826500Y-121658873D01*
X151826500Y-121658844D01*
X152824000Y-121658844D01*
X152830401Y-121718372D01*
X152830403Y-121718379D01*
X152880645Y-121853086D01*
X152880649Y-121853093D01*
X152966809Y-121968187D01*
X152966812Y-121968190D01*
X153081906Y-122054350D01*
X153081913Y-122054354D01*
X153216620Y-122104596D01*
X153216627Y-122104598D01*
X153276155Y-122110999D01*
X153276172Y-122111000D01*
X154725000Y-122111000D01*
X154725000Y-121084511D01*
X154762783Y-121095262D01*
X154921830Y-121110000D01*
X155028170Y-121110000D01*
X155187217Y-121095262D01*
X155225000Y-121084511D01*
X155225000Y-122111000D01*
X156673828Y-122111000D01*
X156673844Y-122110999D01*
X156733372Y-122104598D01*
X156733379Y-122104596D01*
X156868086Y-122054354D01*
X156868093Y-122054350D01*
X156983187Y-121968190D01*
X156983190Y-121968187D01*
X157069350Y-121853093D01*
X157069354Y-121853086D01*
X157119596Y-121718379D01*
X157119598Y-121718372D01*
X157125996Y-121658870D01*
X158123500Y-121658870D01*
X158123501Y-121658876D01*
X158129908Y-121718483D01*
X158180202Y-121853328D01*
X158180206Y-121853335D01*
X158266452Y-121968544D01*
X158266455Y-121968547D01*
X158381664Y-122054793D01*
X158381671Y-122054797D01*
X158516517Y-122105091D01*
X158516516Y-122105091D01*
X158523444Y-122105835D01*
X158576127Y-122111500D01*
X161973872Y-122111499D01*
X162033483Y-122105091D01*
X162168331Y-122054796D01*
X162283546Y-121968546D01*
X162369796Y-121853331D01*
X162420091Y-121718483D01*
X162426500Y-121658873D01*
X162426499Y-118261128D01*
X162420091Y-118201517D01*
X162402146Y-118153405D01*
X162369797Y-118066671D01*
X162369793Y-118066664D01*
X162283547Y-117951455D01*
X162283544Y-117951452D01*
X162168335Y-117865206D01*
X162168328Y-117865202D01*
X162033482Y-117814908D01*
X162033483Y-117814908D01*
X161973883Y-117808501D01*
X161973881Y-117808500D01*
X161973873Y-117808500D01*
X161973864Y-117808500D01*
X158576129Y-117808500D01*
X158576123Y-117808501D01*
X158516516Y-117814908D01*
X158381671Y-117865202D01*
X158381664Y-117865206D01*
X158266455Y-117951452D01*
X158266452Y-117951455D01*
X158180206Y-118066664D01*
X158180202Y-118066671D01*
X158129908Y-118201517D01*
X158123501Y-118261116D01*
X158123501Y-118261123D01*
X158123500Y-118261135D01*
X158123500Y-121658870D01*
X157125996Y-121658870D01*
X157125999Y-121658844D01*
X157126000Y-121658827D01*
X157126000Y-120210000D01*
X156098187Y-120210000D01*
X156125000Y-120066563D01*
X156125000Y-119853437D01*
X156098187Y-119710000D01*
X157126000Y-119710000D01*
X157126000Y-118261172D01*
X157125999Y-118261155D01*
X157119598Y-118201627D01*
X157119596Y-118201620D01*
X157069354Y-118066913D01*
X157069350Y-118066906D01*
X156983190Y-117951812D01*
X156983187Y-117951809D01*
X156868093Y-117865649D01*
X156868086Y-117865645D01*
X156733379Y-117815403D01*
X156733372Y-117815401D01*
X156673844Y-117809000D01*
X155225000Y-117809000D01*
X155225000Y-118835488D01*
X155187217Y-118824738D01*
X155028170Y-118810000D01*
X154921830Y-118810000D01*
X154762783Y-118824738D01*
X154725000Y-118835488D01*
X154725000Y-117809000D01*
X153276155Y-117809000D01*
X153216627Y-117815401D01*
X153216620Y-117815403D01*
X153081913Y-117865645D01*
X153081906Y-117865649D01*
X152966812Y-117951809D01*
X152966809Y-117951812D01*
X152880649Y-118066906D01*
X152880645Y-118066913D01*
X152830403Y-118201620D01*
X152830401Y-118201627D01*
X152824000Y-118261155D01*
X152824000Y-119710000D01*
X153851813Y-119710000D01*
X153825000Y-119853437D01*
X153825000Y-120066563D01*
X153851813Y-120210000D01*
X152824000Y-120210000D01*
X152824000Y-121658844D01*
X151826500Y-121658844D01*
X151826499Y-118261128D01*
X151820091Y-118201517D01*
X151802146Y-118153405D01*
X151769797Y-118066671D01*
X151769793Y-118066664D01*
X151683547Y-117951455D01*
X151683544Y-117951452D01*
X151568335Y-117865206D01*
X151568328Y-117865202D01*
X151433482Y-117814908D01*
X151433483Y-117814908D01*
X151373883Y-117808501D01*
X151373881Y-117808500D01*
X151373873Y-117808500D01*
X151373864Y-117808500D01*
X147976129Y-117808500D01*
X147976123Y-117808501D01*
X147916516Y-117814908D01*
X147781671Y-117865202D01*
X147781664Y-117865206D01*
X147666455Y-117951452D01*
X147666452Y-117951455D01*
X147580206Y-118066664D01*
X147580202Y-118066671D01*
X147529908Y-118201517D01*
X147523501Y-118261116D01*
X147523501Y-118261123D01*
X147523500Y-118261135D01*
X147523500Y-121658870D01*
X121355500Y-121658870D01*
X121355500Y-116840001D01*
X123929390Y-116840001D01*
X123949804Y-117125433D01*
X124010628Y-117405037D01*
X124010630Y-117405043D01*
X124010631Y-117405046D01*
X124110633Y-117673161D01*
X124110635Y-117673166D01*
X124247770Y-117924309D01*
X124247775Y-117924317D01*
X124419254Y-118153387D01*
X124419270Y-118153405D01*
X124621594Y-118355729D01*
X124621612Y-118355745D01*
X124850682Y-118527224D01*
X124850690Y-118527229D01*
X125101833Y-118664364D01*
X125101832Y-118664364D01*
X125101836Y-118664365D01*
X125101839Y-118664367D01*
X125369954Y-118764369D01*
X125369960Y-118764370D01*
X125369962Y-118764371D01*
X125649566Y-118825195D01*
X125649568Y-118825195D01*
X125649572Y-118825196D01*
X125863552Y-118840500D01*
X126006448Y-118840500D01*
X126220428Y-118825196D01*
X126222534Y-118824738D01*
X126500037Y-118764371D01*
X126500037Y-118764370D01*
X126500046Y-118764369D01*
X126768161Y-118664367D01*
X127019315Y-118527226D01*
X127248395Y-118355739D01*
X127450739Y-118153395D01*
X127622226Y-117924315D01*
X127759367Y-117673161D01*
X127859369Y-117405046D01*
X127870301Y-117354793D01*
X127920195Y-117125433D01*
X127920195Y-117125432D01*
X127920196Y-117125428D01*
X127932108Y-116958870D01*
X147523500Y-116958870D01*
X147523501Y-116958876D01*
X147529908Y-117018483D01*
X147580202Y-117153328D01*
X147580206Y-117153335D01*
X147666452Y-117268544D01*
X147666455Y-117268547D01*
X147781664Y-117354793D01*
X147781671Y-117354797D01*
X147916517Y-117405091D01*
X147916516Y-117405091D01*
X147923444Y-117405835D01*
X147976127Y-117411500D01*
X151373872Y-117411499D01*
X151433483Y-117405091D01*
X151568331Y-117354796D01*
X151683546Y-117268546D01*
X151769796Y-117153331D01*
X151820091Y-117018483D01*
X151826500Y-116958873D01*
X151826500Y-116958870D01*
X152823500Y-116958870D01*
X152823501Y-116958876D01*
X152829908Y-117018483D01*
X152880202Y-117153328D01*
X152880206Y-117153335D01*
X152966452Y-117268544D01*
X152966455Y-117268547D01*
X153081664Y-117354793D01*
X153081671Y-117354797D01*
X153216517Y-117405091D01*
X153216516Y-117405091D01*
X153223444Y-117405835D01*
X153276127Y-117411500D01*
X156673872Y-117411499D01*
X156733483Y-117405091D01*
X156868331Y-117354796D01*
X156983546Y-117268546D01*
X157069796Y-117153331D01*
X157120091Y-117018483D01*
X157126500Y-116958873D01*
X157126500Y-116958870D01*
X158123500Y-116958870D01*
X158123501Y-116958876D01*
X158129908Y-117018483D01*
X158180202Y-117153328D01*
X158180206Y-117153335D01*
X158266452Y-117268544D01*
X158266455Y-117268547D01*
X158381664Y-117354793D01*
X158381671Y-117354797D01*
X158516517Y-117405091D01*
X158516516Y-117405091D01*
X158523444Y-117405835D01*
X158576127Y-117411500D01*
X161973872Y-117411499D01*
X162033483Y-117405091D01*
X162168331Y-117354796D01*
X162283546Y-117268546D01*
X162369796Y-117153331D01*
X162420091Y-117018483D01*
X162426500Y-116958873D01*
X162426500Y-116840001D01*
X182349390Y-116840001D01*
X182369804Y-117125433D01*
X182430628Y-117405037D01*
X182430630Y-117405043D01*
X182430631Y-117405046D01*
X182530633Y-117673161D01*
X182530635Y-117673166D01*
X182667770Y-117924309D01*
X182667775Y-117924317D01*
X182839254Y-118153387D01*
X182839270Y-118153405D01*
X183041594Y-118355729D01*
X183041612Y-118355745D01*
X183270682Y-118527224D01*
X183270690Y-118527229D01*
X183521833Y-118664364D01*
X183521832Y-118664364D01*
X183521836Y-118664365D01*
X183521839Y-118664367D01*
X183789954Y-118764369D01*
X183789960Y-118764370D01*
X183789962Y-118764371D01*
X184069566Y-118825195D01*
X184069568Y-118825195D01*
X184069572Y-118825196D01*
X184283552Y-118840500D01*
X184426448Y-118840500D01*
X184640428Y-118825196D01*
X184642534Y-118824738D01*
X184920037Y-118764371D01*
X184920037Y-118764370D01*
X184920046Y-118764369D01*
X185188161Y-118664367D01*
X185439315Y-118527226D01*
X185668395Y-118355739D01*
X185870739Y-118153395D01*
X186042226Y-117924315D01*
X186179367Y-117673161D01*
X186279369Y-117405046D01*
X186290301Y-117354793D01*
X186340195Y-117125433D01*
X186340195Y-117125432D01*
X186340196Y-117125428D01*
X186360610Y-116840000D01*
X186340196Y-116554572D01*
X186279369Y-116274954D01*
X186179367Y-116006839D01*
X186042226Y-115755685D01*
X186042224Y-115755682D01*
X185870745Y-115526612D01*
X185870729Y-115526594D01*
X185668405Y-115324270D01*
X185668387Y-115324254D01*
X185439317Y-115152775D01*
X185439309Y-115152770D01*
X185188166Y-115015635D01*
X185188167Y-115015635D01*
X185080915Y-114975632D01*
X184920046Y-114915631D01*
X184920043Y-114915630D01*
X184920037Y-114915628D01*
X184640433Y-114854804D01*
X184426448Y-114839500D01*
X184283552Y-114839500D01*
X184069566Y-114854804D01*
X183789962Y-114915628D01*
X183521833Y-115015635D01*
X183270690Y-115152770D01*
X183270682Y-115152775D01*
X183041612Y-115324254D01*
X183041594Y-115324270D01*
X182839270Y-115526594D01*
X182839254Y-115526612D01*
X182667775Y-115755682D01*
X182667770Y-115755690D01*
X182530635Y-116006833D01*
X182430628Y-116274962D01*
X182369804Y-116554566D01*
X182349390Y-116839998D01*
X182349390Y-116840001D01*
X162426500Y-116840001D01*
X162426499Y-113561128D01*
X162420091Y-113501517D01*
X162369796Y-113366669D01*
X162369795Y-113366668D01*
X162369793Y-113366664D01*
X162283547Y-113251455D01*
X162283544Y-113251452D01*
X162168335Y-113165206D01*
X162168328Y-113165202D01*
X162033482Y-113114908D01*
X162033483Y-113114908D01*
X161973883Y-113108501D01*
X161973881Y-113108500D01*
X161973873Y-113108500D01*
X161973864Y-113108500D01*
X158576129Y-113108500D01*
X158576123Y-113108501D01*
X158516516Y-113114908D01*
X158381671Y-113165202D01*
X158381664Y-113165206D01*
X158266455Y-113251452D01*
X158266452Y-113251455D01*
X158180206Y-113366664D01*
X158180202Y-113366671D01*
X158129908Y-113501517D01*
X158123501Y-113561116D01*
X158123501Y-113561123D01*
X158123500Y-113561135D01*
X158123500Y-116958870D01*
X157126500Y-116958870D01*
X157126499Y-113561128D01*
X157120091Y-113501517D01*
X157069796Y-113366669D01*
X157069795Y-113366668D01*
X157069793Y-113366664D01*
X156983547Y-113251455D01*
X156983544Y-113251452D01*
X156868335Y-113165206D01*
X156868328Y-113165202D01*
X156733482Y-113114908D01*
X156733483Y-113114908D01*
X156673883Y-113108501D01*
X156673881Y-113108500D01*
X156673873Y-113108500D01*
X156673864Y-113108500D01*
X153276129Y-113108500D01*
X153276123Y-113108501D01*
X153216516Y-113114908D01*
X153081671Y-113165202D01*
X153081664Y-113165206D01*
X152966455Y-113251452D01*
X152966452Y-113251455D01*
X152880206Y-113366664D01*
X152880202Y-113366671D01*
X152829908Y-113501517D01*
X152823501Y-113561116D01*
X152823501Y-113561123D01*
X152823500Y-113561135D01*
X152823500Y-116958870D01*
X151826500Y-116958870D01*
X151826499Y-113561128D01*
X151820091Y-113501517D01*
X151769796Y-113366669D01*
X151769795Y-113366668D01*
X151769793Y-113366664D01*
X151683547Y-113251455D01*
X151683544Y-113251452D01*
X151568335Y-113165206D01*
X151568328Y-113165202D01*
X151433482Y-113114908D01*
X151433483Y-113114908D01*
X151373883Y-113108501D01*
X151373881Y-113108500D01*
X151373873Y-113108500D01*
X151373864Y-113108500D01*
X147976129Y-113108500D01*
X147976123Y-113108501D01*
X147916516Y-113114908D01*
X147781671Y-113165202D01*
X147781664Y-113165206D01*
X147666455Y-113251452D01*
X147666452Y-113251455D01*
X147580206Y-113366664D01*
X147580202Y-113366671D01*
X147529908Y-113501517D01*
X147523501Y-113561116D01*
X147523501Y-113561123D01*
X147523500Y-113561135D01*
X147523500Y-116958870D01*
X127932108Y-116958870D01*
X127940610Y-116840000D01*
X127920196Y-116554572D01*
X127859369Y-116274954D01*
X127759367Y-116006839D01*
X127622226Y-115755685D01*
X127622224Y-115755682D01*
X127450745Y-115526612D01*
X127450729Y-115526594D01*
X127248405Y-115324270D01*
X127248387Y-115324254D01*
X127019317Y-115152775D01*
X127019309Y-115152770D01*
X126768166Y-115015635D01*
X126768167Y-115015635D01*
X126660915Y-114975632D01*
X126500046Y-114915631D01*
X126500043Y-114915630D01*
X126500037Y-114915628D01*
X126220433Y-114854804D01*
X126006448Y-114839500D01*
X125863552Y-114839500D01*
X125649566Y-114854804D01*
X125369962Y-114915628D01*
X125101833Y-115015635D01*
X124850690Y-115152770D01*
X124850682Y-115152775D01*
X124621612Y-115324254D01*
X124621594Y-115324270D01*
X124419270Y-115526594D01*
X124419254Y-115526612D01*
X124247775Y-115755682D01*
X124247770Y-115755690D01*
X124110635Y-116006833D01*
X124010628Y-116274962D01*
X123949804Y-116554566D01*
X123929390Y-116839998D01*
X123929390Y-116840001D01*
X121355500Y-116840001D01*
X121355500Y-101600001D01*
X142409532Y-101600001D01*
X142429364Y-101826686D01*
X142429366Y-101826697D01*
X142488258Y-102046488D01*
X142488261Y-102046497D01*
X142584431Y-102252732D01*
X142584432Y-102252734D01*
X142714954Y-102439141D01*
X142875858Y-102600045D01*
X142875861Y-102600047D01*
X143062266Y-102730568D01*
X143268504Y-102826739D01*
X143488308Y-102885635D01*
X143650230Y-102899801D01*
X143714998Y-102905468D01*
X143715000Y-102905468D01*
X143715002Y-102905468D01*
X143771673Y-102900509D01*
X143941692Y-102885635D01*
X144161496Y-102826739D01*
X144367734Y-102730568D01*
X144554139Y-102600047D01*
X144715047Y-102439139D01*
X144845568Y-102252734D01*
X144941739Y-102046496D01*
X145000635Y-101826692D01*
X145020468Y-101600000D01*
X145000635Y-101373308D01*
X144941739Y-101153504D01*
X144845568Y-100947266D01*
X144715047Y-100760861D01*
X144715045Y-100760858D01*
X144554140Y-100599953D01*
X144393377Y-100487386D01*
X144349752Y-100432809D01*
X144340500Y-100385811D01*
X144340500Y-99060006D01*
X153569700Y-99060006D01*
X153588864Y-99291297D01*
X153588866Y-99291308D01*
X153645842Y-99516300D01*
X153739075Y-99728848D01*
X153866016Y-99923147D01*
X153866019Y-99923151D01*
X153866021Y-99923153D01*
X153960803Y-100026114D01*
X153991724Y-100088767D01*
X153983864Y-100158193D01*
X153939716Y-100212348D01*
X153912906Y-100226277D01*
X153832669Y-100256203D01*
X153832664Y-100256206D01*
X153717455Y-100342452D01*
X153717452Y-100342455D01*
X153631206Y-100457664D01*
X153631202Y-100457671D01*
X153580908Y-100592517D01*
X153574501Y-100652116D01*
X153574501Y-100652123D01*
X153574500Y-100652135D01*
X153574500Y-102547870D01*
X153574501Y-102547876D01*
X153580908Y-102607483D01*
X153631202Y-102742328D01*
X153631206Y-102742335D01*
X153717452Y-102857544D01*
X153717455Y-102857547D01*
X153832664Y-102943793D01*
X153832671Y-102943797D01*
X153967517Y-102994091D01*
X153967516Y-102994091D01*
X153974444Y-102994835D01*
X154027127Y-103000500D01*
X155922872Y-103000499D01*
X155982483Y-102994091D01*
X156117331Y-102943796D01*
X156232546Y-102857546D01*
X156318796Y-102742331D01*
X156369091Y-102607483D01*
X156375500Y-102547873D01*
X156375499Y-100652128D01*
X156369091Y-100592517D01*
X156323183Y-100469432D01*
X156318797Y-100457671D01*
X156318793Y-100457664D01*
X156232547Y-100342455D01*
X156232544Y-100342452D01*
X156117335Y-100256206D01*
X156117328Y-100256202D01*
X156037094Y-100226277D01*
X155981160Y-100184406D01*
X155956743Y-100118941D01*
X155971595Y-100050668D01*
X155989190Y-100026121D01*
X156083979Y-99923153D01*
X156210924Y-99728849D01*
X156304157Y-99516300D01*
X156361134Y-99291305D01*
X156380300Y-99060000D01*
X156380300Y-99059993D01*
X156361135Y-98828702D01*
X156361133Y-98828691D01*
X156304157Y-98603699D01*
X156210924Y-98391151D01*
X156083983Y-98196852D01*
X156083980Y-98196849D01*
X156083979Y-98196847D01*
X155926784Y-98026087D01*
X155926779Y-98026083D01*
X155926777Y-98026081D01*
X155743634Y-97883535D01*
X155743628Y-97883531D01*
X155539504Y-97773064D01*
X155539495Y-97773061D01*
X155319984Y-97697702D01*
X155148282Y-97669050D01*
X155091049Y-97659500D01*
X154858951Y-97659500D01*
X154813164Y-97667140D01*
X154630015Y-97697702D01*
X154410504Y-97773061D01*
X154410495Y-97773064D01*
X154206371Y-97883531D01*
X154206365Y-97883535D01*
X154023222Y-98026081D01*
X154023219Y-98026084D01*
X153866016Y-98196852D01*
X153739075Y-98391151D01*
X153645842Y-98603699D01*
X153588866Y-98828691D01*
X153588864Y-98828702D01*
X153569700Y-99059993D01*
X153569700Y-99060006D01*
X144340500Y-99060006D01*
X144340500Y-96830452D01*
X144360185Y-96763413D01*
X144376819Y-96742771D01*
X145100391Y-96019199D01*
X146638788Y-94480801D01*
X146651042Y-94470986D01*
X146650859Y-94470764D01*
X146656866Y-94465792D01*
X146656877Y-94465786D01*
X146687775Y-94432882D01*
X146704227Y-94415364D01*
X146714671Y-94404918D01*
X146725120Y-94394471D01*
X146729379Y-94388978D01*
X146733152Y-94384561D01*
X146765062Y-94350582D01*
X146774713Y-94333024D01*
X146785396Y-94316761D01*
X146797673Y-94300936D01*
X146816185Y-94258153D01*
X146818738Y-94252941D01*
X146841197Y-94212092D01*
X146846180Y-94192680D01*
X146852481Y-94174280D01*
X146860437Y-94155896D01*
X146867729Y-94109852D01*
X146868906Y-94104171D01*
X146880500Y-94059019D01*
X146880500Y-94038983D01*
X146882027Y-94019582D01*
X146885160Y-93999804D01*
X146880775Y-93953415D01*
X146880500Y-93947577D01*
X146880500Y-91440001D01*
X172889532Y-91440001D01*
X172909364Y-91666686D01*
X172909366Y-91666697D01*
X172968258Y-91886488D01*
X172968261Y-91886497D01*
X173064431Y-92092732D01*
X173064432Y-92092734D01*
X173194954Y-92279141D01*
X173355858Y-92440045D01*
X173355861Y-92440047D01*
X173542266Y-92570568D01*
X173748504Y-92666739D01*
X173968308Y-92725635D01*
X174130230Y-92739801D01*
X174194998Y-92745468D01*
X174195000Y-92745468D01*
X174195002Y-92745468D01*
X174251673Y-92740509D01*
X174421692Y-92725635D01*
X174641496Y-92666739D01*
X174847734Y-92570568D01*
X175034139Y-92440047D01*
X175195047Y-92279139D01*
X175325568Y-92092734D01*
X175421739Y-91886496D01*
X175480635Y-91666692D01*
X175500468Y-91440000D01*
X175480635Y-91213308D01*
X175421739Y-90993504D01*
X175325568Y-90787266D01*
X175195047Y-90600861D01*
X175034139Y-90439953D01*
X175029373Y-90436615D01*
X174998375Y-90414910D01*
X174954751Y-90360332D01*
X174945500Y-90313336D01*
X174945500Y-81642229D01*
X174965185Y-81575190D01*
X174981819Y-81554548D01*
X178265699Y-78270668D01*
X181549652Y-74986714D01*
X181610973Y-74953231D01*
X181648135Y-74950869D01*
X181791366Y-74963400D01*
X181814999Y-74965468D01*
X181815000Y-74965468D01*
X181815002Y-74965468D01*
X181871673Y-74960509D01*
X182041692Y-74945635D01*
X182261496Y-74886739D01*
X182467734Y-74790568D01*
X182654139Y-74660047D01*
X182815047Y-74499139D01*
X182945568Y-74312734D01*
X183041739Y-74106496D01*
X183100635Y-73886692D01*
X183120468Y-73660000D01*
X183100635Y-73433308D01*
X183041739Y-73213504D01*
X182945568Y-73007266D01*
X182815047Y-72820861D01*
X182815045Y-72820858D01*
X182654141Y-72659954D01*
X182467734Y-72529432D01*
X182467732Y-72529431D01*
X182261497Y-72433261D01*
X182261488Y-72433258D01*
X182041697Y-72374366D01*
X182041693Y-72374365D01*
X182041692Y-72374365D01*
X182041691Y-72374364D01*
X182041686Y-72374364D01*
X181815002Y-72354532D01*
X181814998Y-72354532D01*
X181588313Y-72374364D01*
X181588302Y-72374366D01*
X181368511Y-72433258D01*
X181368502Y-72433261D01*
X181162267Y-72529431D01*
X181162265Y-72529432D01*
X180975858Y-72659954D01*
X180814954Y-72820858D01*
X180684432Y-73007265D01*
X180684431Y-73007267D01*
X180588261Y-73213502D01*
X180588258Y-73213511D01*
X180529366Y-73433302D01*
X180529364Y-73433313D01*
X180509532Y-73659998D01*
X180509532Y-73660003D01*
X180524129Y-73826861D01*
X180510362Y-73895360D01*
X180488282Y-73925348D01*
X173709358Y-80704272D01*
X173695729Y-80716051D01*
X173676468Y-80730390D01*
X173642898Y-80770397D01*
X173639253Y-80774376D01*
X173633409Y-80780222D01*
X173613059Y-80805959D01*
X173563695Y-80864789D01*
X173559729Y-80870819D01*
X173559682Y-80870788D01*
X173555630Y-80877147D01*
X173555679Y-80877177D01*
X173551889Y-80883321D01*
X173519424Y-80952941D01*
X173484960Y-81021566D01*
X173482488Y-81028357D01*
X173482432Y-81028336D01*
X173479960Y-81035450D01*
X173480015Y-81035469D01*
X173477742Y-81042327D01*
X173469975Y-81079946D01*
X173462207Y-81117565D01*
X173449001Y-81173284D01*
X173444498Y-81192286D01*
X173443661Y-81199454D01*
X173443601Y-81199447D01*
X173442835Y-81206945D01*
X173442895Y-81206951D01*
X173442265Y-81214140D01*
X173444500Y-81290916D01*
X173444500Y-90313336D01*
X173424815Y-90380375D01*
X173391625Y-90414910D01*
X173355863Y-90439951D01*
X173194951Y-90600862D01*
X173064432Y-90787265D01*
X173064431Y-90787267D01*
X172968261Y-90993502D01*
X172968258Y-90993511D01*
X172909366Y-91213302D01*
X172909364Y-91213313D01*
X172889532Y-91439998D01*
X172889532Y-91440001D01*
X146880500Y-91440001D01*
X146880500Y-62332870D01*
X175282000Y-62332870D01*
X175282001Y-62332876D01*
X175288408Y-62392483D01*
X175338702Y-62527328D01*
X175338706Y-62527335D01*
X175424952Y-62642544D01*
X175424955Y-62642547D01*
X175540164Y-62728793D01*
X175540171Y-62728797D01*
X175675017Y-62779091D01*
X175675016Y-62779091D01*
X175681944Y-62779835D01*
X175734627Y-62785500D01*
X177735372Y-62785499D01*
X177794983Y-62779091D01*
X177929831Y-62728796D01*
X178045046Y-62642546D01*
X178131296Y-62527331D01*
X178131297Y-62527328D01*
X178131298Y-62527327D01*
X178142907Y-62496199D01*
X178184776Y-62440264D01*
X178250240Y-62415844D01*
X178318513Y-62430694D01*
X178335252Y-62441675D01*
X178477831Y-62552649D01*
X178477840Y-62552655D01*
X178689531Y-62667215D01*
X178689545Y-62667221D01*
X178917207Y-62745379D01*
X179025000Y-62763366D01*
X179025000Y-61776683D01*
X179053819Y-61794209D01*
X179199404Y-61835000D01*
X179312622Y-61835000D01*
X179424783Y-61819584D01*
X179525000Y-61776053D01*
X179525000Y-62763365D01*
X179632792Y-62745379D01*
X179860454Y-62667221D01*
X179860468Y-62667215D01*
X180072159Y-62552655D01*
X180072168Y-62552649D01*
X180262116Y-62404806D01*
X180262126Y-62404797D01*
X180425154Y-62227702D01*
X180425155Y-62227701D01*
X180440891Y-62203616D01*
X180494036Y-62158258D01*
X180563267Y-62148833D01*
X180626604Y-62178333D01*
X180648510Y-62203614D01*
X180664446Y-62228007D01*
X180664448Y-62228009D01*
X180664449Y-62228010D01*
X180827537Y-62405171D01*
X180949315Y-62499954D01*
X181017017Y-62552649D01*
X181017561Y-62553072D01*
X181182891Y-62642544D01*
X181228478Y-62667215D01*
X181229336Y-62667679D01*
X181347598Y-62708278D01*
X181457083Y-62745865D01*
X181457085Y-62745865D01*
X181457087Y-62745866D01*
X181694601Y-62785500D01*
X181694602Y-62785500D01*
X181935398Y-62785500D01*
X181935399Y-62785500D01*
X182172913Y-62745866D01*
X182400664Y-62667679D01*
X182612439Y-62553072D01*
X182802463Y-62405171D01*
X182965551Y-62228010D01*
X183097255Y-62026422D01*
X183193983Y-61805905D01*
X183253095Y-61572476D01*
X183268000Y-61392600D01*
X183268000Y-61177400D01*
X183253095Y-60997524D01*
X183193983Y-60764095D01*
X183097255Y-60543578D01*
X182965551Y-60341990D01*
X182802463Y-60164829D01*
X182645505Y-60042664D01*
X182612441Y-60016929D01*
X182400665Y-59902321D01*
X182400656Y-59902318D01*
X182172916Y-59824134D01*
X181973800Y-59790908D01*
X181935399Y-59784500D01*
X181694601Y-59784500D01*
X181656200Y-59790908D01*
X181457083Y-59824134D01*
X181229343Y-59902318D01*
X181229334Y-59902321D01*
X181017558Y-60016929D01*
X180921195Y-60091932D01*
X180827537Y-60164829D01*
X180827534Y-60164831D01*
X180827534Y-60164832D01*
X180664450Y-60341988D01*
X180664446Y-60341994D01*
X180648507Y-60366389D01*
X180595359Y-60411744D01*
X180526127Y-60421165D01*
X180462793Y-60391661D01*
X180440892Y-60366385D01*
X180425154Y-60342296D01*
X180262126Y-60165202D01*
X180262116Y-60165193D01*
X180072168Y-60017350D01*
X180072159Y-60017344D01*
X179860468Y-59902784D01*
X179860454Y-59902778D01*
X179632791Y-59824619D01*
X179525000Y-59806633D01*
X179525000Y-60793316D01*
X179496181Y-60775791D01*
X179350596Y-60735000D01*
X179237378Y-60735000D01*
X179125217Y-60750416D01*
X179025000Y-60793946D01*
X179025000Y-59806633D01*
X179024999Y-59806633D01*
X178917208Y-59824619D01*
X178689545Y-59902778D01*
X178689531Y-59902784D01*
X178477840Y-60017344D01*
X178477838Y-60017345D01*
X178335252Y-60128325D01*
X178270258Y-60153967D01*
X178201718Y-60140400D01*
X178151393Y-60091932D01*
X178142907Y-60073801D01*
X178131297Y-60042671D01*
X178131293Y-60042664D01*
X178045047Y-59927455D01*
X178045044Y-59927452D01*
X177929835Y-59841206D01*
X177929828Y-59841202D01*
X177794982Y-59790908D01*
X177794983Y-59790908D01*
X177735383Y-59784501D01*
X177735381Y-59784500D01*
X177735373Y-59784500D01*
X177735364Y-59784500D01*
X175734629Y-59784500D01*
X175734623Y-59784501D01*
X175675016Y-59790908D01*
X175540171Y-59841202D01*
X175540164Y-59841206D01*
X175424955Y-59927452D01*
X175424952Y-59927455D01*
X175338706Y-60042664D01*
X175338702Y-60042671D01*
X175288408Y-60177517D01*
X175282001Y-60237116D01*
X175282000Y-60237135D01*
X175282000Y-62332870D01*
X146880500Y-62332870D01*
X146880500Y-61042737D01*
X146882224Y-61027123D01*
X146881938Y-61027096D01*
X146882672Y-61019333D01*
X146880500Y-60950202D01*
X146880500Y-60920651D01*
X146880500Y-60920650D01*
X146879629Y-60913759D01*
X146879172Y-60907945D01*
X146877709Y-60861374D01*
X146877709Y-60861372D01*
X146872120Y-60842137D01*
X146868174Y-60823084D01*
X146865664Y-60803208D01*
X146848501Y-60759859D01*
X146846614Y-60754346D01*
X146845472Y-60750416D01*
X146833617Y-60709610D01*
X146823421Y-60692369D01*
X146814860Y-60674893D01*
X146807486Y-60656269D01*
X146807486Y-60656267D01*
X146797474Y-60642488D01*
X146780083Y-60618550D01*
X146776900Y-60613705D01*
X146753170Y-60573579D01*
X146753165Y-60573573D01*
X146739005Y-60559413D01*
X146726370Y-60544620D01*
X146714593Y-60528412D01*
X146678693Y-60498713D01*
X146674381Y-60494790D01*
X145014413Y-58834822D01*
X144980928Y-58773499D01*
X144982319Y-58715048D01*
X145000635Y-58646692D01*
X145020468Y-58420000D01*
X145000635Y-58193308D01*
X144941739Y-57973504D01*
X144845568Y-57767266D01*
X144715047Y-57580861D01*
X144715045Y-57580858D01*
X144554141Y-57419954D01*
X144367734Y-57289432D01*
X144367732Y-57289431D01*
X144161497Y-57193261D01*
X144161488Y-57193258D01*
X143941697Y-57134366D01*
X143941693Y-57134365D01*
X143941692Y-57134365D01*
X143941691Y-57134364D01*
X143941686Y-57134364D01*
X143715002Y-57114532D01*
X143714998Y-57114532D01*
X143488313Y-57134364D01*
X143488302Y-57134366D01*
X143268511Y-57193258D01*
X143268502Y-57193261D01*
X143062267Y-57289431D01*
X143062265Y-57289432D01*
X142875858Y-57419954D01*
X142714954Y-57580858D01*
X142584432Y-57767265D01*
X142584431Y-57767267D01*
X142488261Y-57973502D01*
X142488258Y-57973511D01*
X142429366Y-58193302D01*
X142429364Y-58193313D01*
X142409532Y-58419998D01*
X142409532Y-58420001D01*
X142429364Y-58646686D01*
X142429366Y-58646697D01*
X142488258Y-58866488D01*
X142488261Y-58866497D01*
X142584431Y-59072732D01*
X142584432Y-59072734D01*
X142714954Y-59259141D01*
X142875858Y-59420045D01*
X142875861Y-59420047D01*
X143062266Y-59550568D01*
X143268504Y-59646739D01*
X143488308Y-59705635D01*
X143645791Y-59719413D01*
X143714998Y-59725468D01*
X143715000Y-59725468D01*
X143715002Y-59725468D01*
X143771673Y-59720509D01*
X143941692Y-59705635D01*
X144010048Y-59687319D01*
X144079897Y-59688982D01*
X144129822Y-59719413D01*
X145593181Y-61182771D01*
X145626666Y-61244094D01*
X145629500Y-61270452D01*
X145629500Y-93669546D01*
X145609815Y-93736585D01*
X145593181Y-93757227D01*
X143331208Y-96019199D01*
X143318951Y-96029020D01*
X143319134Y-96029241D01*
X143313123Y-96034213D01*
X143265772Y-96084636D01*
X143244889Y-96105519D01*
X143244877Y-96105532D01*
X143240621Y-96111017D01*
X143236837Y-96115447D01*
X143204937Y-96149418D01*
X143204936Y-96149420D01*
X143195284Y-96166976D01*
X143184610Y-96183226D01*
X143172329Y-96199061D01*
X143172324Y-96199068D01*
X143153815Y-96241838D01*
X143151245Y-96247084D01*
X143128803Y-96287906D01*
X143123822Y-96307307D01*
X143117521Y-96325710D01*
X143109562Y-96344102D01*
X143109561Y-96344105D01*
X143102271Y-96390127D01*
X143101087Y-96395846D01*
X143089501Y-96440972D01*
X143089500Y-96440982D01*
X143089500Y-96461016D01*
X143087973Y-96480415D01*
X143084840Y-96500194D01*
X143084840Y-96500195D01*
X143089225Y-96546583D01*
X143089500Y-96552421D01*
X143089500Y-100385811D01*
X143069815Y-100452850D01*
X143036623Y-100487386D01*
X142875859Y-100599953D01*
X142714954Y-100760858D01*
X142584432Y-100947265D01*
X142584431Y-100947267D01*
X142488261Y-101153502D01*
X142488258Y-101153511D01*
X142429366Y-101373302D01*
X142429364Y-101373313D01*
X142409532Y-101599998D01*
X142409532Y-101600001D01*
X121355500Y-101600001D01*
X121355500Y-78700002D01*
X137469723Y-78700002D01*
X137488793Y-78917975D01*
X137488793Y-78917979D01*
X137545422Y-79129322D01*
X137545424Y-79129326D01*
X137545425Y-79129330D01*
X137591661Y-79228484D01*
X137637897Y-79327638D01*
X137637898Y-79327639D01*
X137763402Y-79506877D01*
X137918123Y-79661598D01*
X138097361Y-79787102D01*
X138295670Y-79879575D01*
X138507023Y-79936207D01*
X138689926Y-79952208D01*
X138724998Y-79955277D01*
X138725000Y-79955277D01*
X138725002Y-79955277D01*
X138753254Y-79952805D01*
X138942977Y-79936207D01*
X139154330Y-79879575D01*
X139352639Y-79787102D01*
X139531877Y-79661598D01*
X139686598Y-79506877D01*
X139812102Y-79327639D01*
X139904575Y-79129330D01*
X139961207Y-78917977D01*
X139980277Y-78700002D01*
X142349723Y-78700002D01*
X142368793Y-78917975D01*
X142368793Y-78917979D01*
X142425422Y-79129322D01*
X142425424Y-79129326D01*
X142425425Y-79129330D01*
X142471661Y-79228484D01*
X142517897Y-79327638D01*
X142517898Y-79327639D01*
X142643402Y-79506877D01*
X142798123Y-79661598D01*
X142977361Y-79787102D01*
X143175670Y-79879575D01*
X143387023Y-79936207D01*
X143569926Y-79952208D01*
X143604998Y-79955277D01*
X143605000Y-79955277D01*
X143605002Y-79955277D01*
X143633254Y-79952805D01*
X143822977Y-79936207D01*
X144034330Y-79879575D01*
X144232639Y-79787102D01*
X144411877Y-79661598D01*
X144566598Y-79506877D01*
X144692102Y-79327639D01*
X144784575Y-79129330D01*
X144841207Y-78917977D01*
X144860277Y-78700000D01*
X144841207Y-78482023D01*
X144784575Y-78270670D01*
X144692102Y-78072362D01*
X144692100Y-78072359D01*
X144692099Y-78072357D01*
X144566599Y-77893124D01*
X144566596Y-77893121D01*
X144411877Y-77738402D01*
X144232639Y-77612898D01*
X144232640Y-77612898D01*
X144232638Y-77612897D01*
X144133484Y-77566661D01*
X144034330Y-77520425D01*
X144034326Y-77520424D01*
X144034322Y-77520422D01*
X143822977Y-77463793D01*
X143605002Y-77444723D01*
X143604998Y-77444723D01*
X143459682Y-77457436D01*
X143387023Y-77463793D01*
X143387020Y-77463793D01*
X143175677Y-77520422D01*
X143175668Y-77520426D01*
X142977361Y-77612898D01*
X142977357Y-77612900D01*
X142798121Y-77738402D01*
X142643402Y-77893121D01*
X142517900Y-78072357D01*
X142517898Y-78072361D01*
X142425426Y-78270668D01*
X142425422Y-78270677D01*
X142368793Y-78482020D01*
X142368793Y-78482024D01*
X142349723Y-78699997D01*
X142349723Y-78700002D01*
X139980277Y-78700002D01*
X139980277Y-78700000D01*
X139961207Y-78482023D01*
X139904575Y-78270670D01*
X139812102Y-78072362D01*
X139812100Y-78072359D01*
X139812099Y-78072357D01*
X139686599Y-77893124D01*
X139686596Y-77893121D01*
X139531877Y-77738402D01*
X139352639Y-77612898D01*
X139352640Y-77612898D01*
X139352638Y-77612897D01*
X139253484Y-77566661D01*
X139154330Y-77520425D01*
X139154326Y-77520424D01*
X139154322Y-77520422D01*
X138942977Y-77463793D01*
X138725002Y-77444723D01*
X138724998Y-77444723D01*
X138579682Y-77457436D01*
X138507023Y-77463793D01*
X138507020Y-77463793D01*
X138295677Y-77520422D01*
X138295668Y-77520426D01*
X138097361Y-77612898D01*
X138097357Y-77612900D01*
X137918121Y-77738402D01*
X137763402Y-77893121D01*
X137637900Y-78072357D01*
X137637898Y-78072361D01*
X137545426Y-78270668D01*
X137545422Y-78270677D01*
X137488793Y-78482020D01*
X137488793Y-78482024D01*
X137469723Y-78699997D01*
X137469723Y-78700002D01*
X121355500Y-78700002D01*
X121355500Y-63500001D01*
X129709532Y-63500001D01*
X129729364Y-63726686D01*
X129729366Y-63726697D01*
X129788258Y-63946488D01*
X129788261Y-63946497D01*
X129884431Y-64152732D01*
X129884432Y-64152734D01*
X130014954Y-64339141D01*
X130175858Y-64500045D01*
X130175861Y-64500047D01*
X130362266Y-64630568D01*
X130568504Y-64726739D01*
X130788308Y-64785635D01*
X130950230Y-64799801D01*
X131014998Y-64805468D01*
X131015000Y-64805468D01*
X131015002Y-64805468D01*
X131071673Y-64800509D01*
X131241692Y-64785635D01*
X131461496Y-64726739D01*
X131667734Y-64630568D01*
X131854139Y-64500047D01*
X132015047Y-64339139D01*
X132127613Y-64178377D01*
X132182189Y-64134752D01*
X132229188Y-64125500D01*
X133244548Y-64125500D01*
X133311587Y-64145185D01*
X133332229Y-64161819D01*
X134795586Y-65625177D01*
X134829071Y-65686500D01*
X134827680Y-65744949D01*
X134809367Y-65813296D01*
X134809364Y-65813313D01*
X134789532Y-66039999D01*
X134789532Y-66040001D01*
X134809364Y-66266686D01*
X134809366Y-66266697D01*
X134868258Y-66486488D01*
X134868261Y-66486497D01*
X134964431Y-66692732D01*
X134964432Y-66692734D01*
X135094954Y-66879141D01*
X135255858Y-67040045D01*
X135255861Y-67040047D01*
X135442266Y-67170568D01*
X135648504Y-67266739D01*
X135868308Y-67325635D01*
X136030230Y-67339801D01*
X136094998Y-67345468D01*
X136095000Y-67345468D01*
X136095002Y-67345468D01*
X136151673Y-67340509D01*
X136321692Y-67325635D01*
X136541496Y-67266739D01*
X136747734Y-67170568D01*
X136934139Y-67040047D01*
X137095047Y-66879139D01*
X137225568Y-66692734D01*
X137321739Y-66486496D01*
X137380635Y-66266692D01*
X137400468Y-66040000D01*
X137380635Y-65813308D01*
X137321739Y-65593504D01*
X137225568Y-65387266D01*
X137095047Y-65200861D01*
X137095045Y-65200858D01*
X136934141Y-65039954D01*
X136747734Y-64909432D01*
X136747732Y-64909431D01*
X136541497Y-64813261D01*
X136541488Y-64813258D01*
X136321697Y-64754366D01*
X136321693Y-64754365D01*
X136321692Y-64754365D01*
X136321691Y-64754364D01*
X136321686Y-64754364D01*
X136095002Y-64734532D01*
X136094999Y-64734532D01*
X135868313Y-64754364D01*
X135868296Y-64754367D01*
X135799949Y-64772680D01*
X135730099Y-64771016D01*
X135680177Y-64740586D01*
X134055803Y-63116212D01*
X134045980Y-63103950D01*
X134045759Y-63104134D01*
X134040786Y-63098123D01*
X133990364Y-63050773D01*
X133979919Y-63040328D01*
X133969475Y-63029883D01*
X133963986Y-63025625D01*
X133959561Y-63021847D01*
X133925582Y-62989938D01*
X133925580Y-62989936D01*
X133925577Y-62989935D01*
X133908029Y-62980288D01*
X133891763Y-62969604D01*
X133875933Y-62957325D01*
X133833168Y-62938818D01*
X133827922Y-62936248D01*
X133787093Y-62913803D01*
X133787092Y-62913802D01*
X133767693Y-62908822D01*
X133749281Y-62902518D01*
X133730898Y-62894562D01*
X133730892Y-62894560D01*
X133684874Y-62887272D01*
X133679152Y-62886087D01*
X133634021Y-62874500D01*
X133634019Y-62874500D01*
X133613984Y-62874500D01*
X133594586Y-62872973D01*
X133587162Y-62871797D01*
X133574805Y-62869840D01*
X133574804Y-62869840D01*
X133528416Y-62874225D01*
X133522578Y-62874500D01*
X132229188Y-62874500D01*
X132162149Y-62854815D01*
X132127613Y-62821623D01*
X132015045Y-62660858D01*
X131854141Y-62499954D01*
X131667734Y-62369432D01*
X131667732Y-62369431D01*
X131461497Y-62273261D01*
X131461488Y-62273258D01*
X131241697Y-62214366D01*
X131241693Y-62214365D01*
X131241692Y-62214365D01*
X131241691Y-62214364D01*
X131241686Y-62214364D01*
X131015002Y-62194532D01*
X131014998Y-62194532D01*
X130788313Y-62214364D01*
X130788302Y-62214366D01*
X130568511Y-62273258D01*
X130568502Y-62273261D01*
X130362267Y-62369431D01*
X130362265Y-62369432D01*
X130175858Y-62499954D01*
X130014954Y-62660858D01*
X129884432Y-62847265D01*
X129884431Y-62847267D01*
X129788261Y-63053502D01*
X129788258Y-63053511D01*
X129729366Y-63273302D01*
X129729364Y-63273313D01*
X129709532Y-63499998D01*
X129709532Y-63500001D01*
X121355500Y-63500001D01*
X121355500Y-54237844D01*
X148065000Y-54237844D01*
X148071401Y-54297372D01*
X148071403Y-54297379D01*
X148121645Y-54432086D01*
X148121649Y-54432093D01*
X148207809Y-54547187D01*
X148207812Y-54547190D01*
X148322906Y-54633350D01*
X148322913Y-54633354D01*
X148457620Y-54683596D01*
X148457627Y-54683598D01*
X148517155Y-54689999D01*
X148517172Y-54690000D01*
X149165000Y-54690000D01*
X149165000Y-53775501D01*
X149272685Y-53824680D01*
X149379237Y-53840000D01*
X149450763Y-53840000D01*
X149557315Y-53824680D01*
X149665000Y-53775501D01*
X149665000Y-54690000D01*
X150312828Y-54690000D01*
X150312844Y-54689999D01*
X150372372Y-54683598D01*
X150372379Y-54683596D01*
X150507086Y-54633354D01*
X150507093Y-54633350D01*
X150622187Y-54547190D01*
X150622190Y-54547187D01*
X150708350Y-54432093D01*
X150708354Y-54432086D01*
X150757422Y-54300529D01*
X150799293Y-54244595D01*
X150864757Y-54220178D01*
X150933030Y-54235030D01*
X150961285Y-54256181D01*
X151083599Y-54378495D01*
X151180384Y-54446265D01*
X151277165Y-54514032D01*
X151277167Y-54514033D01*
X151277170Y-54514035D01*
X151491337Y-54613903D01*
X151719592Y-54675063D01*
X151896034Y-54690500D01*
X151954999Y-54695659D01*
X151955000Y-54695659D01*
X151955001Y-54695659D01*
X152013966Y-54690500D01*
X152190408Y-54675063D01*
X152418663Y-54613903D01*
X152632830Y-54514035D01*
X152826401Y-54378495D01*
X152993495Y-54211401D01*
X153123425Y-54025842D01*
X153178002Y-53982217D01*
X153247500Y-53975023D01*
X153309855Y-54006546D01*
X153326575Y-54025842D01*
X153456500Y-54211395D01*
X153456505Y-54211401D01*
X153623599Y-54378495D01*
X153720384Y-54446265D01*
X153817165Y-54514032D01*
X153817167Y-54514033D01*
X153817170Y-54514035D01*
X154031337Y-54613903D01*
X154259592Y-54675063D01*
X154436034Y-54690500D01*
X154494999Y-54695659D01*
X154495000Y-54695659D01*
X154495001Y-54695659D01*
X154553966Y-54690500D01*
X154730408Y-54675063D01*
X154958663Y-54613903D01*
X155172830Y-54514035D01*
X155366401Y-54378495D01*
X155533495Y-54211401D01*
X155669035Y-54017830D01*
X155768903Y-53803663D01*
X155826153Y-53590000D01*
X162704364Y-53590000D01*
X162761567Y-53803486D01*
X162761570Y-53803492D01*
X162861399Y-54017578D01*
X162996894Y-54211082D01*
X163163917Y-54378105D01*
X163357421Y-54513600D01*
X163571507Y-54613429D01*
X163571516Y-54613433D01*
X163785000Y-54670634D01*
X163785000Y-53775501D01*
X163892685Y-53824680D01*
X163999237Y-53840000D01*
X164070763Y-53840000D01*
X164177315Y-53824680D01*
X164285000Y-53775501D01*
X164285000Y-54670633D01*
X164498483Y-54613433D01*
X164498492Y-54613429D01*
X164712578Y-54513600D01*
X164906078Y-54378108D01*
X165028133Y-54256053D01*
X165089456Y-54222568D01*
X165159148Y-54227552D01*
X165215082Y-54269423D01*
X165231997Y-54300401D01*
X165281202Y-54432328D01*
X165281206Y-54432335D01*
X165367452Y-54547544D01*
X165367455Y-54547547D01*
X165482664Y-54633793D01*
X165482671Y-54633797D01*
X165617517Y-54684091D01*
X165617516Y-54684091D01*
X165624444Y-54684835D01*
X165677127Y-54690500D01*
X167472872Y-54690499D01*
X167532483Y-54684091D01*
X167667331Y-54633796D01*
X167782546Y-54547546D01*
X167868796Y-54432331D01*
X167919091Y-54297483D01*
X167925500Y-54237873D01*
X167925500Y-54237870D01*
X172844500Y-54237870D01*
X172844501Y-54237876D01*
X172850908Y-54297483D01*
X172901202Y-54432328D01*
X172901206Y-54432335D01*
X172987452Y-54547544D01*
X172987455Y-54547547D01*
X173102664Y-54633793D01*
X173102671Y-54633797D01*
X173237517Y-54684091D01*
X173237516Y-54684091D01*
X173244444Y-54684835D01*
X173297127Y-54690500D01*
X175092872Y-54690499D01*
X175152483Y-54684091D01*
X175287331Y-54633796D01*
X175402546Y-54547546D01*
X175488796Y-54432331D01*
X175537810Y-54300916D01*
X175579681Y-54244984D01*
X175645145Y-54220566D01*
X175713418Y-54235417D01*
X175741673Y-54256569D01*
X175863599Y-54378495D01*
X175960384Y-54446265D01*
X176057165Y-54514032D01*
X176057167Y-54514033D01*
X176057170Y-54514035D01*
X176271337Y-54613903D01*
X176499592Y-54675063D01*
X176676034Y-54690500D01*
X176734999Y-54695659D01*
X176735000Y-54695659D01*
X176735001Y-54695659D01*
X176793966Y-54690500D01*
X176970408Y-54675063D01*
X177198663Y-54613903D01*
X177412830Y-54514035D01*
X177606401Y-54378495D01*
X177773495Y-54211401D01*
X177909035Y-54017830D01*
X178008903Y-53803663D01*
X178070063Y-53575408D01*
X178090659Y-53340000D01*
X178070063Y-53104592D01*
X178008903Y-52876337D01*
X177909035Y-52662171D01*
X177903425Y-52654158D01*
X177773494Y-52468597D01*
X177606402Y-52301506D01*
X177606395Y-52301501D01*
X177412834Y-52165967D01*
X177412830Y-52165965D01*
X177341727Y-52132809D01*
X177198663Y-52066097D01*
X177198659Y-52066096D01*
X177198655Y-52066094D01*
X176970413Y-52004938D01*
X176970403Y-52004936D01*
X176735001Y-51984341D01*
X176734999Y-51984341D01*
X176499596Y-52004936D01*
X176499586Y-52004938D01*
X176271344Y-52066094D01*
X176271335Y-52066098D01*
X176057171Y-52165964D01*
X176057169Y-52165965D01*
X175863600Y-52301503D01*
X175741673Y-52423430D01*
X175680350Y-52456914D01*
X175610658Y-52451930D01*
X175554725Y-52410058D01*
X175537810Y-52379081D01*
X175488797Y-52247671D01*
X175488793Y-52247664D01*
X175402547Y-52132455D01*
X175402544Y-52132452D01*
X175287335Y-52046206D01*
X175287328Y-52046202D01*
X175152482Y-51995908D01*
X175152483Y-51995908D01*
X175092883Y-51989501D01*
X175092881Y-51989500D01*
X175092873Y-51989500D01*
X175092864Y-51989500D01*
X173297129Y-51989500D01*
X173297123Y-51989501D01*
X173237516Y-51995908D01*
X173102671Y-52046202D01*
X173102664Y-52046206D01*
X172987455Y-52132452D01*
X172987452Y-52132455D01*
X172901206Y-52247664D01*
X172901202Y-52247671D01*
X172850908Y-52382517D01*
X172845209Y-52435532D01*
X172844501Y-52442123D01*
X172844500Y-52442135D01*
X172844500Y-54237870D01*
X167925500Y-54237870D01*
X167925499Y-52442128D01*
X167919091Y-52382517D01*
X167918002Y-52379598D01*
X167868797Y-52247671D01*
X167868793Y-52247664D01*
X167782547Y-52132455D01*
X167782544Y-52132452D01*
X167667335Y-52046206D01*
X167667328Y-52046202D01*
X167532482Y-51995908D01*
X167532483Y-51995908D01*
X167472883Y-51989501D01*
X167472881Y-51989500D01*
X167472873Y-51989500D01*
X167472864Y-51989500D01*
X165677129Y-51989500D01*
X165677123Y-51989501D01*
X165617516Y-51995908D01*
X165482671Y-52046202D01*
X165482664Y-52046206D01*
X165367455Y-52132452D01*
X165367452Y-52132455D01*
X165281206Y-52247664D01*
X165281202Y-52247671D01*
X165231997Y-52379598D01*
X165190126Y-52435532D01*
X165124661Y-52459949D01*
X165056388Y-52445097D01*
X165028134Y-52423946D01*
X164906082Y-52301894D01*
X164712578Y-52166399D01*
X164498492Y-52066570D01*
X164498486Y-52066567D01*
X164285000Y-52009364D01*
X164285000Y-52904498D01*
X164177315Y-52855320D01*
X164070763Y-52840000D01*
X163999237Y-52840000D01*
X163892685Y-52855320D01*
X163785000Y-52904498D01*
X163785000Y-52009364D01*
X163784999Y-52009364D01*
X163571513Y-52066567D01*
X163571507Y-52066570D01*
X163357422Y-52166399D01*
X163357420Y-52166400D01*
X163163926Y-52301886D01*
X163163920Y-52301891D01*
X162996891Y-52468920D01*
X162996886Y-52468926D01*
X162861400Y-52662420D01*
X162861399Y-52662422D01*
X162761570Y-52876507D01*
X162761567Y-52876513D01*
X162704364Y-53089999D01*
X162704364Y-53090000D01*
X163601314Y-53090000D01*
X163575507Y-53130156D01*
X163535000Y-53268111D01*
X163535000Y-53411889D01*
X163575507Y-53549844D01*
X163601314Y-53590000D01*
X162704364Y-53590000D01*
X155826153Y-53590000D01*
X155830063Y-53575408D01*
X155850659Y-53340000D01*
X155830063Y-53104592D01*
X155768903Y-52876337D01*
X155669035Y-52662171D01*
X155663425Y-52654158D01*
X155533494Y-52468597D01*
X155366402Y-52301506D01*
X155366395Y-52301501D01*
X155172834Y-52165967D01*
X155172830Y-52165965D01*
X155101727Y-52132809D01*
X154958663Y-52066097D01*
X154958659Y-52066096D01*
X154958655Y-52066094D01*
X154730413Y-52004938D01*
X154730403Y-52004936D01*
X154495001Y-51984341D01*
X154494999Y-51984341D01*
X154259596Y-52004936D01*
X154259586Y-52004938D01*
X154031344Y-52066094D01*
X154031335Y-52066098D01*
X153817171Y-52165964D01*
X153817169Y-52165965D01*
X153623597Y-52301505D01*
X153456505Y-52468597D01*
X153326575Y-52654158D01*
X153271998Y-52697783D01*
X153202500Y-52704977D01*
X153140145Y-52673454D01*
X153123425Y-52654158D01*
X152993494Y-52468597D01*
X152826402Y-52301506D01*
X152826395Y-52301501D01*
X152632834Y-52165967D01*
X152632830Y-52165965D01*
X152561727Y-52132809D01*
X152418663Y-52066097D01*
X152418659Y-52066096D01*
X152418655Y-52066094D01*
X152190413Y-52004938D01*
X152190403Y-52004936D01*
X151955001Y-51984341D01*
X151954999Y-51984341D01*
X151719596Y-52004936D01*
X151719586Y-52004938D01*
X151491344Y-52066094D01*
X151491335Y-52066098D01*
X151277171Y-52165964D01*
X151277169Y-52165965D01*
X151083600Y-52301503D01*
X150961284Y-52423819D01*
X150899961Y-52457303D01*
X150830269Y-52452319D01*
X150774336Y-52410447D01*
X150757421Y-52379470D01*
X150708354Y-52247913D01*
X150708350Y-52247906D01*
X150622190Y-52132812D01*
X150622187Y-52132809D01*
X150507093Y-52046649D01*
X150507086Y-52046645D01*
X150372379Y-51996403D01*
X150372372Y-51996401D01*
X150312844Y-51990000D01*
X149665000Y-51990000D01*
X149665000Y-52904498D01*
X149557315Y-52855320D01*
X149450763Y-52840000D01*
X149379237Y-52840000D01*
X149272685Y-52855320D01*
X149165000Y-52904498D01*
X149165000Y-51990000D01*
X148517155Y-51990000D01*
X148457627Y-51996401D01*
X148457620Y-51996403D01*
X148322913Y-52046645D01*
X148322906Y-52046649D01*
X148207812Y-52132809D01*
X148207809Y-52132812D01*
X148121649Y-52247906D01*
X148121645Y-52247913D01*
X148071403Y-52382620D01*
X148071401Y-52382627D01*
X148065000Y-52442155D01*
X148065000Y-53090000D01*
X148981314Y-53090000D01*
X148955507Y-53130156D01*
X148915000Y-53268111D01*
X148915000Y-53411889D01*
X148955507Y-53549844D01*
X148981314Y-53590000D01*
X148065000Y-53590000D01*
X148065000Y-54237844D01*
X121355500Y-54237844D01*
X121355500Y-45720000D01*
X123929390Y-45720000D01*
X123949804Y-46005433D01*
X124010628Y-46285037D01*
X124110635Y-46553166D01*
X124247770Y-46804309D01*
X124247775Y-46804317D01*
X124419254Y-47033387D01*
X124419270Y-47033405D01*
X124621594Y-47235729D01*
X124621612Y-47235745D01*
X124850682Y-47407224D01*
X124850690Y-47407229D01*
X125101833Y-47544364D01*
X125101832Y-47544364D01*
X125101836Y-47544365D01*
X125101839Y-47544367D01*
X125369954Y-47644369D01*
X125369960Y-47644370D01*
X125369962Y-47644371D01*
X125649566Y-47705195D01*
X125649568Y-47705195D01*
X125649572Y-47705196D01*
X125863552Y-47720500D01*
X126006448Y-47720500D01*
X126220428Y-47705196D01*
X126500046Y-47644369D01*
X126768161Y-47544367D01*
X127019315Y-47407226D01*
X127248395Y-47235739D01*
X127450739Y-47033395D01*
X127622226Y-46804315D01*
X127759367Y-46553161D01*
X127859369Y-46285046D01*
X127920196Y-46005428D01*
X127940610Y-45720000D01*
X182349390Y-45720000D01*
X182369804Y-46005433D01*
X182430628Y-46285037D01*
X182530635Y-46553166D01*
X182667770Y-46804309D01*
X182667775Y-46804317D01*
X182839254Y-47033387D01*
X182839270Y-47033405D01*
X183041594Y-47235729D01*
X183041612Y-47235745D01*
X183270682Y-47407224D01*
X183270690Y-47407229D01*
X183521833Y-47544364D01*
X183521832Y-47544364D01*
X183521836Y-47544365D01*
X183521839Y-47544367D01*
X183789954Y-47644369D01*
X183789960Y-47644370D01*
X183789962Y-47644371D01*
X184069566Y-47705195D01*
X184069568Y-47705195D01*
X184069572Y-47705196D01*
X184283552Y-47720500D01*
X184426448Y-47720500D01*
X184640428Y-47705196D01*
X184920046Y-47644369D01*
X185188161Y-47544367D01*
X185439315Y-47407226D01*
X185668395Y-47235739D01*
X185870739Y-47033395D01*
X186042226Y-46804315D01*
X186179367Y-46553161D01*
X186279369Y-46285046D01*
X186340196Y-46005428D01*
X186360610Y-45720000D01*
X186340196Y-45434572D01*
X186279369Y-45154954D01*
X186179367Y-44886839D01*
X186042226Y-44635685D01*
X185968636Y-44537380D01*
X185870745Y-44406612D01*
X185870729Y-44406594D01*
X185668405Y-44204270D01*
X185668387Y-44204254D01*
X185439317Y-44032775D01*
X185439309Y-44032770D01*
X185188166Y-43895635D01*
X185188167Y-43895635D01*
X185080915Y-43855632D01*
X184920046Y-43795631D01*
X184920043Y-43795630D01*
X184920037Y-43795628D01*
X184640433Y-43734804D01*
X184426448Y-43719500D01*
X184283552Y-43719500D01*
X184069566Y-43734804D01*
X183789962Y-43795628D01*
X183521833Y-43895635D01*
X183270690Y-44032770D01*
X183270682Y-44032775D01*
X183041612Y-44204254D01*
X183041594Y-44204270D01*
X182839270Y-44406594D01*
X182839254Y-44406612D01*
X182667775Y-44635682D01*
X182667770Y-44635690D01*
X182530635Y-44886833D01*
X182430628Y-45154962D01*
X182369804Y-45434566D01*
X182349390Y-45719998D01*
X182349390Y-45720000D01*
X127940610Y-45720000D01*
X127920196Y-45434572D01*
X127859369Y-45154954D01*
X127759367Y-44886839D01*
X127622226Y-44635685D01*
X127548636Y-44537380D01*
X127450745Y-44406612D01*
X127450729Y-44406594D01*
X127248405Y-44204270D01*
X127248387Y-44204254D01*
X127019317Y-44032775D01*
X127019309Y-44032770D01*
X126768166Y-43895635D01*
X126768167Y-43895635D01*
X126660915Y-43855632D01*
X126500046Y-43795631D01*
X126500043Y-43795630D01*
X126500037Y-43795628D01*
X126220433Y-43734804D01*
X126006448Y-43719500D01*
X125863552Y-43719500D01*
X125649566Y-43734804D01*
X125369962Y-43795628D01*
X125101833Y-43895635D01*
X124850690Y-44032770D01*
X124850682Y-44032775D01*
X124621612Y-44204254D01*
X124621594Y-44204270D01*
X124419270Y-44406594D01*
X124419254Y-44406612D01*
X124247775Y-44635682D01*
X124247770Y-44635690D01*
X124110635Y-44886833D01*
X124010628Y-45154962D01*
X123949804Y-45434566D01*
X123929390Y-45719998D01*
X123929390Y-45720000D01*
X121355500Y-45720000D01*
X121372808Y-45323550D01*
X121373277Y-45318202D01*
X121424720Y-44927452D01*
X121425658Y-44922140D01*
X121489162Y-44635690D01*
X121510958Y-44537373D01*
X121512351Y-44532175D01*
X121630867Y-44156288D01*
X121632702Y-44151245D01*
X121783534Y-43787101D01*
X121785801Y-43782241D01*
X121967793Y-43432639D01*
X121970489Y-43427971D01*
X122182240Y-43095587D01*
X122185333Y-43091169D01*
X122425264Y-42778483D01*
X122428723Y-42774362D01*
X122694986Y-42483787D01*
X122698787Y-42479986D01*
X122989362Y-42213723D01*
X122993483Y-42210264D01*
X123306169Y-41970333D01*
X123310579Y-41967245D01*
X123642971Y-41755489D01*
X123647639Y-41752793D01*
X123997241Y-41570801D01*
X124002101Y-41568534D01*
X124366245Y-41417702D01*
X124371288Y-41415867D01*
X124747175Y-41297351D01*
X124752373Y-41295958D01*
X124993239Y-41242559D01*
X125137140Y-41210658D01*
X125142452Y-41209720D01*
X125533202Y-41158277D01*
X125538550Y-41157808D01*
X125918209Y-41141233D01*
X125935001Y-41140500D01*
X126000892Y-41140500D01*
X184289108Y-41140500D01*
X184354999Y-41140500D01*
X184372532Y-41141265D01*
G37*
%TD.AperFunction*%
%TD*%
M02*
