M48
; DRILL file {KiCad 7.0.8} date Tue Nov 14 15:55:18 2023
; FORMAT={-:-/ absolute / inch / decimal}
; #@! TF.CreationDate,2023-11-14T15:55:18-08:00
; #@! TF.GenerationSoftware,Kicad,Pcbnew,7.0.8
; #@! TF.FileFunction,Plated,1,2,PTH
FMAT,2
INCH
; #@! TA.AperFunction,Plated,PTH,ViaDrill
T1C0.0315
; #@! TA.AperFunction,Plated,PTH,ComponentDrill
T2C0.0315
; #@! TA.AperFunction,Plated,PTH,ComponentDrill
T3C0.0354
; #@! TA.AperFunction,Plated,PTH,ComponentDrill
T4C0.0394
; #@! TA.AperFunction,Plated,PTH,ComponentDrill
T5C0.0433
; #@! TA.AperFunction,Plated,PTH,ComponentDrill
T6C0.0551
; #@! TA.AperFunction,Plated,PTH,ComponentDrill
T7C0.0906
%
G90
G05
T1
X5.1581Y-2.5
X5.3581Y-2.6
X5.5581Y-2.6
X5.5581Y-4.0
X5.6581Y-2.1
X5.6581Y-2.3
X5.6581Y-4.0
X6.2927Y-5.1804
X6.6581Y-2.5795
X6.7581Y-3.6
X6.8581Y-3.6
X7.0581Y-4.0
X7.1581Y-2.1
X7.1581Y-2.9
T2
X5.4616Y-3.0984
X5.6537Y-3.0984
T3
X6.1014Y-3.9
X6.1014Y-4.0
T4
X5.8825Y-2.1
X5.9825Y-2.1
X6.0825Y-2.1
X6.4581Y-2.1
X6.5581Y-2.1
X6.8581Y-2.1
X6.9581Y-2.1
T5
X6.9581Y-2.4128
X7.0581Y-2.4128
X7.1581Y-2.4128
T6
X5.051Y-5.1805
X5.051Y-5.8195
X5.301Y-5.1805
X5.301Y-5.8195
X5.551Y-5.1805
X5.551Y-5.8195
X6.6581Y-5.1805
X6.6581Y-5.8195
X6.9081Y-5.1805
X6.9081Y-5.8195
X7.1581Y-5.1805
X7.1581Y-5.8195
T7
X5.8927Y-4.5378
X5.8927Y-4.7228
X5.8927Y-4.9079
X6.1014Y-4.5378
X6.1014Y-4.7228
X6.1014Y-4.9079
X6.31Y-4.5378
X6.31Y-4.7228
X6.31Y-4.9079
T0
M30
