%TF.GenerationSoftware,KiCad,Pcbnew,7.0.8*%
%TF.CreationDate,2023-11-14T15:55:11-08:00*%
%TF.ProjectId,guitar_pedal,67756974-6172-45f7-9065-64616c2e6b69,rev?*%
%TF.SameCoordinates,Original*%
%TF.FileFunction,Soldermask,Top*%
%TF.FilePolarity,Negative*%
%FSLAX46Y46*%
G04 Gerber Fmt 4.6, Leading zero omitted, Abs format (unit mm)*
G04 Created by KiCad (PCBNEW 7.0.8) date 2023-11-14 15:55:11*
%MOMM*%
%LPD*%
G01*
G04 APERTURE LIST*
G04 Aperture macros list*
%AMRoundRect*
0 Rectangle with rounded corners*
0 $1 Rounding radius*
0 $2 $3 $4 $5 $6 $7 $8 $9 X,Y pos of 4 corners*
0 Add a 4 corners polygon primitive as box body*
4,1,4,$2,$3,$4,$5,$6,$7,$8,$9,$2,$3,0*
0 Add four circle primitives for the rounded corners*
1,1,$1+$1,$2,$3*
1,1,$1+$1,$4,$5*
1,1,$1+$1,$6,$7*
1,1,$1+$1,$8,$9*
0 Add four rect primitives between the rounded corners*
20,1,$1+$1,$2,$3,$4,$5,0*
20,1,$1+$1,$4,$5,$6,$7,0*
20,1,$1+$1,$6,$7,$8,$9,0*
20,1,$1+$1,$8,$9,$2,$3,0*%
G04 Aperture macros list end*
%ADD10C,3.500000*%
%ADD11RoundRect,0.250000X0.312500X0.625000X-0.312500X0.625000X-0.312500X-0.625000X0.312500X-0.625000X0*%
%ADD12RoundRect,0.250000X0.325000X0.650000X-0.325000X0.650000X-0.325000X-0.650000X0.325000X-0.650000X0*%
%ADD13RoundRect,0.250000X-0.325000X-0.650000X0.325000X-0.650000X0.325000X0.650000X-0.325000X0.650000X0*%
%ADD14RoundRect,0.250000X-0.650000X0.325000X-0.650000X-0.325000X0.650000X-0.325000X0.650000X0.325000X0*%
%ADD15RoundRect,0.250000X-0.625000X0.312500X-0.625000X-0.312500X0.625000X-0.312500X0.625000X0.312500X0*%
%ADD16R,1.905000X2.000000*%
%ADD17O,1.905000X2.000000*%
%ADD18R,1.800000X1.800000*%
%ADD19C,1.800000*%
%ADD20C,3.000000*%
%ADD21RoundRect,0.250000X-0.312500X-0.625000X0.312500X-0.625000X0.312500X0.625000X-0.312500X0.625000X0*%
%ADD22C,1.500000*%
%ADD23RoundRect,0.218750X0.218750X0.256250X-0.218750X0.256250X-0.218750X-0.256250X0.218750X-0.256250X0*%
%ADD24O,1.600000X1.600000*%
%ADD25R,1.600000X1.600000*%
%ADD26RoundRect,0.250000X0.625000X-0.312500X0.625000X0.312500X-0.625000X0.312500X-0.625000X-0.312500X0*%
%ADD27RoundRect,0.250000X0.650000X-0.325000X0.650000X0.325000X-0.650000X0.325000X-0.650000X-0.325000X0*%
%ADD28R,1.700000X1.700000*%
%ADD29O,1.700000X1.700000*%
%ADD30RoundRect,0.150000X-0.825000X-0.150000X0.825000X-0.150000X0.825000X0.150000X-0.825000X0.150000X0*%
%ADD31R,2.290000X3.000000*%
%ADD32RoundRect,0.150000X0.150000X-0.825000X0.150000X0.825000X-0.150000X0.825000X-0.150000X-0.825000X0*%
%ADD33R,3.000000X2.290000*%
%ADD34R,3.302000X3.302000*%
%ADD35R,1.500000X0.550000*%
%ADD36R,0.550000X1.500000*%
G04 APERTURE END LIST*
D10*
%TO.C,REF\u002A\u002A*%
X154991595Y-148530087D03*
%TD*%
D11*
%TO.C,R5*%
X133760000Y-96405000D03*
X130835000Y-96405000D03*
%TD*%
D12*
%TO.C,C5*%
X132170000Y-83780000D03*
X129220000Y-83780000D03*
%TD*%
D13*
%TO.C,C7*%
X130822500Y-101485000D03*
X133772500Y-101485000D03*
%TD*%
D14*
%TO.C,C3*%
X176735000Y-66040000D03*
X176735000Y-68990000D03*
%TD*%
D15*
%TO.C,R11*%
X154975000Y-92517500D03*
X154975000Y-95442500D03*
%TD*%
D11*
%TO.C,R3*%
X150257500Y-93980000D03*
X147332500Y-93980000D03*
%TD*%
D16*
%TO.C,U2*%
X176735000Y-61285000D03*
D17*
X179275000Y-61285000D03*
X181815000Y-61285000D03*
%TD*%
D18*
%TO.C,D2*%
X154975000Y-101600000D03*
D19*
X154975000Y-99060000D03*
%TD*%
D11*
%TO.C,R8*%
X165497500Y-81280000D03*
X162572500Y-81280000D03*
%TD*%
D20*
%TO.C,J2*%
X175465000Y-147815000D03*
X175465000Y-131585000D03*
X169115000Y-147815000D03*
X169115000Y-131585000D03*
X181815000Y-147815000D03*
X181815000Y-131585000D03*
%TD*%
D12*
%TO.C,C10*%
X165510000Y-96520000D03*
X162560000Y-96520000D03*
%TD*%
D14*
%TO.C,C1*%
X171655000Y-66040000D03*
X171655000Y-68990000D03*
%TD*%
D13*
%TO.C,C16*%
X122985000Y-66040000D03*
X125935000Y-66040000D03*
%TD*%
D11*
%TO.C,R7*%
X165497500Y-91440000D03*
X162572500Y-91440000D03*
%TD*%
D21*
%TO.C,R2*%
X147332500Y-104025000D03*
X150257500Y-104025000D03*
%TD*%
D22*
%TO.C,Y1*%
X138725000Y-78700000D03*
X143605000Y-78700000D03*
%TD*%
D23*
%TO.C,D1*%
X177522500Y-73660000D03*
X175947500Y-73660000D03*
%TD*%
D12*
%TO.C,C14*%
X170590000Y-81280000D03*
X167640000Y-81280000D03*
%TD*%
D24*
%TO.C,J3*%
X135775000Y-58420000D03*
D25*
X138315000Y-58420000D03*
D24*
X135775000Y-60960000D03*
X138315000Y-60960000D03*
X135775000Y-63500000D03*
X138315000Y-63500000D03*
%TD*%
D11*
%TO.C,R4*%
X133760000Y-106565000D03*
X130835000Y-106565000D03*
%TD*%
D26*
%TO.C,R12*%
X131015000Y-70042500D03*
X131015000Y-67117500D03*
%TD*%
D12*
%TO.C,C11*%
X175670000Y-101600000D03*
X172720000Y-101600000D03*
%TD*%
D27*
%TO.C,C15*%
X164035000Y-62435000D03*
X164035000Y-59485000D03*
%TD*%
D28*
%TO.C,RV1*%
X149415000Y-53340000D03*
D29*
X151955000Y-53340000D03*
X154495000Y-53340000D03*
%TD*%
D12*
%TO.C,C17*%
X125935000Y-60960000D03*
X122985000Y-60960000D03*
%TD*%
%TO.C,C13*%
X175670000Y-86360000D03*
X172720000Y-86360000D03*
%TD*%
D10*
%TO.C,REF\u002A\u002A*%
X184355000Y-116840000D03*
%TD*%
D30*
%TO.C,U3*%
X136872500Y-92710000D03*
X136872500Y-93980000D03*
X136872500Y-95250000D03*
X136872500Y-96520000D03*
X141822500Y-96520000D03*
X141822500Y-95250000D03*
X141822500Y-93980000D03*
X141822500Y-92710000D03*
D31*
X139347500Y-94615000D03*
%TD*%
D12*
%TO.C,C12*%
X185830000Y-101600000D03*
X182880000Y-101600000D03*
%TD*%
%TO.C,C8*%
X150270000Y-98945000D03*
X147320000Y-98945000D03*
%TD*%
D13*
%TO.C,C2*%
X162560000Y-68580000D03*
X165510000Y-68580000D03*
%TD*%
D32*
%TO.C,U4*%
X179910000Y-93915000D03*
X181180000Y-93915000D03*
X182450000Y-93915000D03*
X183720000Y-93915000D03*
X183720000Y-88965000D03*
X182450000Y-88965000D03*
X181180000Y-88965000D03*
X179910000Y-88965000D03*
D33*
X181815000Y-91440000D03*
%TD*%
D12*
%TO.C,C22*%
X165510000Y-101600000D03*
X162560000Y-101600000D03*
%TD*%
D28*
%TO.C,BT1*%
X166575000Y-53340000D03*
D29*
X164035000Y-53340000D03*
%TD*%
D13*
%TO.C,C9*%
X147320000Y-88785000D03*
X150270000Y-88785000D03*
%TD*%
D21*
%TO.C,R6*%
X130835000Y-91440000D03*
X133760000Y-91440000D03*
%TD*%
D34*
%TO.C,SW2*%
X149675000Y-115260000D03*
X154975000Y-115260000D03*
X160275000Y-115260000D03*
X149675000Y-119960000D03*
X154975000Y-119960000D03*
X160275000Y-119960000D03*
X149675000Y-124660000D03*
X154975000Y-124660000D03*
X160275000Y-124660000D03*
%TD*%
D12*
%TO.C,C6*%
X132170000Y-78700000D03*
X129220000Y-78700000D03*
%TD*%
D10*
%TO.C,REF\u002A\u002A*%
X184355000Y-45720000D03*
%TD*%
%TO.C,REF\u002A\u002A*%
X125935000Y-45720000D03*
%TD*%
D11*
%TO.C,R10*%
X175657500Y-96520000D03*
X172732500Y-96520000D03*
%TD*%
D28*
%TO.C,SW1*%
X174195000Y-53340000D03*
D29*
X176735000Y-53340000D03*
%TD*%
D27*
%TO.C,C18*%
X181815000Y-68990000D03*
X181815000Y-66040000D03*
%TD*%
D12*
%TO.C,C20*%
X175670000Y-81280000D03*
X172720000Y-81280000D03*
%TD*%
%TO.C,C19*%
X170590000Y-101600000D03*
X167640000Y-101600000D03*
%TD*%
D11*
%TO.C,R9*%
X170577500Y-96520000D03*
X167652500Y-96520000D03*
%TD*%
D20*
%TO.C,J1*%
X134645000Y-131585000D03*
X134645000Y-147815000D03*
X140995000Y-131585000D03*
X140995000Y-147815000D03*
X128295000Y-131585000D03*
X128295000Y-147815000D03*
%TD*%
D35*
%TO.C,U1*%
X146255000Y-63920000D03*
X146255000Y-64720000D03*
X146255000Y-65520000D03*
X146255000Y-66320000D03*
X146255000Y-67120000D03*
X146255000Y-67920000D03*
X146255000Y-68720000D03*
X146255000Y-69520000D03*
X146255000Y-70320000D03*
X146255000Y-71120000D03*
X146255000Y-71920000D03*
D36*
X147955000Y-73620000D03*
X148755000Y-73620000D03*
X149555000Y-73620000D03*
X150355000Y-73620000D03*
X151155000Y-73620000D03*
X151955000Y-73620000D03*
X152755000Y-73620000D03*
X153555000Y-73620000D03*
X154355000Y-73620000D03*
X155155000Y-73620000D03*
X155955000Y-73620000D03*
D35*
X157655000Y-71920000D03*
X157655000Y-71120000D03*
X157655000Y-70320000D03*
X157655000Y-69520000D03*
X157655000Y-68720000D03*
X157655000Y-67920000D03*
X157655000Y-67120000D03*
X157655000Y-66320000D03*
X157655000Y-65520000D03*
X157655000Y-64720000D03*
X157655000Y-63920000D03*
D36*
X155955000Y-62220000D03*
X155155000Y-62220000D03*
X154355000Y-62220000D03*
X153555000Y-62220000D03*
X152755000Y-62220000D03*
X151955000Y-62220000D03*
X151155000Y-62220000D03*
X150355000Y-62220000D03*
X149555000Y-62220000D03*
X148755000Y-62220000D03*
X147955000Y-62220000D03*
%TD*%
D21*
%TO.C,R1*%
X170192500Y-73660000D03*
X173117500Y-73660000D03*
%TD*%
D10*
%TO.C,REF\u002A\u002A*%
X125935000Y-116840000D03*
%TD*%
D11*
%TO.C,R13*%
X165497500Y-86360000D03*
X162572500Y-86360000D03*
%TD*%
D12*
%TO.C,C21*%
X180750000Y-81280000D03*
X177800000Y-81280000D03*
%TD*%
D13*
%TO.C,C4*%
X162560000Y-73660000D03*
X165510000Y-73660000D03*
%TD*%
G36*
X184797816Y-40658333D02*
G01*
X184797860Y-40658337D01*
X185237285Y-40716188D01*
X185237328Y-40716196D01*
X185670039Y-40812125D01*
X185670081Y-40812137D01*
X186092784Y-40945414D01*
X186092825Y-40945429D01*
X186502304Y-41115040D01*
X186502343Y-41115059D01*
X186895481Y-41319714D01*
X186895519Y-41319736D01*
X187269324Y-41557876D01*
X187269359Y-41557901D01*
X187620987Y-41827714D01*
X187621021Y-41827742D01*
X187947794Y-42127175D01*
X187947825Y-42127206D01*
X188247258Y-42453979D01*
X188247286Y-42454013D01*
X188517099Y-42805641D01*
X188517124Y-42805676D01*
X188755264Y-43179481D01*
X188755286Y-43179519D01*
X188959941Y-43572657D01*
X188959960Y-43572696D01*
X189129571Y-43982175D01*
X189129586Y-43982216D01*
X189262863Y-44404919D01*
X189262875Y-44404961D01*
X189358804Y-44837672D01*
X189358812Y-44837715D01*
X189416663Y-45277140D01*
X189416667Y-45277184D01*
X189436000Y-45719978D01*
X189436000Y-149860022D01*
X189416667Y-150302816D01*
X189416663Y-150302860D01*
X189358812Y-150742285D01*
X189358804Y-150742328D01*
X189262875Y-151175039D01*
X189262863Y-151175081D01*
X189129586Y-151597784D01*
X189129571Y-151597825D01*
X188959960Y-152007304D01*
X188959941Y-152007343D01*
X188755286Y-152400481D01*
X188755264Y-152400519D01*
X188517124Y-152774324D01*
X188517099Y-152774359D01*
X188247286Y-153125987D01*
X188247258Y-153126021D01*
X187947825Y-153452794D01*
X187947794Y-153452825D01*
X187621021Y-153752258D01*
X187620987Y-153752286D01*
X187269359Y-154022099D01*
X187269324Y-154022124D01*
X186895519Y-154260264D01*
X186895481Y-154260286D01*
X186502343Y-154464941D01*
X186502304Y-154464960D01*
X186092825Y-154634571D01*
X186092784Y-154634586D01*
X185670081Y-154767863D01*
X185670039Y-154767875D01*
X185237328Y-154863804D01*
X185237285Y-154863812D01*
X184797860Y-154921663D01*
X184797816Y-154921667D01*
X184355022Y-154941000D01*
X125934978Y-154941000D01*
X125492184Y-154921667D01*
X125492140Y-154921663D01*
X125052715Y-154863812D01*
X125052672Y-154863804D01*
X124619961Y-154767875D01*
X124619919Y-154767863D01*
X124197216Y-154634586D01*
X124197175Y-154634571D01*
X123787696Y-154464960D01*
X123787657Y-154464941D01*
X123394519Y-154260286D01*
X123394481Y-154260264D01*
X123020676Y-154022124D01*
X123020641Y-154022099D01*
X122669013Y-153752286D01*
X122668979Y-153752258D01*
X122342206Y-153452825D01*
X122342175Y-153452794D01*
X122042742Y-153126021D01*
X122042714Y-153125987D01*
X121772901Y-152774359D01*
X121772876Y-152774324D01*
X121534736Y-152400519D01*
X121534714Y-152400481D01*
X121330059Y-152007343D01*
X121330040Y-152007304D01*
X121160429Y-151597825D01*
X121160414Y-151597784D01*
X121027137Y-151175081D01*
X121027125Y-151175039D01*
X120931196Y-150742328D01*
X120931188Y-150742285D01*
X120873337Y-150302860D01*
X120873333Y-150302816D01*
X120854000Y-149860022D01*
X120854000Y-45719978D01*
X120873333Y-45277184D01*
X120873337Y-45277140D01*
X120931188Y-44837715D01*
X120931196Y-44837672D01*
X121027125Y-44404961D01*
X121027137Y-44404919D01*
X121160414Y-43982216D01*
X121160429Y-43982175D01*
X121330040Y-43572696D01*
X121330059Y-43572657D01*
X121534714Y-43179519D01*
X121534736Y-43179481D01*
X121772876Y-42805676D01*
X121772901Y-42805641D01*
X122042714Y-42454013D01*
X122042742Y-42453979D01*
X122342175Y-42127206D01*
X122342206Y-42127175D01*
X122668979Y-41827742D01*
X122669013Y-41827714D01*
X123020641Y-41557901D01*
X123020676Y-41557876D01*
X123394481Y-41319736D01*
X123394519Y-41319714D01*
X123787657Y-41115059D01*
X123787696Y-41115040D01*
X124197175Y-40945429D01*
X124197216Y-40945414D01*
X124619919Y-40812137D01*
X124619961Y-40812125D01*
X125052672Y-40716196D01*
X125052715Y-40716188D01*
X125492140Y-40658337D01*
X125492184Y-40658333D01*
X125934978Y-40639000D01*
X184355022Y-40639000D01*
X184797816Y-40658333D01*
G37*
M02*
